<?xml version="1.0" encoding="UTF-8" standalone="no"?>
<!-- Created with Inkscape (http://www.inkscape.org/) -->
<svg
   xmlns:dc="http://purl.org/dc/elements/1.1/"
   xmlns:cc="http://creativecommons.org/ns#"
   xmlns:rdf="http://www.w3.org/1999/02/22-rdf-syntax-ns#"
   xmlns:svg="http://www.w3.org/2000/svg"
   xmlns="http://www.w3.org/2000/svg"
   xmlns:sodipodi="http://sodipodi.sourceforge.net/DTD/sodipodi-0.dtd"
   xmlns:inkscape="http://www.inkscape.org/namespaces/inkscape"
   width="64px"
   height="64px"
   id="svg2816"
   version="1.1"
   inkscape:version="0.46"
   sodipodi:docname="accessibility.svg"
   inkscape:export-filename="/home/rob/.kde4/share/icons/nmfnms/48x48/actions/document-open.png"
   inkscape:export-xdpi="67.5"
   inkscape:export-ydpi="67.5"
   sodipodi:version="0.32"
   inkscape:output_extension="org.inkscape.output.svg.inkscape">
  <defs
     id="defs2818">
    <inkscape:perspective
       sodipodi:type="inkscape:persp3d"
       inkscape:vp_x="0 : 32 : 1"
       inkscape:vp_y="0 : 1000 : 0"
       inkscape:vp_z="64 : 32 : 1"
       inkscape:persp3d-origin="32 : 21.333333 : 1"
       id="perspective2824" />
  </defs>
  <sodipodi:namedview
     id="base"
     pagecolor="#ffffff"
     bordercolor="#666666"
     borderopacity="1.0"
     inkscape:pageopacity="0.0"
     inkscape:pageshadow="2"
     inkscape:zoom="5.0311945"
     inkscape:cx="-53.76598"
     inkscape:cy="39.91577"
     inkscape:current-layer="layer1"
     showgrid="true"
     inkscape:document-units="px"
     inkscape:grid-bbox="true"
     inkscape:window-width="1440"
     inkscape:window-height="851"
     inkscape:window-x="-4"
     inkscape:window-y="-1"
     inkscape:window-maximized="0">
    <inkscape:grid
       type="xygrid"
       id="grid2826"
       empspacing="4"
       visible="true"
       enabled="true"
       snapvisiblegridlinesonly="true" />
  </sodipodi:namedview>
  <metadata
     id="metadata2821">
    <rdf:RDF>
      <cc:Work
         rdf:about="">
        <dc:format>image/svg+xml</dc:format>
        <dc:type
           rdf:resource="http://purl.org/dc/dcmitype/StillImage" />
        <dc:title />
      </cc:Work>
    </rdf:RDF>
  </metadata>
  <g
     id="layer1"
     inkscape:label="Layer 1"
     inkscape:groupmode="layer"
     style="opacity:1">
    <path
       style="opacity:1;fill:#000000;fill-opacity:1;fill-rule:nonzero;stroke:none"
       d="M 32 -0.1875 C 31.573657 -0.1875 31.1647 -0.090424881 30.78125 0.03125 C 31.184027 0.016228068 31.59355 8.1764655e-17 32 0 C 32.40645 -1.6772091e-16 32.815973 0.016228068 33.21875 0.03125 C 32.833422 -0.090424881 32.426343 -0.1875 32 -0.1875 z M 32 4 C 30.649071 4 29.331083 4.0963127 28.03125 4.28125 L 28.03125 16.5 C 29.303749 16.174232 30.62595 16 32 16 C 33.387374 16 34.71636 16.199338 36 16.53125 L 36 4.28125 C 34.6902 4.0933843 33.361772 4 32 4 z M 4.28125 28 C 4.0933843 29.3098 4 30.638228 4 32 C 4 33.361772 4.0933843 34.6902 4.28125 36 L 16.53125 36 C 16.199338 34.71636 16 33.387374 16 32 C 16 30.612626 16.199338 29.28364 16.53125 28 L 4.28125 28 z M 47.46875 28 C 47.800662 29.28364 48 30.612626 48 32 C 48 33.387374 47.800662 34.71636 47.46875 36 L 59.71875 36 C 59.906616 34.6902 60 33.361772 60 32 C 60 30.638228 59.906616 29.3098 59.71875 28 L 47.46875 28 z M 36 47.46875 C 34.71636 47.800662 33.387374 48 32 48 C 30.62595 48 29.303749 47.825768 28.03125 47.5 L 28.03125 59.71875 C 29.331083 59.903687 30.649071 60 32 60 C 33.361772 60 34.6902 59.906616 36 59.71875 L 36 47.46875 z "
       id="rect2898" />
    <path
       style="opacity:1;fill:#000000;fill-opacity:1;fill-rule:nonzero;stroke:none"
       d="M 32 0 C 14.326888 3.5527137e-15 -6.3297966e-17 14.326888 0 32 C 0 49.673112 14.326888 64 32 64 C 49.673112 64 64 49.673112 64 32 C 64 14.326888 49.673112 -7.1687253e-15 32 0 z M 32 4 C 47.463973 4 60 16.536027 60 32 C 60 47.463973 47.463973 60 32 60 C 16.536027 60 4 47.463973 4 32 C 4 16.536027 16.536027 4 32 4 z "
       id="path2891" />
    <path
       sodipodi:type="arc"
       style="opacity:1;fill:#000000;fill-opacity:1;fill-rule:nonzero;stroke:none"
       id="path2911"
       sodipodi:cx="32"
       sodipodi:cy="32"
       sodipodi:rx="12"
       sodipodi:ry="12"
       d="m 44,32 a 12,12 0 1 1 -24,0 12,12 0 1 1 24,0 z" />
  </g>
</svg>
