<?xml version="1.0" encoding="UTF-8" standalone="no"?>
<!-- Created with Inkscape (http://www.inkscape.org/) -->
<svg
   xmlns:dc="http://purl.org/dc/elements/1.1/"
   xmlns:cc="http://creativecommons.org/ns#"
   xmlns:rdf="http://www.w3.org/1999/02/22-rdf-syntax-ns#"
   xmlns:svg="http://www.w3.org/2000/svg"
   xmlns="http://www.w3.org/2000/svg"
   xmlns:sodipodi="http://sodipodi.sourceforge.net/DTD/sodipodi-0.dtd"
   xmlns:inkscape="http://www.inkscape.org/namespaces/inkscape"
   width="128"
   height="128"
   id="svg2"
   sodipodi:version="0.32"
   inkscape:version="0.46"
   version="1.0"
   sodipodi:docname="address-book-new.svg"
   inkscape:output_extension="org.inkscape.output.svg.inkscape">
  <defs
     id="defs4">
    <inkscape:perspective
       sodipodi:type="inkscape:persp3d"
       inkscape:vp_x="0 : 526.18109 : 1"
       inkscape:vp_y="0 : 1000 : 0"
       inkscape:vp_z="744.09448 : 526.18109 : 1"
       inkscape:persp3d-origin="372.04724 : 350.78739 : 1"
       id="perspective10" />
    <inkscape:perspective
       sodipodi:type="inkscape:persp3d"
       inkscape:vp_x="0 : 526.18109 : 1"
       inkscape:vp_y="0 : 1000 : 0"
       inkscape:vp_z="744.09448 : 526.18109 : 1"
       inkscape:persp3d-origin="372.04724 : 350.78739 : 1"
       id="perspective3411" />
    <inkscape:perspective
       sodipodi:type="inkscape:persp3d"
       inkscape:vp_x="0 : 526.18109 : 1"
       inkscape:vp_y="0 : 1000 : 0"
       inkscape:vp_z="744.09448 : 526.18109 : 1"
       inkscape:persp3d-origin="372.04724 : 350.78739 : 1"
       id="perspective3258" />
    <linearGradient
       id="linearGradient4622">
      <stop
         id="stop4624"
         offset="0"
         style="stop-color:#dabce7;stop-opacity:1;" />
      <stop
         id="stop4626"
         offset="1"
         style="stop-color:#efe8ef;stop-opacity:1;" />
    </linearGradient>
    <inkscape:perspective
       id="perspective11"
       inkscape:persp3d-origin="24 : 16 : 1"
       inkscape:vp_z="48 : 24 : 1"
       inkscape:vp_y="0 : 1000 : 0"
       inkscape:vp_x="0 : 24 : 1"
       sodipodi:type="inkscape:persp3d" />
  </defs>
  <sodipodi:namedview
     id="base"
     pagecolor="#ffffff"
     bordercolor="#666666"
     borderopacity="1.0"
     inkscape:pageopacity="0.0"
     inkscape:pageshadow="2"
     inkscape:zoom="1.4"
     inkscape:cx="-15.472264"
     inkscape:cy="147.97552"
     inkscape:document-units="px"
     inkscape:current-layer="layer1"
     showgrid="false"
     width="524.41px"
     borderlayer="false"
     inkscape:showpageshadow="false"
     inkscape:window-width="1440"
     inkscape:window-height="851"
     inkscape:window-x="-4"
     inkscape:window-y="-1" />
  <metadata
     id="metadata7">
    <rdf:RDF>
      <cc:Work
         rdf:about="">
        <dc:format>image/svg+xml</dc:format>
        <dc:type
           rdf:resource="http://purl.org/dc/dcmitype/StillImage" />
      </cc:Work>
    </rdf:RDF>
  </metadata>
  <g
     inkscape:label="Capa 1"
     inkscape:groupmode="layer"
     id="layer1">
    <path
       style="opacity:1;fill:#000000;fill-opacity:1;stroke:none;stroke-width:3;stroke-miterlimit:4;stroke-dasharray:none;stroke-opacity:1"
       d="M 19.615848,0.59691994 C 9.1741275,0.59691994 0.76839829,8.6485345 0.76839829,18.655929 L 0.76839829,109.06361 C 0.76839829,119.071 9.1741275,127.12262 19.615848,127.12262 L 108.44666,127.12262 C 118.88838,127.12262 127.2941,119.071 127.2941,109.06361 L 127.2941,18.655929 C 127.2941,8.6485345 118.88838,0.59691994 108.44666,0.59691994 L 19.615848,0.59691994 z M 25.472824,8.9693923 L 102.55214,8.9693923 C 111.61279,8.9693923 118.92163,15.979313 118.92163,24.663084 L 118.92163,59.091592 L 89.036034,59.091592 L 89.073578,27.403849 L 77.284537,27.291215 L 77.284537,59.129137 L 46.648046,59.091592 L 46.648046,71.218536 L 77.397171,71.218536 L 77.397171,100.3157 L 89.148668,100.42833 L 89.111123,71.218536 L 118.92163,71.105902 L 118.92163,103.094 C 118.92163,111.77777 111.61279,118.75015 102.55214,118.75015 L 25.472824,118.75015 C 22.592468,118.75015 19.893471,118.03805 17.550888,116.79782 L 17.550888,116.30974 L 24.834564,111.09102 C 25.372901,111.25145 25.929756,111.35384 26.524076,111.35384 L 36.173069,111.35384 C 39.352503,111.35384 41.954956,108.90369 41.954956,105.83476 L 41.954956,91.755497 C 41.954957,88.686563 39.352505,86.198879 36.173069,86.198879 L 26.524076,86.198879 C 25.913955,86.198883 25.347784,86.292964 24.797019,86.461692 L 17.663523,81.280521 L 24.834564,76.09935 C 25.372902,76.259778 25.929756,76.362163 26.524076,76.362163 L 36.173069,76.362163 C 39.352504,76.362164 41.954956,73.912024 41.954956,70.843089 L 41.954956,56.763819 C 41.954953,53.694881 39.352504,51.207201 36.173069,51.207201 L 26.524076,51.207201 C 25.913956,51.207201 25.347784,51.301286 24.797019,51.470014 L 17.550888,46.176208 L 17.550888,46.101119 L 24.909653,40.807314 C 25.447991,40.967743 26.004844,41.070127 26.599166,41.070127 L 36.285703,41.070127 C 39.465138,41.070128 42.030045,38.619988 42.030045,35.551053 L 42.030045,21.471783 C 42.030045,18.402849 39.465138,15.915165 36.285703,15.915165 L 26.599166,15.915165 C 25.989043,15.915165 25.422875,16.00925 24.872109,16.177978 L 17.625978,10.884173 C 19.951488,9.6628667 22.622471,8.9693923 25.472824,8.9693923 z"
       id="rect2403" />
    <rect
       style="opacity:0.66000001;fill:#000000;fill-opacity:1;stroke:none;stroke-width:3;stroke-miterlimit:4;stroke-dasharray:none;stroke-opacity:1"
       id="rect3181"
       width="0.98214287"
       height="0"
       x="38.660713"
       y="20.142857"
       rx="5.7008772"
       ry="0" />
  </g>
</svg>
