<?xml version="1.0" encoding="UTF-8" standalone="no"?>
<!-- Created with Inkscape (http://www.inkscape.org/) -->

<svg
   xmlns:dc="http://purl.org/dc/elements/1.1/"
   xmlns:cc="http://creativecommons.org/ns#"
   xmlns:rdf="http://www.w3.org/1999/02/22-rdf-syntax-ns#"
   xmlns:svg="http://www.w3.org/2000/svg"
   xmlns="http://www.w3.org/2000/svg"
   version="1.1"
   width="128"
   height="128"
   id="svg2">
  <defs
     id="defs4" />
  <metadata
     id="metadata7">
    <rdf:RDF>
      <cc:Work
         rdf:about="">
        <dc:format>image/svg+xml</dc:format>
        <dc:type
           rdf:resource="http://purl.org/dc/dcmitype/StillImage" />
        <dc:title></dc:title>
      </cc:Work>
    </rdf:RDF>
  </metadata>
  <g
     transform="translate(0,-924.36218)"
     id="layer1">
    <g
       transform="matrix(0.24999996,0,0,0.24999996,76.062503,731.0373)"
       id="g4162">
      <g
         id="g4157">
        <path
           d="m 64.21875,924.36218 c -20.568211,0.0393 -41.11562,7.86601 -48.375,23.5 -14.5296198,31.2914 19.298714,104.24162 48.375,104.50002 l 0,-128.00002 z m -0.46875,7.0625 0,113.87502 C 37.882301,1045.0698 7.7924825,980.16931 20.71875,952.33093 27.177053,938.42216 45.451503,931.45967 63.75,931.42468 z"
           id="path2391"
           style="fill:#000000;fill-opacity:1;stroke:none" />
        <path
           d="m 64,0 0,128 C 93.07629,127.7416 126.90462,54.79139 112.375,23.5 105.11562,7.86601 84.56821,0.03933 64,0 z m 20.53125,50.28125 c 9.032799,-0.2863 16.78125,8.25 16.78125,8.25 -5.185518,-0.27108 -9.604876,10.7021 -27.21875,2.4375 C 73.825808,60.522149 73.60718,60.1518 73.25,60.375 72.892828,60.598199 72.16573,62.02285 70.78125,60.90625 69.396768,59.789719 71.5,57.21875 71.5,57.21875 c 4.423891,-4.98214 8.925431,-6.80736 13.03125,-6.9375 z"
           transform="translate(0,924.36218)"
           id="path2557"
           style="fill:#000000;fill-opacity:1;stroke:none" />
        <path
           d="m 43.682141,974.65431 c -9.032801,-0.2863 -16.765001,8.24015 -16.765001,8.24015 5.185517,-0.27108 9.588627,10.71196 27.202501,2.44736 0.26794,-0.4466 0.48657,-0.8169 0.84375,-0.5937 0.35717,0.2232 1.08427,1.6478 2.46875,0.5312 1.384479,-1.11653 -0.71875,-3.68751 -0.71875,-3.68751 -4.423893,-4.98214 -8.925431,-6.80736 -13.03125,-6.9375 z"
           id="path3249" />
      </g>
    </g>
    <rect
       width="120"
       height="72"
       rx="16"
       ry="16"
       x="4"
       y="952.36218"
       id="rect3295"
       style="fill:none;stroke:#000000;stroke-width:8" />
    <g
       transform="translate(-21.999172,0)"
       id="g4096">
      <path
         d="m 64,970.36041 0,36.00349"
         id="path3299"
         style="fill:none;stroke:#000000;stroke-width:8;stroke-linecap:round;stroke-linejoin:miter;stroke-opacity:1" />
      <path
         d="m 45.999172,988.36218 36.001656,0"
         id="path3301"
         style="fill:none;stroke:#000000;stroke-width:8;stroke-linecap:round;stroke-linejoin:miter;stroke-opacity:1" />
    </g>
  </g>
</svg>
