<?xml version="1.0" encoding="UTF-8" standalone="no"?>
<!-- Created with Inkscape (http://www.inkscape.org/) -->
<svg
   xmlns:dc="http://purl.org/dc/elements/1.1/"
   xmlns:cc="http://creativecommons.org/ns#"
   xmlns:rdf="http://www.w3.org/1999/02/22-rdf-syntax-ns#"
   xmlns:svg="http://www.w3.org/2000/svg"
   xmlns="http://www.w3.org/2000/svg"
   xmlns:sodipodi="http://sodipodi.sourceforge.net/DTD/sodipodi-0.dtd"
   xmlns:inkscape="http://www.inkscape.org/namespaces/inkscape"
   id="svg4776"
   sodipodi:version="0.32"
   inkscape:version="0.46"
   width="128"
   height="128"
   version="1.0"
   sodipodi:docname="amarok.svg"
   inkscape:output_extension="org.inkscape.output.svg.inkscape">
  <metadata
     id="metadata4781">
    <rdf:RDF>
      <cc:Work
         rdf:about="">
        <dc:format>image/svg+xml</dc:format>
        <dc:type
           rdf:resource="http://purl.org/dc/dcmitype/StillImage" />
      </cc:Work>
    </rdf:RDF>
  </metadata>
  <defs
     id="defs4779">
    <inkscape:perspective
       sodipodi:type="inkscape:persp3d"
       inkscape:vp_x="0 : 526.18109 : 1"
       inkscape:vp_y="0 : 1000 : 0"
       inkscape:vp_z="744.09448 : 526.18109 : 1"
       inkscape:persp3d-origin="372.04724 : 350.78739 : 1"
       id="perspective4783" />
  </defs>
  <sodipodi:namedview
     inkscape:window-height="830"
     inkscape:window-width="1022"
     inkscape:pageshadow="2"
     inkscape:pageopacity="0.0"
     guidetolerance="10.0"
     gridtolerance="10.0"
     objecttolerance="10.0"
     borderopacity="1.0"
     bordercolor="#666666"
     pagecolor="#ffffff"
     id="base"
     showgrid="false"
     inkscape:zoom="3.609375"
     inkscape:cx="-38.095238"
     inkscape:cy="64"
     inkscape:window-x="0"
     inkscape:window-y="20"
     inkscape:current-layer="svg4776" />
  <path
     style="opacity:1;fill:#000000;stroke:none"
     d="M 109.10444,0.31748709 C 95.647872,11.271258 82.60772,18.851332 72.791876,28.965978 L 56.487456,29.684185 L 36.559831,47.719168 L 27.864141,48.756578 C 20.900576,57.932047 10.112446,61.65207 0.32778706,65.235445 C 4.5183151,71.053334 4.8079899,76.125454 18.484067,84.507341 C 17.207767,88.902359 14.135254,90.497311 10.955853,93.006126 C 26.246039,113.00732 49.107358,139.31711 92.7195,122.69202 C 91.018646,122.20847 92.439042,98.356471 94.289555,80.357699 C 95.952363,64.184591 102.30719,58.693173 127.86459,46.123152 L 124.72447,37.704166 C 118.964,39.646597 113.93281,44.079528 106.40717,39.898689 C 105.38254,30.216804 115.19487,21.886389 117.55858,10.531991 C 114.74042,5.8388604 111.9226,0.48337831 109.10444,0.31748709 z M 67.196038,37.265261 C 68.577396,37.31555 70.087805,37.589755 71.664657,38.143071 C 70.958796,42.034309 69.074462,45.224444 62.727419,49.115682 L 51.656516,59.050883 C 49.505986,57.709609 53.842906,36.779145 67.196038,37.265261 z"
     id="rect4787" />
</svg>
