<?xml version="1.0" encoding="UTF-8" standalone="no"?>
<!-- Created with Inkscape (http://www.inkscape.org/) -->
<svg
   xmlns:dc="http://purl.org/dc/elements/1.1/"
   xmlns:cc="http://creativecommons.org/ns#"
   xmlns:rdf="http://www.w3.org/1999/02/22-rdf-syntax-ns#"
   xmlns:svg="http://www.w3.org/2000/svg"
   xmlns="http://www.w3.org/2000/svg"
   xmlns:sodipodi="http://sodipodi.sourceforge.net/DTD/sodipodi-0.dtd"
   xmlns:inkscape="http://www.inkscape.org/namespaces/inkscape"
   width="64"
   height="64"
   id="svg2"
   version="1.1"
   inkscape:version="0.46"
   sodipodi:docname="antivirus.svg"
   sodipodi:version="0.32"
   inkscape:output_extension="org.inkscape.output.svg.inkscape">
  <defs
     id="defs4">
    <inkscape:perspective
       sodipodi:type="inkscape:persp3d"
       inkscape:vp_x="0 : 526.18109 : 1"
       inkscape:vp_y="0 : 1000 : 0"
       inkscape:vp_z="744.09448 : 526.18109 : 1"
       inkscape:persp3d-origin="372.04724 : 350.78739 : 1"
       id="perspective10" />
  </defs>
  <sodipodi:namedview
     id="base"
     pagecolor="#ffffff"
     bordercolor="#666666"
     borderopacity="1.0"
     inkscape:pageopacity="0.0"
     inkscape:pageshadow="2"
     inkscape:zoom="4.3973203"
     inkscape:cx="-20.563787"
     inkscape:cy="41.439666"
     inkscape:document-units="px"
     inkscape:current-layer="layer1"
     showgrid="true"
     inkscape:window-width="1440"
     inkscape:window-height="851"
     inkscape:window-x="-4"
     inkscape:window-y="-1"
     inkscape:window-maximized="1">
    <inkscape:grid
       type="xygrid"
       id="grid2816"
       empspacing="4"
       visible="true"
       enabled="true"
       snapvisiblegridlinesonly="true" />
  </sodipodi:namedview>
  <metadata
     id="metadata7">
    <rdf:RDF>
      <cc:Work
         rdf:about="">
        <dc:format>image/svg+xml</dc:format>
        <dc:type
           rdf:resource="http://purl.org/dc/dcmitype/StillImage" />
        <dc:title />
      </cc:Work>
    </rdf:RDF>
  </metadata>
  <g
     inkscape:label="Layer 1"
     inkscape:groupmode="layer"
     id="layer1"
     transform="translate(0,-988.36218)">
    <path
       style="opacity:1;fill:#000000;fill-opacity:1;fill-rule:nonzero;stroke:none"
       d="M 17.541909,988.51843 C 17.547975,988.69905 17.576003,988.87436 17.576003,989.05644 C 17.576003,992.08201 16.726174,994.90828 15.2576,997.32842 C 19.748744,1001.5429 24.729776,1007.525 28.82708,1010.7787 C 29.418399,1010.654 30.039103,1010.577 30.668165,1010.577 C 31.489118,1010.577 32.270418,1010.7016 33.020663,1010.9132 C 32.453211,1012.3495 31.913853,1013.7817 31.418237,1014.982 C 32.010373,1015.0831 32.57007,1015.2761 33.054757,1015.5873 C 33.533166,1014.3877 34.134608,1013.0007 34.725371,1011.5858 C 35.475144,1011.9816 36.169242,1012.4816 36.771021,1013.0653 C 36.776866,1013.071 36.799286,1013.0596 36.805115,1013.0653 C 42.097754,1012.4795 49.676289,1010.0302 55.795568,1008.8621 C 55.919698,1005.7486 56.924995,1002.8731 58.59129,1000.4556 C 55.549638,998.52654 51.013264,1005.3166 36.055044,1000.9937 C 21.204655,996.70178 21.06283,988.63617 17.541909,988.51843 z M 9.2229318,1003.112 C 6.8532637,1004.4282 4.1241508,1005.1968 1.2108018,1005.1968 C 0.89958341,1005.1968 0.59719027,1005.1802 0.29025916,1005.1633 C 0.78805216,1008.3324 8.461615,1009.3694 11.984559,1023.6575 C 15.439291,1037.6689 9.4365436,1042.1669 10.177569,1045.2117 C 12.654662,1043.7243 15.554865,1042.8579 18.667017,1042.8579 C 18.863143,1042.8579 19.052161,1042.8848 19.246618,1042.8915 C 20.739458,1037.0238 23.421897,1029.9874 24.224367,1024.9689 C 23.274542,1023.9409 22.572985,1022.6906 22.212811,1021.3037 C 20.847544,1021.5118 19.511224,1021.6894 18.257887,1021.8417 C 20.925186,1021.5103 24.142769,1020.9623 26.576864,1020.6312 C 26.41317,1020.1789 26.304111,1019.693 26.304111,1019.1852 C 26.304111,1019.0938 26.332497,1019.0064 26.338205,1018.9162 C 25.030423,1019.11 23.500709,1019.312 21.940057,1019.5215 C 21.935757,1019.4112 21.940057,1019.2967 21.940057,1019.1852 C 21.940057,1018.4407 22.066745,1017.7223 22.246905,1017.0332 C 19.140264,1012.8665 13.310771,1007.7126 9.2229318,1003.112 z M 57.602559,1016.9323 C 51.641118,1018.6721 43.870151,1019.9615 38.953048,1021.8417 C 38.507941,1023.1939 37.745138,1024.3785 36.736927,1025.3388 C 35.761321,1024.1452 34.778989,1022.9954 33.975299,1021.9762 C 33.602323,1022.4072 33.162622,1022.7597 32.645627,1023.0186 C 34.20802,1024.9541 36.21039,1027.6105 37.930223,1029.6765 C 37.086313,1028.6718 36.19948,1027.5936 35.304972,1026.4484 C 34.595503,1026.8872 33.816322,1027.2318 32.986568,1027.4572 C 30.906319,1032.1422 29.288536,1039.5778 27.326936,1045.3462 C 29.999057,1046.9995 32.158914,1049.3635 33.497981,1052.2059 C 36.122437,1050.2402 33.076017,1043.1237 43.930797,1032.9046 C 54.810671,1022.662 61.883576,1026.0241 63.978169,1023.4893 C 61.26598,1021.9496 59.048449,1019.6784 57.602559,1016.9323 z M 15.871295,1020.463 C 15.900205,1020.4569 15.944326,1020.4692 15.973577,1020.463 C 15.406078,1020.5826 14.890867,1020.7037 14.473434,1020.8329 C 14.874951,1020.7067 15.325527,1020.5798 15.871295,1020.463 z"
       id="path3655" />
    <path
       style="opacity:1;fill:#000000;fill-opacity:1;fill-rule:nonzero;stroke:none"
       d="M 8.0296359,995.37811 C 7.9271646,995.39928 7.8292014,995.44454 7.7568825,995.51262 C 6.0847589,997.08682 17.042967,1007.388 23.576577,1014.175 C 24.210656,1013.3036 25.016042,1012.5752 25.929075,1011.9893 C 19.642832,1005.5289 10.296469,994.90999 8.0296359,995.37811 z M 61.455201,1010.846 C 57.463214,1010.6501 46.242091,1013.8112 38.612106,1015.6209 C 39.053953,1016.5791 39.339445,1017.6408 39.396272,1018.7481 C 48.612509,1016.5131 63.467021,1013.6648 62.92125,1011.4513 C 62.826755,1011.0681 62.291107,1010.8871 61.455201,1010.846 z M 26.679147,1026.8519 C 24.032773,1035.8418 19.110674,1049.9515 21.326362,1050.5918 C 23.541896,1051.2322 27.090052,1036.7368 29.781716,1027.7599 C 28.677415,1027.6493 27.622749,1027.3302 26.679147,1026.8519 z"
       id="path3667" />
    <path
       style="opacity:1;fill:#000000;fill-opacity:1;fill-rule:nonzero;stroke:none"
       d="M 30.668165,1014.8811 C 28.350766,1014.8811 26.480738,1016.6661 26.338205,1018.9162 C 27.211916,1018.7868 27.979947,1018.6709 28.58842,1018.5464 C 28.848438,1017.7218 29.594133,1017.1024 30.497694,1017.0332 C 30.759257,1016.4838 31.086122,1015.7864 31.418237,1014.982 C 31.174746,1014.9405 30.923699,1014.8811 30.668165,1014.8811 z M 33.054757,1015.5873 C 32.7244,1016.4155 32.460247,1017.1523 32.270591,1017.7394 C 32.625384,1018.1221 32.850192,1018.6258 32.850192,1019.1852 C 32.850192,1019.5249 32.753673,1019.8411 32.611533,1020.1267 C 32.959245,1020.6442 33.420767,1021.2729 33.975299,1021.9762 C 34.625928,1021.2245 35.032219,1020.2511 35.032219,1019.1852 C 35.032219,1017.6731 34.250623,1016.3549 33.054757,1015.5873 z M 28.861174,1020.3622 C 28.231014,1020.4104 27.486158,1020.5074 26.576864,1020.6312 C 27.179531,1022.2963 28.772783,1023.4893 30.668165,1023.4893 C 31.378176,1023.4893 32.053103,1023.3153 32.645627,1023.0186 C 32.089226,1022.3293 31.571943,1021.7545 31.145483,1021.3037 C 30.993604,1021.3367 30.830101,1021.3373 30.668165,1021.3373 C 29.904423,1021.3373 29.25103,1020.9482 28.861174,1020.3622 z"
       id="path3675" />
  </g>
</svg>
