<?xml version="1.0" encoding="UTF-8" standalone="no"?>
<!-- Created with Inkscape (http://www.inkscape.org/) -->
<svg
   xmlns:dc="http://purl.org/dc/elements/1.1/"
   xmlns:cc="http://creativecommons.org/ns#"
   xmlns:rdf="http://www.w3.org/1999/02/22-rdf-syntax-ns#"
   xmlns:svg="http://www.w3.org/2000/svg"
   xmlns="http://www.w3.org/2000/svg"
   xmlns:sodipodi="http://sodipodi.sourceforge.net/DTD/sodipodi-0.dtd"
   xmlns:inkscape="http://www.inkscape.org/namespaces/inkscape"
   width="128"
   height="128"
   id="svg2"
   sodipodi:version="0.32"
   inkscape:version="0.46"
   version="1.0"
   sodipodi:docname="applications-other.svg"
   inkscape:output_extension="org.inkscape.output.svg.inkscape">
  <defs
     id="defs4">
    <inkscape:perspective
       sodipodi:type="inkscape:persp3d"
       inkscape:vp_x="0 : 526.18109 : 1"
       inkscape:vp_y="0 : 1000 : 0"
       inkscape:vp_z="744.09448 : 526.18109 : 1"
       inkscape:persp3d-origin="372.04724 : 350.78739 : 1"
       id="perspective10" />
    <inkscape:perspective
       sodipodi:type="inkscape:persp3d"
       inkscape:vp_x="0 : 526.18109 : 1"
       inkscape:vp_y="0 : 1000 : 0"
       inkscape:vp_z="744.09448 : 526.18109 : 1"
       inkscape:persp3d-origin="372.04724 : 350.78739 : 1"
       id="perspective3411" />
    <inkscape:perspective
       sodipodi:type="inkscape:persp3d"
       inkscape:vp_x="0 : 526.18109 : 1"
       inkscape:vp_y="0 : 1000 : 0"
       inkscape:vp_z="744.09448 : 526.18109 : 1"
       inkscape:persp3d-origin="372.04724 : 350.78739 : 1"
       id="perspective3258" />
    <linearGradient
       id="linearGradient4622">
      <stop
         id="stop4624"
         offset="0"
         style="stop-color:#dabce7;stop-opacity:1;" />
      <stop
         id="stop4626"
         offset="1"
         style="stop-color:#efe8ef;stop-opacity:1;" />
    </linearGradient>
    <inkscape:perspective
       id="perspective11"
       inkscape:persp3d-origin="24 : 16 : 1"
       inkscape:vp_z="48 : 24 : 1"
       inkscape:vp_y="0 : 1000 : 0"
       inkscape:vp_x="0 : 24 : 1"
       sodipodi:type="inkscape:persp3d" />
    <inkscape:perspective
       sodipodi:type="inkscape:persp3d"
       inkscape:vp_x="0 : 526.18109 : 1"
       inkscape:vp_y="0 : 1000 : 0"
       inkscape:vp_z="744.09448 : 526.18109 : 1"
       inkscape:persp3d-origin="372.04724 : 350.78739 : 1"
       id="perspective3385" />
    <inkscape:perspective
       sodipodi:type="inkscape:persp3d"
       inkscape:vp_x="0 : 526.18109 : 1"
       inkscape:vp_y="0 : 1000 : 0"
       inkscape:vp_z="744.09448 : 526.18109 : 1"
       inkscape:persp3d-origin="372.04724 : 350.78739 : 1"
       id="perspective3383" />
    <linearGradient
       id="linearGradient3377">
      <stop
         id="stop3379"
         offset="0"
         style="stop-color:#dabce7;stop-opacity:1;" />
      <stop
         id="stop3381"
         offset="1"
         style="stop-color:#efe8ef;stop-opacity:1;" />
    </linearGradient>
    <inkscape:perspective
       id="perspective3375"
       inkscape:persp3d-origin="24 : 16 : 1"
       inkscape:vp_z="48 : 24 : 1"
       inkscape:vp_y="0 : 1000 : 0"
       inkscape:vp_x="0 : 24 : 1"
       sodipodi:type="inkscape:persp3d" />
    <inkscape:perspective
       sodipodi:type="inkscape:persp3d"
       inkscape:vp_x="0 : 526.18109 : 1"
       inkscape:vp_y="0 : 1000 : 0"
       inkscape:vp_z="744.09448 : 526.18109 : 1"
       inkscape:persp3d-origin="372.04724 : 350.78739 : 1"
       id="perspective3567" />
    <inkscape:perspective
       sodipodi:type="inkscape:persp3d"
       inkscape:vp_x="0 : 526.18109 : 1"
       inkscape:vp_y="0 : 1000 : 0"
       inkscape:vp_z="744.09448 : 526.18109 : 1"
       inkscape:persp3d-origin="372.04724 : 350.78739 : 1"
       id="perspective3565" />
    <linearGradient
       id="linearGradient3559">
      <stop
         id="stop3561"
         offset="0"
         style="stop-color:#dabce7;stop-opacity:1;" />
      <stop
         id="stop3563"
         offset="1"
         style="stop-color:#efe8ef;stop-opacity:1;" />
    </linearGradient>
    <inkscape:perspective
       id="perspective3557"
       inkscape:persp3d-origin="24 : 16 : 1"
       inkscape:vp_z="48 : 24 : 1"
       inkscape:vp_y="0 : 1000 : 0"
       inkscape:vp_x="0 : 24 : 1"
       sodipodi:type="inkscape:persp3d" />
  </defs>
  <sodipodi:namedview
     id="base"
     pagecolor="#ffffff"
     bordercolor="#666666"
     borderopacity="1.0"
     inkscape:pageopacity="0.0"
     inkscape:pageshadow="2"
     inkscape:zoom="2.8284271"
     inkscape:cx="134.12424"
     inkscape:cy="74.214853"
     inkscape:document-units="px"
     inkscape:current-layer="layer2"
     showgrid="false"
     width="524.41px"
     borderlayer="false"
     inkscape:showpageshadow="false"
     inkscape:window-width="1440"
     inkscape:window-height="851"
     inkscape:window-x="-4"
     inkscape:window-y="-1" />
  <metadata
     id="metadata7">
    <rdf:RDF>
      <cc:Work
         rdf:about="">
        <dc:format>image/svg+xml</dc:format>
        <dc:type
           rdf:resource="http://purl.org/dc/dcmitype/StillImage" />
      </cc:Work>
    </rdf:RDF>
  </metadata>
  <g
     inkscape:label="Capa 1"
     inkscape:groupmode="layer"
     id="layer1">
    <rect
       style="opacity:0.66000001;fill:#000000;fill-opacity:1;stroke:none;stroke-width:3;stroke-miterlimit:4;stroke-dasharray:none;stroke-opacity:1"
       id="rect3181"
       width="0.98214287"
       height="0"
       x="38.660713"
       y="20.142857"
       rx="5.7008772"
       ry="0" />
    <rect
       ry="0"
       rx="5.7008772"
       y="18.728643"
       x="-123.26674"
       height="0"
       width="0.98214287"
       id="rect3218"
       style="opacity:0.66000001;fill:#000000;fill-opacity:1;stroke:none;stroke-width:3;stroke-miterlimit:4;stroke-dasharray:none;stroke-opacity:1" />
    <path
       style="opacity:1;fill:#000000;fill-opacity:1;stroke:none;stroke-width:3;stroke-miterlimit:4;stroke-dasharray:none;stroke-opacity:1"
       d="M 64.329133,32.683896 C 47.806916,32.76608 34.438137,46.82305 34.516633,64.121396 C 34.516725,64.142159 34.5165,64.163145 34.516633,64.183896 L 34.516633,95.308896 L 64.547883,95.308896 C 64.568939,95.308834 64.589318,95.309 64.610383,95.308896 C 81.132597,95.22671 94.470123,81.138497 94.391633,63.840146 L 78.672883,63.902646 C 78.623476,71.969986 72.271652,78.496396 64.454133,78.496396 C 56.606008,78.496398 50.235383,71.91981 50.235383,63.808896 C 50.235383,55.697985 56.60601,49.121396 64.454133,49.121396 C 64.464527,49.121396 64.474995,49.121373 64.485383,49.121396 L 64.454133,32.683896 C 64.404164,32.683897 64.379101,32.683648 64.329133,32.683896 z M 64.454133,57.402646 C 60.803172,57.402646 57.860383,60.352552 57.860383,63.996396 C 57.860383,67.640242 60.803172,70.590144 64.454133,70.590146 C 68.105094,70.590146 71.079132,67.640243 71.079133,63.996396 C 71.079133,60.35255 68.105093,57.402648 64.454133,57.402646 z"
       id="path3229" />
  </g>
  <g
     inkscape:groupmode="layer"
     id="layer2"
     style="opacity:0.56">
    <path
       style="opacity:1;fill:#000000;fill-opacity:1;stroke:none;stroke-width:3;stroke-miterlimit:4;stroke-dasharray:none;stroke-opacity:1"
       d="M 64.454133,32.876583 C 47.833426,32.876583 34.344418,46.819131 34.344417,63.996381 C 34.344417,81.173633 47.83343,95.11618 64.454133,95.11618 C 81.07484,95.11618 94.563849,81.173636 94.563849,63.996381 L 94.563849,32.876583 L 64.548619,32.876583 C 64.516856,32.876481 64.48592,32.876583 64.454133,32.876583 z"
       id="path3220" />
  </g>
  <g
     inkscape:groupmode="layer"
     id="layer3"
     style="opacity:0.66">
    <path
       style="opacity:1;fill:#000000;fill-opacity:1;stroke:none;stroke-width:3;stroke-miterlimit:4;stroke-dasharray:none;stroke-opacity:1"
       d="M 63.09476,-0.01926461 L 63.09476,0.01198539 C 62.94687,0.01505339 62.8049,0.03916839 62.65726,0.04323539 C 61.73047,0.06918639 60.79257,0.10339839 59.87601,0.16823539 C 59.85517,0.16970939 59.83434,0.16674139 59.81351,0.16823539 C 58.90703,0.23324139 57.99042,0.31597639 57.09476,0.41823539 C 56.63086,0.47115839 56.1806,0.51172439 55.71976,0.57448539 C 55.19026,0.64661939 54.65131,0.73952139 54.12601,0.82448539 C 53.74872,0.88545439 53.37607,0.94446939 53.00101,1.0119854 C 52.12064,1.1707704 51.24349,1.3489444 50.37601,1.5432354 C 49.35827,1.7711804 48.37485,2.0175974 47.37601,2.2932354 C 46.46544,2.5445154 45.5511,2.8158294 44.65726,3.1057357 C 44.39215,3.1915377 44.1396,3.2978407 43.87601,3.3869857 C 43.32807,3.5727017 42.76094,3.7494897 42.21976,3.9494857 C 41.55037,4.1963127 40.90969,4.4624517 40.25101,4.7307357 C 39.96742,4.8464477 39.68879,4.9548517 39.40726,5.0744857 C 38.95269,5.2673267 38.48138,5.4652907 38.03226,5.6682357 C 37.72822,5.8058527 37.42749,5.9322917 37.12601,6.0744857 C 36.97805,6.1441497 36.83586,6.2224777 36.68851,6.2932357 C 35.93631,6.6544567 35.20533,7.0289197 34.46976,7.4182357 C 34.41565,7.4469157 34.33628,7.4831557 34.28226,7.5119857 C 33.55855,7.8976757 32.8641,8.3184817 32.15726,8.7307357 C 31.89239,8.8854617 31.63845,9.0410927 31.37601,9.1994857 C 30.87072,9.5040267 30.34084,9.7877957 29.84476,10.105736 C 29.24682,10.489419 28.67888,10.890481 28.09476,11.293235 C 28.00144,11.357477 27.90646,11.416014 27.81351,11.480735 C 27.14177,11.949167 26.46611,12.425115 25.81351,12.918235 C 25.47189,13.175995 25.14976,13.466356 24.81351,13.730735 C 24.52068,13.96127 24.22719,14.182745 23.93851,14.418235 C 23.45135,14.815239 22.97611,15.194878 22.50101,15.605735 C 22.07964,15.970303 21.66265,16.355493 21.25101,16.730735 C 20.93321,17.020301 20.6254,17.309926 20.31351,17.605735 C 20.05428,17.851779 19.78735,18.074188 19.53226,18.324485 C 18.88869,18.955349 18.2426,19.635955 17.62601,20.293235 C 16.99011,20.971102 16.38846,21.650758 15.78226,22.355735 C 15.66598,22.491171 15.55368,22.625574 15.43851,22.761985 C 14.97083,23.315173 14.48126,23.880504 14.03226,24.449485 C 13.71283,24.854603 13.404511,25.255322 13.094761,25.668235 C 12.883851,25.949094 12.676131,26.227583 12.469761,26.511985 C 12.177641,26.915093 11.908871,27.320644 11.626011,27.730735 C 11.147621,28.423272 10.671171,29.143853 10.219761,29.855735 C 9.8237212,30.480309 9.4382412,31.091804 9.0635112,31.730735 C 8.7858812,32.204724 8.5479312,32.686587 8.2822612,33.168235 C 7.9271812,33.810853 7.5843712,34.481147 7.2510112,35.136985 C 6.7968612,36.030464 6.3200312,36.907525 5.9072612,37.824485 C 5.8994312,37.841927 5.9150712,37.869537 5.9072612,37.886985 C 5.5194112,38.750688 5.1636112,39.628541 4.8135112,40.511985 C 4.7511912,40.669539 4.6871112,40.822575 4.6260112,40.980735 C 4.2927412,41.841896 3.9850612,42.695834 3.6885112,43.574485 C 3.3596712,44.548809 3.0647512,45.548612 2.7822612,46.543235 C 2.4989612,47.540705 2.2051412,48.526632 1.9697612,49.543235 C 1.7350012,50.557133 1.5305912,51.605334 1.3447612,52.636985 C 1.1596312,53.664744 1.0113112,54.686618 0.87601117,55.730735 C 0.74133117,56.770003 0.61633117,57.832756 0.53226117,58.886985 C 0.52897117,58.928591 0.53546117,58.970357 0.53226117,59.011985 C 0.45190117,60.045144 0.40658117,61.090699 0.37601117,62.136985 L 0.31351117,62.136985 L 0.31351117,63.980735 C 0.31350117,63.99131 0.31351117,64.00141 0.31351117,64.011985 L 0.31351117,128.01198 L 64.43851,128.01198 L 64.46976,128.01198 L 65.81351,128.01198 L 65.81351,127.98073 C 65.97192,127.97744 66.12413,127.95392 66.28226,127.94948 C 67.19847,127.92339 68.12605,127.88858 69.03226,127.82448 C 69.04269,127.82374 69.05309,127.82522 69.06351,127.82448 C 69.07405,127.82373 69.08422,127.82523 69.09476,127.82448 C 70.00124,127.75947 70.91785,127.67674 71.81351,127.57448 C 72.26704,127.52274 72.70665,127.47938 73.15726,127.41823 C 73.69489,127.34528 74.24894,127.25441 74.78226,127.16823 C 74.99357,127.13405 75.19665,127.11071 75.40726,127.07448 C 75.57507,127.04565 75.7399,127.01086 75.90726,126.98073 C 76.78763,126.82194 77.66478,126.64377 78.53226,126.44948 C 79.55,126.22154 80.53342,125.97512 81.53226,125.69948 C 82.44283,125.4482 83.35717,125.17689 84.25101,124.88698 C 84.34593,124.85619 84.43753,124.82444 84.53226,124.79323 C 84.6899,124.74139 84.84392,124.69 85.00101,124.63698 C 85.56169,124.44734 86.13491,124.24782 86.68851,124.04323 C 87.3579,123.7964 87.99858,123.53027 88.65726,123.26198 C 88.76229,123.2192 88.86502,123.18029 88.96976,123.13698 C 89.41427,122.95285 89.84286,122.76824 90.28226,122.57448 C 90.77573,122.35724 91.29541,122.14744 91.78226,121.91823 C 91.93026,121.84843 92.07239,121.77037 92.21976,121.69948 C 92.97197,121.33825 93.70293,120.9638 94.43851,120.57448 C 94.4592,120.56353 94.48034,120.55421 94.50101,120.54323 C 94.53452,120.52543 94.59254,120.49859 94.62601,120.48073 C 95.34973,120.09504 96.04417,119.67423 96.75101,119.26198 C 96.88571,119.18342 97.02319,119.12274 97.15726,119.04323 C 97.2873,118.966 97.40282,118.87135 97.53226,118.79323 C 98.03756,118.48868 98.56743,118.20492 99.06351,117.88698 C 99.66145,117.50329 100.22939,117.10224 100.81351,116.69948 C 100.86378,116.66483 100.9196,116.64052 100.96976,116.60573 C 101.01296,116.57581 101.05165,116.542 101.09476,116.51198 C 101.76651,116.04355 102.44216,115.5676 103.09476,115.07448 C 103.20848,114.98855 103.32538,114.91115 103.43851,114.82448 C 103.84435,114.51401 104.22789,114.17557 104.62601,113.85573 C 104.74163,113.76272 104.85479,113.66827 104.96976,113.57448 C 105.45692,113.17747 105.93216,112.79784 106.40726,112.38698 C 106.58749,112.23112 106.7913,112.07606 106.96976,111.91823 C 107.34426,111.58693 107.6969,111.25806 108.06351,110.91823 C 108.43205,110.57677 108.79684,110.2369 109.15726,109.88698 C 109.23157,109.81477 109.30204,109.7408 109.37601,109.66823 C 110.01957,109.03737 110.66567,108.35676 111.28226,107.69948 C 111.91814,107.02162 112.51981,106.34196 113.12601,105.63698 C 113.17457,105.5805 113.23388,105.53738 113.28226,105.48073 C 113.3498,105.40151 113.4026,105.31028 113.46976,105.23073 C 113.93742,104.67754 114.42701,104.11221 114.87601,103.54323 C 114.99117,103.39729 115.10584,103.25269 115.21976,103.10573 C 115.5419,102.68981 115.84523,102.27969 116.15726,101.85573 C 116.44167,101.46973 116.72512,101.09199 117.00101,100.69948 C 117.10069,100.55744 117.1837,100.40487 117.28226,100.26199 C 117.76065,99.569455 118.2371,98.848865 118.68851,98.136985 C 118.97452,97.685495 119.25734,97.252265 119.53226,96.793235 C 119.63792,96.616985 119.74075,96.439335 119.84476,96.261985 C 120.12239,95.787995 120.36033,95.306135 120.62601,94.824485 C 120.98108,94.181865 121.3239,93.511575 121.65726,92.855735 C 122.1114,91.962265 122.58824,91.085195 123.00101,90.168235 C 123.00493,90.159505 122.99708,90.145725 123.00101,90.136985 C 123.00493,90.128215 122.99708,90.114505 123.00101,90.105735 C 123.38886,89.242035 123.74465,88.364175 124.09476,87.480735 C 124.1207,87.415265 124.16277,87.358815 124.18851,87.293235 C 124.22473,87.200745 124.24645,87.104685 124.28226,87.011985 C 124.61552,86.150835 124.9232,85.296885 125.21976,84.418235 C 125.5486,83.443915 125.84351,82.444105 126.12601,81.449485 C 126.4093,80.452015 126.70312,79.466085 126.93851,78.449485 C 127.17327,77.435595 127.37767,76.387385 127.56351,75.355735 C 127.74863,74.327975 127.89696,73.306105 128.03226,72.261985 C 128.16693,71.222715 128.29195,70.159965 128.37601,69.105735 C 128.37683,69.095315 128.37518,69.084915 128.37601,69.074485 C 128.37764,69.053685 128.37439,69.032795 128.37601,69.011985 C 128.45768,67.968535 128.50138,66.912584 128.53226,65.855735 L 128.59476,65.855735 L 128.59476,64.011985 L 128.59476,63.980735 L 128.59476,-0.01926461 L 64.46976,-0.01926461 L 64.43851,-0.01926461 L 63.09476,-0.01926461 z M 62.84476,19.574485 C 62.92875,19.571509 63.01065,19.576996 63.09476,19.574485 L 63.09476,19.605735 C 63.12634,19.60482 63.15693,19.606619 63.18851,19.605735 C 63.29104,19.602911 63.39831,19.576615 63.50101,19.574485 L 64.43851,19.574485 L 64.46976,19.574485 L 108.96976,19.574485 L 108.96976,64.011985 L 108.96976,65.293235 L 108.93851,65.293235 C 108.93301,65.482059 108.91434,65.668005 108.90726,65.855735 L 108.93851,65.855735 C 108.92676,66.141236 108.89389,66.447342 108.87601,66.730735 C 108.86156,66.989881 108.86501,67.253222 108.84476,67.511985 C 108.84364,67.526435 108.8459,67.528787 108.84476,67.543235 C 108.8442,67.550476 108.84534,67.567246 108.84476,67.574485 C 108.83121,67.744425 108.79877,67.904925 108.78226,68.074485 C 108.72769,68.635405 108.66658,69.176545 108.59476,69.730735 C 108.57281,69.898105 108.55578,70.063675 108.53226,70.230735 C 108.45543,70.786935 108.38109,71.338295 108.28226,71.886985 C 108.25329,72.054805 108.22006,72.253295 108.18851,72.418235 C 108.16469,72.542095 108.15086,72.669745 108.12601,72.793235 C 108.0413,73.216155 107.94003,73.624945 107.84476,74.043235 C 107.80923,74.199285 107.78871,74.356495 107.75101,74.511985 C 107.72027,74.638175 107.68907,74.761225 107.65726,74.886985 C 107.51454,75.453355 107.35278,75.985715 107.18851,76.543235 C 107.02741,77.089995 106.84131,77.657595 106.65726,78.199485 C 106.61149,78.334195 106.54734,78.472615 106.50101,78.605735 C 106.33411,79.085275 106.14849,79.541495 105.96976,80.011985 C 105.94489,80.076355 105.93241,80.135255 105.90726,80.199485 C 105.87137,80.292125 105.85055,80.388205 105.81351,80.480735 C 105.80116,80.511575 105.79466,80.543675 105.78226,80.574485 C 105.72736,80.710475 105.68221,80.845405 105.62601,80.980735 C 105.46369,81.372395 105.27408,81.749605 105.09476,82.136985 C 105.09204,82.143055 105.09749,82.162165 105.09476,82.168235 C 105.04157,82.283135 104.99088,82.398015 104.93851,82.511985 C 104.87625,82.647165 104.81458,82.815035 104.75101,82.949485 C 104.56652,83.327675 104.37897,83.699775 104.18851,84.074485 C 104.13171,84.187505 104.09064,84.305645 104.03226,84.418235 C 103.96078,84.555865 103.88636,84.687695 103.81351,84.824485 C 103.70465,85.029085 103.5809,85.217435 103.46976,85.418235 C 103.32027,85.688345 103.18837,85.961625 103.03226,86.230735 C 102.99599,86.295935 102.94501,86.353775 102.90726,86.418235 C 102.86227,86.489555 102.82564,86.564115 102.78226,86.636985 C 102.7516,86.689055 102.71931,86.741865 102.68851,86.793235 C 102.62591,86.898005 102.53323,87.000895 102.46976,87.105735 C 102.3405,87.311525 102.22552,87.493065 102.09476,87.699485 C 102.02972,87.802995 101.97305,87.941185 101.90726,88.043235 C 101.82039,88.177725 101.74553,88.315995 101.65726,88.449485 C 101.4871,88.707235 101.30249,88.946825 101.12601,89.199485 C 101.05756,89.298705 101.00773,89.413345 100.93851,89.511985 C 100.878,89.597475 100.81187,89.676655 100.75101,89.761985 C 100.65472,89.896795 100.56752,90.034555 100.46976,90.168235 C 100.21909,90.511535 99.95302,90.834655 99.68851,91.168235 C 99.66515,91.198375 99.64969,91.231845 99.62601,91.261985 C 99.58438,91.314575 99.5424,91.365595 99.50101,91.418235 C 99.48644,91.436655 99.48425,91.462365 99.46976,91.480735 C 99.37886,91.598515 99.28157,91.709025 99.18851,91.824485 C 98.96361,92.097485 98.69891,92.365925 98.46976,92.636985 C 98.42312,92.692225 98.39166,92.738215 98.34476,92.793235 C 98.33511,92.804435 98.32317,92.813295 98.31351,92.824485 C 98.28593,92.851525 98.24505,92.888815 98.21976,92.918235 C 98.19517,92.946695 98.18187,92.983515 98.15726,93.011985 C 98.04049,93.146945 97.93187,93.315945 97.81351,93.449485 C 97.52684,93.773155 97.23353,94.073165 96.93851,94.386985 C 96.88242,94.446645 96.83884,94.514875 96.78226,94.574485 C 96.65428,94.709245 96.5369,94.847575 96.40726,94.980735 C 96.25289,95.139395 96.09916,95.294815 95.93851,95.449485 C 95.84368,95.544985 95.75297,95.636905 95.65726,95.730735 C 95.6195,95.766625 95.56996,95.788635 95.53226,95.824485 C 95.52105,95.835655 95.51234,95.844725 95.50101,95.855735 C 95.43657,95.917045 95.37739,95.981905 95.31351,96.043235 C 95.17552,96.175665 95.04695,96.318825 94.90726,96.449485 C 94.858,96.495205 94.80011,96.528985 94.75101,96.574485 C 94.49642,96.810475 94.19858,97.063155 93.93851,97.293235 C 93.88306,97.342545 93.83836,97.400425 93.78226,97.449485 C 93.71738,97.506855 93.66045,97.548925 93.59476,97.605735 C 93.51044,97.677735 93.43069,97.751335 93.34476,97.824485 C 93.09716,98.031045 92.8459,98.213575 92.59476,98.418235 C 92.51492,98.483365 92.42506,98.572395 92.34476,98.636985 C 92.29209,98.678775 92.2412,98.751315 92.18851,98.793235 C 92.03111,98.918405 91.87888,99.045155 91.71976,99.168235 C 91.65868,99.215705 91.59408,99.245945 91.53226,99.293235 C 91.4537,99.353425 91.36123,99.421065 91.28226,99.480735 C 91.02881,99.667675 90.78704,99.859255 90.53226,100.04324 C 90.32599,100.1932 90.0853,100.33479 89.87601,100.48073 C 89.84607,100.50158 89.81225,100.52246 89.78226,100.54323 C 89.74743,100.56739 89.72341,100.58166 89.68851,100.60573 C 89.38353,100.81697 89.08969,101.02991 88.78226,101.23073 C 88.67668,101.30119 88.57661,101.38092 88.46976,101.44948 C 88.13966,101.65713 87.80634,101.83984 87.46976,102.04323 C 87.45726,102.05073 87.451,102.06696 87.43851,102.07448 C 87.39877,102.09926 87.35232,102.11131 87.31351,102.13698 C 87.2647,102.1711 87.20837,102.20038 87.15726,102.23073 C 87.11347,102.2592 87.07772,102.29774 87.03226,102.32448 C 86.98271,102.3499 86.92454,102.35867 86.87601,102.38698 C 86.73609,102.46469 86.57728,102.5581 86.43851,102.63698 C 86.08572,102.83761 85.73277,103.00893 85.37601,103.19948 C 85.35277,103.21189 85.33677,103.24963 85.31351,103.26198 C 85.29915,103.26962 85.29662,103.28562 85.28226,103.29323 C 85.25327,103.30859 85.21761,103.30916 85.18851,103.32448 C 84.98889,103.42957 84.79616,103.53485 84.59476,103.63698 C 84.30499,103.78469 84.01229,103.96526 83.71976,104.10573 C 83.63916,104.14438 83.55046,104.16138 83.46976,104.19948 C 83.45604,104.20619 83.45228,104.22423 83.43851,104.23073 C 83.39608,104.25071 83.35594,104.27341 83.31351,104.29323 C 83.1054,104.39046 82.89836,104.48039 82.68851,104.57448 C 82.59501,104.61537 82.46911,104.6585 82.37601,104.69948 C 82.27258,104.74483 82.16775,104.77978 82.06351,104.82448 C 81.86291,104.91114 81.67252,104.99049 81.46976,105.07448 C 81.42656,105.09233 81.38783,105.11929 81.34476,105.13698 C 81.31457,105.14886 81.28119,105.15594 81.25101,105.16823 C 81.072,105.24091 80.90084,105.31603 80.71976,105.38698 C 80.69829,105.39565 80.67874,105.40958 80.65726,105.41823 C 80.39789,105.52265 80.13929,105.63365 79.87601,105.73073 C 79.72104,105.788 79.56275,105.8306 79.40726,105.88698 C 79.17704,105.97045 78.95216,106.05838 78.71976,106.13698 C 78.61066,106.1738 78.48548,106.19473 78.37601,106.23073 C 78.31022,106.2524 78.25443,106.27185 78.18851,106.29323 C 78.16653,106.3004 78.14783,106.31744 78.12601,106.32448 C 77.63472,106.48269 77.15585,106.62053 76.65726,106.76198 C 76.54251,106.79365 76.42857,106.82398 76.31351,106.85573 C 76.16902,106.89494 76.0217,106.91186 75.87601,106.94948 C 75.43394,107.06363 75.00611,107.19074 74.56351,107.29323 C 74.44844,107.31988 74.30291,107.32993 74.18851,107.35573 C 73.58609,107.49065 73.01864,107.62046 72.40726,107.73073 C 72.29103,107.75165 72.14879,107.7732 72.03226,107.79323 C 71.88601,107.81839 71.77275,107.83199 71.62601,107.85573 C 71.25565,107.91558 70.87437,107.99257 70.50101,108.04323 C 70.44792,108.05057 70.36662,108.0675 70.31351,108.07448 C 70.29293,108.07717 70.2716,108.0718 70.25101,108.07448 C 70.18776,108.08273 70.12684,108.09773 70.06351,108.10573 C 69.44858,108.18286 68.84221,108.24144 68.21976,108.29323 C 68.16754,108.29758 68.11578,108.28907 68.06351,108.29323 C 67.91676,108.30503 67.77269,108.31352 67.62601,108.32448 C 67.59462,108.3267 67.56369,108.32236 67.53226,108.32448 C 67.24924,108.34513 66.97395,108.37289 66.68851,108.38698 C 66.40293,108.39956 66.09968,108.40977 65.81351,108.41823 C 65.78177,108.41917 65.75149,108.41733 65.71976,108.41823 C 65.60995,108.4213 65.48602,108.41595 65.37601,108.41823 L 65.37601,108.44948 L 64.46976,108.44948 L 64.43851,108.44948 L 19.90726,108.44948 L 19.90726,64.011985 L 19.90726,62.730735 L 19.93851,62.730735 C 19.94435,62.530721 19.96198,62.33576 19.96976,62.136985 C 19.99151,61.608293 20.02135,61.065113 20.06351,60.543235 C 20.06573,60.514327 20.06123,60.478377 20.06351,60.449485 C 20.06435,60.438985 20.06266,60.428736 20.06351,60.418235 C 20.0996,59.987273 20.14022,59.564514 20.18851,59.136985 C 20.22213,58.852295 20.24563,58.57592 20.28226,58.293235 C 20.30547,58.114116 20.35121,57.940676 20.37601,57.761985 C 20.45231,57.220081 20.53281,56.679975 20.62601,56.136985 C 20.63731,56.074261 20.64571,55.980984 20.65726,55.918235 C 20.67768,55.803481 20.69809,55.687781 20.71976,55.574485 C 20.74382,55.448713 20.75715,55.324878 20.78226,55.199485 C 20.85302,54.847906 20.95216,54.516174 21.03226,54.168235 C 21.03452,54.158269 21.03,54.146948 21.03226,54.136985 C 21.04412,54.084627 21.05214,54.033002 21.06351,53.980735 C 21.11685,53.750381 21.16195,53.52183 21.21976,53.293235 C 21.30661,52.943511 21.40624,52.607148 21.50101,52.261985 C 21.53549,52.13773 21.55956,52.010939 21.59476,51.886985 C 21.613,51.822769 21.63878,51.763597 21.65726,51.699485 C 21.68122,51.616577 21.69529,51.532336 21.71976,51.449485 C 21.78124,51.240848 21.84146,51.03392 21.90726,50.824485 C 22.00864,50.496977 22.11039,50.14853 22.21976,49.824485 C 22.26198,49.699401 22.30147,49.574025 22.34476,49.449485 C 22.35228,49.427798 22.39973,49.408623 22.40726,49.386985 C 22.46209,49.229426 22.50827,49.074511 22.56351,48.918235 C 22.67345,48.614618 22.7909,48.312651 22.90726,48.011985 C 22.92482,47.966538 22.95152,47.932075 22.96976,47.886985 C 22.99346,47.825192 23.00809,47.761214 23.03226,47.699485 C 23.05652,47.63827 23.0703,47.572915 23.09476,47.511985 C 23.11066,47.472269 23.11001,47.426645 23.12601,47.386985 C 23.33298,46.875213 23.58239,46.387862 23.81351,45.886985 C 23.81893,45.874867 23.80807,45.867846 23.81351,45.855735 C 23.83275,45.813007 23.85651,45.773319 23.87601,45.730735 C 23.93196,45.607052 23.97522,45.478816 24.03226,45.355735 C 24.15874,45.083361 24.27545,44.781349 24.40726,44.511985 C 24.61399,44.088864 24.81259,43.67746 25.03226,43.261985 C 25.10744,43.119985 25.20559,42.996824 25.28226,42.855735 C 25.32959,42.768541 25.39101,42.692499 25.43851,42.605735 C 25.62301,42.271254 25.77696,41.934897 25.96976,41.605735 C 26.01946,41.520994 26.0754,41.439734 26.12601,41.355735 C 26.34386,40.989801 26.5886,40.653899 26.81351,40.293235 C 26.91329,40.135875 26.99394,39.94918 27.09476,39.793235 C 27.3034,39.467225 27.53296,39.14393 27.75101,38.824485 C 27.87968,38.637938 27.99707,38.447714 28.12601,38.261985 C 28.13446,38.250125 28.1488,38.242588 28.15726,38.230735 C 28.20955,38.157529 28.26049,38.084864 28.31351,38.011985 C 28.32203,38.000147 28.3362,37.992549 28.34476,37.980735 C 28.48807,37.783231 28.63579,37.582024 28.78226,37.386985 C 28.91188,37.2142 29.05624,37.05758 29.18851,36.886985 C 29.26707,36.78613 29.32841,36.674647 29.40726,36.574485 C 29.41637,36.562904 29.42948,36.554864 29.43851,36.543235 C 29.53663,36.418899 29.61934,36.289861 29.71976,36.168235 C 29.93458,35.901689 30.18605,35.648333 30.40726,35.386985 C 30.48724,35.292254 30.57651,35.199788 30.65726,35.105735 C 30.67201,35.088585 30.67375,35.060362 30.68851,35.043235 C 30.71752,35.009547 30.75315,34.983087 30.78226,34.949485 C 31.1622,34.511243 31.54372,34.061156 31.93851,33.636985 C 31.97383,33.599339 31.99682,33.549652 32.03226,33.511985 C 32.07302,33.468787 32.11633,33.430022 32.15726,33.386985 C 32.51319,33.012926 32.87893,32.655741 33.25101,32.293235 C 33.369,32.177461 33.47222,32.059518 33.59476,31.949485 C 33.6539,31.892711 33.7254,31.851498 33.78226,31.793235 C 33.8598,31.713785 33.91936,31.619609 34.00101,31.543235 C 34.21534,31.342763 34.47025,31.176996 34.68851,30.980735 C 34.89957,30.790899 35.10091,30.605113 35.31351,30.418235 C 35.33572,30.399029 35.35373,30.374795 35.37601,30.355735 C 35.68653,30.088163 35.99561,29.833114 36.31351,29.574485 C 36.37817,29.52174 36.43511,29.469888 36.50101,29.418235 C 36.59928,29.339013 36.68331,29.215388 36.78226,29.136985 C 37.04549,28.928505 37.32202,28.744229 37.59476,28.543235 C 37.85627,28.345633 38.11053,28.14209 38.37601,27.949485 C 38.57023,27.809243 38.80275,27.682242 39.00101,27.543235 C 39.06556,27.498291 39.12371,27.462847 39.18851,27.418235 C 39.50167,27.202313 39.8089,26.972816 40.12601,26.761985 C 40.15784,26.74119 40.18789,26.720049 40.21976,26.699485 C 40.2824,26.658274 40.34414,26.614985 40.40726,26.574485 C 40.54807,26.484237 40.70154,26.410141 40.84476,26.324485 C 41.04542,26.201994 41.23524,26.072316 41.43851,25.949485 C 41.62444,25.837131 41.81646,25.747916 42.00101,25.636985 C 42.1302,25.559334 42.24377,25.462467 42.37601,25.386985 C 42.46972,25.333524 42.59438,25.283535 42.68851,25.230735 C 42.95963,25.0786 43.2294,24.941549 43.50101,24.793235 C 43.53852,24.773213 43.58843,24.750652 43.62601,24.730735 C 43.73361,24.672648 43.8294,24.599886 43.93851,24.543235 C 44.27087,24.370697 44.60131,24.207584 44.93851,24.043235 C 45.00984,24.008455 45.08528,23.952736 45.15726,23.918235 C 45.25958,23.869097 45.36701,23.810364 45.46976,23.761985 C 45.64909,23.677403 45.81963,23.592617 46.00101,23.511985 C 46.03115,23.498276 46.06461,23.494295 46.09476,23.480735 C 46.32525,23.376584 46.5812,23.269262 46.81351,23.168235 C 46.89558,23.132767 46.98108,23.109517 47.06351,23.074485 C 47.25902,22.991405 47.42907,22.904841 47.62601,22.824485 C 47.68727,22.799532 47.75228,22.786955 47.81351,22.761985 C 47.85696,22.744458 47.89503,22.716866 47.93851,22.699485 C 48.13498,22.621118 48.33274,22.554966 48.53226,22.480735 C 48.68975,22.418871 48.84181,22.351938 49.00101,22.293235 C 49.09496,22.258514 49.18775,22.232756 49.28226,22.199485 C 49.42883,22.147646 49.57123,22.095209 49.71976,22.043235 C 50.04497,21.929464 50.39204,21.808702 50.71976,21.699485 C 50.74199,21.692277 50.76002,21.675366 50.78226,21.668235 C 51.27356,21.510026 51.75242,21.372186 52.25101,21.230735 C 52.35289,21.201833 52.46075,21.196251 52.56351,21.168235 C 53.15495,21.005024 53.74397,20.838476 54.34476,20.699485 C 54.44975,20.675175 54.58409,20.660595 54.68851,20.636985 C 55.28494,20.502123 55.85956,20.372017 56.46976,20.261985 C 56.7397,20.213309 57.01002,20.184059 57.28226,20.136985 C 57.71272,20.062553 58.16129,19.9751 58.59476,19.918235 C 58.61544,19.915508 58.63658,19.920936 58.65726,19.918235 C 58.72012,19.910082 58.78182,19.89488 58.84476,19.886985 C 59.01093,19.866143 59.17748,19.870885 59.34476,19.855735 C 59.79088,19.804801 60.23743,19.768477 60.68851,19.730735 C 60.83566,19.718481 60.97846,19.679055 61.12601,19.668235 C 61.69001,19.626484 62.27513,19.595059 62.84476,19.574485 z"
       id="path2402" />
  </g>
</svg>
