<?xml version="1.0" encoding="UTF-8" standalone="no"?>
<!-- Created with Inkscape (http://www.inkscape.org/) -->
<svg
   xmlns:dc="http://purl.org/dc/elements/1.1/"
   xmlns:cc="http://creativecommons.org/ns#"
   xmlns:rdf="http://www.w3.org/1999/02/22-rdf-syntax-ns#"
   xmlns:svg="http://www.w3.org/2000/svg"
   xmlns="http://www.w3.org/2000/svg"
   xmlns:sodipodi="http://sodipodi.sourceforge.net/DTD/sodipodi-0.dtd"
   xmlns:inkscape="http://www.inkscape.org/namespaces/inkscape"
   version="1.1"
   width="128"
   height="128"
   id="svg2"
   sodipodi:version="0.32"
   inkscape:version="0.46"
   sodipodi:docname="applications-development.svg"
   inkscape:output_extension="org.inkscape.output.svg.inkscape">
  <metadata
     id="metadata12">
    <rdf:RDF>
      <cc:Work
         rdf:about="">
        <dc:format>image/svg+xml</dc:format>
        <dc:type
           rdf:resource="http://purl.org/dc/dcmitype/StillImage" />
      </cc:Work>
    </rdf:RDF>
  </metadata>
  <sodipodi:namedview
     inkscape:window-height="715"
     inkscape:window-width="691"
     inkscape:pageshadow="2"
     inkscape:pageopacity="0.0"
     guidetolerance="10.0"
     gridtolerance="10.0"
     objecttolerance="10.0"
     borderopacity="1.0"
     bordercolor="#666666"
     pagecolor="#ffffff"
     id="base"
     showgrid="false"
     inkscape:zoom="1.9296875"
     inkscape:cx="75.912551"
     inkscape:cy="99.224153"
     inkscape:window-x="740"
     inkscape:window-y="0"
     inkscape:current-layer="svg2" />
  <defs
     id="defs4">
    <inkscape:perspective
       sodipodi:type="inkscape:persp3d"
       inkscape:vp_x="0 : 64 : 1"
       inkscape:vp_y="0 : 1000 : 0"
       inkscape:vp_z="128 : 64 : 1"
       inkscape:persp3d-origin="64 : 42.666667 : 1"
       id="perspective14" />
  </defs>
  <path
     style="opacity:1;fill:#000000;fill-opacity:1;fill-rule:nonzero;stroke:none"
     id="path3748"
     d="M 57.451392,0.15625599 C 57.12845,0.15411559 56.769954,0.17025789 56.353287,0.22085039 C 49.686615,1.0303311 57.141993,5.7199701 50.862763,8.1013674 C 44.583535,10.482764 47.055731,2.0256479 41.528872,5.8405634 C 36.002011,9.6554801 44.787166,10.341512 40.333875,15.368238 C 35.880585,20.394963 34.153192,11.747237 31.032281,17.693636 C 27.911369,23.640038 36.030645,20.151765 34.423488,26.672258 C 32.81633,33.192749 27.253509,26.351469 27.253509,33.067104 C 27.253509,39.782741 32.81633,32.941457 34.423488,39.46195 C 36.030644,45.98244 27.91137,42.494172 31.032281,48.440571 C 34.153194,54.386973 35.880584,45.739243 40.333875,50.76597 C 44.787164,55.792695 36.002012,56.478729 41.528872,60.293644 C 47.055733,64.108561 44.583534,55.651442 50.862763,58.03284 C 57.14199,60.414237 49.686617,65.103877 56.353287,65.913357 C 63.019959,66.722838 56.88889,60.360289 63.555563,59.550809 C 70.222233,58.741328 65.7705,66.356922 72.049727,63.975525 C 78.328957,61.594127 69.946369,58.844117 75.47323,55.0292 C 81.000089,51.214285 80.61221,60.023628 85.065499,54.996903 C 89.51879,49.970176 80.846482,51.41563 83.967394,45.469229 C 87.088305,39.52283 90.822104,47.500409 92.42926,40.979918 C 94.036418,34.459425 87.003331,39.782741 87.003331,33.067104 C 87.003331,26.351469 94.036417,31.67478 92.42926,25.15429 C 90.822103,18.633797 87.088306,26.61138 83.967394,20.664979 C 80.846483,14.718579 89.518789,16.164029 85.065499,11.137304 C 80.612208,6.110578 81.00009,14.919924 75.47323,11.105007 C 69.946371,7.2900915 78.328955,4.5400792 72.049727,2.1586825 C 65.770497,-0.22271506 70.222235,7.3928799 63.555563,6.583399 C 57.305559,5.8245109 62.295525,0.18836915 57.451392,0.15625599 z M 60.325843,12.396895 C 71.741684,12.396895 80.996051,21.651263 80.996051,33.067104 C 80.996051,44.482945 71.741684,53.737312 60.325843,53.737312 C 48.910002,53.737312 39.655634,44.482945 39.655634,33.067104 C 39.655634,21.651263 48.910002,12.396895 60.325843,12.396895 z" />
  <path
     style="opacity:1;fill:#000000;fill-opacity:1;fill-rule:nonzero;stroke:none"
     id="path3752"
     d="M 91.9771,53.866501 C 86.859927,53.954742 92.7221,59.655335 86.034415,60.358239 C 78.900884,61.108003 84.588093,53.329431 77.766331,55.545956 C 70.944569,57.76248 80.102516,60.712085 73.890667,64.298497 C 67.678819,67.88491 69.693441,58.497728 64.362993,63.297284 C 59.032545,68.09684 68.579074,67.054319 64.362993,72.857255 C 60.146912,78.660192 58.20493,69.2436 55.287479,75.796301 C 52.370028,82.349003 60.654458,77.53276 59.163143,84.548842 C 57.671829,91.564924 52.057759,83.770863 52.057759,90.943688 C 52.057759,98.116513 57.671829,90.322452 59.163143,97.338534 C 60.654458,104.35461 52.370029,99.538374 55.287479,106.09108 C 58.204929,112.64378 60.146912,103.22718 64.362993,109.03012 C 68.579074,114.83305 59.032545,113.79053 64.362993,118.59009 C 69.693441,123.38965 67.678819,114.00246 73.890667,117.58888 C 80.102515,121.17529 70.94457,124.12489 77.766331,126.34142 C 84.588093,128.55795 78.900883,120.77938 86.034415,121.52914 C 93.167946,122.2789 86.006272,128.70604 93.139799,127.95628 C 100.27333,127.20652 91.93775,122.42148 98.759512,120.20495 C 105.58127,117.98842 101.65547,126.76271 107.86733,123.17629 C 114.07918,119.58988 104.50701,118.60967 109.83746,113.81011 C 115.1679,109.01055 115.14905,118.61183 119.36513,112.80889 C 123.58121,107.00596 114.44525,109.99541 117.3627,103.4427 C 120.28016,96.890004 124.17177,105.71109 125.66309,98.695016 C 127.1544,91.678934 120.04337,98.116513 120.04337,90.943688 C 120.04337,83.770863 127.1544,90.208441 125.66309,83.19236 C 124.17177,76.176278 120.28016,84.997373 117.3627,78.444671 C 114.44525,71.89197 123.58121,74.88142 119.36513,69.078483 C 115.14905,63.275545 115.1679,72.876827 109.83746,68.07727 C 104.50701,63.277713 114.07918,62.297494 107.86733,58.711081 C 101.65547,55.124669 105.58127,63.898949 98.759512,61.682424 C 91.937751,59.465898 100.27333,54.68086 93.139799,53.931096 C 92.693953,53.884236 92.318245,53.860621 91.9771,53.866501 L 91.9771,53.866501 z M 89.361026,66.139438 C 103.11376,66.139438 114.26217,77.482145 114.26217,91.49274 C 114.26217,105.50334 103.11376,116.87834 89.361026,116.87834 C 75.608295,116.87834 64.459884,105.50334 64.459884,91.49274 C 64.459884,77.482145 75.608295,66.139438 89.361026,66.139438 z" />
  <path
     style="opacity:1;fill:#000000;fill-opacity:1;fill-rule:nonzero;stroke:none"
     id="path3754"
     d="M 24.605138,49.441785 C 24.290163,49.447986 23.916014,49.477275 23.507034,49.538676 C 16.963335,50.521038 24.905285,54.882661 18.985425,57.839057 C 13.065565,60.795453 14.335783,51.841537 9.6192362,56.482574 C 4.9026912,61.123611 13.865775,59.977382 10.814233,65.848763 C 7.7626908,71.720144 3.53709,63.746486 2.4492576,70.273479 C 1.3614254,76.800473 7.9586329,70.609085 8.940995,77.152783 C 9.923357,83.696481 1.785963,79.727086 4.7423589,85.646947 C 7.6987543,91.566807 9.4029163,82.674451 14.043954,87.390996 C 18.684991,92.107542 9.7874318,93.673345 15.658814,96.724887 C 21.530195,99.776429 17.690578,91.599905 24.217572,92.687737 C 30.744566,93.775569 24.456286,100.25873 30.999984,99.276366 C 37.543682,98.294004 29.601732,93.932381 35.521592,90.975985 C 41.441453,88.019589 40.171235,96.973505 44.887781,92.332468 C 49.604325,87.691431 40.641242,88.83766 43.692784,82.966279 C 46.744326,77.094898 50.969926,85.068556 52.057759,78.541563 C 53.145591,72.014569 46.548384,78.205957 45.566022,71.662259 C 44.58366,65.118561 52.721054,69.087956 49.764658,63.168095 C 46.808262,57.248235 45.104101,66.140591 40.463064,61.424046 C 35.822027,56.7075 44.719585,55.141697 38.848204,52.090155 C 32.976823,49.038613 36.816439,57.215137 30.289446,56.127305 C 24.170389,55.107463 29.329768,49.348409 24.605138,49.441785 z M 27.253509,62.005396 C 34.103013,62.005396 39.655634,67.558016 39.655634,74.407521 C 39.655634,81.257026 34.103013,86.809646 27.253509,86.809646 C 20.404004,86.809646 14.851384,81.257026 14.851384,74.407521 C 14.851384,67.558016 20.404004,62.005396 27.253509,62.005396 z" />
  <path
     style="opacity:1;fill:#000000;fill-opacity:1;fill-rule:nonzero;stroke:none"
     id="path3765"
     d="M 31.387551,74.407521 C 31.387551,76.690689 29.536677,78.541563 27.253509,78.541563 C 24.970341,78.541563 23.119467,76.690689 23.119467,74.407521 C 23.119467,72.124353 24.970341,70.273479 27.253509,70.273479 C 29.536677,70.273479 31.387551,72.124353 31.387551,74.407521 z" />
  <path
     style="opacity:1;fill:#000000;fill-opacity:1;fill-rule:nonzero;stroke:none"
     id="path3767"
     d="M 72.727968,33.067104 C 72.727968,39.916608 67.175347,45.469229 60.325843,45.469229 C 53.476338,45.469229 47.923718,39.916608 47.923718,33.067104 C 47.923718,26.217599 53.476338,20.664979 60.325843,20.664979 C 67.175347,20.664979 72.727968,26.217599 72.727968,33.067104 L 72.727968,33.067104 z" />
  <path
     style="opacity:1;fill:#000000;fill-opacity:1;fill-rule:nonzero;stroke:none"
     id="path3769"
     d="M 97.532218,90.943688 C 97.532218,95.510024 93.830471,99.211771 89.264135,99.211771 C 84.697798,99.211771 80.996051,95.510024 80.996051,90.943688 C 80.996051,86.377352 84.697798,82.675604 89.264135,82.675604 C 93.830471,82.675604 97.532218,86.377352 97.532218,90.943688 z" />
</svg>
