<?xml version="1.0" encoding="UTF-8" standalone="no"?>
<!-- Created with Inkscape (http://www.inkscape.org/) -->
<svg
   xmlns:dc="http://purl.org/dc/elements/1.1/"
   xmlns:cc="http://creativecommons.org/ns#"
   xmlns:rdf="http://www.w3.org/1999/02/22-rdf-syntax-ns#"
   xmlns:svg="http://www.w3.org/2000/svg"
   xmlns="http://www.w3.org/2000/svg"
   xmlns:sodipodi="http://sodipodi.sourceforge.net/DTD/sodipodi-0.dtd"
   xmlns:inkscape="http://www.inkscape.org/namespaces/inkscape"
   width="128"
   height="128"
   id="svg2"
   sodipodi:version="0.32"
   inkscape:version="0.46"
   version="1.0"
   sodipodi:docname="applications-education.svg"
   inkscape:output_extension="org.inkscape.output.svg.inkscape">
  <defs
     id="defs4">
    <inkscape:perspective
       sodipodi:type="inkscape:persp3d"
       inkscape:vp_x="0 : 526.18109 : 1"
       inkscape:vp_y="0 : 1000 : 0"
       inkscape:vp_z="744.09448 : 526.18109 : 1"
       inkscape:persp3d-origin="372.04724 : 350.78739 : 1"
       id="perspective10" />
  </defs>
  <sodipodi:namedview
     id="base"
     pagecolor="#ffffff"
     bordercolor="#666666"
     borderopacity="1.0"
     inkscape:pageopacity="0.0"
     inkscape:pageshadow="2"
     inkscape:zoom="1.4"
     inkscape:cx="-99.973152"
     inkscape:cy="62.645744"
     inkscape:document-units="px"
     inkscape:current-layer="layer2"
     showgrid="true"
     showguides="false"
     inkscape:window-width="1440"
     inkscape:window-height="851"
     inkscape:window-x="-4"
     inkscape:window-y="-1">
    <inkscape:grid
       type="xygrid"
       id="grid2383"
       visible="true"
       enabled="true" />
  </sodipodi:namedview>
  <metadata
     id="metadata7">
    <rdf:RDF>
      <cc:Work
         rdf:about="">
        <dc:format>image/svg+xml</dc:format>
        <dc:type
           rdf:resource="http://purl.org/dc/dcmitype/StillImage" />
      </cc:Work>
    </rdf:RDF>
  </metadata>
  <g
     inkscape:label="Capa 1"
     inkscape:groupmode="layer"
     id="layer1">
    <path
       style="opacity:1;fill:#000000;fill-opacity:1;stroke:none;stroke-width:0.2;stroke-miterlimit:4;stroke-dasharray:none;stroke-dashoffset:0;stroke-opacity:1"
       d="M 77.839882,0.1875 L 77.964882,0.40625 L 43.996132,0.40625 L 43.839882,0.40625 L 37.652382,0.375 L 40.808632,5.875 L 43.839882,11.21875 L 43.839882,52.21875 L 31.964882,72.78125 L -0.097618229,128.34375 L 64.058632,128.34375 L 128.21489,128.34375 L 96.121132,72.78125 L 84.246132,52.1875 L 84.246132,11 L 87.308632,5.75 L 90.527382,0.25 L 84.183632,0.21875 L 77.839882,0.1875 z M 72.933632,4.40625 L 76.996132,4.4375 L 81.089882,4.46875 L 76.871132,10.65625 L 77.402382,53.1875 L 115.30864,121.625 L 12.433632,121.625 L 50.527382,53 L 50.871132,10.84375 L 47.089882,4.59375 L 51.058632,4.59375 L 51.152382,4.59375 L 72.996132,4.59375 L 72.933632,4.40625 z"
       id="path2385" />
  </g>
  <g
     inkscape:groupmode="layer"
     id="layer2"
     style="opacity:0.76">
    <path
       style="opacity:1;fill:#000000;fill-opacity:1;stroke:none;stroke-width:0.20000000000000001;stroke-miterlimit:4;stroke-dasharray:none;stroke-dashoffset:0;stroke-opacity:1"
       d="M 39.09152,73.390625 L 31.156852,87.390621 C 20.521048,106.17927 11.814108,121.59669 11.814108,121.64062 C 11.814108,121.68456 35.309688,121.73437 64.042703,121.73437 L 116.30316,121.73437 L 97.024154,87.578121 L 88.993888,73.390625 L 39.09152,73.390625 z"
       id="path3175" />
  </g>
</svg>
