<?xml version="1.0" encoding="UTF-8" standalone="no"?>
<!-- Created with Inkscape (http://www.inkscape.org/) -->
<svg
   xmlns:dc="http://purl.org/dc/elements/1.1/"
   xmlns:cc="http://creativecommons.org/ns#"
   xmlns:rdf="http://www.w3.org/1999/02/22-rdf-syntax-ns#"
   xmlns:svg="http://www.w3.org/2000/svg"
   xmlns="http://www.w3.org/2000/svg"
   xmlns:sodipodi="http://sodipodi.sourceforge.net/DTD/sodipodi-0.dtd"
   xmlns:inkscape="http://www.inkscape.org/namespaces/inkscape"
   version="1.1"
   width="128"
   height="128"
   id="svg2"
   sodipodi:version="0.32"
   inkscape:version="0.46"
   sodipodi:docname="applications-multimedia.svg"
   inkscape:output_extension="org.inkscape.output.svg.inkscape">
  <metadata
     id="metadata13">
    <rdf:RDF>
      <cc:Work
         rdf:about="">
        <dc:format>image/svg+xml</dc:format>
        <dc:type
           rdf:resource="http://purl.org/dc/dcmitype/StillImage" />
      </cc:Work>
    </rdf:RDF>
  </metadata>
  <sodipodi:namedview
     inkscape:window-height="851"
     inkscape:window-width="1440"
     inkscape:pageshadow="2"
     inkscape:pageopacity="0.0"
     guidetolerance="10.0"
     gridtolerance="10.0"
     objecttolerance="10.0"
     borderopacity="1.0"
     bordercolor="#666666"
     pagecolor="#ffffff"
     id="base"
     showgrid="false"
     inkscape:zoom="3.859375"
     inkscape:cx="-17.101215"
     inkscape:cy="64"
     inkscape:window-x="-4"
     inkscape:window-y="-1"
     inkscape:current-layer="layer1" />
  <defs
     id="defs4">
    <inkscape:perspective
       sodipodi:type="inkscape:persp3d"
       inkscape:vp_x="0 : 64 : 1"
       inkscape:vp_y="0 : 1000 : 0"
       inkscape:vp_z="128 : 64 : 1"
       inkscape:persp3d-origin="64 : 42.666667 : 1"
       id="perspective15" />
  </defs>
  <g
     inkscape:groupmode="layer"
     id="layer2"
     inkscape:label="alpha"
     style="opacity:0.66000001;display:inline">
    <path
       style="opacity:1;fill:#000000;fill-opacity:1;fill-rule:nonzero;stroke:none"
       d="M 64.129555,0.25910931 C 28.783331,0.25910931 0.12955461,28.912889 0.12955461,64.259109 C 0.12955461,99.605329 28.783331,128.25911 64.129555,128.25911 C 99.475779,128.25911 128.12955,99.605329 128.12955,64.259109 C 128.12955,28.912889 99.475779,0.25910931 64.129555,0.25910931 z M 44.129555,16.259109 C 50.756972,16.25911 56.129555,21.631691 56.129555,28.259109 C 56.129555,34.886525 50.756973,40.259109 44.129555,40.259109 C 37.502139,40.259109 32.129556,34.886526 32.129555,28.259109 C 32.129556,21.631692 37.502138,16.25911 44.129555,16.259109 z M 84.129555,16.259109 C 90.756972,16.259109 96.129556,21.631692 96.129555,28.259109 C 96.129556,34.886526 90.756973,40.259109 84.129555,40.259109 C 77.502139,40.259109 72.129556,34.886526 72.129555,28.259109 C 72.129556,21.631692 77.502139,16.259109 84.129555,16.259109 z M 64.129555,48.259109 C 72.966111,48.259109 80.129555,55.422549 80.129555,64.259109 C 80.129555,73.095669 72.966111,80.259109 64.129555,80.259109 C 55.292999,80.259109 48.129555,73.095669 48.129555,64.259109 C 48.129555,55.422549 55.292999,48.259109 64.129555,48.259109 z M 22.504555,51.571609 C 22.769529,51.560863 23.019831,51.564701 23.285805,51.571609 C 25.220159,51.621849 27.148458,52.161075 28.942055,53.196609 C 34.681566,56.510318 36.662013,63.832098 33.348305,69.571609 C 30.034596,75.31112 22.681566,77.291568 16.942055,73.977859 C 11.202544,70.66415 9.2533466,63.31112 12.567055,57.571609 C 14.702844,53.872315 18.529946,51.7328 22.504555,51.571609 z M 104.8483,52.946609 C 105.11327,52.935863 105.36358,52.939701 105.62955,52.946609 C 107.5639,52.996849 109.52345,53.504825 111.31705,54.540359 C 117.05656,57.854069 119.00576,65.207098 115.69205,70.946609 C 112.37834,76.68612 105.05656,78.635319 99.317055,75.321609 C 93.577544,72.007901 91.597097,64.68612 94.910805,58.946609 C 97.046594,55.247315 100.87369,53.1078 104.8483,52.946609 z M 64.129555,56.259109 C 59.711277,56.259109 56.129555,59.840831 56.129555,64.259109 C 56.129555,68.677387 59.711277,72.259109 64.129555,72.259109 C 68.547833,72.259109 72.129555,68.677387 72.129555,64.259109 C 72.129555,59.840831 68.547833,56.259109 64.129555,56.259109 z M 44.129555,88.259109 C 50.756973,88.259109 56.129555,93.631693 56.129555,100.25911 C 56.129557,106.88652 50.756973,112.25911 44.129555,112.25911 C 37.502138,112.25911 32.129556,106.88653 32.129555,100.25911 C 32.129555,93.631694 37.502139,88.259109 44.129555,88.259109 z M 84.129555,88.259109 C 90.756971,88.259109 96.129553,93.631692 96.129555,100.25911 C 96.129556,106.88653 90.756979,112.25911 84.129555,112.25911 C 77.502141,112.25911 72.129554,106.88653 72.129555,100.25911 C 72.129554,93.631692 77.502137,88.259109 84.129555,88.259109 z"
       id="path3047" />
  </g>
  <g
     inkscape:groupmode="layer"
     id="layer1"
     inkscape:label="Base"
     style="display:inline">
    <path
       style="opacity:1;fill:#000000;fill-opacity:1;fill-rule:nonzero;stroke:none"
       d="M 73.91903,1.7682149 C 72.91903,1.7682149 71.91903,2.2682149 71.91903,3.268215 L 78.63778,83.79947 C 73.37628,80.95119 66.903683,79.26822 59.91903,79.26822 C 42.245918,79.26822 27.91903,90.01338 27.91903,103.26822 C 27.91903,116.52305 42.245918,127.26822 59.91903,127.26822 C 77.592142,127.26822 91.91903,116.52305 91.91903,103.26822 C 91.91903,101.90471 91.741541,100.56965 91.45028,99.26822 L 91.91903,99.26822 L 77.51278,12.736966 C 89.045629,23.651539 92.604485,31.268216 107.91903,31.268216 C 115.91903,31.268216 119.15481,34.843406 123.91903,43.268216 C 122.54555,31.739426 115.91903,23.268216 107.91903,23.268216 C 91.91903,23.268216 90.585697,14.627406 75.91903,3.268215 C 75.91903,2.2682149 74.91903,1.7682149 73.91903,1.7682149 z"
       id="path3983" />
  </g>
</svg>
