<?xml version="1.0" encoding="UTF-8" standalone="no"?>
<!-- Created with Inkscape (http://www.inkscape.org/) -->
<svg
   xmlns:dc="http://purl.org/dc/elements/1.1/"
   xmlns:cc="http://creativecommons.org/ns#"
   xmlns:rdf="http://www.w3.org/1999/02/22-rdf-syntax-ns#"
   xmlns:svg="http://www.w3.org/2000/svg"
   xmlns="http://www.w3.org/2000/svg"
   xmlns:sodipodi="http://sodipodi.sourceforge.net/DTD/sodipodi-0.dtd"
   xmlns:inkscape="http://www.inkscape.org/namespaces/inkscape"
   version="1.1"
   width="128"
   height="128"
   id="svg2"
   sodipodi:version="0.32"
   inkscape:version="0.46"
   sodipodi:docname="applications-wine.svg"
   inkscape:output_extension="org.inkscape.output.svg.inkscape">
  <metadata
     id="metadata10">
    <rdf:RDF>
      <cc:Work
         rdf:about="">
        <dc:format>image/svg+xml</dc:format>
        <dc:type
           rdf:resource="http://purl.org/dc/dcmitype/StillImage" />
      </cc:Work>
    </rdf:RDF>
  </metadata>
  <sodipodi:namedview
     inkscape:window-height="715"
     inkscape:window-width="697"
     inkscape:pageshadow="2"
     inkscape:pageopacity="0.0"
     guidetolerance="10.0"
     gridtolerance="10.0"
     objecttolerance="10.0"
     borderopacity="1.0"
     bordercolor="#666666"
     pagecolor="#ffffff"
     id="base"
     showgrid="false"
     inkscape:zoom="1.9296875"
     inkscape:cx="75.942474"
     inkscape:cy="22.893463"
     inkscape:window-x="734"
     inkscape:window-y="131"
     inkscape:current-layer="layer4" />
  <defs
     id="defs4">
    <inkscape:perspective
       sodipodi:type="inkscape:persp3d"
       inkscape:vp_x="0 : 64 : 1"
       inkscape:vp_y="0 : 1000 : 0"
       inkscape:vp_z="128 : 64 : 1"
       inkscape:persp3d-origin="64 : 42.666667 : 1"
       id="perspective12" />
  </defs>
  <g
     inkscape:groupmode="layer"
     id="layer1">
    <path
       style="opacity:1;fill:#000000;fill-opacity:1;fill-rule:nonzero;stroke:none"
       id="rect3891"
       d="M 40.1361,1.1839707 C 33.547975,1.2016876 26.725607,2.6987889 19.631802,5.8293371 L 10.833986,53.521764 C 29.56722,45.837375 46.179232,48.438336 61.071311,59.474709 L 69.905036,11.610236 C 62.485045,6.2506706 54.736735,2.8189412 46.635711,1.631302 C 44.492945,1.3171625 42.332141,1.178065 40.1361,1.1839707 z" />
  </g>
  <g
     inkscape:groupmode="layer"
     id="layer2"
     style="opacity:0.76">
    <path
       style="opacity:1;fill:#000000;fill-opacity:1;fill-rule:nonzero;stroke:none"
       id="path3926"
       d="M 29.305913,57.545534 C 22.734483,57.589083 15.883023,59.123196 8.7297952,62.32854 L -0.068020813,110.05537 C 18.403013,102.67168 35.098943,105.10114 50.205213,116.00833 L 58.967123,68.24708 C 51.621613,62.730495 43.911273,59.182784 35.769613,57.992865 C 33.639103,57.681484 31.496383,57.531018 29.305913,57.545534 z" />
  </g>
  <g
     inkscape:groupmode="layer"
     id="layer3"
     style="opacity:0.56">
    <path
       style="opacity:1;fill:#000000;fill-opacity:1;fill-rule:nonzero;stroke:none"
       id="path3924"
       d="M 77.65433,13.377273 L 68.892424,61.138519 C 84.038133,72.910018 100.74741,75.118743 119.16566,66.95383 L 127.92757,19.226992 C 109.3906,26.943745 92.532419,25.535221 77.65433,13.377273 z" />
  </g>
  <g
     inkscape:groupmode="layer"
     id="layer4"
     style="opacity:0.36">
    <path
       style="opacity:1;fill:#000000;fill-opacity:1;fill-rule:nonzero;stroke:none"
       id="path3928"
       d="M 67.823808,69.870218 L 59.097818,117.35618 C 73.719438,128.70514 90.564078,130.29686 109.37105,123.17148 L 118.13295,75.479068 C 99.154248,83.477081 82.361548,81.752093 67.823808,69.870218 z" />
  </g>
</svg>
