<?xml version="1.0" encoding="UTF-8" standalone="no"?>
<!-- Created with Inkscape (http://www.inkscape.org/) -->
<svg
   xmlns:dc="http://purl.org/dc/elements/1.1/"
   xmlns:cc="http://creativecommons.org/ns#"
   xmlns:rdf="http://www.w3.org/1999/02/22-rdf-syntax-ns#"
   xmlns:svg="http://www.w3.org/2000/svg"
   xmlns="http://www.w3.org/2000/svg"
   xmlns:sodipodi="http://sodipodi.sourceforge.net/DTD/sodipodi-0.dtd"
   xmlns:inkscape="http://www.inkscape.org/namespaces/inkscape"
   version="1.1"
   width="128"
   height="128"
   id="svg2"
   sodipodi:version="0.32"
   inkscape:version="0.46"
   sodipodi:docname="applications-games.svg"
   inkscape:output_extension="org.inkscape.output.svg.inkscape">
  <metadata
     id="metadata8">
    <rdf:RDF>
      <cc:Work
         rdf:about="">
        <dc:format>image/svg+xml</dc:format>
        <dc:type
           rdf:resource="http://purl.org/dc/dcmitype/StillImage" />
      </cc:Work>
    </rdf:RDF>
  </metadata>
  <sodipodi:namedview
     inkscape:window-height="715"
     inkscape:window-width="691"
     inkscape:pageshadow="2"
     inkscape:pageopacity="0.0"
     guidetolerance="10.0"
     gridtolerance="10.0"
     objecttolerance="10.0"
     borderopacity="1.0"
     bordercolor="#666666"
     pagecolor="#ffffff"
     id="base"
     showgrid="false"
     inkscape:zoom="1.9296875"
     inkscape:cx="83.041805"
     inkscape:cy="29.799964"
     inkscape:window-x="740"
     inkscape:window-y="0"
     inkscape:current-layer="svg2" />
  <defs
     id="defs4">
    <inkscape:perspective
       sodipodi:type="inkscape:persp3d"
       inkscape:vp_x="0 : 64 : 1"
       inkscape:vp_y="0 : 1000 : 0"
       inkscape:vp_z="128 : 64 : 1"
       inkscape:persp3d-origin="64 : 42.666667 : 1"
       id="perspective10" />
  </defs>
  <path
     style="opacity:1;fill:#000000;fill-opacity:1;fill-rule:nonzero;stroke:none"
     id="path3708"
     d="M 72.205592,0 C 52.722717,-0.43304155 33.301212,8.0079534 20.361842,24.53125 C -1.4307817,52.35996 3.4393821,92.582376 31.268092,114.375 C 59.096802,136.16762 99.319218,131.29746 121.11184,103.46875 L 70.736842,64 L 120.92434,24.28125 C 117.78624,20.318459 114.18535,16.741548 110.20559,13.625 C 98.900179,4.7717466 85.53598,0.29629158 72.205592,0 z M 78.736842,16 C 83.15512,16 86.736842,19.581722 86.736842,24 C 86.736842,28.418278 83.15512,32 78.736842,32 C 74.318564,32 70.736842,28.418278 70.736842,24 C 70.736842,19.581722 74.318564,16 78.736842,16 z" />
  <path
     style="opacity:0.66000001;fill:#000000;fill-opacity:1;fill-rule:nonzero;stroke:none"
     id="rect3682"
     d="M -48.823001,-10 C -53.255001,-10 -56.823001,-6.432 -56.823001,-2 L -56.823001,38.00002 C -56.823001,42.43202 -53.255001,46.00002 -48.823001,46.00002 L -8.823001,46.00002 C -4.391001,46.00002 -0.823001,42.43202 -0.823001,38.00002 L -0.823001,-2 C -0.823001,-6.432 -4.391001,-10 -8.823001,-10 L -48.823001,-10 z M -42.823001,-2 C -39.509293,-2 -36.823001,0.68629 -36.823001,4 C -36.823001,7.31371 -39.509293,10 -42.823001,10 C -46.136709,10 -48.823001,7.31371 -48.823001,4 C -48.823001,0.68629 -46.136709,-2 -42.823001,-2 z M -14.823001,-2 C -11.509293,-2 -8.823001,0.68629 -8.823001,4 C -8.823001,7.31371 -11.509293,10 -14.823001,10 C -18.136709,10 -20.823001,7.31371 -20.823001,4 C -20.823001,0.68629 -18.136709,-2 -14.823001,-2 z M -28.823001,12 C -25.509293,12 -22.823001,14.68629 -22.823001,18 C -22.823001,21.31371 -25.509293,24 -28.823001,24 C -32.136709,24 -34.823001,21.31371 -34.823001,18 C -34.823001,14.68629 -32.136709,12 -28.823001,12 z M -42.823001,26 C -39.509293,26 -36.823001,28.68632 -36.823001,32.00002 C -36.823001,35.31372 -39.509293,38.00002 -42.823001,38.00002 C -46.136709,38.00002 -48.823001,35.31372 -48.823001,32.00002 C -48.823001,28.68632 -46.136709,26 -42.823001,26 z M -14.854251,26 C -11.553538,26 -8.885501,28.66802 -8.885501,31.96872 C -8.885501,35.26942 -11.553538,37.93752 -14.854251,37.93752 C -18.154964,37.93752 -20.823001,35.26942 -20.823001,31.96872 C -20.823001,28.66802 -18.154964,26 -14.854251,26 z" />
</svg>
