<?xml version="1.0" encoding="UTF-8" standalone="no"?>
<!-- Created with Inkscape (http://www.inkscape.org/) -->
<svg
   xmlns:dc="http://purl.org/dc/elements/1.1/"
   xmlns:cc="http://creativecommons.org/ns#"
   xmlns:rdf="http://www.w3.org/1999/02/22-rdf-syntax-ns#"
   xmlns:svg="http://www.w3.org/2000/svg"
   xmlns="http://www.w3.org/2000/svg"
   xmlns:sodipodi="http://sodipodi.sourceforge.net/DTD/sodipodi-0.dtd"
   xmlns:inkscape="http://www.inkscape.org/namespaces/inkscape"
   width="128"
   height="128"
   id="svg2"
   version="1.1"
   inkscape:version="0.46"
   sodipodi:docname="appointment.svg"
   sodipodi:version="0.32"
   inkscape:output_extension="org.inkscape.output.svg.inkscape">
  <defs
     id="defs4">
    <inkscape:perspective
       sodipodi:type="inkscape:persp3d"
       inkscape:vp_x="0 : 526.18109 : 1"
       inkscape:vp_y="0 : 1000 : 0"
       inkscape:vp_z="744.09448 : 526.18109 : 1"
       inkscape:persp3d-origin="372.04724 : 350.78739 : 1"
       id="perspective10" />
  </defs>
  <sodipodi:namedview
     id="base"
     pagecolor="#ffffff"
     bordercolor="#666666"
     borderopacity="1.0"
     inkscape:pageopacity="0.0"
     inkscape:pageshadow="2"
     inkscape:zoom="2"
     inkscape:cx="-18.284742"
     inkscape:cy="56.265907"
     inkscape:document-units="px"
     inkscape:current-layer="layer3"
     showgrid="true"
     inkscape:window-width="1097"
     inkscape:window-height="841"
     inkscape:window-x="335"
     inkscape:window-y="5"
     inkscape:window-maximized="0">
    <inkscape:grid
       type="xygrid"
       id="grid2816"
       empspacing="8"
       visible="true"
       enabled="true"
       snapvisiblegridlinesonly="true" />
  </sodipodi:namedview>
  <metadata
     id="metadata7">
    <rdf:RDF>
      <cc:Work
         rdf:about="">
        <dc:format>image/svg+xml</dc:format>
        <dc:type
           rdf:resource="http://purl.org/dc/dcmitype/StillImage" />
        <dc:title />
      </cc:Work>
    </rdf:RDF>
  </metadata>
  <g
     inkscape:label="Layer 1"
     inkscape:groupmode="layer"
     id="layer1"
     transform="translate(0,-924.36218)"
     style="opacity:1">
    <path
       sodipodi:type="arc"
       style="opacity:1;fill:#000000;fill-opacity:1;stroke:none"
       id="path2433"
       sodipodi:cx="63.25"
       sodipodi:cy="68"
       sodipodi:rx="50.5"
       sodipodi:ry="50.5"
       d="M 110.70448,50.727985 A 50.5,50.5 0 1 1 63.170549,17.500062 L 63.25,68 z"
       transform="matrix(0.8909078,0,0,0.889831,7.007713,928.58316)"
       sodipodi:start="5.9341195"
       sodipodi:end="10.994001" />
  </g>
  <g
     inkscape:groupmode="layer"
     id="layer2"
     style="opacity:0.66">
    <path
       style="opacity:1;fill:#000000;fill-opacity:1;stroke:none"
       d="M 64.357631,0.234093 C 29.029632,0.234093 0.357631,28.906093 0.357631,64.234093 C 0.357631,99.56209 29.029632,128.23409 64.357631,128.23409 C 99.68563,128.23409 128.35763,99.56209 128.35763,64.234093 C 128.35763,49.090531 123.06655,35.197563 114.26388,24.234093 L 112.35763,24.234093 L 112.35763,36.234093 C 112.35763,38.450092 110.57363,40.234093 108.35763,40.234093 C 106.14163,40.234092 104.35763,38.450093 104.35763,36.234093 L 104.35763,24.234093 L 92.357631,24.234093 C 90.141631,24.234094 88.357631,22.450093 88.357631,20.234093 C 88.357631,18.018094 90.141631,16.234093 92.357631,16.234093 L 104.35763,16.234093 L 104.35763,14.327843 C 93.394161,5.525175 79.501193,0.234093 64.357631,0.234093 z M 63.295131,19.859093 L 63.357631,64.796593 L 105.63888,49.421593 C 114.13293,72.730601 102.06985,98.53156 78.732631,107.01534 C 55.395413,115.49912 29.570432,103.4806 21.076381,80.171593 C 12.58233,56.862585 24.645415,31.030377 47.982631,22.546593 C 53.145302,20.669805 57.801136,19.867726 63.295131,19.859093 z"
       id="path2435" />
  </g>
  <g
     inkscape:groupmode="layer"
     id="layer3"
     style="opacity:0.86">
    <path
       style="opacity:1;fill:#000000;fill-opacity:1;stroke:none"
       d="M 108.21526,0.234093 C 105.99926,0.234093 104.21526,2.018093 104.21526,4.234093 L 104.21526,16.234093 L 92.21526,16.234093 C 89.99926,16.234093 88.21526,18.018094 88.21526,20.234093 C 88.21526,22.450093 89.99926,24.234094 92.21526,24.234093 L 104.21526,24.234093 L 104.21526,36.234093 C 104.21526,38.450093 105.99926,40.234092 108.21526,40.234093 C 110.43126,40.234093 112.21526,38.450092 112.21526,36.234093 L 112.21526,24.234093 L 124.21526,24.234093 C 126.43126,24.234093 128.21526,22.450094 128.21526,20.234093 C 128.21526,18.018093 126.43126,16.234094 124.21526,16.234093 L 112.21526,16.234093 L 112.21526,4.234093 C 112.21526,2.018093 110.43126,0.234093 108.21526,0.234093 z"
       id="rect2437" />
  </g>
</svg>
