<?xml version="1.0" encoding="UTF-8" standalone="no"?>
<!-- Created with Inkscape (http://www.inkscape.org/) -->
<svg
   xmlns:dc="http://purl.org/dc/elements/1.1/"
   xmlns:cc="http://creativecommons.org/ns#"
   xmlns:rdf="http://www.w3.org/1999/02/22-rdf-syntax-ns#"
   xmlns:svg="http://www.w3.org/2000/svg"
   xmlns="http://www.w3.org/2000/svg"
   xmlns:sodipodi="http://sodipodi.sourceforge.net/DTD/sodipodi-0.dtd"
   xmlns:inkscape="http://www.inkscape.org/namespaces/inkscape"
   width="64"
   height="64"
   id="svg2"
   version="1.1"
   inkscape:version="0.47 r22583"
   sodipodi:docname="arora.svg">
  <defs
     id="defs4">
    <inkscape:perspective
       sodipodi:type="inkscape:persp3d"
       inkscape:vp_x="0 : 526.18109 : 1"
       inkscape:vp_y="0 : 1000 : 0"
       inkscape:vp_z="744.09448 : 526.18109 : 1"
       inkscape:persp3d-origin="372.04724 : 350.78739 : 1"
       id="perspective10" />
  </defs>
  <sodipodi:namedview
     id="base"
     pagecolor="#ffffff"
     bordercolor="#666666"
     borderopacity="1.0"
     inkscape:pageopacity="0.0"
     inkscape:pageshadow="2"
     inkscape:zoom="12.78125"
     inkscape:cx="20.811736"
     inkscape:cy="32.03912"
     inkscape:document-units="px"
     inkscape:current-layer="layer1"
     showgrid="true"
     inkscape:window-width="1440"
     inkscape:window-height="851"
     inkscape:window-x="-4"
     inkscape:window-y="-1"
     inkscape:window-maximized="0"
     showguides="true"
     inkscape:guide-bbox="true">
    <inkscape:grid
       type="xygrid"
       id="grid2816"
       empspacing="4"
       visible="true"
       enabled="true"
       snapvisiblegridlinesonly="true" />
  </sodipodi:namedview>
  <metadata
     id="metadata7">
    <rdf:RDF>
      <cc:Work
         rdf:about="">
        <dc:format>image/svg+xml</dc:format>
        <dc:type
           rdf:resource="http://purl.org/dc/dcmitype/StillImage" />
        <dc:title />
      </cc:Work>
    </rdf:RDF>
  </metadata>
  <g
     inkscape:label="Layer 1"
     inkscape:groupmode="layer"
     id="layer1"
     transform="translate(0,-988.36218)">
    <path
       style="opacity:1;fill:#000000;fill-opacity:1;fill-rule:nonzero;stroke:none"
       d="M 32 0 C 25.218839 0 18.954692 2.1194957 13.78125 5.71875 C 12.640804 8.7364588 13.600619 13.224998 16.15625 18.25 C 18.786012 15.226815 22.260442 12.943718 26.21875 11.8125 C 27.673575 6.8724031 29.769295 2.7805207 32.28125 0 C 32.187689 -0.00080468004 32.093751 0 32 0 z M 37.71875 0.53125 C 34.779575 1.8581858 32.22017 5.7054177 30.46875 11.0625 C 30.971365 11.026504 31.488214 11 32 11 C 35.704085 11 39.166132 11.972995 42.1875 13.65625 C 46.7066 11.190341 51.070905 9.7523966 54.8125 9.5625 C 50.278153 4.9523239 44.350584 1.7297835 37.71875 0.53125 z M 9.5625 9.1875 C 4.952329 13.721853 1.7297811 19.649417 0.53125 26.28125 C 1.857647 29.219254 5.7086457 31.749894 11.0625 33.5 C 11.02797 33.007619 11 32.501163 11 32 C 11 28.311116 11.954576 24.856466 13.625 21.84375 C 11.157442 17.319071 9.7525398 12.932477 9.5625 9.1875 z M 55.625 13.3125 C 52.878471 13.250898 49.454438 14.273192 45.75 16.15625 C 48.773185 18.786012 51.056282 22.260442 52.1875 26.21875 C 57.130513 27.673168 61.218226 29.768207 64 32.28125 C 64.000805 32.187689 64 32.093751 64 32 C 64 25.218844 61.880501 18.954695 58.28125 13.78125 C 57.487896 13.48143 56.604565 13.334471 55.625 13.3125 z M 52.9375 30.46875 C 52.973496 30.971365 53 31.488214 53 32 C 53 35.704085 52.027005 39.166132 50.34375 42.1875 C 52.812751 46.712077 54.247451 51.067042 54.4375 54.8125 C 59.047671 50.278151 62.270219 44.350581 63.46875 37.71875 C 62.141282 34.778492 58.297183 32.220198 52.9375 30.46875 z M 0 31.71875 C -0.00080467825 31.812311 0 31.906249 0 32 C 0 38.781156 2.1194986 45.045307 5.71875 50.21875 C 8.7376478 51.359614 13.22289 50.401247 18.25 47.84375 C 15.219473 45.207601 12.940949 41.720246 11.8125 37.75 C 6.8770461 36.296258 2.7785188 34.22893 0 31.71875 z M 47.84375 45.75 C 45.213988 48.773185 41.739558 51.056282 37.78125 52.1875 C 36.325344 57.127894 34.231115 61.219048 31.71875 64 C 31.812311 64.000805 31.906249 64 32 64 C 38.781162 64 45.045308 61.880502 50.21875 58.28125 C 51.359273 55.263318 50.397813 50.775629 47.84375 45.75 z M 21.84375 50.375 C 17.318411 52.842848 12.933044 54.247463 9.1875 54.4375 C 13.721847 59.047672 19.649416 62.270218 26.28125 63.46875 C 29.219595 62.142181 31.749548 58.291663 33.5 52.9375 C 33.007619 52.97203 32.501163 53 32 53 C 28.311116 53 24.856466 52.045424 21.84375 50.375 z "
       transform="translate(0,988.36218)"
       id="path2860" />
    <path
       sodipodi:type="arc"
       style="opacity:1;fill:#000000;fill-opacity:1;fill-rule:nonzero;stroke:none"
       id="path3776"
       sodipodi:cx="32"
       sodipodi:cy="32"
       sodipodi:rx="16"
       sodipodi:ry="16"
       d="m 48,32 c 0,8.836556 -7.163444,16 -16,16 -8.836556,0 -16,-7.163444 -16,-16 0,-8.836556 7.163444,-16 16,-16 8.836556,0 16,7.163444 16,16 z"
       transform="translate(0,988.36218)" />
  </g>
</svg>
