<?xml version="1.0" encoding="UTF-8" standalone="no"?>
<!-- Created with Inkscape (http://www.inkscape.org/) -->
<svg
   xmlns:dc="http://purl.org/dc/elements/1.1/"
   xmlns:cc="http://creativecommons.org/ns#"
   xmlns:rdf="http://www.w3.org/1999/02/22-rdf-syntax-ns#"
   xmlns:svg="http://www.w3.org/2000/svg"
   xmlns="http://www.w3.org/2000/svg"
   xmlns:sodipodi="http://sodipodi.sourceforge.net/DTD/sodipodi-0.dtd"
   xmlns:inkscape="http://www.inkscape.org/namespaces/inkscape"
   width="64"
   height="64"
   id="svg2"
   version="1.1"
   inkscape:version="0.46"
   sodipodi:docname="arora.alt.svg"
   sodipodi:version="0.32"
   inkscape:output_extension="org.inkscape.output.svg.inkscape">
  <defs
     id="defs4">
    <inkscape:perspective
       sodipodi:type="inkscape:persp3d"
       inkscape:vp_x="0 : 526.18109 : 1"
       inkscape:vp_y="0 : 1000 : 0"
       inkscape:vp_z="744.09448 : 526.18109 : 1"
       inkscape:persp3d-origin="372.04724 : 350.78739 : 1"
       id="perspective10" />
    <inkscape:perspective
       id="perspective2389"
       inkscape:persp3d-origin="372.04724 : 350.78739 : 1"
       inkscape:vp_z="744.09448 : 526.18109 : 1"
       inkscape:vp_y="0 : 1000 : 0"
       inkscape:vp_x="0 : 526.18109 : 1"
       sodipodi:type="inkscape:persp3d" />
    <inkscape:perspective
       id="perspective3812"
       inkscape:persp3d-origin="372.04724 : 350.78739 : 1"
       inkscape:vp_z="744.09448 : 526.18109 : 1"
       inkscape:vp_y="0 : 1000 : 0"
       inkscape:vp_x="0 : 526.18109 : 1"
       sodipodi:type="inkscape:persp3d" />
    <inkscape:perspective
       sodipodi:type="inkscape:persp3d"
       inkscape:vp_x="0 : 526.18109 : 1"
       inkscape:vp_y="0 : 1000 : 0"
       inkscape:vp_z="744.09448 : 526.18109 : 1"
       inkscape:persp3d-origin="372.04724 : 350.78739 : 1"
       id="perspective3231" />
    <inkscape:perspective
       sodipodi:type="inkscape:persp3d"
       inkscape:vp_x="0 : 526.18109 : 1"
       inkscape:vp_y="0 : 1000 : 0"
       inkscape:vp_z="744.09448 : 526.18109 : 1"
       inkscape:persp3d-origin="372.04724 : 350.78739 : 1"
       id="perspective3229" />
    <inkscape:perspective
       id="perspective3227"
       inkscape:persp3d-origin="372.04724 : 350.78739 : 1"
       inkscape:vp_z="744.09448 : 526.18109 : 1"
       inkscape:vp_y="0 : 1000 : 0"
       inkscape:vp_x="0 : 526.18109 : 1"
       sodipodi:type="inkscape:persp3d" />
  </defs>
  <sodipodi:namedview
     id="base"
     pagecolor="#ffffff"
     bordercolor="#666666"
     borderopacity="1.0"
     inkscape:pageopacity="0.0"
     inkscape:pageshadow="2"
     inkscape:zoom="6.390625"
     inkscape:cx="-1.5892573"
     inkscape:cy="25.761673"
     inkscape:document-units="px"
     inkscape:current-layer="layer2"
     showgrid="true"
     inkscape:window-width="1440"
     inkscape:window-height="851"
     inkscape:window-x="-4"
     inkscape:window-y="-1"
     inkscape:window-maximized="0"
     showguides="true"
     inkscape:guide-bbox="true">
    <inkscape:grid
       type="xygrid"
       id="grid2816"
       empspacing="4"
       visible="true"
       enabled="true"
       snapvisiblegridlinesonly="true" />
  </sodipodi:namedview>
  <metadata
     id="metadata7">
    <rdf:RDF>
      <cc:Work
         rdf:about="">
        <dc:format>image/svg+xml</dc:format>
        <dc:type
           rdf:resource="http://purl.org/dc/dcmitype/StillImage" />
        <dc:title />
      </cc:Work>
    </rdf:RDF>
  </metadata>
  <g
     inkscape:label="Layer 1"
     inkscape:groupmode="layer"
     id="layer1"
     transform="translate(0,-988.36218)">
    <path
       style="opacity:1;fill:#000000;fill-opacity:1;fill-rule:nonzero;stroke:none"
       d="M 39.340397,1005.8979 C 40.063469,1006.7556 41.511637,1008.4618 44.266263,1011.8888 C 44.548277,1012.6685 44.570297,1013.577 44.46596,1014.5847 C 46.55162,1016.3251 48.239052,1018.5778 49.325261,1021.1081 C 48.50377,1020.9876 47.568721,1020.94 46.496216,1020.9417 C 45.829381,1019.6956 44.982665,1018.5464 44,1017.5469 C 43.834054,1018.6598 43.720519,1019.8552 43.733736,1021.1414 C 45.030035,1023.1008 45.763993,1025.4423 45.763993,1027.9645 C 45.763994,1034.8074 40.225841,1040.3123 33.38276,1040.3123 C 26.539682,1040.3123 20.968245,1034.8074 20.968245,1027.9645 C 20.968246,1021.1212 26.539679,1015.5499 33.38276,1015.5499 C 34.312812,1015.5499 35.206785,1015.6881 36.078674,1015.8827 C 35.645125,1014.4524 35.062677,1013.2944 34.148267,1012.6543 C 34.054939,1012.808 33.975118,1012.9585 33.882003,1013.1203 C 33.716611,1013.1149 33.549476,1013.0537 33.38276,1013.0537 C 30.494579,1013.0537 27.776244,1013.8919 25.494717,1015.3169 C 24.706096,1014.8609 24.004495,1014.5061 23.33133,1014.2186 C 21.747638,1015.1305 20.39445,1016.2815 19.537081,1017.5802 C 19.840976,1018.335 20.246098,1019.2081 20.768548,1020.1096 C 19.347964,1022.3888 18.505312,1025.081 18.505312,1027.9645 C 18.505312,1028.1208 18.500515,1028.2751 18.505312,1028.4304 C 17.598397,1028.9525 16.823389,1029.4607 16.17551,1029.9614 C 16.098602,1029.3004 16.009096,1028.6458 16.009096,1027.9645 C 16.009095,1025.5901 16.50055,1023.3367 17.373694,1021.2745 C 14.239323,1023.7522 10.50104,1027.0014 8.6535787,1028.6301 C 9.0099225,1042.0042 19.921841,1052.7269 33.38276,1052.7269 C 38.480725,1052.7269 43.222485,1051.1727 47.161874,1048.5333 L 43.567323,1044.9387 C 44.867265,1044.1523 46.076573,1043.1939 47.161874,1042.143 C 47.261203,1042.0863 47.315326,1042.0228 47.394854,1041.9432 C 47.474382,1041.8635 47.537725,1041.8096 47.594551,1041.7102 C 48.709409,1040.5587 49.711941,1039.31 50.523444,1037.916 L 54.151279,1041.4772 C 56.697025,1037.5843 58.178508,1032.9631 58.178508,1027.9645 C 58.178508,1026.016 57.938852,1024.126 57.512851,1022.3063 C 56.344152,1023.3063 54.694469,1024.7328 53.58547,1024.6695 C 51.904789,1024.5735 50.122256,1024.3816 49.65809,1023.0386 C 50.602938,1021.9838 50.958779,1021.3053 52.320721,1019.211 C 52.054863,1016.924 47.397381,1013.8155 46.329802,1011.2897 C 45.654741,1009.2774 45.214436,1007.5029 44.931921,1006.1642 C 45.068372,1007.4661 45.221989,1009.1319 45.364598,1011.6226 C 43.80514,1010.9441 40.667943,1007.4532 39.340397,1005.8979 z M 33.38276,1022.9721 C 30.64694,1022.9721 28.423611,1025.2285 28.423611,1027.9645 C 28.42361,1030.7001 30.646941,1032.9236 33.38276,1032.9236 C 36.118583,1032.9236 38.308628,1030.7001 38.308627,1027.9645 C 38.30863,1025.2285 36.118584,1022.9721 33.38276,1022.9721 z M 50.590011,1025.8677 C 50.669271,1026.5405 50.723142,1027.2703 50.723142,1027.9645 C 50.723145,1031.866 49.435931,1035.4174 47.261723,1038.3154 C 46.955997,1037.5475 46.530015,1036.7072 45.996973,1035.7859 C 47.417556,1033.5068 48.226926,1030.8478 48.226926,1027.9645 C 48.226924,1027.798 48.232346,1027.6303 48.226926,1027.4652 C 49.15694,1026.9291 49.937373,1026.3841 50.590011,1025.8677 z M 17.44026,1034.7874 C 18.261678,1034.9082 19.19979,1034.9554 20.269304,1034.9538 C 21.656621,1037.5465 23.800747,1039.6905 26.393355,1041.0779 C 26.393875,1042.141 26.44072,1043.0899 26.55977,1043.907 C 22.467935,1042.1589 19.196409,1038.8777 17.44026,1034.7874 z M 41.23752,1040.5786 C 42.166604,1041.1162 42.993862,1041.5038 43.76702,1041.8101 C 40.869136,1043.9843 37.284452,1045.2716 33.38276,1045.2716 C 32.681704,1045.2716 31.965237,1045.2193 31.285939,1045.1384 C 31.804431,1044.4844 32.380024,1043.7084 32.9168,1042.7754 C 33.072754,1042.7801 33.225633,1042.8087 33.38276,1042.8087 C 36.270946,1042.8087 38.955993,1042.0037 41.23752,1040.5786 z M 28.456893,1047.1021 C 28.552024,1047.1117 28.657279,1047.1132 28.75644,1047.1021 C 28.697065,1047.1099 28.648031,1047.1352 28.590025,1047.1354 C 28.546964,1047.1248 28.499842,1047.1131 28.456893,1047.1021 z"
       id="path3909" />
  </g>
  <g
     inkscape:groupmode="layer"
     id="layer2"
     style="opacity:0.66">
    <g
       transform="matrix(0.8594118,0,0,0.8594118,3.9987223,-856.6092)"
       id="g3233"
       inkscape:label="Layer 1">
      <path
         sodipodi:nodetypes="cccccscccccssssssccsssssscccsscccccscccssccccc"
         id="path2427"
         d="M 37.937545,996.70846 C 24.61024,997.08731 24.135216,1005.3617 18.905084,1010.028 C 15.142117,1014.0157 12.627277,1016.1853 9.119017,1020.359 C 8.4549564,1013.7568 6.0216984,1023.9451 5.8450019,1024.5282 C 5.7600542,1024.6412 5.6794242,1024.7078 5.5931546,1024.8234 C 4.2792903,1028.8616 3.6389482,1029.7811 3.0027251,1032.3503 C 2.9984062,1032.3633 3.0070382,1032.3741 3.0027251,1032.3872 L 5.9169583,1031.5385 C 5.4843186,1033.4286 3.5824621,1032.9087 2.8947906,1032.6454 C 1.4979718,1036.8413 0.416963,1039.7639 0.30436106,1041.7219 C 1.2602353,1042.6705 1.8661293,1042.8962 3.8662016,1043.825 C 3.8916597,1043.8019 3.9131034,1043.7749 3.938158,1043.7512 C 4.170846,1043.5239 4.3678974,1043.2463 4.5497872,1042.9764 C 4.7304312,1042.7009 4.9153188,1042.4076 5.08946,1042.1278 C 5.3050762,1041.7599 5.5420716,1041.4153 5.7730456,1041.0578 C 5.9803104,1040.7501 6.1543211,1040.4347 6.3127184,1040.0985 C 6.4720357,1039.7505 6.6680192,1039.3995 6.8523912,1039.0654 C 6.9482164,1038.8925 7.019817,1038.7278 7.1042385,1038.5488 L 7.967715,1038.143 C 7.8797175,1038.3258 7.7764711,1038.5182 7.6798895,1038.6964 C 7.4960128,1039.0293 7.2992449,1039.3459 7.1402167,1039.6926 C 6.9813117,1040.0334 6.8152776,1040.3805 6.6005439,1040.6888 C 6.3700477,1041.0436 6.124789,1041.3891 5.9169583,1041.7588 C 5.7424474,1042.0383 5.5593384,1042.3329 5.3772855,1042.6074 C 5.1926993,1042.8785 5.0305196,1043.1476 4.8016345,1043.3822 C 4.5946577,1043.5914 4.3637878,1043.7781 4.1180489,1043.9357 C 4.4101439,1044.0723 4.4363751,1044.0926 4.8016345,1044.2677 C 7.0458871,1042.2297 12.838256,1037.0892 16.818349,1033.9737 C 17.0742,1027.5517 28.116103,1022.6831 33.979945,1024.1962 C 39.843786,1025.7091 37.301165,1042.1731 41.715255,1043.2347 C 46.129275,1044.2961 45.739936,1044.061 47.291874,1040.7995 C 44.548487,1033.3259 48.15216,1027.4906 46.860136,1023.8272 C 49.432312,1023.2805 48.398398,1023.5049 49.306652,1023.0893 C 50.554862,1026.1177 55.975582,1029.8294 56.286421,1032.5716 C 54.694049,1035.0827 54.297009,1035.919 53.192297,1037.1837 C 53.734997,1038.794 55.796481,1039.0242 57.761527,1039.1392 C 59.726572,1039.2543 63.326843,1035.1669 63.877818,1035.1544 C 64.626395,1030.6145 64.094137,1031.8027 63.733906,1029.5461 C 62.177489,1027.1641 61.066005,1024.1286 60.495869,1020.8386 C 59.812657,1017.5366 62.091136,1011.7303 60.639782,1007.9987 C 59.823398,1005.8997 57.512951,1003.1348 54.12773,1000.8777 C 51.494779,999.12218 48.211308,997.65993 44.485575,997.07742 C 42.005484,996.7756 39.841446,996.65434 37.937545,996.70846 z M 6.6725003,1032.0551 L 10.378254,1034.1213 C 8.5768827,1036.0275 6.6725005,1032.0551 6.6725003,1032.0551 z"
         style="opacity:1;fill:#000000;fill-rule:evenodd;stroke:#000000;stroke-width:0.25220850000000000;stroke-linecap:butt;stroke-linejoin:miter;stroke-miterlimit:4;stroke-dasharray:none;stroke-opacity:1" />
    </g>
  </g>
</svg>
