<?xml version="1.0" encoding="UTF-8" standalone="no"?>
<!-- Created with Inkscape (http://www.inkscape.org/) -->
<svg
   xmlns:dc="http://purl.org/dc/elements/1.1/"
   xmlns:cc="http://creativecommons.org/ns#"
   xmlns:rdf="http://www.w3.org/1999/02/22-rdf-syntax-ns#"
   xmlns:svg="http://www.w3.org/2000/svg"
   xmlns="http://www.w3.org/2000/svg"
   xmlns:sodipodi="http://sodipodi.sourceforge.net/DTD/sodipodi-0.dtd"
   xmlns:inkscape="http://www.inkscape.org/namespaces/inkscape"
   width="64"
   height="64"
   id="svg2"
   version="1.1"
   inkscape:version="0.46"
   sodipodi:docname="arora.alt2.svg"
   sodipodi:version="0.32"
   inkscape:output_extension="org.inkscape.output.svg.inkscape">
  <defs
     id="defs4">
    <inkscape:perspective
       sodipodi:type="inkscape:persp3d"
       inkscape:vp_x="0 : 526.18109 : 1"
       inkscape:vp_y="0 : 1000 : 0"
       inkscape:vp_z="744.09448 : 526.18109 : 1"
       inkscape:persp3d-origin="372.04724 : 350.78739 : 1"
       id="perspective10" />
    <inkscape:perspective
       id="perspective2389"
       inkscape:persp3d-origin="372.04724 : 350.78739 : 1"
       inkscape:vp_z="744.09448 : 526.18109 : 1"
       inkscape:vp_y="0 : 1000 : 0"
       inkscape:vp_x="0 : 526.18109 : 1"
       sodipodi:type="inkscape:persp3d" />
    <inkscape:perspective
       id="perspective3812"
       inkscape:persp3d-origin="372.04724 : 350.78739 : 1"
       inkscape:vp_z="744.09448 : 526.18109 : 1"
       inkscape:vp_y="0 : 1000 : 0"
       inkscape:vp_x="0 : 526.18109 : 1"
       sodipodi:type="inkscape:persp3d" />
  </defs>
  <sodipodi:namedview
     id="base"
     pagecolor="#ffffff"
     bordercolor="#666666"
     borderopacity="1.0"
     inkscape:pageopacity="0.0"
     inkscape:pageshadow="2"
     inkscape:zoom="6.390625"
     inkscape:cx="14.125144"
     inkscape:cy="24.502618"
     inkscape:document-units="px"
     inkscape:current-layer="layer1"
     showgrid="true"
     inkscape:window-width="1440"
     inkscape:window-height="851"
     inkscape:window-x="-4"
     inkscape:window-y="-1"
     inkscape:window-maximized="0"
     showguides="true"
     inkscape:guide-bbox="true">
    <inkscape:grid
       type="xygrid"
       id="grid2816"
       empspacing="4"
       visible="true"
       enabled="true"
       snapvisiblegridlinesonly="true" />
  </sodipodi:namedview>
  <metadata
     id="metadata7">
    <rdf:RDF>
      <cc:Work
         rdf:about="">
        <dc:format>image/svg+xml</dc:format>
        <dc:type
           rdf:resource="http://purl.org/dc/dcmitype/StillImage" />
        <dc:title />
      </cc:Work>
    </rdf:RDF>
  </metadata>
  <g
     inkscape:label="Layer 1"
     inkscape:groupmode="layer"
     id="layer1"
     transform="translate(0,-988.36218)">
    <path
       style="opacity:1;fill:#000000;fill-rule:evenodd;stroke:#000000;stroke-width:0.25220850000000000;stroke-linecap:butt;stroke-linejoin:miter;stroke-miterlimit:4;stroke-dasharray:none;stroke-opacity:1"
       d="M 37.937545,996.70846 C 24.61024,997.08731 24.135216,1005.3617 18.905084,1010.028 C 15.142117,1014.0157 12.627277,1016.1853 9.119017,1020.359 C 8.4549564,1013.7568 6.0216984,1023.9451 5.8450019,1024.5282 C 5.7600542,1024.6412 5.6794242,1024.7078 5.5931546,1024.8234 C 4.2792903,1028.8616 3.6389482,1029.7811 3.0027251,1032.3503 C 2.9984062,1032.3633 3.0070382,1032.3741 3.0027251,1032.3872 L 5.9169583,1031.5385 C 5.4843186,1033.4286 3.5824621,1032.9087 2.8947906,1032.6454 C 1.4979718,1036.8413 0.416963,1039.7639 0.30436106,1041.7219 C 1.2602353,1042.6705 1.8661293,1042.8962 3.8662016,1043.825 C 3.8916597,1043.8019 3.9131034,1043.7749 3.938158,1043.7512 C 4.170846,1043.5239 4.3678974,1043.2463 4.5497872,1042.9764 C 4.7304312,1042.7009 4.9153188,1042.4076 5.08946,1042.1278 C 5.3050762,1041.7599 5.5420716,1041.4153 5.7730456,1041.0578 C 5.9803104,1040.7501 6.1543211,1040.4347 6.3127184,1040.0985 C 6.4720357,1039.7505 6.6680192,1039.3995 6.8523912,1039.0654 C 6.9482164,1038.8925 7.019817,1038.7278 7.1042385,1038.5488 L 7.967715,1038.143 C 7.8797175,1038.3258 7.7764711,1038.5182 7.6798895,1038.6964 C 7.4960128,1039.0293 7.2992449,1039.3459 7.1402167,1039.6926 C 6.9813117,1040.0334 6.8152776,1040.3805 6.6005439,1040.6888 C 6.3700477,1041.0436 6.124789,1041.3891 5.9169583,1041.7588 C 5.7424474,1042.0383 5.5593384,1042.3329 5.3772855,1042.6074 C 5.1926993,1042.8785 5.0305196,1043.1476 4.8016345,1043.3822 C 4.5946577,1043.5914 4.3637878,1043.7781 4.1180489,1043.9357 C 4.4101439,1044.0723 4.4363751,1044.0926 4.8016345,1044.2677 C 7.0458871,1042.2297 12.838256,1037.0892 16.818349,1033.9737 C 17.0742,1027.5517 28.116103,1022.6831 33.979945,1024.1962 C 39.843786,1025.7091 37.301165,1042.1731 41.715255,1043.2347 C 46.129275,1044.2961 45.739936,1044.061 47.291874,1040.7995 C 44.548487,1033.3259 48.15216,1027.4906 46.860136,1023.8272 C 49.432312,1023.2805 48.398398,1023.5049 49.306652,1023.0893 C 50.554862,1026.1177 55.975582,1029.8294 56.286421,1032.5716 C 54.694049,1035.0827 54.297009,1035.919 53.192297,1037.1837 C 53.734997,1038.794 55.796481,1039.0242 57.761527,1039.1392 C 59.726572,1039.2543 63.326843,1035.1669 63.877818,1035.1544 C 64.626395,1030.6145 64.094137,1031.8027 63.733906,1029.5461 C 62.177489,1027.1641 61.066005,1024.1286 60.495869,1020.8386 C 59.812657,1017.5366 62.091136,1011.7303 60.639782,1007.9987 C 59.823398,1005.8997 57.512951,1003.1348 54.12773,1000.8777 C 51.494779,999.12218 48.211308,997.65993 44.485575,997.07742 C 42.005484,996.7756 39.841446,996.65434 37.937545,996.70846 z M 6.6725003,1032.0551 L 10.378254,1034.1213 C 8.5768827,1036.0275 6.6725005,1032.0551 6.6725003,1032.0551 z"
       id="path2427"
       sodipodi:nodetypes="cccccscccccssssssccsssssscccsscccccscccssccccc" />
  </g>
</svg>
