<?xml version="1.0" encoding="UTF-8" standalone="no"?>
<!-- Created with Inkscape (http://www.inkscape.org/) -->

<svg
   xmlns:dc="http://purl.org/dc/elements/1.1/"
   xmlns:cc="http://creativecommons.org/ns#"
   xmlns:rdf="http://www.w3.org/1999/02/22-rdf-syntax-ns#"
   xmlns:svg="http://www.w3.org/2000/svg"
   xmlns="http://www.w3.org/2000/svg"
   xmlns:sodipodi="http://sodipodi.sourceforge.net/DTD/sodipodi-0.dtd"
   xmlns:inkscape="http://www.inkscape.org/namespaces/inkscape"
   width="128"
   height="128"
   id="svg2"
   sodipodi:version="0.32"
   inkscape:version="0.47 r22583"
   version="1.0"
   sodipodi:docname="bin.svg"
   inkscape:output_extension="org.inkscape.output.svg.inkscape">
  <defs
     id="defs4">
    <inkscape:perspective
       sodipodi:type="inkscape:persp3d"
       inkscape:vp_x="0 : 526.18109 : 1"
       inkscape:vp_y="6.1230318e-14 : 1000 : 0"
       inkscape:vp_z="744.09448 : 526.18109 : 1"
       inkscape:persp3d-origin="372.04724 : 350.78739 : 1"
       id="perspective10" />
  </defs>
  <sodipodi:namedview
     id="base"
     pagecolor="#ffffff"
     bordercolor="#666666"
     borderopacity="1.0"
     inkscape:pageopacity="0.0"
     inkscape:pageshadow="2"
     inkscape:zoom="0.98994949"
     inkscape:cx="-35.934086"
     inkscape:cy="133.89282"
     inkscape:document-units="px"
     inkscape:current-layer="layer1"
     showgrid="true"
     showguides="true"
     inkscape:guide-bbox="true"
     inkscape:window-width="1066"
     inkscape:window-height="761"
     inkscape:window-x="236"
     inkscape:window-y="222"
     inkscape:snap-global="false"
     inkscape:window-maximized="0">
    <inkscape:grid
       type="xygrid"
       id="grid3227"
       empspacing="5"
       visible="true"
       enabled="true" />
  </sodipodi:namedview>
  <metadata
     id="metadata7">
    <rdf:RDF>
      <cc:Work
         rdf:about="">
        <dc:format>image/svg+xml</dc:format>
        <dc:type
           rdf:resource="http://purl.org/dc/dcmitype/StillImage" />
      </cc:Work>
    </rdf:RDF>
  </metadata>
  <g
     inkscape:label="Ebene 1"
     inkscape:groupmode="layer"
     id="layer1">
    <path
       sodipodi:type="arc"
       style="opacity:0.66000001;fill:none;stroke:#000000;stroke-width:3.52380967;stroke-linecap:butt;stroke-linejoin:bevel;stroke-miterlimit:4;stroke-dasharray:none"
       id="path3376"
       sodipodi:cx="35.535713"
       sodipodi:cy="47.642857"
       sodipodi:rx="26.428572"
       sodipodi:ry="26.428572"
       d="M 35.535714,21.214285 A 26.428572,26.428572 0 0 1 35.535714,74.071428"
       transform="matrix(-2.2702702,0,0,-2.2702702,-143.32433,215.0193)"
       sodipodi:start="4.712389"
       sodipodi:end="7.8539816"
       sodipodi:open="true" />
    <path
       style="opacity:0.66000001;fill:#000000"
       d="m -224,46.857143 0,120 c 33.119999,0 60,-26.88 60,-60 0,-33.119999 -26.880003,-60.000001 -60,-60 z m 22,21.59375 c 6.2325,0 11.25,5.017501 11.25,11.25 l 0,54.3125 c 0,6.2325 -5.0175,11.25 -11.25,11.25 -6.2325,0 -11.25,-5.017501 -11.25,-11.25 l 0,-54.3125 c 0,-6.2325 5.0175,-11.25 11.25,-11.25 z"
       id="path3378" />
    <rect
       rx="11.25"
       ry="11.249999"
       y="68.464279"
       x="-255.25"
       height="76.785721"
       width="22.5"
       id="rect2623"
       style="opacity:0.66000001;fill:#000000;fill-opacity:1;stroke:none" />
    <g
       id="g3279"
       transform="translate(5.0468901,1.5079895e-5)">
      <path
         id="path2489"
         d="m 62.96875,8 0,56 0,56 c 30.336152,0 54.9375,-25.088 54.9375,-56 0,-30.912 -24.601347,-56 -54.9375,-56 z"
         style="opacity:1;fill:#000000;stroke:none" />
      <path
         sodipodi:open="true"
         sodipodi:type="arc"
         style="opacity:1;fill:none;stroke:#000000;stroke-width:19.67390822999999855;stroke-linecap:butt;stroke-linejoin:miter;stroke-miterlimit:4;stroke-opacity:1;stroke-dasharray:none"
         id="path3282"
         sodipodi:cx="5.3571429"
         sodipodi:cy="84.071426"
         sodipodi:rx="68.214287"
         sodipodi:ry="68.214287"
         d="m 5.3571443,15.85714 c 37.6737107,0 68.2142857,30.540577 68.2142857,68.214288 -1e-6,37.673712 -30.540576,68.214282 -68.2142848,68.214282"
         sodipodi:start="4.712389"
         sodipodi:end="7.8539816"
         transform="matrix(-0.8056494,0,0,0.8209424,67.272779,-5.0177986)" />
    </g>
  </g>
</svg>
