<?xml version="1.0" encoding="UTF-8" standalone="no"?>
<!-- Created with Inkscape (http://www.inkscape.org/) -->
<svg
   xmlns:dc="http://purl.org/dc/elements/1.1/"
   xmlns:cc="http://creativecommons.org/ns#"
   xmlns:rdf="http://www.w3.org/1999/02/22-rdf-syntax-ns#"
   xmlns:svg="http://www.w3.org/2000/svg"
   xmlns="http://www.w3.org/2000/svg"
   xmlns:sodipodi="http://sodipodi.sourceforge.net/DTD/sodipodi-0.dtd"
   xmlns:inkscape="http://www.inkscape.org/namespaces/inkscape"
   width="128"
   height="128"
   id="svg2"
   sodipodi:version="0.32"
   inkscape:version="0.46+devel"
   version="1.0"
   sodipodi:docname="biohazard.svg"
   inkscape:output_extension="org.inkscape.output.svg.inkscape">
  <defs
     id="defs4">
    <inkscape:perspective
       sodipodi:type="inkscape:persp3d"
       inkscape:vp_x="0 : 526.18109 : 1"
       inkscape:vp_y="0 : 1000 : 0"
       inkscape:vp_z="744.09448 : 526.18109 : 1"
       inkscape:persp3d-origin="372.04724 : 350.78739 : 1"
       id="perspective10" />
    <inkscape:perspective
       id="perspective2489"
       inkscape:persp3d-origin="372.04724 : 350.78739 : 1"
       inkscape:vp_z="744.09448 : 526.18109 : 1"
       inkscape:vp_y="0 : 1000 : 0"
       inkscape:vp_x="0 : 526.18109 : 1"
       sodipodi:type="inkscape:persp3d" />
  </defs>
  <sodipodi:namedview
     id="base"
     pagecolor="#ffffff"
     bordercolor="#666666"
     borderopacity="1.0"
     inkscape:pageopacity="0.0"
     inkscape:pageshadow="2"
     inkscape:zoom="1.4"
     inkscape:cx="63.623378"
     inkscape:cy="48.397238"
     inkscape:document-units="px"
     inkscape:current-layer="layer1"
     showgrid="false"
     showguides="true"
     inkscape:guide-bbox="true"
     inkscape:window-width="1021"
     inkscape:window-height="917"
     inkscape:window-x="397"
     inkscape:window-y="195" />
  <metadata
     id="metadata7">
    <rdf:RDF>
      <cc:Work
         rdf:about="">
        <dc:format>image/svg+xml</dc:format>
        <dc:type
           rdf:resource="http://purl.org/dc/dcmitype/StillImage" />
      </cc:Work>
    </rdf:RDF>
  </metadata>
  <g
     inkscape:label="Ebene 1"
     inkscape:groupmode="layer"
     id="layer1">
    <g
       id="g3343">
      <path
         sodipodi:open="true"
         sodipodi:end="5.2359878"
         sodipodi:start="4.1887902"
         sodipodi:type="arc"
         style="opacity:1;fill:none;stroke:#000000;stroke-width:2.46224713;stroke-linecap:square;stroke-miterlimit:4;stroke-dasharray:none"
         id="path2540"
         sodipodi:cx="20.455589"
         sodipodi:cy="-125.29575"
         sodipodi:rx="9.8489876"
         sodipodi:ry="9.8489876"
         d="M 15.531095,-133.82523 A 9.8489876,9.8489876 0 0 1 25.380083,-133.82523"
         transform="matrix(3.2490649,0,0,3.2490649,-2.4615372,479.09403)" />
      <path
         id="path2513"
         d="m 124.65181,103.88227 c 7.72205,-16.302728 1.73186,-36.094857 -14.19426,-45.289816 -4.705534,-2.716739 -9.792488,-4.229876 -14.871514,-4.616788 2.193913,-4.583154 3.412317,-9.678159 3.412321,-15.097813 0,-17.934205 -13.484178,-32.714268 -30.826933,-34.793686 13.477358,2.0222925 23.815369,13.685904 23.815377,27.750558 3e-06,14.812543 -11.473827,26.937631 -25.997654,27.966758 l 0.003805,4.368409 c 3.452106,0.886814 5.988981,4.024235 5.98898,7.751782 0,0.84923 -0.138749,1.645174 -0.382852,2.41312 l 4.1677473,2.40625 c 8.1385837,-12.105003 24.406283,-16.003415 37.252893,-8.586412 12.57327,7.259176 17.44389,22.786244 11.63209,35.727638 z m -3.66657,6.03818 C 112.4934,120.58127 97.200083,123.68438 85.019727,116.65205 72.213417,109.25832 67.441454,93.28518 73.766829,80.205142 l -4.276001,-2.46875 c -1.427242,1.351821 -3.354469,2.177242 -5.478905,2.177242 -2.125623,2e-06 -4.092232,-0.825867 -5.525399,-2.179728 l -4.278625,2.473297 c 6.332043,13.082415 1.550345,29.043862 -11.259598,36.439692 -12.573269,7.25918 -28.444163,3.71203 -36.745845,-7.791827 10.257552,14.838857 30.382322,19.548847 46.308463,10.353887 4.736167,-2.73443 8.593455,-6.3839 11.474118,-10.623752 2.880666,4.239842 6.75197,7.867532 11.488137,10.601962 15.531475,8.9671 35.040228,4.71261 45.512068,-9.266719 z M 56.381497,74.31742 c -0.245513,-0.768121 -0.372977,-1.567255 -0.372977,-2.416486 2e-06,-3.727544 2.528297,-6.846556 5.980409,-7.733371 L 61.985123,59.799155 C 47.461299,58.770035 35.984573,46.645969 35.984571,31.833432 35.984569,17.768775 46.32163,6.1079397 59.798992,4.0856443 42.456236,6.1650599 29.011197,20.91497 29.011194,38.849175 c -4e-06,5.419646 1.196222,10.544944 3.390142,15.128102 -5.079037,0.38691 -10.187686,1.89155 -14.893207,4.608291 C 1.9766432,67.55267 -4.0631783,86.614488 2.8073653,102.67304 -2.1792662,89.990296 2.7657073,75.180511 14.946069,68.148186 27.789768,60.732867 44.062277,64.642445 52.203873,76.740777 z"
         style="fill:#000000;fill-opacity:1;stroke:none" />
      <path
         sodipodi:open="true"
         sodipodi:end="1.0471976"
         sodipodi:start="0"
         transform="matrix(3.2490649,0,0,3.2490649,-2.4615372,479.09403)"
         d="M 30.304577,-125.29575 A 9.8489876,9.8489876 0 0 1 25.380083,-116.76628"
         sodipodi:ry="9.8489876"
         sodipodi:rx="9.8489876"
         sodipodi:cy="-125.29575"
         sodipodi:cx="20.455589"
         id="path3328"
         style="opacity:1;fill:none;stroke:#000000;stroke-width:2.46224713;stroke-linecap:square;stroke-miterlimit:4;stroke-dasharray:none"
         sodipodi:type="arc" />
      <path
         sodipodi:open="true"
         sodipodi:end="3.1415927"
         sodipodi:start="2.0943951"
         sodipodi:type="arc"
         style="opacity:1;fill:none;stroke:#000000;stroke-width:2.46224713;stroke-linecap:square;stroke-miterlimit:4;stroke-dasharray:none"
         id="path3330"
         sodipodi:cx="20.455589"
         sodipodi:cy="-125.29575"
         sodipodi:rx="9.8489876"
         sodipodi:ry="9.8489876"
         d="M 15.531096,-116.76628 A 9.8489876,9.8489876 0 0 1 10.606602,-125.29575"
         transform="matrix(3.2490649,0,0,3.2490649,-2.4615372,479.09403)" />
    </g>
  </g>
</svg>
