<?xml version="1.0" encoding="UTF-8" standalone="no"?>
<!-- Created with Inkscape (http://www.inkscape.org/) -->

<svg
   xmlns:dc="http://purl.org/dc/elements/1.1/"
   xmlns:cc="http://creativecommons.org/ns#"
   xmlns:rdf="http://www.w3.org/1999/02/22-rdf-syntax-ns#"
   xmlns:svg="http://www.w3.org/2000/svg"
   xmlns="http://www.w3.org/2000/svg"
   xmlns:sodipodi="http://sodipodi.sourceforge.net/DTD/sodipodi-0.dtd"
   xmlns:inkscape="http://www.inkscape.org/namespaces/inkscape"
   width="128"
   height="128"
   id="svg2"
   sodipodi:version="0.32"
   inkscape:version="0.47 r22583"
   version="1.0"
   sodipodi:docname="chromium.svg"
   inkscape:output_extension="org.inkscape.output.svg.inkscape">
  <defs
     id="defs4">
    <inkscape:perspective
       sodipodi:type="inkscape:persp3d"
       inkscape:vp_x="0 : 526.18109 : 1"
       inkscape:vp_y="0 : 1000 : 0"
       inkscape:vp_z="744.09448 : 526.18109 : 1"
       inkscape:persp3d-origin="372.04724 : 350.78739 : 1"
       id="perspective10" />
    <inkscape:perspective
       id="perspective2692"
       inkscape:persp3d-origin="372.04724 : 350.78739 : 1"
       inkscape:vp_z="744.09448 : 526.18109 : 1"
       inkscape:vp_y="0 : 1000 : 0"
       inkscape:vp_x="0 : 526.18109 : 1"
       sodipodi:type="inkscape:persp3d" />
  </defs>
  <sodipodi:namedview
     id="base"
     pagecolor="#ffffff"
     bordercolor="#666666"
     borderopacity="1.0"
     inkscape:pageopacity="0.0"
     inkscape:pageshadow="2"
     inkscape:zoom="2.8"
     inkscape:cx="14.606232"
     inkscape:cy="80.940506"
     inkscape:document-units="px"
     inkscape:current-layer="layer1"
     showgrid="false"
     inkscape:window-width="1440"
     inkscape:window-height="851"
     inkscape:window-x="0"
     inkscape:window-y="15"
     inkscape:window-maximized="0" />
  <metadata
     id="metadata7">
    <rdf:RDF>
      <cc:Work
         rdf:about="">
        <dc:format>image/svg+xml</dc:format>
        <dc:type
           rdf:resource="http://purl.org/dc/dcmitype/StillImage" />
      </cc:Work>
    </rdf:RDF>
  </metadata>
  <g
     inkscape:label="Capa 1"
     inkscape:groupmode="layer"
     id="layer1">
    <path
       style="opacity:1;fill:#000000;fill-opacity:1;stroke:none;stroke-width:0.20000000000000001;stroke-miterlimit:4;stroke-dasharray:none;stroke-dashoffset:0;stroke-opacity:1"
       d="M 23.117168,14.901127 C 8.9171477,26.621619 -0.13839165,44.354599 -0.13839165,64.190831 C -0.13839165,88.278484 13.199592,109.24084 32.902624,120.12498 C 39.555798,123.02846 47.248881,125.58793 56.158183,127.61508 C 56.217887,127.62213 56.279641,127.6082 56.339395,127.61508 C 24.669169,110.21326 29.822017,102.12457 29.822017,102.12457 L 54.648082,78.325379 C 54.64808,78.325373 28.769263,71.378913 34.291917,42.384969 C 25.456936,26.678331 24.250972,30.732984 23.117168,14.901127 z"
       id="path2938" />
    <path
       style="opacity:1;fill:#000000;fill-opacity:1;stroke:none;stroke-width:0.20000000000000001;stroke-miterlimit:4;stroke-dasharray:none;stroke-dashoffset:0;stroke-opacity:1"
       d="M 63.708689,0.34375055 C 50.737595,0.34375055 38.693588,4.2033393 28.613936,10.854055 C 26.715525,25.351027 37.734946,37.250627 37.734948,37.250625 C 67.074057,7.3937653 89.863645,37.069411 89.863643,37.069413 C 89.793253,37.069413 109.54017,39.906368 124.41476,44.257495 C 116.02576,18.759788 92.002679,0.34375248 63.708689,0.34375055 z"
       id="path2947" />
    <path
       style="opacity:1;fill:#000000;fill-opacity:1;stroke:none;stroke-width:0.20000000000000001;stroke-miterlimit:4;stroke-dasharray:none;stroke-dashoffset:0;stroke-opacity:1"
       d="M 92.642229,44.645807 C 101.96171,77.09141 61.223495,81.595824 61.050911,81.250661 C 60.878327,80.905494 36.708081,103.17733 36.708079,103.17733 C 36.708079,103.17733 39.840455,113.33384 62.621416,123.17107 C 70.668264,124.97626 78.166034,124.60732 85.091723,122.68784 C 85.290728,122.61718 85.497671,122.57921 85.695763,122.50663 C 110.15362,113.54583 127.61617,90.015328 127.61617,62.465002 C 127.61617,59.679175 127.41893,56.942115 127.07254,54.250051 C 113.05666,45.895889 92.642227,44.645809 92.642229,44.645807 z"
       id="path2949" />
    <path
       sodipodi:type="arc"
       style="opacity:1;fill:#000000;fill-opacity:1;stroke:none;stroke-width:0.20000000000000001;stroke-miterlimit:4;stroke-dasharray:none;stroke-dashoffset:0;stroke-opacity:1"
       id="path2966"
       sodipodi:cx="-0.8035714"
       sodipodi:cy="53.892857"
       sodipodi:rx="11.696428"
       sodipodi:ry="9.8214283"
       d="M 10.892857,53.892857 A 11.696428,9.8214283 0 1 1 -12.5,53.892857 A 11.696428,9.8214283 0 1 1 10.892857,53.892857 z"
       transform="matrix(2.0362159,0,0,2.3195155,65.275901,-72.584649)" />
  </g>
</svg>
