<?xml version="1.0" encoding="UTF-8" standalone="no"?>
<!-- Created with Inkscape (http://www.inkscape.org/) -->

<svg
   xmlns:dc="http://purl.org/dc/elements/1.1/"
   xmlns:cc="http://creativecommons.org/ns#"
   xmlns:rdf="http://www.w3.org/1999/02/22-rdf-syntax-ns#"
   xmlns:svg="http://www.w3.org/2000/svg"
   xmlns="http://www.w3.org/2000/svg"
   xmlns:sodipodi="http://sodipodi.sourceforge.net/DTD/sodipodi-0.dtd"
   xmlns:inkscape="http://www.inkscape.org/namespaces/inkscape"
   width="128"
   height="128"
   id="svg2"
   sodipodi:version="0.32"
   inkscape:version="0.47 r22583"
   version="1.0"
   sodipodi:docname="color-line.svg"
   inkscape:output_extension="org.inkscape.output.svg.inkscape">
  <defs
     id="defs4">
    <inkscape:perspective
       sodipodi:type="inkscape:persp3d"
       inkscape:vp_x="0 : 526.18109 : 1"
       inkscape:vp_y="0 : 1000 : 0"
       inkscape:vp_z="744.09448 : 526.18109 : 1"
       inkscape:persp3d-origin="372.04724 : 350.78739 : 1"
       id="perspective10" />
    <inkscape:perspective
       sodipodi:type="inkscape:persp3d"
       inkscape:vp_x="0 : 526.18109 : 1"
       inkscape:vp_y="0 : 1000 : 0"
       inkscape:vp_z="744.09448 : 526.18109 : 1"
       inkscape:persp3d-origin="372.04724 : 350.78739 : 1"
       id="perspective3411" />
    <inkscape:perspective
       sodipodi:type="inkscape:persp3d"
       inkscape:vp_x="0 : 526.18109 : 1"
       inkscape:vp_y="0 : 1000 : 0"
       inkscape:vp_z="744.09448 : 526.18109 : 1"
       inkscape:persp3d-origin="372.04724 : 350.78739 : 1"
       id="perspective3258" />
    <linearGradient
       id="linearGradient4622">
      <stop
         id="stop4624"
         offset="0"
         style="stop-color:#dabce7;stop-opacity:1;" />
      <stop
         id="stop4626"
         offset="1"
         style="stop-color:#efe8ef;stop-opacity:1;" />
    </linearGradient>
    <inkscape:perspective
       id="perspective11"
       inkscape:persp3d-origin="24 : 16 : 1"
       inkscape:vp_z="48 : 24 : 1"
       inkscape:vp_y="0 : 1000 : 0"
       inkscape:vp_x="0 : 24 : 1"
       sodipodi:type="inkscape:persp3d" />
  </defs>
  <sodipodi:namedview
     id="base"
     pagecolor="#ffffff"
     bordercolor="#666666"
     borderopacity="1.0"
     inkscape:pageopacity="0.0"
     inkscape:pageshadow="2"
     inkscape:zoom="2.8"
     inkscape:cx="62.975304"
     inkscape:cy="52.015046"
     inkscape:document-units="px"
     inkscape:current-layer="layer1"
     showgrid="false"
     width="524.41px"
     borderlayer="false"
     inkscape:showpageshadow="false"
     inkscape:window-width="1440"
     inkscape:window-height="851"
     inkscape:window-x="0"
     inkscape:window-y="15"
     inkscape:window-maximized="0" />
  <metadata
     id="metadata7">
    <rdf:RDF>
      <cc:Work
         rdf:about="">
        <dc:format>image/svg+xml</dc:format>
        <dc:type
           rdf:resource="http://purl.org/dc/dcmitype/StillImage" />
      </cc:Work>
    </rdf:RDF>
  </metadata>
  <g
     inkscape:label="Capa 1"
     inkscape:groupmode="layer"
     id="layer1">
    <rect
       style="opacity:0.66000001;fill:#000000;fill-opacity:1;stroke:none;stroke-width:3;stroke-miterlimit:4;stroke-dasharray:none;stroke-opacity:1"
       id="rect3181"
       width="0.98214287"
       height="0"
       x="38.660713"
       y="20.142857"
       rx="5.7008772"
       ry="0" />
    <path
       style="opacity:1;fill:#000000;fill-opacity:1;stroke:none;stroke-width:3;stroke-miterlimit:4;stroke-dasharray:none;stroke-opacity:1"
       d="M 53.738287,0.58035978 C 51.007476,0.55305209 48.820133,2.9339102 48.79042,5.9213397 L 48.380724,45.678456 C 48.351014,48.665877 50.534751,51.086936 53.26556,51.114247 L 74.538235,51.335471 C 77.269048,51.36278 79.519423,48.950305 79.549132,45.962887 L 79.927313,6.237374 C 79.957017,3.2499499 77.773289,0.82889331 75.042476,0.8015838 L 53.738287,0.58035978 z M 56.669188,7.6911318 L 71.985514,7.849149 C 73.950126,7.8688024 75.536575,9.6187534 75.515202,11.767975 L 75.231567,40.36908 C 75.21019,42.518302 73.603463,44.212743 71.638848,44.193095 L 56.322523,44.066681 C 54.357911,44.047035 52.802976,42.297077 52.824349,40.147856 L 53.107985,11.546751 C 53.12936,9.3975294 54.704576,7.6714786 56.669188,7.6911318 z M 53.517681,77.787543 C 50.786733,77.787547 48.569814,80.204161 48.569814,83.191729 L 48.569814,122.94885 C 48.569812,125.93643 50.786733,128.32143 53.517681,128.32143 L 74.821871,128.32143 C 77.552816,128.32143 79.738222,125.93643 79.738222,122.94885 L 79.738222,83.191729 C 79.73822,80.20416 77.552817,77.787543 74.821871,77.787543 L 53.517681,77.787543 z M 56.511613,84.866711 L 71.827939,84.866711 C 73.792649,84.866708 75.357627,86.604604 75.357627,88.753933 L 75.357627,117.35504 C 75.357627,119.50438 73.792651,121.24226 71.827939,121.24226 L 56.511613,121.24226 C 54.5469,121.24226 52.95041,119.50438 52.95041,117.35504 L 52.95041,88.753933 C 52.950411,86.6046 54.546901,84.866711 56.511613,84.866711 z"
       id="rect3206" />
    <path
       id="path3227"
       d="M 127.84587,54.005844 C 127.8731,51.267377 125.4989,49.073902 122.51982,49.044106 L 82.873856,48.633261 C 79.894788,48.603468 77.480497,50.793327 77.453263,53.531793 L 77.232658,74.864109 C 77.205425,77.602578 79.611155,79.859262 82.59022,79.889054 L 122.20467,80.268296 C 125.18374,80.298084 127.59803,78.108233 127.62526,75.369764 L 127.84587,54.005844 z M 120.75498,56.944963 L 120.5974,72.304231 C 120.5778,74.274351 118.83275,75.865248 116.68953,75.843815 L 88.168388,75.559384 C 86.025175,75.537948 84.335472,73.926716 84.355064,71.956593 L 84.481125,56.597326 C 84.500716,54.627206 86.245781,53.067911 88.388994,53.089345 L 116.91014,53.373776 C 119.05335,53.39521 120.77457,54.974843 120.75498,56.944963 z M 50.854541,53.78462 C 50.854537,51.046016 48.444679,48.822882 45.465464,48.822882 L 5.8195011,48.822882 C 2.8402728,48.82288 0.46193856,51.046016 0.46193856,53.78462 L 0.46193856,75.14854 C 0.46193856,77.887141 2.8402728,80.078675 5.8195011,80.078675 L 45.465464,80.078675 C 48.44468,80.078673 50.854541,77.887142 50.854541,75.14854 L 50.854541,53.78462 z M 43.795165,56.786946 L 43.795165,72.146214 C 43.795168,74.116432 42.062131,75.685798 39.918811,75.685798 L 11.397669,75.685798 C 9.2543415,75.685798 7.521315,74.116434 7.521315,72.146214 L 7.521315,56.786946 C 7.521315,54.816725 9.2543415,53.215759 11.397669,53.215759 L 39.918811,53.215759 C 42.062134,53.21576 43.795165,54.816726 43.795165,56.786946 z"
       style="opacity:1;fill:#000000;fill-opacity:1;stroke:none;stroke-width:3;stroke-miterlimit:4;stroke-dasharray:none;stroke-opacity:1" />
    <path
       id="path3231"
       d="M 11.667305,26.791744 C 9.7213865,28.713225 9.8607824,31.94746 11.951086,34.076243 L 39.759058,62.416527 C 41.849358,64.545301 45.101012,64.701438 47.046933,62.779961 L 62.2114,47.817865 C 64.157321,45.896385 64.040051,42.595047 61.949752,40.466275 L 34.141881,12.170685 C 32.051576,10.041912 28.799928,9.8857705 26.854007,11.807251 L 11.667305,26.791744 z M 18.760392,29.72553 L 29.677916,18.951929 C 31.077863,17.569575 33.433841,17.67672 34.937652,19.20821 L 54.950422,39.588206 C 56.454232,41.1197 56.518156,43.457026 55.118212,44.839386 L 44.223024,55.635283 C 42.823082,57.017641 40.489333,56.888095 38.985521,55.356604 L 18.972752,34.976608 C 17.468941,33.445117 17.360446,31.107885 18.760392,29.72553 z M 66.07527,81.41911 C 64.148556,83.359957 64.292356,86.640437 66.403721,88.748202 L 94.500738,116.79732 C 96.612109,118.90509 99.861695,119.01221 101.78841,117.07137 L 116.81877,101.9308 C 118.74548,99.98996 118.60179,96.754173 116.49042,94.646399 L 88.393402,66.597281 C 86.282036,64.489518 83.032344,64.337699 81.105628,66.278541 L 66.07527,81.41911 z M 73.190491,84.285805 L 83.996341,73.400721 C 85.382465,72.004429 87.714775,72.118328 89.233743,73.634706 L 109.44662,93.813126 C 110.9656,95.329508 111.08968,97.667812 109.70355,99.064103 L 98.897698,109.94919 C 97.51157,111.34548 95.157035,111.25398 93.638063,109.7376 L 73.425184,89.559179 C 71.906216,88.042799 71.804363,85.682096 73.190491,84.285805 z"
       style="opacity:1;fill:#000000;fill-opacity:1;stroke:none;stroke-width:3;stroke-miterlimit:4;stroke-dasharray:none;stroke-opacity:1" />
    <path
       style="opacity:1;fill:#000000;fill-opacity:1;stroke:none;stroke-width:3;stroke-miterlimit:4;stroke-dasharray:none;stroke-opacity:1"
       d="M 101.70776,11.81691 C 99.791655,9.8655373 96.566462,10.005323 94.443631,12.101487 L 66.182583,39.987423 C 64.059759,42.083583 63.904059,45.344354 65.820164,47.29573 L 80.740429,62.502713 C 82.656537,64.45409 85.948645,64.336491 88.071465,62.240332 L 116.28794,34.354497 C 118.41077,32.258334 118.56648,28.997564 116.65036,27.04619 L 101.70776,11.81691 z M 98.782181,18.929884 L 109.52567,29.878016 C 110.90415,31.281885 110.79731,33.644469 109.2701,35.152499 L 88.947079,55.221378 C 87.419866,56.729405 85.089076,56.793508 83.710581,55.389639 L 72.944867,44.463904 C 71.566374,43.060037 71.695557,40.719745 73.222767,39.211717 L 93.545784,19.142838 C 95.072996,17.634808 97.403688,17.526015 98.782181,18.929884 z M 47.233128,66.377416 C 45.297707,64.445301 42.026397,64.589504 39.924526,66.706788 L 11.953828,94.88258 C 9.8519451,96.999871 9.7451293,100.25856 11.680548,102.19068 L 26.778786,117.26318 C 28.714201,119.1953 31.940938,119.05121 34.042819,116.93391 L 62.013517,88.758121 C 64.115387,86.640836 64.266782,83.382032 62.331366,81.449915 L 47.233128,66.377416 z M 44.374447,73.512586 L 55.229098,84.348732 C 56.621486,85.738742 56.507906,88.077591 54.995767,89.600817 L 34.873763,109.87037 C 33.36162,111.3936 31.029854,111.51803 29.637466,110.12802 L 18.782815,99.291868 C 17.390427,97.901853 17.481668,95.540717 18.993812,94.017486 L 39.115816,73.747937 C 40.627957,72.224711 42.98206,72.122572 44.374447,73.512586 z"
       id="path3233" />
    <path
       sodipodi:type="arc"
       style="opacity:1;fill:#000000;fill-opacity:1;stroke:none;stroke-width:3;stroke-miterlimit:4;stroke-dasharray:none;stroke-opacity:1"
       id="path3243"
       sodipodi:cx="-102.5"
       sodipodi:cy="35.5"
       sodipodi:rx="8.2142859"
       sodipodi:ry="8.2142859"
       d="M -94.285714,35.5 A 8.2142859,8.2142859 0 1 1 -110.71429,35.5 A 8.2142859,8.2142859 0 1 1 -94.285714,35.5 z"
       transform="matrix(1.0084823,0,0,1.0113098,167.52345,28.54928)" />
  </g>
</svg>
