<?xml version="1.0" encoding="UTF-8" standalone="no"?>
<!-- Created with Inkscape (http://www.inkscape.org/) -->

<svg
   xmlns:dc="http://purl.org/dc/elements/1.1/"
   xmlns:cc="http://creativecommons.org/ns#"
   xmlns:rdf="http://www.w3.org/1999/02/22-rdf-syntax-ns#"
   xmlns:svg="http://www.w3.org/2000/svg"
   xmlns="http://www.w3.org/2000/svg"
   xmlns:sodipodi="http://sodipodi.sourceforge.net/DTD/sodipodi-0.dtd"
   xmlns:inkscape="http://www.inkscape.org/namespaces/inkscape"
   width="128"
   height="128"
   id="svg2"
   version="1.1"
   inkscape:version="0.48.2 r9819"
   sodipodi:docname="compressed.svg">
  <defs
     id="defs4" />
  <sodipodi:namedview
     id="base"
     pagecolor="#ffffff"
     bordercolor="#666666"
     borderopacity="1.0"
     inkscape:pageopacity="0.0"
     inkscape:pageshadow="2"
     inkscape:zoom="2.8"
     inkscape:cx="56.273373"
     inkscape:cy="62.178572"
     inkscape:document-units="px"
     inkscape:current-layer="layer1"
     showgrid="false"
     inkscape:window-width="1098"
     inkscape:window-height="756"
     inkscape:window-x="471"
     inkscape:window-y="327"
     inkscape:window-maximized="0" />
  <metadata
     id="metadata7">
    <rdf:RDF>
      <cc:Work
         rdf:about="">
        <dc:format>image/svg+xml</dc:format>
        <dc:type
           rdf:resource="http://purl.org/dc/dcmitype/StillImage" />
        <dc:title></dc:title>
      </cc:Work>
    </rdf:RDF>
  </metadata>
  <g
     inkscape:label="Ebene 1"
     inkscape:groupmode="layer"
     id="layer1"
     transform="translate(0,-924.36218)">
    <path
       sodipodi:type="arc"
       style="fill:none;stroke:#000000;stroke-width:4.77502537;stroke-linecap:round;stroke-miterlimit:4;stroke-opacity:1;stroke-dasharray:none"
       id="path3755"
       sodipodi:cx="52.527931"
       sodipodi:cy="88.351509"
       sodipodi:rx="38.385796"
       sodipodi:ry="38.385796"
       d="m 23.122707,63.677594 a 38.385796,38.385796 0 0 1 58.810449,10e-7"
       transform="matrix(1.6754653,0,0,1.6753022,-24.008727,941.68296)"
       sodipodi:start="3.8397244"
       sodipodi:end="5.5850536"
       sodipodi:open="true" />
    <path
       sodipodi:open="true"
       sodipodi:end="5.5850536"
       sodipodi:start="3.8397244"
       transform="matrix(-1.6754653,0,0,-1.6753022,152.00873,1035.0414)"
       d="m 23.122707,63.677594 a 38.385796,38.385796 0 0 1 58.810449,10e-7"
       sodipodi:ry="38.385796"
       sodipodi:rx="38.385796"
       sodipodi:cy="88.351509"
       sodipodi:cx="52.527931"
       id="path5810"
       style="fill:none;stroke:#000000;stroke-width:4.77502537;stroke-linecap:round;stroke-miterlimit:4;stroke-opacity:1;stroke-dasharray:none"
       sodipodi:type="arc" />
    <path
       sodipodi:type="arc"
       style="fill:none;stroke:#000000;stroke-width:4.77502537;stroke-linecap:round;stroke-miterlimit:4;stroke-opacity:1;stroke-dasharray:none"
       id="path5812"
       sodipodi:cx="52.527931"
       sodipodi:cy="88.351509"
       sodipodi:rx="38.385796"
       sodipodi:ry="38.385796"
       d="m 23.122707,63.677594 a 38.385796,38.385796 0 0 1 58.810449,10e-7"
       transform="matrix(0,-1.6754653,1.6753022,0,17.320785,1076.3709)"
       sodipodi:start="3.8397244"
       sodipodi:end="5.5850536"
       sodipodi:open="true" />
    <path
       sodipodi:open="true"
       sodipodi:end="5.5850536"
       sodipodi:start="3.8397244"
       transform="matrix(0,-1.6754653,-1.6753022,0,110.67922,1076.3709)"
       d="m 23.122707,63.677594 a 38.385796,38.385796 0 0 1 58.810449,10e-7"
       sodipodi:ry="38.385796"
       sodipodi:rx="38.385796"
       sodipodi:cy="88.351509"
       sodipodi:cx="52.527931"
       id="path5814"
       style="fill:none;stroke:#000000;stroke-width:4.77502537;stroke-linecap:round;stroke-miterlimit:4;stroke-opacity:1;stroke-dasharray:none"
       sodipodi:type="arc" />
    <path
       style="fill:none;fill-opacity:1;fill-rule:nonzero;stroke:#000000;stroke-width:8"
       d="m 44.57444,959.38194 c 12.908661,5.20102 25.817323,6.36517 38.725984,0 4.782389,-2.35816 11.642584,4.68919 9.624879,9.62488 -5.277046,12.90867 -6.87903,25.81733 0,38.72608 2.507654,4.7056 -4.665486,11.5836 -9.624879,9.6248 -12.150918,-4.799 -24.755799,-6.723 -38.725984,0 -4.804762,2.3123 -11.707833,-4.7164 -9.624879,-9.6248 4.561085,-10.74823 6.924622,-22.53733 0,-38.72608 -2.097017,-4.90252 4.679049,-11.61761 9.624879,-9.62488 z"
       id="rect5818"
       inkscape:connector-curvature="0"
       sodipodi:nodetypes="sssssssss" />
    <path
       sodipodi:type="arc"
       style="fill:#000000;stroke:none"
       id="path5844"
       sodipodi:cx="55.535713"
       sodipodi:cy="54.964287"
       sodipodi:rx="5.1785712"
       sodipodi:ry="5.1785712"
       d="m 60.714284,54.964287 a 5.1785712,5.1785712 0 1 1 -10.357142,0 5.1785712,5.1785712 0 1 1 10.357142,0 z"
       transform="matrix(1.5448276,0,0,1.5448276,-9.793103,915.45183)" />
    <path
       transform="matrix(1.5448276,0,0,1.5448276,-33.793103,915.45183)"
       d="m 60.714284,54.964287 a 5.1785712,5.1785712 0 1 1 -10.357142,0 5.1785712,5.1785712 0 1 1 10.357142,0 z"
       sodipodi:ry="5.1785712"
       sodipodi:rx="5.1785712"
       sodipodi:cy="54.964287"
       sodipodi:cx="55.535713"
       id="path5846"
       style="fill:#000000;stroke:none"
       sodipodi:type="arc" />
    <path
       sodipodi:type="arc"
       style="fill:#000000;stroke:none"
       id="path5848"
       sodipodi:cx="55.535713"
       sodipodi:cy="54.964287"
       sodipodi:rx="5.1785712"
       sodipodi:ry="5.1785712"
       d="m 60.714284,54.964287 a 5.1785712,5.1785712 0 1 1 -10.357142,0 5.1785712,5.1785712 0 1 1 10.357142,0 z"
       transform="matrix(1.5448276,0,0,1.5448276,-9.793103,891.45183)" />
    <path
       transform="matrix(1.5448276,0,0,1.5448276,-33.793103,891.45183)"
       d="m 60.714284,54.964287 a 5.1785712,5.1785712 0 1 1 -10.357142,0 5.1785712,5.1785712 0 1 1 10.357142,0 z"
       sodipodi:ry="5.1785712"
       sodipodi:rx="5.1785712"
       sodipodi:cy="54.964287"
       sodipodi:cx="55.535713"
       id="path5850"
       style="fill:#000000;stroke:none"
       sodipodi:type="arc" />
  </g>
</svg>
