<?xml version="1.0" encoding="UTF-8" standalone="no"?>
<!-- Created with Inkscape (http://www.inkscape.org/) -->

<svg
   xmlns:dc="http://purl.org/dc/elements/1.1/"
   xmlns:cc="http://creativecommons.org/ns#"
   xmlns:rdf="http://www.w3.org/1999/02/22-rdf-syntax-ns#"
   xmlns:svg="http://www.w3.org/2000/svg"
   xmlns="http://www.w3.org/2000/svg"
   xmlns:sodipodi="http://sodipodi.sourceforge.net/DTD/sodipodi-0.dtd"
   xmlns:inkscape="http://www.inkscape.org/namespaces/inkscape"
   width="128"
   height="128"
   id="svg2"
   version="1.1"
   inkscape:version="0.47 r22583"
   sodipodi:docname="New document 1">
  <defs
     id="defs4">
    <inkscape:perspective
       sodipodi:type="inkscape:persp3d"
       inkscape:vp_x="0 : 526.18109 : 1"
       inkscape:vp_y="0 : 1000 : 0"
       inkscape:vp_z="744.09448 : 526.18109 : 1"
       inkscape:persp3d-origin="372.04724 : 350.78739 : 1"
       id="perspective10" />
  </defs>
  <sodipodi:namedview
     id="base"
     pagecolor="#ffffff"
     bordercolor="#666666"
     borderopacity="1.0"
     inkscape:pageopacity="0.0"
     inkscape:pageshadow="2"
     inkscape:zoom="5.6"
     inkscape:cx="53.46828"
     inkscape:cy="61.302102"
     inkscape:document-units="px"
     inkscape:current-layer="layer1"
     showgrid="true"
     inkscape:window-width="1653"
     inkscape:window-height="1022"
     inkscape:window-x="161"
     inkscape:window-y="50"
     inkscape:window-maximized="0">
    <inkscape:grid
       type="xygrid"
       id="grid2816"
       empspacing="8"
       visible="true"
       enabled="true"
       snapvisiblegridlinesonly="true"
       spacingx="1.3333px"
       spacingy="1.3333px" />
  </sodipodi:namedview>
  <metadata
     id="metadata7">
    <rdf:RDF>
      <cc:Work
         rdf:about="">
        <dc:format>image/svg+xml</dc:format>
        <dc:type
           rdf:resource="http://purl.org/dc/dcmitype/StillImage" />
        <dc:title></dc:title>
      </cc:Work>
    </rdf:RDF>
  </metadata>
  <g
     inkscape:label="Layer 1"
     inkscape:groupmode="layer"
     id="layer1"
     transform="translate(0,-924.36218)">
    <path
       style="fill:#000000;fill-opacity:1;fill-rule:nonzero;stroke:none"
       d="M 64 10.65625 C 51.335977 10.656249 60.918781 23.497439 49.21875 28.34375 C 37.518718 33.190062 35.236067 17.326434 26.28125 26.28125 C 17.326433 35.236066 33.158812 37.518719 28.3125 49.21875 C 23.466188 60.918782 10.656251 51.335977 10.65625 64 C 10.656249 76.664023 23.466189 67.081219 28.3125 78.78125 C 33.158812 90.481282 17.326434 92.763933 26.28125 101.71875 C 35.236066 110.67357 37.518719 94.841188 49.21875 99.6875 C 60.918782 104.53381 51.335977 117.34375 64 117.34375 C 76.664023 117.34375 67.081219 104.53381 78.78125 99.6875 C 90.481282 94.841188 92.763933 110.67357 101.71875 101.71875 C 110.67357 92.763934 94.809938 90.481281 99.65625 78.78125 C 104.50256 67.081218 117.34375 76.664023 117.34375 64 C 117.34375 51.335977 104.50256 60.918781 99.65625 49.21875 C 94.809938 37.518718 110.67357 35.236067 101.71875 26.28125 C 92.763934 17.326433 90.481281 33.190062 78.78125 28.34375 C 67.081218 23.497438 76.664023 10.656251 64 10.65625 z M 64 42.65625 C 75.78178 42.65625 85.34375 52.21822 85.34375 64 C 85.34375 75.78178 75.78178 85.34375 64 85.34375 C 52.21822 85.34375 42.65625 75.78178 42.65625 64 C 42.65625 52.21822 52.21822 42.65625 64 42.65625 z "
       transform="translate(0,924.36218)"
       id="path2818" />
  </g>
</svg>
