<?xml version="1.0" encoding="UTF-8" standalone="no"?>
<!-- Created with Inkscape (http://www.inkscape.org/) -->

<svg
   xmlns:dc="http://purl.org/dc/elements/1.1/"
   xmlns:cc="http://creativecommons.org/ns#"
   xmlns:rdf="http://www.w3.org/1999/02/22-rdf-syntax-ns#"
   xmlns:svg="http://www.w3.org/2000/svg"
   xmlns="http://www.w3.org/2000/svg"
   xmlns:xlink="http://www.w3.org/1999/xlink"
   xmlns:sodipodi="http://sodipodi.sourceforge.net/DTD/sodipodi-0.dtd"
   xmlns:inkscape="http://www.inkscape.org/namespaces/inkscape"
   width="128"
   height="128"
   id="svg2"
   sodipodi:version="0.32"
   inkscape:version="0.47 r22583"
   version="1.0"
   sodipodi:docname="user-icon.alt3.svg"
   inkscape:output_extension="org.inkscape.output.svg.inkscape">
  <defs
     id="defs4">
    <inkscape:perspective
       sodipodi:type="inkscape:persp3d"
       inkscape:vp_x="0 : 526.18109 : 1"
       inkscape:vp_y="0 : 1000 : 0"
       inkscape:vp_z="744.09448 : 526.18109 : 1"
       inkscape:persp3d-origin="372.04724 : 350.78739 : 1"
       id="perspective10" />
    <linearGradient
       gradientUnits="userSpaceOnUse"
       y2="42.204399"
       x2="87.074989"
       y1="42.204399"
       x1="49.477543"
       id="linearGradient6711"
       xlink:href="#linearGradient6023"
       inkscape:collect="always" />
    <linearGradient
       gradientUnits="userSpaceOnUse"
       y2="66.400551"
       x2="106.74691"
       y1="66.400551"
       x1="28.96566"
       id="linearGradient6703"
       xlink:href="#linearGradient6023"
       inkscape:collect="always" />
    <radialGradient
       r="14.683983"
       fy="52.363636"
       fx="-66.216454"
       cy="52.363636"
       cx="-66.216454"
       gradientUnits="userSpaceOnUse"
       id="radialGradient6573"
       xlink:href="#linearGradient6493"
       inkscape:collect="always" />
    <radialGradient
       r="19.84907"
       fy="64.210944"
       fx="41.461727"
       cy="64.210944"
       cx="41.461727"
       gradientTransform="matrix(1,0,0,1.9966821,0.2770559,-62.335558)"
       gradientUnits="userSpaceOnUse"
       id="radialGradient6571"
       xlink:href="#linearGradient6493"
       inkscape:collect="always" />
    <linearGradient
       gradientTransform="translate(-2.0779221,0.8311688)"
       gradientUnits="userSpaceOnUse"
       y2="81.523123"
       x2="51.329258"
       y1="81.523123"
       x1="30.614719"
       id="linearGradient5914"
       xlink:href="#linearGradient5908"
       inkscape:collect="always" />
    <inkscape:perspective
       sodipodi:type="inkscape:persp3d"
       inkscape:vp_x="0 : 526.18109 : 1"
       inkscape:vp_y="0 : 1000 : 0"
       inkscape:vp_z="744.09448 : 526.18109 : 1"
       inkscape:persp3d-origin="372.04724 : 350.78739 : 1"
       id="perspective4278" />
    <inkscape:perspective
       sodipodi:type="inkscape:persp3d"
       inkscape:vp_x="0 : 526.18109 : 1"
       inkscape:vp_y="0 : 1000 : 0"
       inkscape:vp_z="744.09448 : 526.18109 : 1"
       inkscape:persp3d-origin="372.04724 : 350.78739 : 1"
       id="perspective3378" />
    <inkscape:perspective
       id="perspective4783"
       inkscape:persp3d-origin="372.04724 : 350.78739 : 1"
       inkscape:vp_z="744.09448 : 526.18109 : 1"
       inkscape:vp_y="0 : 1000 : 0"
       inkscape:vp_x="0 : 526.18109 : 1"
       sodipodi:type="inkscape:persp3d" />
    <linearGradient
       id="linearGradient5728">
      <stop
         id="stop5738"
         offset="0"
         style="stop-color:#ffffff;stop-opacity:0.24705882;" />
      <stop
         id="stop5732"
         offset="1"
         style="stop-color:#ffffff;stop-opacity:0;" />
    </linearGradient>
    <linearGradient
       id="linearGradient5740">
      <stop
         id="stop5742"
         offset="0"
         style="stop-color:#393535;stop-opacity:0;" />
      <stop
         id="stop5744"
         offset="1"
         style="stop-color:#ffffff;stop-opacity:1;" />
    </linearGradient>
    <linearGradient
       id="linearGradient5908"
       inkscape:collect="always">
      <stop
         id="stop5910"
         offset="0"
         style="stop-color:#ffffff;stop-opacity:1;" />
      <stop
         id="stop5912"
         offset="1"
         style="stop-color:#ffffff;stop-opacity:0;" />
    </linearGradient>
    <linearGradient
       id="linearGradient5918">
      <stop
         id="stop5920"
         offset="0"
         style="stop-color:#ffffff;stop-opacity:0.40000001;" />
      <stop
         id="stop5922"
         offset="1"
         style="stop-color:#ffffff;stop-opacity:0;" />
    </linearGradient>
    <linearGradient
       id="linearGradient6023">
      <stop
         id="stop6025"
         offset="0"
         style="stop-color:#000000;stop-opacity:0.54482758;" />
      <stop
         id="stop6027"
         offset="1"
         style="stop-color:#000000;stop-opacity:0;" />
    </linearGradient>
    <linearGradient
       id="linearGradient6493"
       inkscape:collect="always">
      <stop
         id="stop6495"
         offset="0"
         style="stop-color:#000000;stop-opacity:1;" />
      <stop
         id="stop6497"
         offset="1"
         style="stop-color:#000000;stop-opacity:0;" />
    </linearGradient>
    <inkscape:perspective
       sodipodi:type="inkscape:persp3d"
       inkscape:vp_x="0 : 526.18109 : 1"
       inkscape:vp_y="0 : 1000 : 0"
       inkscape:vp_z="744.09448 : 526.18109 : 1"
       inkscape:persp3d-origin="372.04724 : 350.78739 : 1"
       id="perspective3411" />
    <inkscape:perspective
       sodipodi:type="inkscape:persp3d"
       inkscape:vp_x="0 : 526.18109 : 1"
       inkscape:vp_y="0 : 1000 : 0"
       inkscape:vp_z="744.09448 : 526.18109 : 1"
       inkscape:persp3d-origin="372.04724 : 350.78739 : 1"
       id="perspective3832" />
    <linearGradient
       id="linearGradient4622">
      <stop
         id="stop4624"
         offset="0"
         style="stop-color:#dabce7;stop-opacity:1;" />
      <stop
         id="stop4626"
         offset="1"
         style="stop-color:#efe8ef;stop-opacity:1;" />
    </linearGradient>
    <inkscape:perspective
       id="perspective11"
       inkscape:persp3d-origin="24 : 16 : 1"
       inkscape:vp_z="48 : 24 : 1"
       inkscape:vp_y="0 : 1000 : 0"
       inkscape:vp_x="0 : 24 : 1"
       sodipodi:type="inkscape:persp3d" />
    <inkscape:perspective
       id="perspective2868"
       inkscape:persp3d-origin="0.5 : 0.33333333 : 1"
       inkscape:vp_z="1 : 0.5 : 1"
       inkscape:vp_y="0 : 1000 : 0"
       inkscape:vp_x="0 : 0.5 : 1"
       sodipodi:type="inkscape:persp3d" />
  </defs>
  <sodipodi:namedview
     id="base"
     pagecolor="#ffffff"
     bordercolor="#666666"
     borderopacity="1.0"
     inkscape:pageopacity="0.0"
     inkscape:pageshadow="2"
     inkscape:zoom="3.959798"
     inkscape:cx="-5.4193746"
     inkscape:cy="73.148882"
     inkscape:document-units="px"
     inkscape:current-layer="layer1"
     showgrid="true"
     inkscape:window-width="1440"
     inkscape:window-height="846"
     inkscape:window-x="149"
     inkscape:window-y="49"
     inkscape:window-maximized="0">
    <inkscape:grid
       type="xygrid"
       id="grid2850"
       empspacing="8"
       visible="true"
       enabled="true"
       snapvisiblegridlinesonly="true" />
  </sodipodi:namedview>
  <metadata
     id="metadata7">
    <rdf:RDF>
      <cc:Work
         rdf:about="">
        <dc:format>image/svg+xml</dc:format>
        <dc:type
           rdf:resource="http://purl.org/dc/dcmitype/StillImage" />
        <dc:title></dc:title>
      </cc:Work>
    </rdf:RDF>
  </metadata>
  <g
     inkscape:label="Capa 1"
     inkscape:groupmode="layer"
     id="layer1">
    <path
       style="opacity:0.2;fill:#000000;fill-opacity:1;stroke:none"
       d="M 79.96875 87.8125 C 79.956474 86.772491 79.88748 85.763498 79.6875 84.78125 C 79.475063 83.737813 79.15375 82.70775 78.75 81.75 C 78.34625 80.79225 77.855187 79.882188 77.28125 79.03125 C 76.707313 78.180312 76.0355 77.4105 75.3125 76.6875 C 74.5895 75.9645 73.819688 75.292687 72.96875 74.71875 C 72.117812 74.144813 71.20775 73.65375 70.25 73.25 C 69.29225 72.84625 68.262187 72.524937 67.21875 72.3125 C 66.175313 72.100063 65.108 72 64 72 C 62.892 72 61.824688 72.100063 60.78125 72.3125 C 59.737812 72.524937 58.70775 72.84625 57.75 73.25 C 56.79225 73.65375 55.882188 74.144813 55.03125 74.71875 C 54.180312 75.292687 53.4105 75.9645 52.6875 76.6875 C 51.9645 77.4105 51.292687 78.180312 50.71875 79.03125 C 50.144813 79.882188 49.65375 80.79225 49.25 81.75 C 48.84625 82.70775 48.524938 83.737813 48.3125 84.78125 C 48.11252 85.763498 48.043526 86.772491 48.03125 87.8125 L 79.96875 87.8125 z "
       id="path2883" />
    <path
       style="opacity:0.5;fill:#000000;fill-opacity:1;stroke:none"
       d="M 8.09375 -0.03125 C 3.7408928 -0.03125 0.25 3.459642 0.25 7.8125 L 0.25 79.96875 C 0.25 84.32161 3.7408928 87.8125 8.09375 87.8125 L 48.03125 87.8125 C 48.043526 86.772491 48.11252 85.763498 48.3125 84.78125 C 48.524938 83.737813 48.84625 82.70775 49.25 81.75 C 49.65375 80.79225 50.144813 79.882188 50.71875 79.03125 C 51.292687 78.180312 51.9645 77.4105 52.6875 76.6875 C 53.4105 75.9645 54.180312 75.292687 55.03125 74.71875 C 55.882188 74.144813 56.79225 73.65375 57.75 73.25 C 58.70775 72.84625 59.737812 72.524937 60.78125 72.3125 C 61.824688 72.100063 62.892 72 64 72 C 65.108 72 66.175313 72.100063 67.21875 72.3125 C 68.262187 72.524937 69.29225 72.84625 70.25 73.25 C 71.20775 73.65375 72.117812 74.144813 72.96875 74.71875 C 73.819688 75.292687 74.5895 75.9645 75.3125 76.6875 C 76.0355 77.4105 76.707313 78.180312 77.28125 79.03125 C 77.855187 79.882188 78.34625 80.79225 78.75 81.75 C 79.15375 82.70775 79.475063 83.737813 79.6875 84.78125 C 79.88748 85.763498 79.956474 86.772491 79.96875 87.8125 L 120.25 87.8125 C 124.60286 87.8125 128.09375 84.32161 128.09375 79.96875 L 128.09375 64.59375 L 47.75 64.59375 L 13.46875 64.59375 L 13.46875 11.375 L 47.75 11.375 L 47.75 42.8125 L 128.09375 42.8125 L 128.09375 7.8125 C 128.09375 3.459643 124.60285 -0.03125 120.25 -0.03125 L 8.09375 -0.03125 z M 59.1875 22.3125 L 113.4375 22.3125 C 115.15698 22.3125 116.5625 22.850294 116.5625 23.53125 L 116.5625 26.03125 C 116.5625 26.712204 115.15698 27.25 113.4375 27.25 L 59.1875 27.25 C 57.468024 27.250001 56.09375 26.712206 56.09375 26.03125 L 56.09375 23.53125 C 56.09375 22.850293 57.468023 22.3125 59.1875 22.3125 z M 59.1875 32.90625 L 113.4375 32.90625 C 115.15698 32.90625 116.5625 33.444044 116.5625 34.125 L 116.5625 36.625 C 116.5625 37.305958 115.15698 37.875 113.4375 37.875 L 59.1875 37.875 C 57.468024 37.875001 56.09375 37.305956 56.09375 36.625 L 56.09375 34.125 C 56.09375 33.444043 57.468023 32.90625 59.1875 32.90625 z "
       id="rect2383" />
    <path
       style="opacity:0.66000001;fill:#000000;fill-opacity:1;stroke:none"
       d="m 47.752539,42.79695 0,21.78125 80.343751,0 0,-21.78125 -80.343751,0 z m 11.4375,0.6875 54.250001,0 c 1.71948,0 3.125,0.569044 3.125,1.25 l 0,2.46875 c 0,0.680954 -1.40552,1.25 -3.125,1.25 l -54.250001,0 c -1.719476,-3e-6 -3.09375,-0.569044 -3.09375,-1.25 l 0,-2.46875 c 0,-0.680957 1.374273,-1.25 3.09375,-1.25 z m 0,10.59375 54.250001,0 c 1.71948,0 3.125,0.569044 3.125,1.25 l 0,2.46875 c 0,0.680954 -1.40552,1.25 -3.125,1.25 l -54.250001,0 c -1.719476,-3e-6 -3.09375,-0.569044 -3.09375,-1.25 l 0,-2.46875 c 0,-0.680957 1.374273,-1.25 3.09375,-1.25 z"
       id="path3862" />
    <path
       style="fill:#000000;fill-opacity:1;stroke:none"
       d="m 13.471289,11.35945 0,43.40625 1.34375,-4.625 7.78125,-3.59375 c 0,0 1.262142,-2.08471 0.59375,-3.28125 -0.02379,-0.04891 -0.03904,-0.107583 -0.0625,-0.15625 -0.06425,-0.113702 -0.21875,-0.312498 -0.21875,-0.3125 -0.07242,-0.171244 -0.118743,-0.331596 -0.1875,-0.5 -5.873322,-12.898286 0.375417,-16.945383 3.9375,-18.15625 0.02011,-0.0068 0.01131,0.0067 0.03125,0 0.617304,-0.221799 1.117581,-0.340635 1.46875,-0.40625 0.288893,-0.05398 0.5,-0.09375 0.5,-0.09375 0,0 -10.16109,-2e-6 4.0625,0 0.407475,0 0.75357,0.0932 1.125,0.125 0.170868,0.04856 0.687316,0.146385 1.59375,0.625 0.523052,0.27618 1.089397,0.653348 1.6875,1.125 0.5981,0.471656 1.201169,1.044621 1.75,1.75 0.54883,0.705381 1.062255,1.52264 1.4375,2.5 0.375244,0.977361 0.610161,2.118653 0.6875,3.40625 0.02348,0.390898 0.01144,0.82821 0,1.25 -0.190496,2.115708 -0.629039,4.147976 -1.09375,5.78125 -0.296864,0.890709 -0.65982,1.827825 -1.09375,2.8125 -0.445714,1.011415 -0.887791,1.887533 -1.34375,2.65625 -0.455962,0.768719 -0.913872,1.45004 -1.375,2 -0.461127,0.549956 -0.945038,0.988623 -1.40625,1.34375 -0.461213,0.355123 -0.918781,0.628279 -1.375,0.8125 -0.228109,0.09211 -0.432507,0.163452 -0.65625,0.21875 0.254707,-0.05718 0.521205,-0.113743 0.78125,-0.21875 0.456218,-0.18422 0.913782,-0.45738 1.375,-0.8125 0.461212,-0.355124 0.913871,-0.793797 1.375,-1.34375 0.461128,-0.549957 0.950288,-1.231277 1.40625,-2 0.455961,-0.768721 0.898035,-1.644833 1.34375,-2.65625 0.433931,-0.984677 0.765632,-1.92179 1.0625,-2.8125 -0.56796,1.996157 -1.125,3.375001 -1.125,3.375 l 0.5,2.96875 7.34375,3.5 c 0,0 0.452755,1.492515 1.03125,3.5 l 0,-42.1875 -34.28125,0 z"
       id="rect3157" />
    <path
       style="opacity:0.56000001;fill:#000000;fill-opacity:1;fill-rule:evenodd;stroke:none"
       d="m 28.658789,23.6407 c 0,-2e-6 -0.211107,0.03977 -0.5,0.09375 -0.351169,0.06561 -0.851446,0.184451 -1.46875,0.40625 -0.01994,0.0067 -0.01114,-0.0068 -0.03125,0 -3.562083,1.210867 -9.810822,5.257964 -3.9375,18.15625 0.06876,0.168404 0.115084,0.328756 0.1875,0.5 0,2e-6 0.154501,0.198798 0.21875,0.3125 0.02346,0.04867 0.03871,0.10734 0.0625,0.15625 0.668392,1.19654 -0.59375,3.28125 -0.59375,3.28125 l -7.78125,3.59375 -1.34375,4.625 0,9.8125 34.28125,0 0,-11.03125 c -0.578495,-2.007485 -1.03125,-3.5 -1.03125,-3.5 l -7.34375,-3.5 -0.5,-2.96875 c 0,10e-7 0.55704,-1.378843 1.125,-3.375 -0.296868,0.89071 -0.628569,1.827823 -1.0625,2.8125 -0.445715,1.011417 -0.887789,1.887529 -1.34375,2.65625 -0.455962,0.768723 -0.945122,1.450043 -1.40625,2 -0.461129,0.549953 -0.913788,0.988626 -1.375,1.34375 -0.461218,0.35512 -0.918782,0.62828 -1.375,0.8125 -0.260045,0.105007 -0.526543,0.161573 -0.78125,0.21875 0.223743,-0.0553 0.428141,-0.126638 0.65625,-0.21875 0.456219,-0.184221 0.913787,-0.457377 1.375,-0.8125 0.461212,-0.355127 0.945123,-0.793794 1.40625,-1.34375 0.461128,-0.54996 0.919038,-1.231281 1.375,-2 0.455959,-0.768717 0.898036,-1.644835 1.34375,-2.65625 0.43393,-0.984675 0.796886,-1.921791 1.09375,-2.8125 0.464711,-1.633274 0.903254,-3.665542 1.09375,-5.78125 0.01144,-0.42179 0.02348,-0.859102 0,-1.25 -0.07734,-1.287597 -0.312256,-2.428889 -0.6875,-3.40625 -0.375245,-0.97736 -0.88867,-1.794619 -1.4375,-2.5 -0.548831,-0.705379 -1.1519,-1.278344 -1.75,-1.75 -0.598103,-0.471652 -1.164448,-0.84882 -1.6875,-1.125 -0.906434,-0.478615 -1.422882,-0.576437 -1.59375,-0.625 -0.37143,-0.0318 -0.717525,-0.125 -1.125,-0.125 -14.22359,-2e-6 -4.0625,0 -4.0625,0 z"
       id="path6685" />
    <path
       style="fill:#000000;fill-opacity:1;stroke:none"
       d="m 59.190039,22.29695 c -1.719477,0 -3.09375,0.537793 -3.09375,1.21875 l 0,2.5 c 0,0.680956 1.374274,1.218751 3.09375,1.21875 l 54.250001,0 c 1.71948,0 3.125,-0.537796 3.125,-1.21875 l 0,-2.5 c 0,-0.680956 -1.40552,-1.21875 -3.125,-1.21875 l -54.250001,0 z m 0,10.59375 c -1.719477,0 -3.09375,0.537793 -3.09375,1.21875 l 0,2.5 c 0,0.680956 1.374274,1.250001 3.09375,1.25 l 54.250001,0 c 1.71948,0 3.125,-0.569042 3.125,-1.25 l 0,-2.5 c 0,-0.680956 -1.40552,-1.21875 -3.125,-1.21875 l -54.250001,0 z m 0,10.59375 c -1.719477,0 -3.09375,0.569043 -3.09375,1.25 l 0,2.46875 c 0,0.680956 1.374274,1.249997 3.09375,1.25 l 54.250001,0 c 1.71948,0 3.125,-0.569046 3.125,-1.25 l 0,-2.46875 c 0,-0.680956 -1.40552,-1.25 -3.125,-1.25 l -54.250001,0 z m 0,10.59375 c -1.719477,0 -3.09375,0.569043 -3.09375,1.25 l 0,2.46875 c 0,0.680956 1.374274,1.249997 3.09375,1.25 l 54.250001,0 c 1.71948,0 3.125,-0.569046 3.125,-1.25 l 0,-2.46875 c 0,-0.680956 -1.40552,-1.25 -3.125,-1.25 l -54.250001,0 z"
       id="rect2429" />
    <path
       style="fill:#000000;fill-opacity:1;stroke:none"
       d="m 64,80 c -4.432,0 -8,3.568 -8,8 l 0,8 -8,0 c -4.432,0 -8,3.568 -8,8 0,4.432 3.568,8 8,8 l 8,0 0,8 c 0,4.432 3.568,8 8,8 4.432,0 8,-3.568 8,-8 l 0,-8 8,0 c 4.432,0 8,-3.568 8,-8 0,-4.432 -3.568,-8 -8,-8 l -8,0 0,-8 c 0,-4.432 -3.568,-8 -8,-8 z"
       id="rect2855" />
  </g>
</svg>
