<?xml version="1.0" encoding="UTF-8" standalone="no"?>
<!-- Created with Inkscape (http://www.inkscape.org/) -->
<svg
   xmlns:dc="http://purl.org/dc/elements/1.1/"
   xmlns:cc="http://creativecommons.org/ns#"
   xmlns:rdf="http://www.w3.org/1999/02/22-rdf-syntax-ns#"
   xmlns:svg="http://www.w3.org/2000/svg"
   xmlns="http://www.w3.org/2000/svg"
   xmlns:sodipodi="http://sodipodi.sourceforge.net/DTD/sodipodi-0.dtd"
   xmlns:inkscape="http://www.inkscape.org/namespaces/inkscape"
   width="64px"
   height="64px"
   id="svg2816"
   version="1.1"
   inkscape:version="0.46"
   sodipodi:docname="desktop.svg"
   sodipodi:version="0.32"
   inkscape:output_extension="org.inkscape.output.svg.inkscape">
  <defs
     id="defs2818">
    <inkscape:perspective
       sodipodi:type="inkscape:persp3d"
       inkscape:vp_x="0 : 32 : 1"
       inkscape:vp_y="0 : 1000 : 0"
       inkscape:vp_z="64 : 32 : 1"
       inkscape:persp3d-origin="32 : 21.333333 : 1"
       id="perspective2824" />
    <inkscape:perspective
       id="perspective2824-8"
       inkscape:persp3d-origin="32 : 21.333333 : 1"
       inkscape:vp_z="64 : 32 : 1"
       inkscape:vp_y="0 : 1000 : 0"
       inkscape:vp_x="0 : 32 : 1"
       sodipodi:type="inkscape:persp3d" />
    <inkscape:perspective
       id="perspective2824-5"
       inkscape:persp3d-origin="0.5 : 0.33333333 : 1"
       inkscape:vp_z="1 : 0.5 : 1"
       inkscape:vp_y="0 : 1000 : 0"
       inkscape:vp_x="0 : 0.5 : 1"
       sodipodi:type="inkscape:persp3d" />
  </defs>
  <sodipodi:namedview
     id="base"
     pagecolor="#ffffff"
     bordercolor="#666666"
     borderopacity="1.0"
     inkscape:pageopacity="0.0"
     inkscape:pageshadow="2"
     inkscape:zoom="5.46875"
     inkscape:cx="-3.4712962"
     inkscape:cy="50.838316"
     inkscape:current-layer="layer1"
     showgrid="true"
     inkscape:document-units="px"
     inkscape:grid-bbox="true"
     inkscape:window-width="1126"
     inkscape:window-height="846"
     inkscape:window-x="306"
     inkscape:window-y="0"
     inkscape:window-maximized="0">
    <inkscape:grid
       type="xygrid"
       id="grid2826"
       empspacing="4"
       visible="true"
       enabled="true"
       snapvisiblegridlinesonly="true" />
  </sodipodi:namedview>
  <metadata
     id="metadata2821">
    <rdf:RDF>
      <cc:Work
         rdf:about="">
        <dc:format>image/svg+xml</dc:format>
        <dc:type
           rdf:resource="http://purl.org/dc/dcmitype/StillImage" />
        <dc:title />
      </cc:Work>
    </rdf:RDF>
  </metadata>
  <g
     id="layer1"
     inkscape:label="Layer 1"
     inkscape:groupmode="layer">
    <path
       style="opacity:1;fill:#000000;fill-opacity:1;fill-rule:nonzero;stroke:none"
       d="M 4 0 C 1.784 0 2.7949431e-17 1.784 0 4 L 0 44 C 0 46.216 1.784 48 4 48 L 60 48 C 62.216 48 64 46.216 64 44 L 64 4 C 64 1.784 62.216 2.7949431e-17 60 0 L 4 0 z M 4.0625 4 L 59.9375 4 C 59.975489 4 60 4.0245115 60 4.0625 L 60 43.9375 C 60 43.975489 59.975489 44 59.9375 44 L 4.0625 44 C 4.0245115 44 4 43.975489 4 43.9375 L 4 4.0625 C 4 4.0245115 4.0245115 4 4.0625 4 z "
       id="rect2815" />
    <path
       style="opacity:1;fill:#000000;fill-opacity:1;fill-rule:nonzero;stroke:none"
       d="m 28,48 8,0 c 0,8 0,12 20,12 4.575279,0.158802 6.562346,1.910351 8,4 -2,0 -13.784,0 -16,0 L 16,64 C 13.784,64 4,64 0,64 1.8277057,62.307112 2.9266997,60.301919 8,60 28,60 28,56 28,48 z"
       id="rect2817"
       sodipodi:nodetypes="ccccccccc" />
    <path
       style="opacity:1;fill:#000000;fill-opacity:1;fill-rule:nonzero;stroke:none"
       d="M 31.921875,8.0000004 C 23.085348,8.022716 15.946034,15.210349 15.96875,24.046875 15.991466,32.883402 23.1791,40.022717 32.015625,40 l 15.953125,0 0,-8 0,-8 -6,0 -6,8 L 32,32 31.96875,24 32.04688,8.0000004 c -0.0397,-1.935e-4 -0.0853,-1.02e-4 -0.125,0 z M 39.96875,10 c -3.313709,0 -6,2.686292 -6,6 0,3.313709 2.686291,6 6,6 3.313708,0 6,-2.686291 6,-6 0,-3.313708 -2.686292,-6 -6,-6 z"
       id="rect3606" />
  </g>
</svg>
