<?xml version="1.0" encoding="UTF-8" standalone="no"?>
<!-- Created with Inkscape (http://www.inkscape.org/) -->

<svg
   xmlns:dc="http://purl.org/dc/elements/1.1/"
   xmlns:cc="http://creativecommons.org/ns#"
   xmlns:rdf="http://www.w3.org/1999/02/22-rdf-syntax-ns#"
   xmlns:svg="http://www.w3.org/2000/svg"
   xmlns="http://www.w3.org/2000/svg"
   xmlns:sodipodi="http://sodipodi.sourceforge.net/DTD/sodipodi-0.dtd"
   xmlns:inkscape="http://www.inkscape.org/namespaces/inkscape"
   width="64"
   height="64"
   id="svg2"
   version="1.1"
   inkscape:version="0.47 r22583"
   sodipodi:docname="disc.svg"
   sodipodi:version="0.32"
   inkscape:output_extension="org.inkscape.output.svg.inkscape">
  <defs
     id="defs4">
    <inkscape:perspective
       sodipodi:type="inkscape:persp3d"
       inkscape:vp_x="0 : 526.18109 : 1"
       inkscape:vp_y="0 : 1000 : 0"
       inkscape:vp_z="744.09448 : 526.18109 : 1"
       inkscape:persp3d-origin="372.04724 : 350.78739 : 1"
       id="perspective10" />
    <inkscape:perspective
       id="perspective3155"
       inkscape:persp3d-origin="0.5 : 0.33333333 : 1"
       inkscape:vp_z="1 : 0.5 : 1"
       inkscape:vp_y="0 : 1000 : 0"
       inkscape:vp_x="0 : 0.5 : 1"
       sodipodi:type="inkscape:persp3d" />
    <inkscape:perspective
       id="perspective2391"
       inkscape:persp3d-origin="32 : 21.333333 : 1"
       inkscape:vp_z="64 : 32 : 1"
       inkscape:vp_y="0 : 1000 : 0"
       inkscape:vp_x="0 : 32 : 1"
       sodipodi:type="inkscape:persp3d" />
    <inkscape:perspective
       id="perspective3215"
       inkscape:persp3d-origin="0.5 : 0.33333333 : 1"
       inkscape:vp_z="1 : 0.5 : 1"
       inkscape:vp_y="0 : 1000 : 0"
       inkscape:vp_x="0 : 0.5 : 1"
       sodipodi:type="inkscape:persp3d" />
    <inkscape:perspective
       id="perspective3215-1"
       inkscape:persp3d-origin="0.5 : 0.33333333 : 1"
       inkscape:vp_z="1 : 0.5 : 1"
       inkscape:vp_y="0 : 1000 : 0"
       inkscape:vp_x="0 : 0.5 : 1"
       sodipodi:type="inkscape:persp3d" />
    <inkscape:perspective
       sodipodi:type="inkscape:persp3d"
       inkscape:vp_x="0 : 0.5 : 1"
       inkscape:vp_y="0 : 1000 : 0"
       inkscape:vp_z="1 : 0.5 : 1"
       inkscape:persp3d-origin="0.5 : 0.33333333 : 1"
       id="perspective3622" />
    <inkscape:perspective
       id="perspective10-0"
       inkscape:persp3d-origin="372.04724 : 350.78739 : 1"
       inkscape:vp_z="744.09448 : 526.18109 : 1"
       inkscape:vp_y="0 : 1000 : 0"
       inkscape:vp_x="0 : 526.18109 : 1"
       sodipodi:type="inkscape:persp3d" />
    <inkscape:path-effect
       fuse_tolerance="0"
       vertical_pattern="false"
       prop_units="false"
       tang_offset="0"
       normal_offset="0"
       spacing="0"
       scale_y_rel="false"
       prop_scale="1"
       copytype="single_stretched"
       pattern="M 0,0 0,10 10,5 z"
       is_visible="true"
       id="path-effect3666"
       effect="skeletal" />
  </defs>
  <sodipodi:namedview
     id="base"
     pagecolor="#ffffff"
     bordercolor="#666666"
     borderopacity="1.0"
     inkscape:pageopacity="0.0"
     inkscape:pageshadow="2"
     inkscape:zoom="1.5546875"
     inkscape:cx="-153.97142"
     inkscape:cy="98.843456"
     inkscape:document-units="px"
     inkscape:current-layer="layer1"
     showgrid="true"
     inkscape:window-width="1440"
     inkscape:window-height="825"
     inkscape:window-x="-5"
     inkscape:window-y="19"
     inkscape:window-maximized="1"
     showguides="true"
     inkscape:guide-bbox="true">
    <inkscape:grid
       type="xygrid"
       id="grid2816"
       empspacing="4"
       visible="true"
       enabled="true"
       snapvisiblegridlinesonly="true" />
    <sodipodi:guide
       orientation="0,1"
       position="12,0"
       id="guide3171" />
  </sodipodi:namedview>
  <metadata
     id="metadata7">
    <rdf:RDF>
      <cc:Work
         rdf:about="">
        <dc:format>image/svg+xml</dc:format>
        <dc:type
           rdf:resource="http://purl.org/dc/dcmitype/StillImage" />
        <dc:title></dc:title>
      </cc:Work>
    </rdf:RDF>
  </metadata>
  <g
     inkscape:label="Layer 1"
     inkscape:groupmode="layer"
     id="layer1"
     transform="translate(0,-988.36218)">
    <path
       style="fill:#000000;fill-opacity:1;stroke:none"
       d="M 32.53125 0.8125 C 31.490031 0.8125 30.453244 0.8715 29.4375 0.96875 C 28.925945 1.01835 28.41047 1.0828 27.90625 1.15625 C 27.558524 1.20655 27.219012 1.25105 26.875 1.3125 C 26.646465 1.3535 26.414326 1.3917 26.1875 1.4375 C 26.081388 1.4589 25.980729 1.50895 25.875 1.53125 C 25.492106 1.61265 25.096454 1.68635 24.71875 1.78125 C 24.65795 1.79655 24.591911 1.7968 24.53125 1.8125 C 24.171283 1.9052 23.823704 2.02021 23.46875 2.125 C 23.063902 2.24452 22.679253 2.36514 22.28125 2.5 C 22.146721 2.5456 22.00872 2.5777 21.875 2.625 C 21.758861 2.666 21.64677 2.7077 21.53125 2.75 C 21.240211 2.85669 20.943263 2.97898 20.65625 3.09375 L 20.6875 3.21875 C 11.383869 6.94511 4.2502639 14.9178 1.6875 24.75 L 1.5625 24.71875 C 1.4078396 25.31235 1.2771626 25.92485 1.15625 26.53125 C 1.094611 26.84095 1.0526282 27.15605 1 27.46875 C 0.966462 27.66805 0.936087 27.862 0.90625 28.0625 C 0.850523 28.4369 0.7926369 28.8089 0.75 29.1875 C 0.698532 29.6444 0.6257643 30.0999 0.59375 30.5625 C 0.58872 30.6355 0.59829 30.70825 0.59375 30.78125 C 0.552262 31.44905 0.53125 32.1344 0.53125 32.8125 C 0.53125 37.365151 1.4737576 41.704163 3.1875 45.625 C 4.3213538 44.439047 4.949681 42.932212 5.5625 41.09375 L 6.71875 48 L 6.71875 38.78125 C 7.42245 42.48815 8.13656 46.203 9.03125 48 L 9.03125 29.59375 C 9.4561041 30.005567 11.057641 47.661932 12.40625 48 C 11.788414 48.139726 11.146196 51.959049 10.5625 56.0625 C 12.201721 57.611345 13.999666 59.010043 15.9375 60.1875 L 15.9375 48 C 15.20558 47.9306 12.62453 52.1345 12.46875 52.5625 L 12.46875 48 L 12.46875 43.4375 C 12.62753 43.8701 15.20606 48.069 15.9375 48 L 15.9375 35.5 C 16.03648 36.9219 17.44597 48.049 18.21875 48 L 18.21875 41.09375 C 17.82816 39.42645 20.91698 47.7037 22.625 48 C 20.915442 48.319717 17.828747 56.571053 18.21875 54.90625 L 18.21875 48 C 17.468082 47.952636 16.13737 58.314257 15.96875 60.21875 C 20.799114 63.144941 26.471377 64.8125 32.53125 64.8125 C 33.052284 64.8125 33.578814 64.80225 34.09375 64.78125 C 34.612069 64.75625 35.113445 64.70625 35.625 64.65625 C 36.136555 64.60725 36.65203 64.54225 37.15625 64.46875 C 37.502049 64.41875 37.845377 64.3738 38.1875 64.3125 C 38.345646 64.2845 38.498918 64.24975 38.65625 64.21875 C 38.832974 64.18475 39.011827 64.13075 39.1875 64.09375 C 39.507781 64.02575 39.839587 63.98375 40.15625 63.90625 C 40.644087 63.78695 41.11496 63.6413 41.59375 63.5 C 41.998598 63.3805 42.383247 63.2598 42.78125 63.125 C 42.85385 63.101 42.927632 63.0885 43 63.0625 C 43.469172 62.8997 43.947267 62.71485 44.40625 62.53125 L 44.375 62.4375 C 53.682495 58.7121 60.81203 50.7104 63.375 40.875 L 63.5 40.90625 C 63.5082 40.87525 63.52314 40.8445 63.53125 40.8125 C 63.689182 40.1987 63.815658 39.565 63.9375 38.9375 C 64.0177 38.5238 64.09216 38.1067 64.15625 37.6875 C 64.16245 37.6465 64.15015 37.6035 64.15625 37.5625 C 64.21198 37.1881 64.269863 36.816 64.3125 36.4375 C 64.32554 36.3217 64.3632 36.20995 64.375 36.09375 C 64.41492 35.70065 64.44319 35.30345 64.46875 34.90625 C 64.47005 34.88525 64.46745 34.86475 64.46875 34.84375 C 64.51024 34.17605 64.53125 33.4906 64.53125 32.8125 C 64.53125 15.1394 50.204362 0.8125 32.53125 0.8125 z M 9.03125 48 C 8.50021 49.066603 8.0302022 50.831298 7.59375 52.84375 C 8.0546589 53.416659 8.5326708 53.99175 9.03125 54.53125 L 9.03125 48 z M 6.71875 48 L 6.21875 51.03125 C 6.3865914 51.273368 6.5444614 51.5128 6.71875 51.75 L 6.71875 48 z M 21.96875 6.46875 L 29.65625 26 C 27.596946 26.8756 26.016706 28.66305 25.40625 30.84375 L 5.0625 25.625 C 7.3463629 16.8873 13.702705 9.79397 21.96875 6.46875 z M 32.53125 28.21875 C 35.088342 28.21875 37.125 30.2554 37.125 32.8125 C 37.125 35.3696 35.088342 37.40625 32.53125 37.40625 C 29.974158 37.40625 27.9375 35.3696 27.9375 32.8125 C 27.9375 30.2554 29.974158 28.21875 32.53125 28.21875 z M 22.84375 33.03125 L 22.84375 33.96875 C 23.1961 36.92815 25.0949 46.0392 27.4375 48 C 25.09717 49.9589 23.19878 59.06285 22.84375 62.03125 L 22.84375 62.96875 C 22.76165 63.04295 22.76635 62.67835 22.84375 62.03125 L 22.84375 48 L 22.84375 33.96875 C 22.76735 33.32715 22.76205 32.95725 22.84375 33.03125 z M 39.65625 34.78125 L 60 40 C 57.716137 48.7327 51.359796 55.83785 43.09375 59.15625 L 35.40625 39.65625 C 37.474562 38.77685 39.051747 36.97495 39.65625 34.78125 z M 32.03125 41.09375 C 33.18237 45.69815 34.34887 46.8489 35.5 48 C 34.34887 49.1512 33.18237 50.30175 32.03125 54.90625 C 32.03125 53.75515 32.01045 49.951 32.03125 48 C 32.01045 46.0491 32.03125 42.24485 32.03125 41.09375 z M 27.46875 44.78125 C 27.73933 46.89565 31.55192 47.5899 32 48 C 31.55201 48.4101 27.74067 49.10525 27.46875 51.21875 C 27.48795 50.43495 27.51115 48.5263 27.46875 48 C 27.51115 47.4738 27.48795 45.56505 27.46875 44.78125 z "
       id="path2815"
       transform="translate(0,988.36218)" />
    <path
       style="fill:#000000;fill-opacity:1;fill-rule:nonzero;stroke:none"
       d="M 3.1875 45.625 C 2.1915029 46.666762 0.8094845 47.461703 -1.34375 48 C 3.26075 49.1512 4.41137 51.45285 5.5625 54.90625 L 6.21875 51.03125 C 5.0468107 49.340678 4.0204709 47.530738 3.1875 45.625 z M 6.71875 51.75 L 6.71875 57.21875 C 7.0047714 55.712067 7.2948726 54.221854 7.59375 52.84375 C 7.2998435 52.478425 6.9966796 52.128251 6.71875 51.75 z M 9.03125 54.53125 L 9.03125 66.40625 C 9.2407567 66.635485 9.8418592 61.128691 10.5625 56.0625 C 10.034011 55.563149 9.5247608 55.065265 9.03125 54.53125 z M 15.9375 60.1875 L 15.9375 60.5 C 15.940301 60.460383 15.963992 60.27249 15.96875 60.21875 C 15.956587 60.211382 15.949652 60.194884 15.9375 60.1875 z "
       id="path18806"
       transform="translate(0,988.36218)" />
  </g>
</svg>
