<?xml version="1.0" encoding="UTF-8" standalone="no"?>
<!-- Created with Inkscape (http://www.inkscape.org/) -->

<svg
   xmlns:dc="http://purl.org/dc/elements/1.1/"
   xmlns:cc="http://creativecommons.org/ns#"
   xmlns:rdf="http://www.w3.org/1999/02/22-rdf-syntax-ns#"
   xmlns:svg="http://www.w3.org/2000/svg"
   xmlns="http://www.w3.org/2000/svg"
   xmlns:sodipodi="http://sodipodi.sourceforge.net/DTD/sodipodi-0.dtd"
   xmlns:inkscape="http://www.inkscape.org/namespaces/inkscape"
   width="64"
   height="64"
   id="svg2"
   version="1.1"
   inkscape:version="0.47 r22583"
   sodipodi:docname="disc.svg"
   sodipodi:version="0.32"
   inkscape:output_extension="org.inkscape.output.svg.inkscape">
  <defs
     id="defs4">
    <inkscape:perspective
       sodipodi:type="inkscape:persp3d"
       inkscape:vp_x="0 : 526.18109 : 1"
       inkscape:vp_y="0 : 1000 : 0"
       inkscape:vp_z="744.09448 : 526.18109 : 1"
       inkscape:persp3d-origin="372.04724 : 350.78739 : 1"
       id="perspective10" />
    <inkscape:perspective
       id="perspective3155"
       inkscape:persp3d-origin="0.5 : 0.33333333 : 1"
       inkscape:vp_z="1 : 0.5 : 1"
       inkscape:vp_y="0 : 1000 : 0"
       inkscape:vp_x="0 : 0.5 : 1"
       sodipodi:type="inkscape:persp3d" />
    <inkscape:perspective
       id="perspective2391"
       inkscape:persp3d-origin="32 : 21.333333 : 1"
       inkscape:vp_z="64 : 32 : 1"
       inkscape:vp_y="0 : 1000 : 0"
       inkscape:vp_x="0 : 32 : 1"
       sodipodi:type="inkscape:persp3d" />
    <inkscape:perspective
       id="perspective3215"
       inkscape:persp3d-origin="0.5 : 0.33333333 : 1"
       inkscape:vp_z="1 : 0.5 : 1"
       inkscape:vp_y="0 : 1000 : 0"
       inkscape:vp_x="0 : 0.5 : 1"
       sodipodi:type="inkscape:persp3d" />
    <inkscape:perspective
       id="perspective3215-1"
       inkscape:persp3d-origin="0.5 : 0.33333333 : 1"
       inkscape:vp_z="1 : 0.5 : 1"
       inkscape:vp_y="0 : 1000 : 0"
       inkscape:vp_x="0 : 0.5 : 1"
       sodipodi:type="inkscape:persp3d" />
  </defs>
  <sodipodi:namedview
     id="base"
     pagecolor="#ffffff"
     bordercolor="#666666"
     borderopacity="1.0"
     inkscape:pageopacity="0.0"
     inkscape:pageshadow="2"
     inkscape:zoom="3.109375"
     inkscape:cx="-10.224392"
     inkscape:cy="-15.657658"
     inkscape:document-units="px"
     inkscape:current-layer="layer1"
     showgrid="true"
     inkscape:window-width="1440"
     inkscape:window-height="825"
     inkscape:window-x="-5"
     inkscape:window-y="19"
     inkscape:window-maximized="1"
     showguides="true"
     inkscape:guide-bbox="true">
    <inkscape:grid
       type="xygrid"
       id="grid2816"
       empspacing="4"
       visible="true"
       enabled="true"
       snapvisiblegridlinesonly="true" />
    <sodipodi:guide
       orientation="0,1"
       position="12,0"
       id="guide3171" />
  </sodipodi:namedview>
  <metadata
     id="metadata7">
    <rdf:RDF>
      <cc:Work
         rdf:about="">
        <dc:format>image/svg+xml</dc:format>
        <dc:type
           rdf:resource="http://purl.org/dc/dcmitype/StillImage" />
        <dc:title></dc:title>
      </cc:Work>
    </rdf:RDF>
  </metadata>
  <g
     inkscape:label="Layer 1"
     inkscape:groupmode="layer"
     id="layer1"
     transform="translate(0,-988.36218)">
    <g
       id="g4120">
      <path
         id="path2815"
         d="m 32,988.49989 c -1.041219,0 -2.078006,0.059 -3.09375,0.15625 -0.511555,0.0496 -1.02703,0.11405 -1.53125,0.1875 -0.347726,0.0503 -0.687238,0.0948 -1.03125,0.15625 -0.228535,0.041 -0.460674,0.0792 -0.6875,0.125 -0.106112,0.0214 -0.206771,0.0713 -0.3125,0.0937 -0.382894,0.0814 -0.778546,0.1551 -1.15625,0.25 -0.0608,0.0153 -0.126839,0.0156 -0.1875,0.0313 -0.359967,0.0927 -0.707546,0.20771 -1.0625,0.3125 -0.404848,0.11952 -0.789497,0.24014 -1.1875,0.375 -0.134529,0.0456 -0.27253,0.0777 -0.40625,0.125 -0.116139,0.041 -0.22823,0.0827 -0.34375,0.125 -0.291039,0.10669 -0.587987,0.22898 -0.875,0.34375 l 9.5,24.18746 c 0.0087,-0 0.02248,0 0.03125,0 0.354642,-0.1497 0.736253,-0.2672 1.125,-0.3437 0.398359,-0.078 0.799549,-0.125 1.21875,-0.125 3.313708,0 6,2.6863 6,6 0,0.2825 -0.01825,0.5729 -0.0625,0.8437 -0.0014,0.01 0.0015,0.021 0,0.031 -0.03765,0.2606 -0.117466,0.5013 -0.1875,0.75 l 25.21875,6.4687 c 0.0082,-0.031 0.02314,-0.062 0.03125,-0.094 0.157932,-0.6138 0.284408,-1.2475 0.40625,-1.875 0.0802,-0.4137 0.15466,-0.8308 0.21875,-1.25 0.0062,-0.041 -0.0061,-0.084 0,-0.125 0.05573,-0.3744 0.113613,-0.7465 0.15625,-1.125 0.01304,-0.1158 0.0507,-0.2276 0.0625,-0.3438 0.03992,-0.3931 0.06819,-0.7903 0.09375,-1.1875 0.0013,-0.021 -0.0013,-0.042 0,-0.063 0.04149,-0.6677 0.0625,-1.3531 0.0625,-2.0312 0,-17.6731 -14.326888,-32.00001 -32,-32.00001 z M 1.03125,1012.4061 c -0.15466041,0.5936 -0.28533744,1.2061 -0.40625,1.8125 -0.0616387,0.3097 -0.10362183,0.6248 -0.15625,0.9375 -0.0335382,0.1993 -0.0639126,0.3933 -0.09375,0.5938 -0.0557271,0.3744 -0.1136131,0.7464 -0.15625,1.125 -0.051468,0.4569 -0.12423567,0.9124 -0.15625,1.375 -0.0050254,0.073 0.0045371,0.1457 0,0.2187 -0.04148849,0.6678 -0.0625,1.3532 -0.0625,2.0313 0,17.6731 14.326888,32 32,32 0.521034,0 1.047564,-0.01 1.5625,-0.031 0.518319,-0.025 1.019695,-0.075 1.53125,-0.125 0.511555,-0.049 1.02703,-0.114 1.53125,-0.1875 0.345799,-0.05 0.689127,-0.095 1.03125,-0.1562 0.158146,-0.028 0.311418,-0.063 0.46875,-0.094 0.176724,-0.034 0.355577,-0.088 0.53125,-0.125 0.320281,-0.068 0.652087,-0.11 0.96875,-0.1875 0.487837,-0.1193 0.95871,-0.2649 1.4375,-0.4062 0.404848,-0.1195 0.789497,-0.2402 1.1875,-0.375 0.0726,-0.024 0.146382,-0.038 0.21875,-0.063 0.469172,-0.1628 0.947267,-0.3477 1.40625,-0.5313 l -9.5,-24.1875 c -0.0086,0 -0.02261,-0 -0.03125,0 -0.354642,0.1498 -0.736253,0.2673 -1.125,0.3438 -0.390586,0.08 -0.804536,0.125 -1.21875,0.125 -3.313708,0 -6,-2.6863 -6,-6 0,-0.2726 0.02729,-0.5496 0.0625,-0.8125 0.0032,-0.02 -0.0034,-0.042 0,-0.063 0.03765,-0.2607 0.117466,-0.5013 0.1875,-0.75 l -25.21875,-6.4688 z"
         style="fill:#000000;fill-opacity:1;stroke:none" />
      <path
         id="path3622"
         d="m 32.000002,988.61813 c -17.607512,0 -31.881225,14.27377 -31.881225,31.88127 0,17.6075 14.273713,31.8812 31.881225,31.8812 17.607512,0 31.881221,-14.2737 31.881221,-31.8812 -3e-6,-17.6075 -14.273709,-31.88127 -31.881221,-31.88127 z m 0,3.487 c 15.668368,0 28.394213,12.72587 28.394213,28.39427 10e-7,15.6684 -12.725845,28.3631 -28.394213,28.3631 -15.668368,0 -28.394212,-12.6947 -28.394212,-28.3631 0,-15.6684 12.725844,-28.39427 28.394212,-28.39427 z"
         style="fill:#000000;fill-opacity:1;fill-rule:nonzero;stroke:none" />
      <path
         transform="translate(46,966.49934)"
         d="m -8,54 c 0,3.313708 -2.686292,6 -6,6 -3.313708,0 -6,-2.686292 -6,-6 0,-3.313708 2.686292,-6 6,-6 3.313708,0 6,2.686292 6,6 z"
         sodipodi:ry="6"
         sodipodi:rx="6"
         sodipodi:cy="54"
         sodipodi:cx="-14"
         id="path3346"
         style="fill:none;fill-opacity:1;stroke:#000000;stroke-opacity:1;stroke-width:2.8;stroke-miterlimit:4;stroke-dasharray:none"
         sodipodi:type="arc" />
    </g>
  </g>
</svg>
