<?xml version="1.0" encoding="UTF-8" standalone="no"?>
<!-- Created with Inkscape (http://www.inkscape.org/) -->

<svg
   xmlns:dc="http://purl.org/dc/elements/1.1/"
   xmlns:cc="http://creativecommons.org/ns#"
   xmlns:rdf="http://www.w3.org/1999/02/22-rdf-syntax-ns#"
   xmlns:svg="http://www.w3.org/2000/svg"
   xmlns="http://www.w3.org/2000/svg"
   xmlns:sodipodi="http://sodipodi.sourceforge.net/DTD/sodipodi-0.dtd"
   xmlns:inkscape="http://www.inkscape.org/namespaces/inkscape"
   width="16"
   height="16"
   id="svg2"
   version="1.1"
   inkscape:version="0.48.1 r9760"
   sodipodi:docname="document-open.svg">
  <defs
     id="defs4" />
  <sodipodi:namedview
     id="base"
     pagecolor="#ffffff"
     bordercolor="#666666"
     borderopacity="1.0"
     inkscape:pageopacity="0.0"
     inkscape:pageshadow="2"
     inkscape:zoom="8"
     inkscape:cx="0.095061521"
     inkscape:cy="9.7608603"
     inkscape:document-units="px"
     inkscape:current-layer="layer1"
     showgrid="false"
     showguides="true"
     inkscape:guide-bbox="true"
     showborder="true"
     inkscape:showpageshadow="false"
     inkscape:window-width="1219"
     inkscape:window-height="900"
     inkscape:window-x="444"
     inkscape:window-y="176"
     inkscape:window-maximized="0">
    <inkscape:grid
       type="xygrid"
       id="grid3019"
       empspacing="4"
       visible="true"
       enabled="true"
       snapvisiblegridlinesonly="true" />
  </sodipodi:namedview>
  <metadata
     id="metadata7">
    <rdf:RDF>
      <cc:Work
         rdf:about="">
        <dc:format>image/svg+xml</dc:format>
        <dc:type
           rdf:resource="http://purl.org/dc/dcmitype/StillImage" />
        <dc:title></dc:title>
      </cc:Work>
    </rdf:RDF>
  </metadata>
  <g
     inkscape:label="Ebene 1"
     inkscape:groupmode="layer"
     id="layer1"
     transform="translate(0,-1036.3622)">
    <g
       id="g3025"
       transform="translate(0.50000026,-20)">
      <path
         sodipodi:type="arc"
         style="fill:#000000;fill-opacity:1;stroke:none"
         id="path2993"
         sodipodi:cx="274.28571"
         sodipodi:cy="592.36218"
         sodipodi:rx="208.57143"
         sodipodi:ry="208.57143"
         d="M 378.57143,411.73403 C 478.3296,469.32945 512.50927,596.88973 454.91385,696.6479 397.31844,796.40608 269.75816,830.58575 169.99998,772.99033 70.241812,715.39492 36.062143,587.83463 93.657556,488.07646 111.96354,456.36957 138.29318,430.03994 170.00008,411.73398 l 104.28563,180.6282 z"
         transform="matrix(0.0359529,0,0,0.0359529,-2.3613668,1023.5651)"
         sodipodi:start="5.2359878"
         sodipodi:end="10.471976" />
      <path
         sodipodi:end="5.1487213"
         sodipodi:start="4.2760567"
         transform="matrix(0.03355604,0,0,0.03355604,-1.7039425,1023.4837)"
         d="m 186.13962,403.33227 c 55.87589,-26.05535 120.41629,-26.05535 176.29218,1e-5 l -88.14609,189.0299 z"
         sodipodi:ry="208.57143"
         sodipodi:rx="208.57143"
         sodipodi:cy="592.36218"
         sodipodi:cx="274.28571"
         id="path2995"
         style="fill:#000000;fill-opacity:1;stroke:none"
         sodipodi:type="arc" />
    </g>
    <g
       id="g3029"
       transform="matrix(1,0,0,-1,20.5,2088.7244)">
      <path
         sodipodi:end="10.471976"
         sodipodi:start="5.2359878"
         transform="matrix(0.0359529,0,0,0.0359529,-2.3613668,1023.5651)"
         d="M 378.57143,411.73403 C 478.3296,469.32945 512.50927,596.88973 454.91385,696.6479 397.31844,796.40608 269.75816,830.58575 169.99998,772.99033 70.241812,715.39492 36.062143,587.83463 93.657556,488.07646 111.96354,456.36957 138.29318,430.03994 170.00008,411.73398 l 104.28563,180.6282 z"
         sodipodi:ry="208.57143"
         sodipodi:rx="208.57143"
         sodipodi:cy="592.36218"
         sodipodi:cx="274.28571"
         id="path3031"
         style="fill:#000000;fill-opacity:1;stroke:none"
         sodipodi:type="arc" />
      <path
         sodipodi:type="arc"
         style="fill:#000000;fill-opacity:1;stroke:none"
         id="path3033"
         sodipodi:cx="274.28571"
         sodipodi:cy="592.36218"
         sodipodi:rx="208.57143"
         sodipodi:ry="208.57143"
         d="m 186.13962,403.33227 c 55.87589,-26.05535 120.41629,-26.05535 176.29218,1e-5 l -88.14609,189.0299 z"
         transform="matrix(0.03355604,0,0,0.03355604,-1.7039425,1023.4837)"
         sodipodi:start="4.2760567"
         sodipodi:end="5.1487213" />
    </g>
    <g
       id="g3054"
       transform="matrix(0,-1,1,0,-1036.3622,1071.8622)">
      <path
         sodipodi:end="10.471976"
         sodipodi:start="5.2359878"
         transform="matrix(0.0359529,0,0,0.0359529,-2.3613668,1023.5651)"
         d="M 378.57143,411.73403 C 478.3296,469.32945 512.50927,596.88973 454.91385,696.6479 397.31844,796.40608 269.75816,830.58575 169.99998,772.99033 70.241812,715.39492 36.062143,587.83463 93.657556,488.07646 111.96354,456.36957 138.29318,430.03994 170.00008,411.73398 l 104.28563,180.6282 z"
         sodipodi:ry="208.57143"
         sodipodi:rx="208.57143"
         sodipodi:cy="592.36218"
         sodipodi:cx="274.28571"
         id="path3056"
         style="fill:#000000;fill-opacity:1;stroke:none"
         sodipodi:type="arc" />
      <path
         sodipodi:type="arc"
         style="fill:#000000;fill-opacity:1;stroke:none"
         id="path3058"
         sodipodi:cx="274.28571"
         sodipodi:cy="592.36218"
         sodipodi:rx="208.57143"
         sodipodi:ry="208.57143"
         d="m 186.13962,403.33227 c 55.87589,-26.05535 120.41629,-26.05535 176.29218,1e-5 l -88.14609,189.0299 z"
         transform="matrix(0.03355604,0,0,0.03355604,-1.7039425,1023.4837)"
         sodipodi:start="4.2760567"
         sodipodi:end="5.1487213" />
    </g>
    <g
       id="g3010"
       transform="translate(20.5,6.0804057e-4)">
      <path
         sodipodi:end="10.210176"
         sodipodi:start="5.4977871"
         transform="matrix(0.0359529,0,0,0.0359529,-42.361367,1023.5651)"
         d="m 421.76797,444.87991 c 81.45221,81.4522 81.45222,213.51232 1e-5,294.96454 -81.4522,81.45221 -213.51233,81.45221 -294.96454,10e-6 -81.452205,-81.4522 -81.452217,-213.51231 -2e-5,-294.96453 l 147.48229,147.48225 z"
         sodipodi:ry="208.57143"
         sodipodi:rx="208.57143"
         sodipodi:cy="592.36218"
         sodipodi:cx="274.28571"
         id="path2994"
         style="fill:#000000;fill-opacity:1;stroke:none"
         sodipodi:type="arc" />
      <path
         sodipodi:type="arc"
         style="fill:#000000;fill-opacity:1;stroke:none"
         id="path2996"
         sodipodi:cx="274.28571"
         sodipodi:cy="592.36218"
         sodipodi:rx="208.57143"
         sodipodi:ry="208.57143"
         d="m 126.80343,444.87992 c 39.11473,-39.11474 92.1657,-61.08916 147.48228,-61.08916 l 0,208.57142 z"
         transform="matrix(0.03355604,0,0,0.03355604,-42.068906,1023.4837)"
         sodipodi:start="3.9269908"
         sodipodi:end="4.712389" />
      <path
         sodipodi:end="5.4977871"
         sodipodi:start="4.712389"
         transform="matrix(0.03355604,0,0,0.03355604,-41.338978,1023.4837)"
         d="m 274.28571,383.79076 c 55.31658,0 108.36753,21.97442 147.48226,61.08915 L 274.28571,592.36218 z"
         sodipodi:ry="208.57143"
         sodipodi:rx="208.57143"
         sodipodi:cy="592.36218"
         sodipodi:cx="274.28571"
         id="path3000"
         style="fill:#000000;fill-opacity:1;stroke:none"
         sodipodi:type="arc" />
    </g>
    <g
       id="g3019"
       transform="translate(-39.500626,-1.8011921e-5)">
      <path
         sodipodi:end="8.3775804"
         sodipodi:start="5.2359878"
         transform="matrix(0.0359529,0,0,0.0359529,37.638633,1023.5651)"
         d="m 378.57143,411.73403 c 99.75817,57.59542 133.93784,185.1557 76.34242,284.91387 -57.59541,99.75817 -185.15568,133.93784 -284.91386,76.34244 L 274.28571,592.36218 z"
         sodipodi:ry="208.57143"
         sodipodi:rx="208.57143"
         sodipodi:cy="592.36218"
         sodipodi:cx="274.28571"
         id="path3004"
         style="fill:#000000;fill-opacity:1;stroke:none"
         sodipodi:type="arc" />
      <path
         sodipodi:type="arc"
         style="fill:#000000;fill-opacity:1;stroke:none"
         id="path3006"
         sodipodi:cx="274.28571"
         sodipodi:cy="592.36218"
         sodipodi:rx="208.57143"
         sodipodi:ry="208.57143"
         d="m 186.13962,403.33227 c 55.87589,-26.05535 120.41629,-26.05535 176.29218,1e-5 l -88.14609,189.0299 z"
         transform="matrix(0.03355604,0,0,0.03355604,38.296058,1023.4837)"
         sodipodi:start="4.2760567"
         sodipodi:end="5.1487213" />
      <path
         sodipodi:type="arc"
         style="fill:#000000;fill-opacity:1;stroke:none"
         id="path3015"
         sodipodi:cx="274.28571"
         sodipodi:cy="592.36218"
         sodipodi:rx="208.57143"
         sodipodi:ry="208.57143"
         d="m 65.714279,592.36217 c 4e-6,-74.51542 39.753531,-143.37051 104.285801,-180.62819 l 104.28563,180.6282 z"
         transform="matrix(0.0359529,0,0,0.0359529,37.638633,1023.5651)"
         sodipodi:start="3.1415927"
         sodipodi:end="4.1887907" />
      <path
         sodipodi:end="3.1415927"
         sodipodi:start="2.0943951"
         transform="matrix(0.0359529,0,0,0.0359529,37.638633,1023.5651)"
         d="M 169.99999,772.99034 C 105.46777,735.73264 65.714276,666.87757 65.714279,592.36217 l 208.571431,10e-6 z"
         sodipodi:ry="208.57143"
         sodipodi:rx="208.57143"
         sodipodi:cy="592.36218"
         sodipodi:cx="274.28571"
         id="path3017"
         style="opacity:0.33000004;fill:#000000;fill-opacity:1;stroke:none"
         sodipodi:type="arc" />
    </g>
  </g>
</svg>
