<?xml version="1.0" encoding="UTF-8" standalone="no"?>
<!-- Created with Inkscape (http://www.inkscape.org/) -->

<svg
   xmlns:dc="http://purl.org/dc/elements/1.1/"
   xmlns:cc="http://creativecommons.org/ns#"
   xmlns:rdf="http://www.w3.org/1999/02/22-rdf-syntax-ns#"
   xmlns:svg="http://www.w3.org/2000/svg"
   xmlns="http://www.w3.org/2000/svg"
   xmlns:sodipodi="http://sodipodi.sourceforge.net/DTD/sodipodi-0.dtd"
   xmlns:inkscape="http://www.inkscape.org/namespaces/inkscape"
   width="128"
   height="128"
   id="svg4318"
   version="1.1"
   inkscape:version="0.47 r22583"
   sodipodi:docname="edit-find.svg">
  <defs
     id="defs4320">
    <inkscape:perspective
       sodipodi:type="inkscape:persp3d"
       inkscape:vp_x="0 : 526.18109 : 1"
       inkscape:vp_y="0 : 1000 : 0"
       inkscape:vp_z="744.09448 : 526.18109 : 1"
       inkscape:persp3d-origin="372.04724 : 350.78739 : 1"
       id="perspective4326" />
  </defs>
  <sodipodi:namedview
     id="base"
     pagecolor="#ffffff"
     bordercolor="#666666"
     borderopacity="1.0"
     inkscape:pageopacity="0.0"
     inkscape:pageshadow="2"
     inkscape:zoom="1.979899"
     inkscape:cx="-6.9237687"
     inkscape:cy="19.074473"
     inkscape:document-units="px"
     inkscape:current-layer="layer1"
     showgrid="true"
     inkscape:window-width="1569"
     inkscape:window-height="1022"
     inkscape:window-x="230"
     inkscape:window-y="23"
     inkscape:window-maximized="0">
    <inkscape:grid
       type="xygrid"
       id="grid4328"
       empspacing="8"
       visible="true"
       enabled="true"
       snapvisiblegridlinesonly="true" />
  </sodipodi:namedview>
  <metadata
     id="metadata4323">
    <rdf:RDF>
      <cc:Work
         rdf:about="">
        <dc:format>image/svg+xml</dc:format>
        <dc:type
           rdf:resource="http://purl.org/dc/dcmitype/StillImage" />
        <dc:title></dc:title>
      </cc:Work>
    </rdf:RDF>
  </metadata>
  <g
     inkscape:label="Layer 1"
     inkscape:groupmode="layer"
     id="layer1"
     transform="translate(0,-924.36218)">
    <path
       style="fill:#000000;fill-opacity:1;fill-rule:nonzero;stroke:none;opacity:0.3"
       d="M 24 8 L 24 120 L 72 120 L 72 96 L 72 88 L 80 88 L 104 88 L 104 8 L 24 8 z M 80 96 L 80 120 L 104 96 L 80 96 z "
       transform="translate(0,924.36218)"
       id="rect3787" />
    <path
       style="fill:#000000;fill-opacity:1;fill-rule:nonzero;stroke:none"
       d="m 63.6875,937.20593 c -7.33434,0 -2.84895,7.84952 -9.625,10.65625 -6.77605,2.80673 -9.18884,-5.90491 -14.375,-0.71875 -5.18616,5.18616 3.52548,7.59895 0.71875,14.375 -2.80673,6.77605 -10.65625,2.29066 -10.65625,9.625 0,7.33434 7.84952,2.84895 10.65625,9.625 2.80673,6.77605 -5.90491,9.18884 -0.71875,14.375 5.18616,5.18617 7.59895,-3.52548 14.375,-0.71875 6.77605,2.80673 2.29066,10.65622 9.625,10.65622 7.33434,0 2.84895,-7.84949 9.625,-10.65622 6.77605,-2.80673 9.18884,5.90492 14.375,0.71875 5.186161,-5.18616 -3.52548,-7.59895 -0.71875,-14.375 2.80673,-6.77605 10.65625,-2.29066 10.65625,-9.625 0,-7.33434 -7.84952,-2.84895 -10.65625,-9.625 -2.80673,-6.77605 5.904911,-9.18884 0.71875,-14.375 -5.18616,-5.18616 -7.59895,3.52548 -14.375,0.71875 -6.77605,-2.80673 -2.29066,-10.65625 -9.625,-10.65625 z M 64,956.36218 c 8.65995,0 15.6875,6.87205 15.6875,15.375 0,8.50295 -7.02755,15.40625 -15.6875,15.40625 -8.65995,0 -15.6875,-6.9033 -15.6875,-15.40625 0,-8.50295 7.02755,-15.375 15.6875,-15.375 z"
       id="path3796" />
  </g>
</svg>
