<?xml version="1.0" encoding="UTF-8" standalone="no"?>
<!-- Created with Inkscape (http://www.inkscape.org/) -->
<svg
   xmlns:dc="http://purl.org/dc/elements/1.1/"
   xmlns:cc="http://creativecommons.org/ns#"
   xmlns:rdf="http://www.w3.org/1999/02/22-rdf-syntax-ns#"
   xmlns:svg="http://www.w3.org/2000/svg"
   xmlns="http://www.w3.org/2000/svg"
   xmlns:sodipodi="http://sodipodi.sourceforge.net/DTD/sodipodi-0.dtd"
   xmlns:inkscape="http://www.inkscape.org/namespaces/inkscape"
   width="64"
   height="64"
   id="svg2"
   version="1.1"
   inkscape:version="0.46"
   sodipodi:docname="download-mail.svg"
   sodipodi:version="0.32"
   inkscape:output_extension="org.inkscape.output.svg.inkscape">
  <defs
     id="defs4">
    <inkscape:perspective
       sodipodi:type="inkscape:persp3d"
       inkscape:vp_x="0 : 526.18109 : 1"
       inkscape:vp_y="0 : 1000 : 0"
       inkscape:vp_z="744.09448 : 526.18109 : 1"
       inkscape:persp3d-origin="372.04724 : 350.78739 : 1"
       id="perspective10" />
  </defs>
  <sodipodi:namedview
     id="base"
     pagecolor="#ffffff"
     bordercolor="#666666"
     borderopacity="1.0"
     inkscape:pageopacity="0.0"
     inkscape:pageshadow="2"
     inkscape:zoom="5.703125"
     inkscape:cx="3.4031745"
     inkscape:cy="43.237769"
     inkscape:document-units="px"
     inkscape:current-layer="layer1"
     showgrid="true"
     inkscape:window-width="1425"
     inkscape:window-height="846"
     inkscape:window-x="0"
     inkscape:window-y="0"
     inkscape:window-maximized="0">
    <inkscape:grid
       type="xygrid"
       id="grid2816"
       empspacing="4"
       visible="true"
       enabled="true"
       snapvisiblegridlinesonly="true" />
  </sodipodi:namedview>
  <metadata
     id="metadata7">
    <rdf:RDF>
      <cc:Work
         rdf:about="">
        <dc:format>image/svg+xml</dc:format>
        <dc:type
           rdf:resource="http://purl.org/dc/dcmitype/StillImage" />
        <dc:title />
      </cc:Work>
    </rdf:RDF>
  </metadata>
  <g
     inkscape:label="Layer 1"
     inkscape:groupmode="layer"
     id="layer1"
     transform="translate(0,-988.36218)">
    <path
       style="opacity:1;fill:#000000;fill-opacity:1;fill-rule:nonzero;stroke:none"
       d="M 4.5714286,988.36214 C 2.0388572,988.36214 7.9936058e-15,990.26507 7.9936058e-15,992.62881 L 7.9936058e-15,1022.4955 C 7.9936058e-15,1024.8592 2.0388572,1026.7622 4.5714286,1026.7622 L 22.857142,1026.7622 L 22.857142,1022.4955 L 6.8571428,1022.4955 C 5.5908572,1022.4955 4.5714286,1021.544 4.5714286,1020.3622 L 4.5714286,994.76214 C 4.5714286,994.47776 4.6427132,994.2098 4.75,993.96214 C 4.6460921,993.85005 4.5714286,993.74935 4.5714286,993.69548 C 4.5714286,993.74935 4.6460921,993.84999 4.75,993.96214 C 6.9253634,996.30891 30.791442,1010.7622 32,1010.7622 C 33.208558,1010.7622 57.074637,996.30891 59.25,993.96214 C 59.353908,993.85005 59.428572,993.74934 59.428572,993.69548 C 59.428572,993.74935 59.353907,993.85005 59.25,993.96214 C 59.357292,994.2098 59.428572,994.47776 59.428572,994.76214 L 59.428572,1020.3622 C 59.428572,1021.544 58.409142,1022.4955 57.142858,1022.4955 L 41.142858,1022.4955 L 41.142858,1026.7622 L 59.428572,1026.7622 C 61.961142,1026.7622 64,1024.8592 64,1022.4955 L 64,992.62881 C 64,990.26507 61.961142,988.36214 59.428572,988.36214 L 4.5714286,988.36214 z M 8.9642858,991.82881 C 9.3610458,992.01849 9.9080788,992.29921 10.5,992.62881 L 53.5,992.62881 C 54.091921,992.29921 54.638955,992.01849 55.035714,991.82881 C 54.619427,992.02499 54.144522,992.26992 53.5,992.62881 C 47.574333,995.92838 33.007373,1005.4288 32,1005.4288 C 30.992627,1005.4288 16.425667,995.92838 10.5,992.62881 C 9.8828788,992.28518 9.3731178,992.02581 8.9642858,991.82881 z M 6.0714286,992.76214 L 5.25,993.26214 C 5.482393,993.04525 5.7560581,992.86951 6.0714286,992.76214 z M 57.928572,992.76214 C 58.243941,992.86951 58.517606,993.04525 58.75,993.26214 L 57.928572,992.76214 z"
       id="rect3738" />
    <path
       id="path3814"
       style="opacity:1;fill:#000000;fill-opacity:1;fill-rule:nonzero;stroke:none"
       d="M 18.285714,1035.2955 C 27.428572,1038.4955 36.571428,1038.4955 45.714286,1035.2955 L 32,1052.3622 L 18.285714,1035.2955 z M 29.714286,1018.2288 C 28.448,1018.2288 27.428572,1019.1803 27.428572,1020.3622 L 27.428572,1037.4289 C 30.476191,1037.7844 33.523809,1037.7844 36.571428,1037.4289 L 36.571428,1020.3622 C 36.571428,1019.1803 35.552,1018.2288 34.285714,1018.2288 L 29.714286,1018.2288 z" />
  </g>
</svg>
