<?xml version="1.0" encoding="UTF-8" standalone="no"?>
<!-- Created with Inkscape (http://www.inkscape.org/) -->

<svg
   xmlns:dc="http://purl.org/dc/elements/1.1/"
   xmlns:cc="http://creativecommons.org/ns#"
   xmlns:rdf="http://www.w3.org/1999/02/22-rdf-syntax-ns#"
   xmlns:svg="http://www.w3.org/2000/svg"
   xmlns="http://www.w3.org/2000/svg"
   xmlns:sodipodi="http://sodipodi.sourceforge.net/DTD/sodipodi-0.dtd"
   xmlns:inkscape="http://www.inkscape.org/namespaces/inkscape"
   width="128"
   height="128"
   id="svg4318"
   version="1.1"
   inkscape:version="0.47 r22583"
   sodipodi:docname="preferences-desktop-mouse.svg">
  <defs
     id="defs4320">
    <inkscape:perspective
       sodipodi:type="inkscape:persp3d"
       inkscape:vp_x="0 : 526.18109 : 1"
       inkscape:vp_y="0 : 1000 : 0"
       inkscape:vp_z="744.09448 : 526.18109 : 1"
       inkscape:persp3d-origin="372.04724 : 350.78739 : 1"
       id="perspective4326" />
  </defs>
  <sodipodi:namedview
     id="base"
     pagecolor="#ffffff"
     bordercolor="#666666"
     borderopacity="1.0"
     inkscape:pageopacity="0.0"
     inkscape:pageshadow="2"
     inkscape:zoom="1.979899"
     inkscape:cx="-6.9237687"
     inkscape:cy="19.074473"
     inkscape:document-units="px"
     inkscape:current-layer="layer1"
     showgrid="true"
     inkscape:window-width="1423"
     inkscape:window-height="997"
     inkscape:window-x="217"
     inkscape:window-y="73"
     inkscape:window-maximized="0">
    <inkscape:grid
       type="xygrid"
       id="grid4328"
       empspacing="8"
       visible="true"
       enabled="true"
       snapvisiblegridlinesonly="true" />
  </sodipodi:namedview>
  <metadata
     id="metadata4323">
    <rdf:RDF>
      <cc:Work
         rdf:about="">
        <dc:format>image/svg+xml</dc:format>
        <dc:type
           rdf:resource="http://purl.org/dc/dcmitype/StillImage" />
        <dc:title></dc:title>
      </cc:Work>
    </rdf:RDF>
  </metadata>
  <g
     inkscape:label="Layer 1"
     inkscape:groupmode="layer"
     id="layer1"
     transform="translate(0,-924.36218)">
    <path
       style="fill:#000000;fill-opacity:1;fill-rule:nonzero;stroke:none"
       d="m 46.0625,933.45593 c -9.709978,0 -19.435286,3.71654 -26.84375,11.125 -14.8169276,14.81693 -14.8169276,38.83932 0,53.65625 11.856333,11.85632 29.600678,14.21202 43.8125,7.09372 l 36.78125,36.7813 c 4.70085,4.7008 12.2679,4.7008 16.96875,0 4.70085,-4.7009 4.70085,-12.2679 0,-16.9688 L 80,988.36218 c 7.09518,-14.20549 4.720836,-31.93541 -7.125,-43.78125 -7.408464,-7.40846 -17.102522,-11.125 -26.8125,-11.125 z m 0,11.3125 c 6.814548,0 13.613175,2.61318 18.8125,7.8125 7.340533,7.34053 9.49176,17.89099 6.46875,27.125 -0.0072,0.0221 -0.02396,0.0404 -0.03125,0.0625 -0.151491,0.45852 -0.291827,0.92332 -0.46875,1.375 -0.03712,0.0947 -0.08675,0.18694 -0.125,0.28125 -0.3262,0.80557 -0.685866,1.59753 -1.09375,2.375 -0.0219,0.0417 -0.04037,0.0833 -0.0625,0.125 -0.05133,0.0964 -0.103655,0.18535 -0.15625,0.28125 -0.195995,0.35832 -0.411353,0.71158 -0.625,1.0625 -0.04328,0.0708 -0.081,0.14829 -0.125,0.21875 -0.229758,0.36946 -0.469213,0.73352 -0.71875,1.09375 -0.07626,0.1097 -0.1719,0.2037 -0.25,0.3125 -0.226708,0.31689 -0.445201,0.62868 -0.6875,0.9375 -0.07672,0.0976 -0.171726,0.18446 -0.25,0.28125 -0.586323,0.72602 -1.200768,1.45077 -1.875,2.125 -0.324958,0.32496 -0.662819,0.63285 -1,0.9375 -0.05499,0.0496 -0.100953,0.10726 -0.15625,0.15625 -0.283878,0.25227 -0.583153,0.48071 -0.875,0.71875 -0.319765,0.26081 -0.64,0.53753 -0.96875,0.78125 -0.213674,0.15753 -0.439028,0.31856 -0.65625,0.46875 -0.154834,0.10764 -0.312171,0.20853 -0.46875,0.3125 -1.573627,1.03876 -3.218549,1.89108 -4.9375,2.5625 -0.47237,0.18451 -0.9568,0.34255 -1.4375,0.5 -9.242928,3.04118 -19.805764,0.91299 -27.15625,-6.4375 -10.398649,-10.39865 -10.398649,-27.2576 0,-37.65625 5.199325,-5.19932 12.029202,-7.8125 18.84375,-7.8125 z"
       id="path3744" />
  </g>
</svg>
