<?xml version="1.0" encoding="UTF-8" standalone="no"?>
<!-- Created with Inkscape (http://www.inkscape.org/) -->

<svg
   xmlns:dc="http://purl.org/dc/elements/1.1/"
   xmlns:cc="http://creativecommons.org/ns#"
   xmlns:rdf="http://www.w3.org/1999/02/22-rdf-syntax-ns#"
   xmlns:svg="http://www.w3.org/2000/svg"
   xmlns="http://www.w3.org/2000/svg"
   xmlns:sodipodi="http://sodipodi.sourceforge.net/DTD/sodipodi-0.dtd"
   xmlns:inkscape="http://www.inkscape.org/namespaces/inkscape"
   width="128"
   height="128"
   id="svg2"
   version="1.1"
   inkscape:version="0.47 r22583"
   sodipodi:docname="fingerprint.svg"
   inkscape:output_extension="org.inkscape.output.svg.inkscape">
  <defs
     id="defs4">
    <inkscape:perspective
       sodipodi:type="inkscape:persp3d"
       inkscape:vp_x="0 : 526.18109 : 1"
       inkscape:vp_y="0 : 1000 : 0"
       inkscape:vp_z="744.09448 : 526.18109 : 1"
       inkscape:persp3d-origin="372.04724 : 350.78739 : 1"
       id="perspective10" />
    <inkscape:perspective
       id="perspective2824"
       inkscape:persp3d-origin="0.5 : 0.33333333 : 1"
       inkscape:vp_z="1 : 0.5 : 1"
       inkscape:vp_y="0 : 1000 : 0"
       inkscape:vp_x="0 : 0.5 : 1"
       sodipodi:type="inkscape:persp3d" />
  </defs>
  <sodipodi:namedview
     id="base"
     pagecolor="#ffffff"
     bordercolor="#666666"
     borderopacity="1.0"
     inkscape:pageopacity="0.0"
     inkscape:pageshadow="2"
     inkscape:zoom="5.6"
     inkscape:cx="20.128207"
     inkscape:cy="53.829955"
     inkscape:document-units="px"
     inkscape:current-layer="layer1"
     showgrid="false"
     inkscape:window-width="1580"
     inkscape:window-height="1174"
     inkscape:window-x="-1"
     inkscape:window-y="26"
     inkscape:window-maximized="1" />
  <metadata
     id="metadata7">
    <rdf:RDF>
      <cc:Work
         rdf:about="">
        <dc:format>image/svg+xml</dc:format>
        <dc:type
           rdf:resource="http://purl.org/dc/dcmitype/StillImage" />
        <dc:title />
      </cc:Work>
    </rdf:RDF>
  </metadata>
  <g
     inkscape:label="Capa 1"
     inkscape:groupmode="layer"
     id="layer1"
     transform="translate(-156.01726,-647.74714)">
    <path
       style="fill:#000000"
       d="m 201.27864,775.61313 c -2.29182,-1.76652 -3.73336,-7.35021 -0.40831,-2.70274 0.69049,0.64552 3.23534,3.14614 0.40831,2.70274 z m 4.96667,-0.57229 c -4.3019,-2.31561 -6.46128,-7.26807 -8.25847,-11.5564 -1.68575,-5.50767 -1.35515,-11.17548 -2.84415,-16.74608 -1.19825,-1.82575 -0.26911,-9.73085 1.52765,-7.5383 -1.37741,6.88726 1.4268,13.66106 1.9676,20.49291 1.49342,4.80419 3.22428,9.72171 6.90599,13.3489 0.9671,0.75327 3.10341,4.15678 0.70138,1.99897 z m 9.18807,-0.25754 c -0.79,-2.30894 1.45616,-0.11931 0,0 z m -7.91064,-2.42128 c -3.94513,-4.04649 -5.91588,-9.71133 -7.42816,-15.01686 -1.11511,-5.41752 -2.43485,-10.81757 -2.00808,-16.37576 0.20873,-4.6418 1.47217,-10.64862 4.91746,-13.50624 -1.35133,4.65555 -4.4216,10.22692 -3.75061,15.77341 0.2507,5.02738 0.99249,9.74564 2.57741,14.58952 1.51508,4.93368 3.46832,9.80855 6.6014,13.95784 4.32274,1.27398 0.38423,3.96243 -0.90942,0.57809 z m 6.18279,1.45249 c -4.18417,-2.39285 4.33726,-0.85309 0,0 z m 3.93084,-0.81756 c -5.34986,-2.8231 -6.92705,-9.2617 -9.39369,-14.12813 1.88702,-5.06176 5.31963,6.14107 5.97487,8.59066 0.67794,2.90524 5.20702,4.97405 5.95608,5.95496 -0.84628,0.11859 -1.81787,0.12122 -2.53726,-0.41749 z m 6.39957,-0.59905 c 0.13245,-1.13171 1.08357,0.68077 0,0 z M 210.282,771.23682 c -3.39537,-3.93477 -4.71799,-9.02942 -6.35383,-13.7446 -0.78829,-4.83216 2.78785,-1.39726 2.15473,1.40398 0.59414,4.45279 5.74481,8.81457 4.72866,12.72429 -0.17652,-0.12789 -0.35304,-0.25578 -0.52956,-0.38367 z m 11.23777,0.12501 c -2.58691,-0.67952 -8.45655,-5.97009 -5.61148,-6.7853 0.62666,2.761 6.30189,4.49677 5.61148,6.7853 z m 5.57328,0 c -4.86743,-1.4821 -7.79516,-6.11735 -11.6321,-9.09526 3.79695,-0.21638 7.39239,5.68428 11.39277,7.63959 0.60098,0.42655 2.08428,2.75782 0.23933,1.45567 z m -30.12,-1.63962 c -2.22317,-6.59228 5.14265,2.18359 0,0 z m 32.62744,-0.60867 c -2.46438,-0.61091 -9.11769,-5.19631 -6.09677,-5.91045 2.4944,1.70376 6.62167,4.88555 7.66432,6.28008 -0.53076,0.13304 -1.1918,0.0884 -1.56755,-0.36963 z m -35.60983,0.0141 c 0.30574,-1.21279 1.16775,0.91003 0,0 z m -1.38836,-1.41292 c -2.72392,-4.08828 -3.36184,-9.19451 -2.70949,-13.88488 -0.39443,-4.53368 1.9386,-8.63329 1.87543,-13.17124 1.61288,-4.7108 1.65086,-9.95109 4.30536,-14.33466 1.50669,-2.69665 3.77866,-5.83374 6.99085,-5.43296 -0.56081,-3.493 2.95004,-0.38225 4.38533,-3.67727 5.11316,-3.13474 11.04575,-4.3946 16.87171,-5.45818 8.30782,1.96196 14.41813,8.32183 19.2277,15.01095 3.89839,4.02577 5.95409,9.47527 10.042,13.32943 1.6733,2.29604 0.12098,5.90008 -1.46041,1.73159 -2.84818,-4.0665 -6.98699,-7.42627 -8.87106,-11.98985 -2.89625,-4.76649 -6.37597,-8.75717 -10.41572,-12.52163 -4.66637,-3.21359 -10.82327,-5.1364 -16.27701,-2.57015 -6.69973,1.70672 -12.61221,5.93993 -16.00674,12.00272 -3.2254,1.43292 4.16629,-7.46818 -1.03181,-3.04863 -3.64402,3.71343 -3.99118,9.30434 -5.62534,14.00623 -0.57867,5.52473 -2.44897,10.34054 -2.63591,15.76299 -0.22876,5.03451 1.09502,10.13375 2.74669,14.70454 l -0.43622,0.0484 -0.97526,-0.50736 -10e-5,0 z m 41.70705,0.59388 c -4.77336,-2.40828 -8.8466,-6.00894 -12.42824,-9.83906 -2.33209,-2.72435 1.75518,-6.62226 2.34439,-1.98771 2.35577,5.51741 8.70286,7.14296 11.72681,11.81557 l -0.44986,0.16509 -1.1931,-0.15389 0,0 z m 4.88614,-1.36586 c -1.05211,-3.49332 3.66584,0.43289 0,0 z m -42.72682,-1.6445 c -0.45181,-1.30744 1.29306,0.43713 0,0 z m 38.1868,-1.40371 c -4.32329,-2.55714 -7.9077,-6.13355 -9.92554,-10.74667 -2.9352,-5.468 -4.74548,-11.96362 -4.60087,-18.3207 2.19989,-1.63031 1.50582,5.48602 2.73582,6.91258 0.46601,5.25114 3.0693,8.37384 4.79708,13.29946 2.81968,3.1547 7.26531,7.14304 10.82196,9.94573 -1.13163,1.43603 -3.01757,0.0197 -3.82845,-1.0904 z m -40.21366,0.13763 c -1.91975,-4.85709 -0.83902,-10.22876 -1.18011,-15.30761 2.26325,-0.82261 0.35069,6.75399 1.85155,9.1681 -0.50364,1.41725 3.28239,8.80233 -0.67144,6.13951 z m 47.06071,0.2034 c -4.23904,-2.7449 -8.17368,-5.6133 -10.88798,-9.44363 -2.58496,-4.66919 -5.4336,-9.54712 -6.39205,-14.85853 4.0608,-0.85581 2.25061,8.13088 6.27096,9.26762 1.18485,5.6179 6.61848,10.88684 11.96635,13.47964 1.97471,1.13926 1.17678,2.69732 -0.95728,1.5549 z m -20.63979,-1.45148 c -3.64831,-1.64351 -7.56575,-9.28562 -4.42572,-11.54759 2.35034,3.22836 1.44779,8.1147 5.58264,10.39915 -0.0158,0.33081 -0.7793,2.13641 -1.15692,1.14844 z m -33.80154,-0.55724 c -1.50883,-4.42923 0.71581,-9.15508 0.22007,-13.62339 -0.19313,-5.5353 1.91983,-10.92669 3.59837,-16.33342 1.54527,-3.7644 -0.73664,-3.89483 -1.64634,-0.42317 -1.38,4.30535 -2.94421,8.47573 -3.60716,13.05866 -2.46705,3.09572 3.11474,7.59762 -1.60097,10.04716 -5.01434,-4.96058 1.99242,-11.68941 2.30388,-17.48585 1.01562,-4.70049 2.52078,-9.614 6.82787,-12.30701 1.79883,-2.02758 5.99535,-7.4877 7.26932,-6.26679 -3.99751,4.30083 -8.54428,8.43683 -8.77302,14.74121 -1.31946,5.69565 -3.20887,11.15307 -3.22584,17.29457 -0.29092,3.78007 -0.11086,7.6848 -1.36618,11.29803 z m -2.41751,-9.93573 c 1.31029,-3.92901 -4.16054,1.77834 0,0 z m 29.21514,8.23369 c -2.99828,-3.91787 -3.30911,-8.7926 -3.10875,-13.47131 -0.57846,-2.60182 0.31137,-11.4423 1.01463,-4.38999 0.37556,5.11868 0.54902,10.95738 3.21036,15.22797 0.85473,0.84411 0.58705,5.64725 -1.11624,2.63333 z m 29.98563,0.80806 c 1.45824,-4.51608 -5.71939,-7.31793 -7.06199,-11.64092 -2.58003,-4.17415 -5.19636,-8.1162 -6.42626,-12.8802 -2.25759,-3.72104 -5.92874,-11.03749 -11.14118,-7.5796 -5.28481,3.30982 -3.88932,10.29825 -3.6579,15.54835 1.21961,2.08259 0.89075,7.5289 -1.51847,3.63969 -0.10136,-4.96043 -0.86373,-10.04435 0.21632,-14.95278 1.27989,-3.98264 6.1184,-8.3666 10.49115,-6.4356 5.10019,4.06243 7.41555,10.35777 10.15373,16.07544 2.70643,4.92309 5.54941,9.69869 9.4503,13.81223 1.99604,1.03433 2.50571,5.05144 -0.5057,4.41339 z m -2.44412,-1.0081 c -7.36558,-4.83064 -10.6274,-13.5498 -14.02541,-21.27727 -0.58246,-4.15137 -6.24738,-11.03906 -8.71751,-4.38506 -1.36164,5.47448 1.68019,10.55518 1.62682,15.7269 -2.73572,0.96143 -1.90239,-6.69539 -3.15707,-8.9547 -0.94108,-4.5263 1.00215,-13.73841 7.20687,-10.32545 4.57804,3.80303 4.83136,10.17412 8.08954,14.8781 2.59515,5.5113 6.36765,10.52455 10.94983,14.48598 -0.36508,0.61826 -1.47195,-0.17652 -1.97307,-0.1485 z m 5.82442,-3.64144 c -3.1179,-4.17628 -7.41821,-7.44799 -9.39673,-12.42399 -3.46656,-5.24347 -5.07355,-11.67478 -9.40618,-16.30957 -3.53529,-2.36874 -8.66511,-7.5939 -12.78831,-3.4775 -3.56026,1.49321 -6.9206,8.39211 -8.69932,8.44353 1.16432,-5.19821 5.927,-9.23404 10.64644,-11.24955 4.91305,-1.12748 8.49493,3.22709 12.40334,5.35076 6.83613,7.59605 8.51186,18.71134 16.23466,25.69984 0.50991,0.96484 5.31699,6.96703 1.0061,3.96648 z m -62.74694,0.45637 c 0.61313,-0.89541 0.52182,1.16997 0,0 z m -0.71536,-0.49394 c -0.1329,-1.76682 1.23427,0.96478 0,0 z m 23.73107,-0.11892 c -2.32311,-4.86928 -3.4199,-10.1464 -3.18805,-15.61479 -1.44694,-2.77997 3.97142,-9.68143 2.03447,-3.55962 -1.01181,4.28074 -0.93015,9.0966 -0.0917,13.32881 4.54171,1.62399 -1.70271,-9.20554 2.50326,-7.72867 0.009,3.69238 0.56036,8.65915 0.19338,11.68862 1.28254,1.10414 -0.42969,1.91097 -1.45137,1.88565 z m -5.09337,-2.70263 c -1.00922,-5.66416 -2.16867,-11.51502 -0.90917,-17.33749 1.81384,-6.31771 5.92204,-12.13566 11.33687,-15.8232 4.32855,-2.18938 9.72027,-4.43479 14.20199,-1.24594 2.68122,1.35722 7.73892,6.11768 5.87502,8.22811 -2.38013,-2.88839 -6.27245,-4.96167 -9.08839,-6.27995 1.95203,-0.0931 5.62779,0.9449 1.70996,-1.12686 -3.74047,-1.72302 -8.14113,-0.55298 -11.54071,1.56522 -3.83979,1.76787 -6.41425,5.64541 -8.53824,9.21669 -3.54117,4.22733 -3.02046,10.82661 -2.32707,16.17937 -0.55757,1.46368 2.81949,9.01597 -0.72026,6.62405 z m 17.38597,-0.0367 c -1.54706,-4.51798 5.53835,0.35827 0.5105,0.41861 -0.17017,-0.13953 -0.34033,-0.27907 -0.5105,-0.41861 z m 28.80191,-1.1614 c -3.31953,-4.43736 -6.56467,-8.96027 -9.49494,-13.57336 -1.18368,-2.74965 -5.80809,-9.08987 -3.91113,-10.3543 3.32085,3.65625 5.09017,8.44876 7.73313,12.82218 2.11242,4.00722 5.53323,7.19394 7.88312,10.99634 -0.54026,0.55255 -1.5366,0.0996 -2.21018,0.10914 z m 3.23823,-1.49552 c -0.25687,-1.77223 1.28627,0.47038 0,0 z m -71.90376,-1.56094 c -1.2552,-3.65253 4.53456,-10.48735 2.02852,-11.65648 -0.78135,2.59777 -4.08936,6.13588 -2.17789,1.11049 3.58426,-2.88579 4.80198,-7.78725 7.63751,-10.84256 -1.86303,6.14987 -4.14852,12.23096 -5.63656,18.51793 -0.39086,1.063 -0.79229,2.28122 -1.85158,2.87062 z m 71.12759,-0.81756 c -2.07415,-4.39572 -6.23499,-7.50559 -7.98543,-11.87592 -4.21529,-3.55117 -4.76544,-9.44993 -8.83712,-13.14017 -3.53506,-3.77843 -7.70165,-8.13194 -13.39969,-7.48977 -5.36892,0.94482 -11.36361,3.55557 -14.27885,8.31035 -1.88112,3.18144 -4.1386,1.07275 -1.23146,-1.1168 4.08207,-5.39501 11.0092,-7.85833 17.54373,-8.47412 6.18493,0.92054 11.18733,4.97827 14.76085,9.91222 3.22772,4.06597 5.07189,9.02245 8.5375,12.94211 0.43876,3.3342 8.23405,8.2348 4.89047,10.9321 z m -71.9776,-4.76066 c -0.33765,-1.35394 1.12255,0.32692 0,0 z m 28.84582,-3.68206 c -0.45123,-1.80045 1.19575,-9.68148 1.41769,-3.91427 -0.18834,0.77695 -0.0988,4.84431 -1.41769,3.91427 z m 47.22722,-1.86539 c -5.28281,-6.92194 -10.76088,-13.70313 -16.36893,-20.35075 -4.11366,-3.57289 -8.73307,-7.47809 -14.49088,-7.54875 -4.74551,-1.72744 -9.81485,-1.40238 -14.40154,0.48966 -4.94747,1.88399 -9.53053,4.45996 -13.40318,8.11723 -2.97318,1.71992 -6.28909,8.65975 -8.31237,7.24874 4.68469,-6.22932 10.63935,-11.69152 17.6679,-15.12883 8.23358,-3.25634 17.68664,-3.92636 25.95748,-0.40878 4.18166,1.80176 7.39119,5.41202 10.59558,8.48872 3.98222,3.93107 6.78981,8.71209 10.40957,12.84908 0.055,1.95435 7.39885,7.16362 2.34637,6.24368 z m -31.37381,-0.4811 c -1.90601,-2.60392 -0.42462,-5.32683 0.79095,-1.4027 0.46228,0.50381 0.24874,2.77012 -0.79095,1.4027 z m -45.53576,-1.1558 c 5.2976,-6.34067 7.49619,-15.23244 14.78749,-19.8557 0.78967,2.6256 -6.8545,6.82256 -7.95256,11.08711 -1.78851,3.15415 -2.60286,8.03883 -6.83493,8.76859 z m 17.41515,0.081 c -0.77218,-3.6885 3.9388,0.68842 0,0 z m 15.87755,-0.93345 c -1.75286,-2.27153 3.03757,-10.60077 2.99558,-6.40593 -1.26159,2.00718 -1.46553,4.56045 -2.99558,6.40593 z m -15.05999,-1.51923 c 0.12606,-2.59444 3.84638,-9.61031 2.11379,-3.22423 -0.37822,1.07132 -0.43854,3.43372 -2.11379,3.22423 z m 59.68595,-1.25455 c -5.74553,-8.00444 -11.95882,-16.0279 -20.03922,-21.7978 -6.75881,-4.20385 -15.22937,-5.6474 -22.90442,-3.49225 -2.80823,0.61975 -5.94347,-0.25702 -1.59004,-1.00302 4.71503,-0.37362 9.31862,-1.94121 14.0625,-1.09592 7.84236,1.40188 15.32627,5.69313 20.2019,12.05406 4.14781,4.62152 8.4971,9.15844 11.86738,14.38191 1.05721,1.52557 -0.83044,1.50726 -1.5981,0.95302 z m -77.55301,-0.26457 c 0.0261,-5.16989 4.52723,-9.08138 7.12548,-13.21481 4.80066,-6.18648 10.98212,-11.37927 18.06634,-14.72368 3.39317,0.30185 -4.45566,4.03036 -6.34012,5.23152 -4.07454,2.56965 -6.652,6.82524 -10.51159,9.64947 -2.2211,3.99457 -5.42687,7.44515 -6.9258,11.79502 -0.13645,0.57946 -0.67075,1.44568 -1.41431,1.26248 z m 30.86284,-0.48268 c -1.08941,-3.00592 2.37201,1.69226 0,0 z m 48.73928,-3.50733 c -5.21479,-7.10474 -11.32072,-13.70451 -18.30091,-19.09606 -4.53609,-2.19242 -8.92305,-5.37116 -14.17341,-5.51059 -3.34299,-2.17803 -7.85701,1.92548 -10.03502,-0.25954 4.16732,-3.22239 9.91487,-1.20814 14.83099,-0.17841 5.96322,2.11608 11.989,4.7732 16.28604,9.62855 5.10252,3.63528 7.81634,9.63322 12.25279,13.92909 0.64159,0.69287 0.34656,2.06994 -0.86048,1.48696 z m -80.73361,-1.63481 c -0.8211,-2.62899 6.42506,-8.92027 3.3324,-3.94184 -1.34964,1.05034 -1.12111,4.15876 -3.3324,3.94184 z m 37.90868,-0.5377 c 1.32126,-2.61299 8.9108,-2.51987 3.11824,-0.35544 -0.74338,0.25481 -3.06102,2.24156 -3.11824,0.35544 z m 43.65013,-1.77105 c -1.79164,-3.61169 -6.54956,-8.22539 -7.46509,-10.45487 3.90982,1.1596 8.04036,5.08833 10.30861,7.67923 -1.69833,-1.41791 -6.40258,-2.84412 -2.84802,0.38877 1.03686,1.08408 3.44546,4.97629 0.005,2.38687 z m -81.97775,-2.86789 c -2.30014,-2.89072 6.66681,-6.87711 2.48355,-2.44495 -0.56358,0.79052 -0.94155,4.05 -2.48355,2.44495 z m 5.43383,-1.79024 c -1.26892,-2.62166 4.86515,-4.73694 1.60753,-0.99487 -0.27148,0.52412 -0.89132,1.49044 -1.60753,0.99487 z m 78.33233,-2.30844 c -5.97948,-3.57294 -9.19531,-10.18376 -15.22795,-13.69134 -3.5687,-3.35093 -7.67195,-5.54132 -12.35434,-6.94419 -5.37551,-2.04604 -11.09982,-2.55256 -16.8195,-2.23253 -4.66475,0.0299 -9.51512,0.82332 -13.9083,1.76371 -7.08371,2.47988 -12.37967,7.98851 -18.36435,12.27397 -4.3538,0.91219 2.75103,-4.406 4.35788,-5.14434 3.88801,-3.97284 9.14826,-6.25514 14.02941,-8.67167 4.86561,-0.32939 9.62368,-1.2519 14.46147,-1.84844 4.74093,-0.72593 9.13705,0.91275 13.75558,1.5007 4.19702,1.22645 8.49552,2.36996 11.94191,5.32663 4.77309,2.42531 8.36265,6.44688 12.45841,9.78347 -0.26788,3.23021 9.86093,6.94895 5.66978,7.88403 l 0,0 z m -59.65267,-0.14122 c 2.54821,-3.42484 7.24249,-3.91762 10.77033,-5.91927 2.25018,-2.02122 11.75825,-1.44218 4.91607,0.003 -5.47244,0.60189 -9.92255,4.09815 -15.02459,5.79151 l -0.66181,0.12495 0,0 z m -25.26769,-0.91887 c 1.342,-3.51577 2.34629,1.17359 0,0 z m 5.15731,-0.28949 c 1.84467,-6.14617 8.31336,-8.94133 12.96694,-12.67044 4.35556,-4.36361 10.46987,-6.49905 16.57382,-6.53962 6.22334,-1.77762 12.85856,-1.07491 19.01144,0.58842 2.08827,0.81918 9.84679,2.14338 8.16821,3.95991 -4.36891,-1.10591 -8.47298,-3.27408 -12.99282,-3.66298 -5.3782,-1.9848 -11.00999,-0.67837 -16.34903,0.61469 -8.4173,0.80928 -14.77386,6.81593 -21.21737,11.62759 -2.08574,1.91911 -3.18051,5.39065 -6.16119,6.08243 z m 4.24108,-0.83869 c 2.71573,-4.91309 8.01495,-7.4599 12.109,-11.03876 6.28217,-3.96836 13.79056,-5.61278 21.14018,-5.84141 4.69079,-0.15545 9.17507,1.35574 13.55555,2.56057 2.85659,0.32967 7.19239,4.28113 8.71729,3.32 -3.99488,-5.69192 5.62761,2.6269 7.16783,4.17471 2.66992,1.08339 5.61508,6.21016 0.96115,3.94123 -2.99999,-4.32753 -7.45207,-6.6291 -12.33745,-8.21878 -7.66317,-4.23704 -16.75273,-4.57101 -25.28481,-3.84667 -7.30323,0.94856 -13.78252,4.93809 -18.99671,9.98361 -3.15747,0.12731 -4.05506,5.3591 -7.03203,4.9655 z m 8.72063,0.4169 c 1.97809,-4.58552 8.40148,-6.04328 11.32095,-8.87572 0.21393,2.68499 4.03875,0.73911 0.31217,2.27576 -4.54511,1.06207 -7.55013,5.44025 -11.63312,6.59996 z m -16.69182,-1.208 c 1.77553,-5.08345 4.1166,2.91398 0,0 z m 83.90194,-2.13037 c -4.70879,-4.02519 -10.82026,-9.20239 -14.24525,-13.02584 5.43251,-0.21433 8.2943,6.09163 12.12578,9.28619 1.63024,0.38321 6.7734,7.01822 2.11947,3.73965 z m -84.58324,0.0681 c -1.7225,-2.94664 5.42307,-3.43883 1.05897,-0.70944 l -0.4881,0.33993 -0.57087,0.36951 z m 4.09717,-0.60378 c -0.91922,-3.34555 3.20685,0.35673 0,0 z m -1.78076,-2.94538 c -3.21809,-2.86127 5.65208,-5.14517 6.63436,-8.28483 2.24475,-2.63189 6.29228,-1.64735 2.08522,1.07722 -3.45578,1.37195 -7.13066,6.47584 -8.71958,7.20761 z m 83.81783,-0.50456 c -3.89305,-3.06843 -6.83364,-7.18069 -10.93961,-10.01197 -2.84365,-4.2407 -7.65463,-5.40117 -11.8282,-7.73069 -2.66606,-2.95923 -9.42546,-2.17692 -10.36329,-5.3605 4.90585,0.65845 9.42105,2.85029 13.74532,5.16181 6.10774,2.96709 11.01886,7.82535 16.08832,12.23093 0.97539,0.43957 7.41138,9.28585 3.29746,5.71042 z m -56.83839,-2.18601 c 1.51798,-2.42072 9.78909,-2.39633 7.93441,-1.6446 -2.70124,0.28586 -5.13066,2.23935 -7.93441,1.6446 z m -29.12553,-1.5952 c 0.55705,-1.73119 1.86205,0.88036 0,0 z m 1.32853,-1.18073 c -0.12104,-3.02917 9.28152,-6.24758 4.13356,-2.33028 -1.28524,0.3961 -2.91002,3.15148 -4.13356,2.33028 z m 27.797,0.3737 c 2.31828,-1.9057 10.47572,-3.80924 9.50576,-1.91667 -3.06554,1.06636 -6.31583,1.41704 -9.50576,1.91667 z m 56.56483,-1.20848 c -4.15486,-5.42653 -10.09274,-9.19726 -15.91698,-12.6073 -7.15793,-3.76753 -15.20937,-7.96715 -23.52504,-5.593 -4.9335,1.21485 -10.33102,0.20991 -14.97672,2.6383 -2.03404,0.32806 -9.01457,4.02916 -8.00238,1.47263 5.10181,-2.00679 10.08453,-4.7431 15.71655,-4.71931 5.06553,-0.40875 10.0904,-1.85665 15.17231,-1.38332 5.40584,1.07134 10.63116,2.88539 15.39903,5.68452 5.41108,2.17531 9.5983,6.44319 14.32433,9.70538 0.97842,0.4662 4.9621,5.93735 1.8089,4.8021 z m -85.03887,-1.9999 c 0.99192,-5.20042 7.15469,-6.73788 11.02875,-9.35147 6.28059,-3.86358 13.037,-6.91946 19.9258,-9.51337 4.64256,-1.20383 9.62123,-1.90968 14.35623,-1.09404 -1.93035,1.85196 -8.28241,0.72626 -11.89227,2.02024 -8.87065,2.48718 -17.03901,7.03127 -24.95071,11.62288 -2.60754,2.30146 -6.40065,4.23996 -8.4678,6.31576 z m 65.31527,-2.66904 c -2.96019,-4.47841 6.82976,3.72329 0.51068,0.51206 -0.17023,-0.17069 -0.34045,-0.34137 -0.51068,-0.51206 z m -58.30215,0.36729 c 3.06529,-3.80186 7.79166,-5.62145 11.9698,-7.78299 4.97914,0.15921 -3.61237,3.12457 -5.07421,4.35115 -2.18264,1.10889 -4.43876,3.63498 -6.89559,3.43184 z m 5.62887,-0.006 c 3.30925,-3.14374 7.88696,-4.39465 11.57381,-7.01372 5.13132,-2.28529 10.38719,-4.41227 16.10055,-4.51505 4.66436,-1.58962 9.0684,-0.0487 13.50437,1.58013 2.0886,0.47596 9.63006,3.54242 3.71612,2.31124 -8.42481,-3.19853 -17.79189,-3.04907 -26.44172,-0.87586 -5.53882,2.16512 -10.59751,5.28796 -15.80788,8.06808 -0.84323,0.30989 -1.74372,0.49226 -2.64525,0.44518 z m 58.45165,-0.21276 c -3.53317,-2.40169 -7.6725,-3.12357 -11.76596,-3.73677 -6.54558,-1.86204 -13.39593,-3.43378 -20.23167,-2.96059 -3.86205,-0.17461 -8.163,2.69755 -11.61407,1.62236 4.50293,-1.86783 9.47738,-2.74084 14.29586,-3.11189 7.24761,-0.51141 14.11862,2.10139 21.1044,3.5609 1.56055,0.39024 10.49068,3.4633 8.21144,4.62599 z m -71.09789,-2.18498 c 1.59113,-5.54869 8.52628,-6.54715 12.79922,-9.37114 7.30521,-2.97737 13.89232,-7.91025 21.93111,-8.85416 2.13607,-0.88422 10.96007,-0.21627 4.32795,0.90293 -4.73112,0.44602 -9.3859,1.33098 -13.69609,3.50125 -5.78443,1.63297 -10.38733,5.79171 -15.99304,7.87539 -3.28144,1.74528 -6.21449,3.94849 -9.36915,5.94573 z m 84.73352,-0.69661 c -5.64557,-3.63633 -11.37758,-7.08666 -17.35908,-10.13359 -4.16451,-2.29925 -8.94786,-3.01658 -13.29292,-4.82649 -3.62501,0.82341 -9.00798,-1.02372 -10.80469,-2.40694 4.79761,-0.98979 10.1444,1.14034 14.97976,2.16559 4.26491,1.64865 8.76449,3.05951 12.64614,5.38883 1.15846,1.68634 7.66697,3.99283 3.92483,0.34039 -7.44621,-4.36469 -15.38551,-8.23205 -24.03495,-9.53948 -9.01075,-1.28523 -18.56485,-1.13058 -26.86481,3.0056 -2.25797,0.50851 -7.87804,5.24935 -8.24523,1.82215 3.74199,-1.86394 8.56007,-3.54398 13.11955,-4.88108 8.37447,-2.81716 17.68266,-3.31066 26.11079,-0.45534 8.09659,1.72821 15.58864,5.43435 22.22424,10.33488 1.60625,4.0681 9.44803,6.03112 8.7726,9.97732 l -0.42784,-0.20544 -0.74839,-0.5864 0,0 z m 0.18574,-5.41226 c -4.24633,-3.29341 -8.29011,-6.83698 -12.97075,-9.51532 -6.05956,-4.34221 -13.55651,-5.44388 -20.56593,-7.44013 -5.42765,-0.92453 -11.17223,-1.7094 -16.5899,-0.261 -5.03997,0.86266 -9.88039,3.0045 -14.96853,3.91747 -3.88747,1.65266 -8.54847,5.6052 -12.15262,5.53636 4.79888,-3.70782 10.14767,-6.90498 16.19134,-8.40376 5.02658,-1.6998 10.30554,-1.68135 15.33139,-3.42777 4.73951,0.50469 9.72356,0.49752 14.38791,1.69247 9.34546,1.95242 18.50714,5.76411 26.16173,11.61519 2.27872,0.2547 8.99194,8.4337 5.23391,6.34438 l -0.0585,-0.0579 c 0,0 0,0 0,0 z m -84.93645,0.54953 c 2.46747,-4.15973 8.32596,-4.23953 11.8502,-7.20543 3.48817,-2.55768 3.97029,1.13103 0.26906,1.6632 -3.86731,2.40659 -8.20036,3.21827 -12.11926,5.54223 z m 2.46986,-4.66015 c -0.12712,-3.27928 3.65971,1.57023 0,0 z m 3.06303,-1.65268 c 0.84832,-2.86466 2.63598,0.64286 0,0 z m -3.88059,-0.79999 c 0.50402,-2.79258 10.04075,-6.0954 4.66486,-1.99012 -1.2787,1.10651 -2.88673,2.18094 -4.66486,1.99012 z m 81.97361,-0.27252 c -4.56409,-1.5625 -7.57524,-5.81135 -12.18986,-7.37427 -8.07393,-4.24568 -17.18907,-5.74249 -26.17179,-6.60635 -5.8609,-1.63299 -11.30343,0.86079 -17.10814,0.9889 -5.05972,1.3134 -9.81569,3.62627 -14.80916,5.14968 -0.25496,-3.52204 7.33575,-2.93047 9.9933,-5.36961 4.08725,-1.88395 8.99434,-0.22063 13.10179,-2.36505 4.38419,-1.01833 8.76448,0.1398 13.10004,0.40253 4.31469,2.1829 9.02996,1.48614 13.58502,2.48152 6.70145,2.03652 12.97345,5.50242 18.20679,10.11071 6.23813,2.88293 -3.69296,-4.98082 -5.47608,-6.57027 -4.97296,-4.42734 -11.7133,-5.55589 -17.90323,-7.1406 -6.92953,0.46963 -13.8483,-3.28274 -20.6589,-0.73907 -2.2625,-1.31977 -9.39443,3.6014 -8.33939,0.29022 4.9042,-1.92013 10.33099,-2.43659 15.55957,-2.54418 5.1584,0.24297 9.92006,2.46851 15.15218,2.11979 7.31729,0.0608 13.90994,3.74981 19.17006,8.58259 1.76034,0.58264 11.12344,10.46871 4.7878,8.58346 z m -80.33849,-4.42845 c 2.1299,-4.7077 12.76137,-4.70165 4.12798,-1.28335 -1.35768,0.48622 -2.76234,0.82223 -4.12798,1.28335 z m 5.38579,-0.11027 c 2.87603,-3.52091 4.63725,1.7904 0,0 z m -6.33961,-2.37229 c 1.43113,-3.17379 2.46744,1.2077 0,0 z m 80.73611,-0.75095 c -0.71801,-3.83737 3.69896,1.10953 0,0 z m -78.24256,-0.7589 c 2.70099,-4.48889 9.29769,-4.97033 13.18494,-8.11788 0.47603,0.71176 -0.82056,3.4469 -1.82713,4.05448 -3.3258,-0.6131 -8.11746,3.19007 -11.35781,4.0634 z m 75.93337,-0.69913 c -1.52395,-4.89347 -7.5374,-5.65899 -11.0914,-8.61394 -4.36737,-1.28273 -8.50067,-3.08218 -12.58555,-5.06656 -4.56497,-1.71628 -9.52793,-1.41696 -14.28035,-2.27231 -4.68359,0.5967 -9.35993,0.89325 -13.99764,2.16226 -5.46145,1.36377 -10.79004,3.69937 -15.42583,6.72001 -3.33877,-2.7247 6.15614,-4.46776 8.5019,-6.12794 5.24612,-1.7202 10.49869,-3.56223 16.0893,-3.85357 5.67449,-0.8937 11.29829,0.31545 16.86587,1.10832 7.72631,2.60224 15.39258,5.62295 22.33505,9.93922 1.9549,0.3196 8.82878,6.51005 3.58865,6.00451 z m -61.79286,-4.2556 c 0.59748,-3.74096 7.41172,-0.48437 1.75839,-0.55442 -0.68181,-0.30175 -1.21676,1.40657 -1.75839,0.55442 z m -11.67761,-0.45388 c -1.32316,-4.65099 8.10541,-1.51335 1.70681,-0.64474 -0.50591,0.28953 -1.04473,1.14523 -1.70681,0.64474 z m 13.37049,-2.45358 c 2.47436,-3.16581 8.07062,-4.39905 11.7711,-4.89539 -0.29848,2.89761 -6.63531,2.20042 -9.00409,4.78419 -0.88685,0.2976 -1.85978,0.35786 -2.76701,0.1112 z m 57.11511,-1.49346 c -6.38441,-3.35633 -12.96561,-6.28624 -19.83591,-8.50941 -4.72716,-1.86993 -10.07873,-1.7868 -15.10946,-2.0574 -5.01427,0.87571 -10.22934,-0.0251 -15.07533,1.598 -2.81793,0.45082 -10.22547,5.32705 -10.59411,2.08888 4.7351,-0.88904 8.58655,-4.49498 13.57859,-4.50922 5.41792,-0.54846 10.85872,-0.65418 16.24611,-1.08691 4.63701,0.35526 8.99926,0.9805 13.17541,3.06701 5.22035,1.75563 10.13184,4.36355 15.4451,5.85009 0.47301,0.88597 6.88458,5.07401 2.1696,3.55896 z m -69.46838,-0.54982 c 0.25724,-3.65664 10.86694,-6.25362 4.89788,-2.04112 -1.54095,0.88341 -3.22479,1.46671 -4.89788,2.04112 z m 50.88245,-0.61068 c -6.58381,-1.48545 -13.28065,-2.4379 -20.04259,-1.91624 -2.40909,0.4604 -6.55583,-1.05643 -1.83847,-1.47219 5.55704,-0.26026 11.26454,-0.50838 16.7536,0.50652 0.90444,-0.13786 8.77793,3.09245 5.12746,2.88191 z m 13.39915,-5.58975 c -5.33197,-2.91374 -11.23779,-4.42153 -16.88359,-6.55745 -2.2997,-0.34155 -11.81574,-1.15871 -4.9952,-2.13003 5.99117,0.11941 11.30917,3.38735 17.04848,4.77611 1.34314,-0.0466 11.13072,5.48262 4.83031,3.91137 z m -58.22454,-1.2438 c 2.41313,-3.66456 7.42324,-4.05411 11.02967,-6.04874 4.85285,-0.70187 10.09282,-3.34935 14.61732,-2.36481 -5.35694,2.77092 -11.30813,2.62339 -16.71649,4.85322 -2.93066,1.30093 -5.81034,2.74744 -8.9305,3.56033 z m 24.45951,-4.87707 c 1.2056,-3.38763 4.00172,1.3804 0,0 z m 6.3404,-2.2413 c -0.33766,-1.35393 1.12254,0.32693 0,0 z m -2.56588,-0.60393 c 0.73199,-2.44897 0.80296,1.97635 0,0 z m -0.70663,-1.85243 c 0.13245,-1.13171 1.08357,0.68078 0,0 z"
       id="path2830" />
  </g>
</svg>
