<?xml version="1.0" encoding="UTF-8" standalone="no"?>
<!-- Generator: Adobe Illustrator 13.0.0, SVG Export Plug-In . SVG Version: 6.00 Build 14948)  -->

<svg
   xmlns:dc="http://purl.org/dc/elements/1.1/"
   xmlns:cc="http://creativecommons.org/ns#"
   xmlns:rdf="http://www.w3.org/1999/02/22-rdf-syntax-ns#"
   xmlns:svg="http://www.w3.org/2000/svg"
   xmlns="http://www.w3.org/2000/svg"
   xmlns:sodipodi="http://sodipodi.sourceforge.net/DTD/sodipodi-0.dtd"
   xmlns:inkscape="http://www.inkscape.org/namespaces/inkscape"
   version="1.0"
   id="Layer_1"
   x="0px"
   y="0px"
   width="128"
   height="128"
   viewBox="0 0 200 230"
   enable-background="new 0 0 200 230"
   xml:space="preserve"
   sodipodi:version="0.32"
   inkscape:version="0.47 r22583"
   sodipodi:docname="firewire.svg"
   inkscape:output_extension="org.inkscape.output.svg.inkscape"><metadata
   id="metadata5687"><rdf:RDF><cc:Work
       rdf:about=""><dc:format>image/svg+xml</dc:format><dc:type
         rdf:resource="http://purl.org/dc/dcmitype/StillImage" /></cc:Work></rdf:RDF></metadata><defs
   id="defs5685"><inkscape:perspective
     sodipodi:type="inkscape:persp3d"
     inkscape:vp_x="0 : 115 : 1"
     inkscape:vp_y="0 : 1000 : 0"
     inkscape:vp_z="200 : 115 : 1"
     inkscape:persp3d-origin="100 : 76.666667 : 1"
     id="perspective5689" /></defs><sodipodi:namedview
   inkscape:window-height="794"
   inkscape:window-width="1325"
   inkscape:pageshadow="2"
   inkscape:pageopacity="0.0"
   guidetolerance="10.0"
   gridtolerance="10.0"
   objecttolerance="10.0"
   borderopacity="1.0"
   bordercolor="#666666"
   pagecolor="#ffffff"
   id="base"
   showgrid="false"
   inkscape:zoom="2.026087"
   inkscape:cx="-110.98606"
   inkscape:cy="115"
   inkscape:window-x="37"
   inkscape:window-y="133"
   inkscape:current-layer="Layer_1"
   inkscape:window-maximized="0" />
<g
   id="g5634"
   style="opacity:1">
	<path
   id="path5636"
   style="fill:none;stroke:#000000;stroke-width:0.17499999999999999;stroke-dasharray:1.39999999999999991, 1.05000000000000004, 1.39999999999999991, 1.05000000000000004, 1.39999999999999991, 1.05000000000000004" />
</g>






<g
   id="g5691"
   style="fill:#000000;opacity:1"
   transform="matrix(2.8278806,0,0,2.8278806,-184.41364,-170.82379)"><path
     id="path5640"
     d="m 84.578,98.68 c 0,-8.615 6.985,-15.601 15.601,-15.601 8.615,0 15.6,6.985 15.6,15.601 0,8.616 -6.984,15.604 -15.6,15.604 -8.616,-0.001 -15.601,-6.989 -15.601,-15.604 m 15.601,8.738 c 4.827,0 8.734,-3.912 8.734,-8.738 0,-4.823 -3.907,-8.739 -8.734,-8.739 -4.825,0 -8.735,3.916 -8.735,8.739 -0.001,4.826 3.91,8.738 8.735,8.738 z"
     style="fill:#000000;fill-opacity:1" /><rect
     id="rect5642"
     height="6.862"
     width="20.591"
     y="121.147"
     x="89.879997"
     style="fill:#000000;fill-opacity:1" /><rect
     id="rect5644"
     height="6.868"
     width="20.591"
     y="134.87199"
     x="89.879997"
     style="fill:#000000;fill-opacity:1" /><polyline
     id="polyline5646"
     points="72.156,85.221 77.011,90.08 91.574,75.516 86.72,70.658 72.156,85.221 "
     style="fill:#000000;fill-opacity:1" /><polyline
     id="polyline5648"
     points="62.45,75.594 67.302,80.452 81.866,65.806 77.011,61.03 62.45,75.594 "
     style="fill:#000000;fill-opacity:1" /><polyline
     id="polyline5650"
     points="125.654,60.407 109.664,76.396 122.38,89.033 138.37,73.204 125.654,60.407 "
     style="fill:#000000;fill-opacity:1" /></g>
















</svg>