<?xml version="1.0" encoding="UTF-8" standalone="no"?>
<!-- Created with Inkscape (http://www.inkscape.org/) -->

<svg
   xmlns:dc="http://purl.org/dc/elements/1.1/"
   xmlns:cc="http://creativecommons.org/ns#"
   xmlns:rdf="http://www.w3.org/1999/02/22-rdf-syntax-ns#"
   xmlns:svg="http://www.w3.org/2000/svg"
   xmlns="http://www.w3.org/2000/svg"
   xmlns:sodipodi="http://sodipodi.sourceforge.net/DTD/sodipodi-0.dtd"
   xmlns:inkscape="http://www.inkscape.org/namespaces/inkscape"
   width="128"
   height="128"
   id="svg2783"
   sodipodi:version="0.32"
   inkscape:version="0.47 r22583"
   version="1.0"
   sodipodi:docname="firefox.svg"
   inkscape:output_extension="org.inkscape.output.svg.inkscape">
  <defs
     id="defs2785">
    <inkscape:perspective
       sodipodi:type="inkscape:persp3d"
       inkscape:vp_x="0 : 526.18109 : 1"
       inkscape:vp_y="0 : 1000 : 0"
       inkscape:vp_z="744.09448 : 526.18109 : 1"
       inkscape:persp3d-origin="372.04724 : 350.78739 : 1"
       id="perspective2791" />
  </defs>
  <sodipodi:namedview
     id="base"
     pagecolor="#ffffff"
     bordercolor="#666666"
     borderopacity="1.0"
     inkscape:pageopacity="0.0"
     inkscape:pageshadow="2"
     inkscape:zoom="0.98994949"
     inkscape:cx="-107.14752"
     inkscape:cy="61.280328"
     inkscape:document-units="px"
     inkscape:current-layer="layer1"
     showgrid="false"
     borderlayer="true"
     inkscape:window-width="944"
     inkscape:window-height="724"
     inkscape:window-x="0"
     inkscape:window-y="15"
     inkscape:window-maximized="0" />
  <metadata
     id="metadata2788">
    <rdf:RDF>
      <cc:Work
         rdf:about="">
        <dc:format>image/svg+xml</dc:format>
        <dc:type
           rdf:resource="http://purl.org/dc/dcmitype/StillImage" />
      </cc:Work>
    </rdf:RDF>
  </metadata>
  <g
     inkscape:label="Capa 1"
     inkscape:groupmode="layer"
     id="layer1">
    <path
       style="opacity:1;fill:#000000"
       d="M 81.858229,7.6693243 C 79.761409,7.7314943 78.726529,7.9831143 78.747789,8.007414 C 78.804489,8.074914 94.034395,10.676934 96.734265,14.397344 C 96.734265,14.397344 90.261045,14.396644 83.819169,16.256854 C 83.527579,16.340544 107.51605,19.278064 112.42171,43.304184 C 112.42171,43.304184 109.78956,37.811894 106.53892,36.880444 C 108.67451,43.400624 108.1351,55.748934 106.0994,61.899234 C 105.83481,62.687594 105.54717,58.504234 101.53516,56.692614 C 102.81759,65.923464 101.46819,80.554274 95.077615,84.585184 C 94.578135,84.898364 99.089915,70.118384 95.990465,75.828604 C 78.071399,103.37145 56.961519,88.435424 47.541929,81.981874 C 50.657009,82.671914 55.565569,82.387314 59.780849,81.305694 C 59.976139,81.256984 60.164049,81.223444 60.355609,81.170454 C 60.539859,81.119054 60.715819,81.056024 60.896549,81.001404 C 61.136189,80.928624 61.373749,80.878044 61.606539,80.798554 C 61.733229,80.756124 61.854089,80.707404 61.978449,80.663314 C 62.257249,80.562214 62.522329,80.469694 62.789869,80.359034 C 62.862459,80.329864 62.921179,80.287384 62.992719,80.257604 C 63.667129,79.976864 64.290009,79.678774 64.852219,79.344764 C 64.866079,79.336524 64.872259,79.319214 64.886029,79.310954 C 65.178319,79.139814 65.462049,78.954544 65.731259,78.770004 C 70.175249,75.724554 72.801639,73.512944 75.164019,74.036724 C 77.523709,74.565894 79.093399,72.184244 77.260189,70.081044 C 75.424279,67.972454 70.982459,65.089604 64.953649,66.666324 C 60.701359,67.781374 55.415789,72.485074 47.372889,67.714404 C 41.370069,64.147204 40.662249,61.160634 40.577239,59.059264 C 40.576759,59.047254 40.577689,59.037404 40.577239,59.025454 C 40.732999,58.234104 40.912839,57.464514 41.151999,56.794044 C 42.021359,54.358764 45.060419,54.035504 45.851469,53.446934 C 48.902319,53.919414 47.304419,52.124004 50.584759,53.446934 C 51.481109,53.808724 50.470219,49.130214 49.198579,46.144154 C 51.650059,41.019804 59.626399,39.492404 60.220369,39.044224 C 61.294909,38.228874 60.698419,37.838414 61.065599,36.609964 C 61.408479,35.467934 61.610799,32.375894 52.714729,33.229054 C 48.619029,33.623234 46.028449,28.298704 45.175289,27.008164 C 45.453369,25.363944 45.891779,23.851974 46.493849,22.477734 C 47.104019,21.224994 47.756799,20.064904 48.420969,19.198244 C 48.628859,18.925564 48.831029,18.709644 48.995729,18.488254 C 50.321359,16.938534 51.943349,15.603024 53.898059,14.498774 C 54.918599,13.921004 42.480769,14.461904 36.892039,21.767744 C 35.390919,21.962134 33.343349,21.531084 31.043059,21.531084 C 30.818379,21.531084 30.617939,21.561104 30.400679,21.564894 C 30.838259,21.292704 31.259919,21.020154 31.719239,20.821084 C 30.856059,20.847924 29.661519,21.107434 28.405939,21.666314 C 26.920959,21.781704 25.601429,21.950914 24.348839,22.241074 C 24.639519,22.107604 24.941779,22.005624 25.227879,21.902984 C 24.908669,21.892644 24.515829,21.937574 24.078369,22.004414 C 24.996029,21.593244 26.073109,21.192994 26.073109,21.192994 C 26.073109,21.192984 24.306269,21.695294 21.001739,20.956324 C 18.720529,18.642834 15.150309,14.705824 14.949899,9.495014 C 14.949889,9.495014 7.3556985,15.325404 8.4923385,31.268124 C 8.4857685,31.848054 8.4855585,32.369934 8.4585385,32.857154 C 5.8187685,35.787804 2.5714885,41.949704 0.17528855,55.475484 C 0.17528855,55.475484 1.2387085,52.098234 3.3533485,48.307944 C 1.7934685,53.071354 0.53855855,60.480964 1.2571785,71.636274 C 1.2571785,71.636274 1.5965785,67.303874 2.9476385,61.865424 C 2.6364585,69.773944 4.2305785,79.819554 10.689939,90.907494 C 23.792399,113.40278 45.791159,123.33916 68.605039,121.40335 C 72.598149,121.14146 76.629099,120.5496 80.641109,119.57765 C 133.79879,106.68849 128.00774,42.357524 128.00774,42.357524 L 126.52013,51.891714 C 126.52013,51.891714 124.41523,34.249014 121.82066,27.650544 C 117.83566,17.536834 116.05009,17.629524 116.03929,17.643024 C 118.70406,24.435894 118.23689,28.056254 118.23689,28.056254 C 118.23689,28.056244 113.4892,15.156734 100.99421,11.050244 C 91.748855,8.012894 85.352929,7.5657043 81.858229,7.6693243 z"
       id="path159" />
  </g>
</svg>
