<?xml version="1.0" encoding="UTF-8" standalone="no"?>
<!-- Created with Inkscape (http://www.inkscape.org/) -->

<svg
   xmlns:dc="http://purl.org/dc/elements/1.1/"
   xmlns:cc="http://creativecommons.org/ns#"
   xmlns:rdf="http://www.w3.org/1999/02/22-rdf-syntax-ns#"
   xmlns:svg="http://www.w3.org/2000/svg"
   xmlns="http://www.w3.org/2000/svg"
   xmlns:sodipodi="http://sodipodi.sourceforge.net/DTD/sodipodi-0.dtd"
   xmlns:inkscape="http://www.inkscape.org/namespaces/inkscape"
   width="128"
   height="128"
   id="svg2"
   version="1.1"
   inkscape:version="0.47 r22583"
   sodipodi:docname="flag.alt.svg"
   sodipodi:version="0.32"
   inkscape:output_extension="org.inkscape.output.svg.inkscape">
  <defs
     id="defs4">
    <inkscape:perspective
       sodipodi:type="inkscape:persp3d"
       inkscape:vp_x="0 : 526.18109 : 1"
       inkscape:vp_y="0 : 1000 : 0"
       inkscape:vp_z="744.09448 : 526.18109 : 1"
       inkscape:persp3d-origin="372.04724 : 350.78739 : 1"
       id="perspective10" />
  </defs>
  <sodipodi:namedview
     id="base"
     pagecolor="#ffffff"
     bordercolor="#666666"
     borderopacity="1.0"
     inkscape:pageopacity="0.0"
     inkscape:pageshadow="2"
     inkscape:zoom="0.5"
     inkscape:cx="-196.24996"
     inkscape:cy="59.907736"
     inkscape:document-units="px"
     inkscape:current-layer="layer1"
     showgrid="true"
     inkscape:window-width="1097"
     inkscape:window-height="1088"
     inkscape:window-x="376"
     inkscape:window-y="26"
     inkscape:window-maximized="0">
    <inkscape:grid
       type="xygrid"
       id="grid2816"
       empspacing="8"
       visible="true"
       enabled="true"
       snapvisiblegridlinesonly="true" />
  </sodipodi:namedview>
  <metadata
     id="metadata7">
    <rdf:RDF>
      <cc:Work
         rdf:about="">
        <dc:format>image/svg+xml</dc:format>
        <dc:type
           rdf:resource="http://purl.org/dc/dcmitype/StillImage" />
        <dc:title />
      </cc:Work>
    </rdf:RDF>
  </metadata>
  <g
     inkscape:label="Layer 1"
     inkscape:groupmode="layer"
     id="layer1"
     transform="translate(0,-924.36218)">
    <path
       style="opacity:1;fill:#000000;fill-opacity:1;stroke:none"
       d="M 64 0 C 57.992116 0 53.053684 6.9170324 52.15625 16 L 43.25 16 C 41.44559 16 40 17.784001 40 20 C 40 22.216 41.445591 24.000001 43.25 24 L 52 24 L 76 24 L 84.75 24 C 86.55441 24 88 22.216001 88 20 C 88 17.784 86.554409 16.000001 84.75 16 L 75.84375 16 C 74.946316 6.9170336 70.007884 0 64 0 z M 43.25 32 C 41.44559 32 40 33.783999 40 36 C 40 38.216 41.445591 39.999999 43.25 40 L 52 40 L 76 40 L 84.75 40 C 86.55441 40 88 38.215999 88 36 C 88 33.784 86.554409 31.999999 84.75 32 L 76 32 L 52 32 L 43.25 32 z M 43.25 48 C 41.44559 48 40 49.783999 40 52 C 40 54.216 41.445591 55.999999 43.25 56 L 52 56 L 52 112 L 39.25 112 C 37.44559 112 36 113.784 36 116 C 36 118.216 37.445591 120 39.25 120 L 52 120 L 52 128 L 76 128 L 76 120 L 88.75 120 C 90.55441 120 92 118.216 92 116 C 92 113.784 90.554409 112 88.75 112 L 76 112 L 76 56 L 84.75 56 C 86.55441 56 88 54.215999 88 52 C 88 49.784 86.554409 47.999999 84.75 48 L 76 48 L 52 48 L 43.25 48 z "
       transform="translate(0,924.36218)"
       id="rect3961" />
  </g>
</svg>
