<?xml version="1.0" encoding="UTF-8" standalone="no"?>
<!-- Created with Inkscape (http://www.inkscape.org/) -->
<svg
   xmlns:dc="http://purl.org/dc/elements/1.1/"
   xmlns:cc="http://creativecommons.org/ns#"
   xmlns:rdf="http://www.w3.org/1999/02/22-rdf-syntax-ns#"
   xmlns:svg="http://www.w3.org/2000/svg"
   xmlns="http://www.w3.org/2000/svg"
   xmlns:sodipodi="http://sodipodi.sourceforge.net/DTD/sodipodi-0.dtd"
   xmlns:inkscape="http://www.inkscape.org/namespaces/inkscape"
   width="128"
   height="128"
   id="svg2"
   sodipodi:version="0.32"
   inkscape:version="0.46+devel"
   version="1.0"
   sodipodi:docname="horus.svg"
   inkscape:output_extension="org.inkscape.output.svg.inkscape">
  <defs
     id="defs4">
    <inkscape:perspective
       sodipodi:type="inkscape:persp3d"
       inkscape:vp_x="0 : 526.18109 : 1"
       inkscape:vp_y="0 : 1000 : 0"
       inkscape:vp_z="744.09448 : 526.18109 : 1"
       inkscape:persp3d-origin="372.04724 : 350.78739 : 1"
       id="perspective10" />
  </defs>
  <sodipodi:namedview
     id="base"
     pagecolor="#ffffff"
     bordercolor="#666666"
     borderopacity="1.0"
     inkscape:pageopacity="0.0"
     inkscape:pageshadow="2"
     inkscape:zoom="2.8"
     inkscape:cx="123.41179"
     inkscape:cy="75.53288"
     inkscape:document-units="px"
     inkscape:current-layer="layer1"
     showgrid="false"
     showguides="true"
     inkscape:guide-bbox="true"
     inkscape:window-width="900"
     inkscape:window-height="715"
     inkscape:window-x="531"
     inkscape:window-y="128" />
  <metadata
     id="metadata7">
    <rdf:RDF>
      <cc:Work
         rdf:about="">
        <dc:format>image/svg+xml</dc:format>
        <dc:type
           rdf:resource="http://purl.org/dc/dcmitype/StillImage" />
      </cc:Work>
    </rdf:RDF>
  </metadata>
  <g
     inkscape:label="Ebene 1"
     inkscape:groupmode="layer"
     id="layer1">
    <g
       id="g2562">
      <path
         sodipodi:nodetypes="ccscc"
         id="path2425"
         d="m 45.309785,43.103198 c -15.178031,0 -26.538686,10.780716 -37.097501,21.050762 12.149272,2.731574 22.437853,10.102594 37.097501,10.444161 C 59.666416,74.932628 69.704713,65.548364 84.907253,58.093045 74.348439,47.822999 60.487818,43.103197 45.309785,43.103198 z"
         style="fill:none;stroke:#000000;stroke-width:7.99999905;stroke-miterlimit:4;stroke-dasharray:none" />
      <path
         sodipodi:nodetypes="ccccc"
         id="rect2430"
         d="m 80.947507,53.29482 c 15.838987,2.149037 31.677973,0.877906 47.516963,-1.010152 l 0,10.606601 c -15.34635,-1.4929337 -30.855357,-2.4929391 -47.516962,0 z"
         style="fill:#000000;fill-opacity:1;stroke:none" />
      <path
         transform="matrix(1.0690771,0,0,1.0799449,104.16603,5.978685)"
         d="m -43.941636,48.703026 a 11.111678,11.111678 0 1 1 -22.223356,0 11.111678,11.111678 0 1 1 22.223356,0 z"
         sodipodi:ry="11.111678"
         sodipodi:rx="11.111678"
         sodipodi:cy="48.703026"
         sodipodi:cx="-55.053314"
         id="path3203"
         style="fill:#000000;stroke:none"
         sodipodi:type="arc" />
      <path
         style="fill:#000000;fill-opacity:1;stroke:none"
         d="m 50.45669,74.499146 c -2.12741,11.285955 -0.869071,22.571909 0.999987,33.857869 l -10.499864,0 c 1.4779099,-10.93493 2.4678519,-21.985759 0,-33.857864 z"
         id="path3205"
         sodipodi:nodetypes="ccccc" />
      <path
         transform="matrix(-0.8615213,0.4478597,-0.4740455,-0.6273717,62.965782,131.72804)"
         d="m -66.251455,26.057714 c 0.20833252,1.6062601 -1.4528145,2.7120728 -2.855373,2.8771139 -3.8220449,0.4497456 -6.4242376,-3.494085 -6.7798579,-6.8437646 -0.94366921,-8.8886641 8.2109274,-14.877433 16.028298,-15.621248 20.227846,-1.9246599 33.722611,18.87547 35.232478,36.724385 0.72262283,8.5424952 -0.6755001,17.19077 -3.6583163,25.206754"
         sodipodi:t0="0.89276111"
         sodipodi:argument="-61.844513"
         sodipodi:radius="58.267941"
         sodipodi:revolution="9.9746904"
         sodipodi:expansion="32"
         sodipodi:cy="25.469517"
         sodipodi:cx="-67.680222"
         id="path3207"
         style="fill:none;stroke:#000000;stroke-width:9.22041035;stroke-linecap:round;stroke-linejoin:miter;stroke-miterlimit:4;stroke-opacity:1;stroke-dasharray:none"
         sodipodi:type="spiral" />
      <path
         sodipodi:nodetypes="ccscccccccc"
         id="path3223"
         d="m 46.9151,18.282054 c -10.748305,0.806815 -24.535718,4.450239 -44.072216,13.53125 -1.9572704,0.906092 -2.8319793,3.277584 -1.9537169,5.296875 0.87826231,2.019291 3.1769158,2.921717 5.1341861,2.015625 50.767996,-23.598126 56.14349,-9.73114 80.450726,-5.28125 l 0.212031,0.03125 0.181741,0.03125 c 14.208403,3.8218723 27.746505,2.6847894 40.649425,5.556631 L 128.0625,27.928151 C 114.58337,30.313419 101.10424,28.886778 87.625106,25.907054 74.193319,23.395504 64.729859,16.9448 46.9151,18.282054 z"
         style="fill:#000000;fill-opacity:1;stroke:none" />
    </g>
  </g>
</svg>
