<?xml version="1.0" encoding="UTF-8" standalone="no"?>
<!-- Created with Inkscape (http://www.inkscape.org/) -->
<svg
   xmlns:dc="http://purl.org/dc/elements/1.1/"
   xmlns:cc="http://creativecommons.org/ns#"
   xmlns:rdf="http://www.w3.org/1999/02/22-rdf-syntax-ns#"
   xmlns:svg="http://www.w3.org/2000/svg"
   xmlns="http://www.w3.org/2000/svg"
   xmlns:sodipodi="http://sodipodi.sourceforge.net/DTD/sodipodi-0.dtd"
   xmlns:inkscape="http://www.inkscape.org/namespaces/inkscape"
   width="128"
   height="128"
   id="svg2"
   version="1.1"
   inkscape:version="0.46+devel"
   sodipodi:docname="im-show-all.svg"
   sodipodi:version="0.32"
   inkscape:output_extension="org.inkscape.output.svg.inkscape">
  <defs
     id="defs4">
    <inkscape:path-effect
       effect="skeletal"
       id="path-effect3666"
       is_visible="true"
       pattern="M 0,0 0,10 10,5 z"
       copytype="single_stretched"
       prop_scale="1"
       scale_y_rel="false"
       spacing="0"
       normal_offset="0"
       tang_offset="0"
       prop_units="false"
       vertical_pattern="false"
       fuse_tolerance="0" />
    <inkscape:perspective
       sodipodi:type="inkscape:persp3d"
       inkscape:vp_x="0 : 526.18109 : 1"
       inkscape:vp_y="0 : 1000 : 0"
       inkscape:vp_z="744.09448 : 526.18109 : 1"
       inkscape:persp3d-origin="372.04724 : 350.78739 : 1"
       id="perspective10" />
    <inkscape:perspective
       id="perspective3622"
       inkscape:persp3d-origin="0.5 : 0.33333333 : 1"
       inkscape:vp_z="1 : 0.5 : 1"
       inkscape:vp_y="0 : 1000 : 0"
       inkscape:vp_x="0 : 0.5 : 1"
       sodipodi:type="inkscape:persp3d" />
  </defs>
  <sodipodi:namedview
     id="base"
     pagecolor="#ffffff"
     bordercolor="#666666"
     borderopacity="1.0"
     inkscape:pageopacity="0.0"
     inkscape:pageshadow="2"
     inkscape:zoom="2.7421875"
     inkscape:cx="5.652422"
     inkscape:cy="65.023001"
     inkscape:document-units="px"
     inkscape:current-layer="layer1"
     showgrid="true"
     inkscape:window-width="1418"
     inkscape:window-height="936"
     inkscape:window-x="121"
     inkscape:window-y="103"
     inkscape:window-maximized="0">
    <inkscape:grid
       type="xygrid"
       id="grid2816"
       empspacing="4"
       visible="true"
       enabled="true"
       snapvisiblegridlinesonly="true" />
  </sodipodi:namedview>
  <metadata
     id="metadata7">
    <rdf:RDF>
      <cc:Work
         rdf:about="">
        <dc:format>image/svg+xml</dc:format>
        <dc:type
           rdf:resource="http://purl.org/dc/dcmitype/StillImage" />
        <dc:title />
      </cc:Work>
    </rdf:RDF>
  </metadata>
  <g
     inkscape:label="Layer 1"
     inkscape:groupmode="layer"
     id="layer1"
     transform="translate(0,-924.36218)">
    <path
       style="opacity:1;fill:#000000;fill-opacity:1;fill-rule:nonzero;stroke:none"
       d="M 64 0 C 28.653776 7.1054274e-15 -1.1242185e-16 28.653776 0 64 C 0 99.346224 28.653776 128 64 128 C 99.346224 128 128 99.346224 128 64 C 128 28.653776 99.346224 -1.4323277e-14 64 0 z M 64 16 C 90.509668 16 112 37.490332 112 64 C 112 90.509668 90.509668 112 64 112 C 37.490332 112 16 90.509668 16 64 C 16 37.490332 37.490332 16 64 16 z "
       transform="translate(0,924.36218)"
       id="path3798" />
    <path
       sodipodi:type="star"
       style="fill:#000000;fill-rule:evenodd;stroke:none;stroke-width:1px;stroke-linecap:butt;stroke-linejoin:miter;stroke-opacity:1;fill-opacity:1;opacity:0"
       id="path2820"
       sodipodi:sides="8"
       sodipodi:cx="64"
       sodipodi:cy="64"
       sodipodi:r1="48"
       sodipodi:r2="26.879999"
       sodipodi:arg1="-1.5707963"
       sodipodi:arg2="-1.1780972"
       inkscape:flatsided="false"
       inkscape:rounded="0.52"
       inkscape:randomized="0"
       d="m 64.000001,16 c 13.180557,1e-6 -1.890716,18.122138 10.28653,23.166119 C 86.463778,44.2101 88.621066,20.738814 97.941126,30.058875 107.26119,39.378937 83.789901,41.536224 88.833882,53.713471 93.877862,65.890717 112,50.819445 112,64.000001 112,77.180558 93.877862,62.109285 88.833881,74.286531 83.7899,86.463778 107.26119,88.621066 97.941125,97.941126 88.621063,107.26119 86.463776,83.789901 74.286529,88.833882 62.109283,93.877862 77.180555,112 63.999999,112 50.819442,112 65.890715,93.877862 53.713469,88.833881 41.536222,83.7899 39.378934,107.26119 30.058874,97.941125 20.738813,88.621063 44.210099,86.463776 39.166118,74.286529 34.122138,62.109283 15.999999,77.180555 16,63.999999 c 1e-6,-13.180557 18.122138,1.890716 23.166119,-10.28653 C 44.2101,41.536222 20.738814,39.378934 30.058875,30.058874 39.378937,20.738813 41.536224,44.210099 53.713471,39.166118 65.890717,34.122138 50.819445,15.999999 64.000001,16 z"
       transform="translate(0,924.36218)" />
    <path
       style="opacity:1;fill:#000000;fill-opacity:1;stroke:none"
       d="M -40 -4 C -44.653764 -2.3488745 -52 6.7801365 -52 12 C -52 16.130082 -48.347094 19.747369 -44 21.90625 L -44 82.15625 C -48.776939 84.924135 -52 90.081838 -52 96 C -52 104.83656 -44.836556 112 -36 112 C -27.163444 112 -20 104.83656 -20 96 C -20 90.081838 -23.223061 84.924135 -28 82.15625 L -28 21.90625 C -23.652906 19.747369 -20 16.130082 -20 12 C -20 8.4475096 -25.546817 2.1971945 -28 0 L -28 12 L -40 12 L -40 -4 z M -36 84 L -35.125 84.875 C -35.086643 84.896334 -35.064491 84.912733 -35.03125 84.9375 L -34.8125 85.1875 L -32.46875 87.46875 L -29.15625 87.5 L -29.09375 87.5 C -28.996792 87.486998 -28.916246 87.477909 -28.8125 87.5 L -28.75 87.5 L -27.5 87.5 L -27.5 88.75 C -27.494026 88.771124 -27.504432 88.791687 -27.5 88.8125 C -27.477909 88.916246 -27.486998 88.996792 -27.5 89.09375 C -27.503021 89.116281 -27.495263 89.134034 -27.5 89.15625 L -27.46875 92.46875 L -25.1875 94.8125 C -25.179548 94.817386 -25.164039 94.807381 -25.15625 94.8125 L -24.9375 95.03125 C -24.912733 95.064491 -24.896334 95.086643 -24.875 95.125 L -24 96 L -24.875 96.875 C -24.896334 96.913357 -24.912733 96.935509 -24.9375 96.96875 L -25.15625 97.1875 C -25.164039 97.192619 -25.179548 97.182614 -25.1875 97.1875 L -27.46875 99.53125 L -27.5 102.84375 C -27.495263 102.86597 -27.503021 102.88372 -27.5 102.90625 C -27.486998 103.00321 -27.477909 103.08375 -27.5 103.1875 C -27.504432 103.20831 -27.494026 103.22888 -27.5 103.25 L -27.5 104.5 L -28.75 104.5 L -28.8125 104.5 C -28.916246 104.52209 -28.996792 104.513 -29.09375 104.5 C -29.116281 104.49698 -29.134034 104.50474 -29.15625 104.5 L -32.46875 104.53125 L -34.8125 106.8125 L -35.03125 107.0625 C -35.064491 107.08727 -35.086643 107.10367 -35.125 107.125 L -36 108 L -36.875 107.125 C -37.020869 107.04387 -37.109331 106.93973 -37.1875 106.8125 L -39.53125 104.53125 L -42.84375 104.5 L -42.90625 104.5 C -43.003208 104.513 -43.083754 104.52209 -43.1875 104.5 L -43.25 104.5 L -44.5 104.5 L -44.5 103.25 C -44.505974 103.22888 -44.495568 103.20831 -44.5 103.1875 C -44.522091 103.08375 -44.513002 103.00321 -44.5 102.90625 L -44.5 102.84375 L -44.53125 99.53125 L -46.8125 97.1875 L -46.84375 97.1875 C -46.927818 97.132255 -46.998966 97.054019 -47.0625 96.96875 L -47.125 96.875 L -48 96 L -47.125 95.125 C -47.048938 94.988248 -46.96059 94.889281 -46.84375 94.8125 L -46.8125 94.8125 L -44.53125 92.46875 L -44.5 89.15625 C -44.504737 89.134034 -44.496979 89.116281 -44.5 89.09375 C -44.513002 88.996792 -44.522091 88.916246 -44.5 88.8125 L -44.5 88.75 L -44.5 87.5 L -43.25 87.5 L -43.1875 87.5 C -43.083754 87.477909 -43.003208 87.486998 -42.90625 87.5 C -42.883719 87.503021 -42.865966 87.495263 -42.84375 87.5 L -39.53125 87.46875 L -37.1875 85.1875 C -37.129886 85.093728 -37.06192 85.006921 -36.96875 84.9375 L -36.875 84.875 L -36 84 z "
       transform="translate(0,924.36218)"
       id="rect3594" />
    <path
       style="fill:#000000;fill-rule:evenodd;stroke:none;stroke-width:1px;stroke-linecap:butt;stroke-linejoin:miter;stroke-opacity:1;fill-opacity:1;opacity:1"
       d="M 64 32 C 46.326888 32 32 46.326888 32 64 C 32 81.673112 46.326888 96 64 96 C 81.673112 96 96 81.673112 96 64 C 96 46.326888 81.673112 32 64 32 z M 64 40 C 68.432 40 72 43.568 72 48 L 72 56 L 80 56 C 84.432 56 88 59.568 88 64 C 88 68.432 84.432 72 80 72 L 72 72 L 72 80 C 72 84.432 68.432 88 64 88 C 59.568 88 56 84.432 56 80 L 56 72 L 48 72 C 43.568 72 40 68.432 40 64 C 40 59.568 43.568 56 48 56 L 56 56 L 56 48 C 56 43.568 59.568 40 64 40 z "
       transform="translate(0,924.36218)"
       id="path2819" />
  </g>
</svg>
