<?xml version="1.0" encoding="UTF-8" standalone="no"?>
<!-- Created with Inkscape (http://www.inkscape.org/) -->

<svg
   xmlns:dc="http://purl.org/dc/elements/1.1/"
   xmlns:cc="http://creativecommons.org/ns#"
   xmlns:rdf="http://www.w3.org/1999/02/22-rdf-syntax-ns#"
   xmlns:svg="http://www.w3.org/2000/svg"
   xmlns="http://www.w3.org/2000/svg"
   xmlns:sodipodi="http://sodipodi.sourceforge.net/DTD/sodipodi-0.dtd"
   xmlns:inkscape="http://www.inkscape.org/namespaces/inkscape"
   width="128"
   height="128"
   id="svg2"
   version="1.1"
   inkscape:version="0.47 r22583"
   sodipodi:docname="New document 1">
  <defs
     id="defs4">
    <inkscape:perspective
       sodipodi:type="inkscape:persp3d"
       inkscape:vp_x="0 : 526.18109 : 1"
       inkscape:vp_y="0 : 1000 : 0"
       inkscape:vp_z="744.09448 : 526.18109 : 1"
       inkscape:persp3d-origin="372.04724 : 350.78739 : 1"
       id="perspective10" />
  </defs>
  <sodipodi:namedview
     id="base"
     pagecolor="#ffffff"
     bordercolor="#666666"
     borderopacity="1.0"
     inkscape:pageopacity="0.0"
     inkscape:pageshadow="2"
     inkscape:zoom="5.0234375"
     inkscape:cx="31.253499"
     inkscape:cy="66.134472"
     inkscape:document-units="px"
     inkscape:current-layer="layer1"
     showgrid="true"
     inkscape:window-width="1555"
     inkscape:window-height="901"
     inkscape:window-x="180"
     inkscape:window-y="73"
     inkscape:window-maximized="0">
    <inkscape:grid
       type="xygrid"
       id="grid2816"
       empspacing="8"
       visible="true"
       enabled="true"
       snapvisiblegridlinesonly="true" />
  </sodipodi:namedview>
  <metadata
     id="metadata7">
    <rdf:RDF>
      <cc:Work
         rdf:about="">
        <dc:format>image/svg+xml</dc:format>
        <dc:type
           rdf:resource="http://purl.org/dc/dcmitype/StillImage" />
        <dc:title></dc:title>
      </cc:Work>
    </rdf:RDF>
  </metadata>
  <g
     inkscape:label="Layer 1"
     inkscape:groupmode="layer"
     id="layer1"
     transform="translate(0,-924.36218)">
    <path
       style="fill:#000000;fill-opacity:1;stroke:none"
       d="M 64 0 C 50.745166 7.1054274e-15 40 28.653776 40 64 C 40 99.346224 50.745166 128 64 128 C 77.254834 128 88 99.346224 88 64 C 88 28.653776 77.254834 -1.4090666e-14 64 0 z M 64 8 C 72.836556 8 80 33.072054 80 64 C 80 94.927946 72.836556 120 64 120 C 55.163444 120 48 94.927946 48 64 C 48 33.072054 55.163444 8 64 8 z "
       id="path5301"
       transform="translate(0,924.36218)" />
    <path
       id="path5306"
       d="M 64 0 C 50.745166 7.1054274e-15 40 28.653776 40 64 C 40 99.346224 50.745166 128 64 128 C 77.254834 128 88 99.346224 88 64 C 88 28.653776 77.254834 -1.4090666e-14 64 0 z M 64 8 C 72.836556 8 80 33.072054 80 64 C 80 94.927946 72.836556 120 64 120 C 55.163444 120 48 94.927946 48 64 C 48 33.072054 55.163444 8 64 8 z "
       style="fill:#000000;fill-opacity:1;stroke:none"
       transform="translate(0,924.36218)" />
    <path
       style="fill:#000000;fill-opacity:1;stroke:none"
       d="M 64 0 C 50.745166 7.1054274e-15 40 28.653776 40 64 C 40 99.346224 50.745166 128 64 128 C 77.254834 128 88 99.346224 88 64 C 88 28.653776 77.254834 -1.4090666e-14 64 0 z M 64 8 C 72.836556 8 80 33.072054 80 64 C 80 94.927946 72.836556 120 64 120 C 55.163444 120 48 94.927946 48 64 C 48 33.072054 55.163444 8 64 8 z "
       id="path5312"
       transform="translate(0,924.36218)" />
    <path
       id="path5318"
       d="m 18.745166,943.10735 c -9.372583,9.37258 3.290717,37.23184 28.284271,62.22535 24.993555,24.9936 52.852814,37.6569 62.225393,28.2843 9.37259,-9.3726 -3.29071,-37.23183 -28.284267,-62.22538 C 55.977008,946.39806 28.117749,933.73476 18.745166,943.10735 z m 5.656854,5.65685 c 6.248389,-6.24839 29.042328,6.41491 50.911688,28.28427 21.869361,21.86936 34.532662,44.66333 28.284272,50.91173 -6.248389,6.2483 -29.042328,-6.415 -50.911688,-28.28431 C 30.816931,977.80653 18.153632,955.01259 24.40202,948.7642 z"
       style="fill:#000000;fill-opacity:1;stroke:none" />
    <path
       style="fill:#000000;fill-opacity:1;stroke:none"
       d="M 4.5898993e-6,988.36218 C 2.4685789e-6,1001.617 28.653779,1012.3622 63.999971,1012.3621 99.346228,1012.3622 128,1001.617 127.99999,988.36217 c -1e-5,-13.25485 -28.653764,-23.99999 -63.999986,-23.99999 -35.346228,0 -64.00000435984819,10.74516 -63.9999994101007,24 z m 7.9999968101007,0 c -7e-7,-8.83656 25.0720536,-16 55.9999986,-16 30.927947,0 56.00002,7.16346 56.00003,16.00003 -6e-5,8.83649 -25.072117,15.99989 -56.000027,15.99999 -30.927946,0 -56.0000002,-7.16346 -56.0000016,-16.00002 z"
       id="path5320" />
    <path
       id="path5322"
       d="m 18.745197,1033.617 c 9.372571,9.3726 37.231855,-3.2907 62.225316,-28.2843 24.993647,-24.99351 37.656917,-52.85279 28.284337,-62.22537 -9.372604,-9.37258 -37.231829,3.29072 -62.225382,28.28427 -24.993558,24.99356 -37.656862,52.8528 -28.284271,62.2254 z m 5.656852,-5.6569 c -6.248392,-6.2483 6.41491,-29.04228 28.28427,-50.91164 21.869361,-21.86936 44.663325,-34.53266 50.911731,-28.28427 6.2483,6.24838 -6.415034,29.04229 -28.284298,50.9117 -21.86936,21.86931 -44.663311,34.53261 -50.911703,28.28421 z"
       style="fill:#000000;fill-opacity:1;stroke:none" />
    <path
       sodipodi:type="arc"
       style="fill:#000000;fill-opacity:1;stroke:none"
       id="path5324"
       sodipodi:cx="64"
       sodipodi:cy="64"
       sodipodi:rx="8"
       sodipodi:ry="8"
       d="m 72,64 a 8,8 0 1 1 -16,0 8,8 0 1 1 16,0 z"
       transform="translate(0,924.36218)" />
  </g>
</svg>
