<?xml version="1.0" encoding="UTF-8" standalone="no"?>
<!-- Created with Inkscape (http://www.inkscape.org/) -->
<svg
   xmlns:dc="http://purl.org/dc/elements/1.1/"
   xmlns:cc="http://creativecommons.org/ns#"
   xmlns:rdf="http://www.w3.org/1999/02/22-rdf-syntax-ns#"
   xmlns:svg="http://www.w3.org/2000/svg"
   xmlns="http://www.w3.org/2000/svg"
   xmlns:sodipodi="http://sodipodi.sourceforge.net/DTD/sodipodi-0.dtd"
   xmlns:inkscape="http://www.inkscape.org/namespaces/inkscape"
   width="22"
   height="22"
   id="svg2"
   sodipodi:version="0.32"
   inkscape:version="0.46+devel"
   version="1.0"
   sodipodi:docname="juk.svg"
   inkscape:output_extension="org.inkscape.output.svg.inkscape"
   inkscape:export-filename="/home/loki/MyFiles/Code/Bespin/icons/apps/juk.png"
   inkscape:export-xdpi="90"
   inkscape:export-ydpi="90">
  <defs
     id="defs4">
    <inkscape:perspective
       sodipodi:type="inkscape:persp3d"
       inkscape:vp_x="0 : 526.18109 : 1"
       inkscape:vp_y="0 : 1000 : 0"
       inkscape:vp_z="744.09448 : 526.18109 : 1"
       inkscape:persp3d-origin="372.04724 : 350.78739 : 1"
       id="perspective10" />
    <inkscape:perspective
       id="perspective18050"
       inkscape:persp3d-origin="372.04724 : 350.78739 : 1"
       inkscape:vp_z="744.09448 : 526.18109 : 1"
       inkscape:vp_y="0 : 1000 : 0"
       inkscape:vp_x="0 : 526.18109 : 1"
       sodipodi:type="inkscape:persp3d" />
    <filter
       inkscape:collect="always"
       x="-0.12256312"
       width="1.2451262"
       y="-0.17750549"
       height="1.355011"
       id="filter6116">
      <feGaussianBlur
         inkscape:collect="always"
         stdDeviation="2.0368781"
         id="feGaussianBlur6118" />
    </filter>
    <filter
       inkscape:collect="always"
       id="filter5558">
      <feGaussianBlur
         inkscape:collect="always"
         stdDeviation="0.61029092"
         id="feGaussianBlur5560" />
    </filter>
    <filter
       inkscape:collect="always"
       x="-0.073310807"
       width="1.1466216"
       y="-0.13902833"
       height="1.2780566"
       id="filter2844">
      <feGaussianBlur
         inkscape:collect="always"
         stdDeviation="0.73249726"
         id="feGaussianBlur2846" />
    </filter>
    <filter
       inkscape:collect="always"
       id="filter3619">
      <feGaussianBlur
         inkscape:collect="always"
         stdDeviation="0.69944247"
         id="feGaussianBlur3621" />
    </filter>
  </defs>
  <sodipodi:namedview
     id="base"
     pagecolor="#ffffff"
     bordercolor="#666666"
     borderopacity="1.0"
     gridtolerance="10000"
     guidetolerance="10"
     objecttolerance="10"
     inkscape:pageopacity="0.0"
     inkscape:pageshadow="2"
     inkscape:zoom="11.2"
     inkscape:cx="8.7576564"
     inkscape:cy="9.8820306"
     inkscape:document-units="px"
     inkscape:current-layer="layer1"
     showgrid="false"
     inkscape:window-width="1009"
     inkscape:window-height="817"
     inkscape:window-x="189"
     inkscape:window-y="149" />
  <metadata
     id="metadata7">
    <rdf:RDF>
      <cc:Work
         rdf:about="">
        <dc:format>image/svg+xml</dc:format>
        <dc:type
           rdf:resource="http://purl.org/dc/dcmitype/StillImage" />
      </cc:Work>
    </rdf:RDF>
  </metadata>
  <g
     inkscape:label="Layer 1"
     inkscape:groupmode="layer"
     id="layer1">
    <g
       transform="matrix(0.25,0,0,0.25,-5.0000025,-4.0700229)"
       id="g18011"
       style="fill:#000000">
      <g
         style="opacity:0.8;fill:#000000;fill-opacity:1"
         transform="matrix(0.7796007,0,0,0.8187773,30.819543,4.4170302)"
         id="g7973">
        <radialGradient
           id="radialGradient8130"
           cx="60"
           cy="25"
           r="66"
           gradientUnits="userSpaceOnUse">
          <stop
             offset="0"
             style="stop-color:#77DE6C;fill-opacity:1.0;fill:url(#linearGradient8536)"
             id="stop7976" />
          <stop
             offset="1"
             style="stop-color:#0A8000;fill-opacity:1.0;fill:url(#linearGradient8536)"
             id="stop7978" />
        </radialGradient>
        <path
           d="m 76.306,44.035 c 4.751,5.19 7.364,11.925 7.364,18.965 0,7.041 -2.613,13.775 -7.362,18.965 l 3.769,3.449 C 85.69,79.281 88.779,71.32 88.779,63 c 0,-8.32 -3.089,-16.281 -8.703,-22.415 z"
           id="path7980"
           style="fill:#000000;fill-opacity:1" />
      </g>
      <g
         style="opacity:0.6;fill:#000000;fill-opacity:1"
         transform="matrix(0.7796007,0,0,0.8187773,30.819543,4.4170302)"
         id="g7982">
        <radialGradient
           id="radialGradient8136"
           cx="60"
           cy="25"
           r="65.999802"
           gradientUnits="userSpaceOnUse">
          <stop
             offset="0"
             style="stop-color:#77DE6C;fill-opacity:1.0;fill:url(#linearGradient8538)"
             id="stop8138" />
          <stop
             offset="1"
             style="stop-color:#0A8000;fill-opacity:1.0;fill:url(#linearGradient8538)"
             id="stop8140" />
        </radialGradient>
        <path
           d="M 83.849,37.137 C 90.323,44.215 93.89,53.399 93.89,63 c 0,9.602 -3.566,18.785 -10.043,25.861 l 3.771,3.451 C 94.958,84.291 99,73.881 99,63 99,52.119 94.958,41.709 87.619,33.688 z"
           id="path7989"
           style="fill:#000000;fill-opacity:1" />
      </g>
      <g
         style="opacity:0.8;fill:#000000;fill-opacity:1"
         transform="matrix(-0.7796007,0,0,0.8187773,97.180477,4.4170302)"
         id="g8583">
        <radialGradient
           id="radialGradient8585"
           cx="60"
           cy="25"
           r="66"
           gradientUnits="userSpaceOnUse">
          <stop
             offset="0"
             style="stop-color:#77DE6C;fill-opacity:1.0;fill:url(#linearGradient8536)"
             id="stop8587" />
          <stop
             offset="1"
             style="stop-color:#0A8000;fill-opacity:1.0;fill:url(#linearGradient8536)"
             id="stop8589" />
        </radialGradient>
        <path
           d="m 76.306,44.035 c 4.751,5.19 7.364,11.925 7.364,18.965 0,7.041 -2.613,13.775 -7.362,18.965 l 3.769,3.449 C 85.69,79.281 88.779,71.32 88.779,63 c 0,-8.32 -3.089,-16.281 -8.703,-22.415 z"
           id="path8591"
           style="fill:#000000;fill-opacity:1" />
      </g>
      <g
         style="opacity:0.6;fill:#000000;fill-opacity:1"
         transform="matrix(-0.7796007,0,0,0.8187773,97.180477,4.4170302)"
         id="g8593">
        <radialGradient
           id="radialGradient8595"
           cx="60"
           cy="25"
           r="65.999802"
           gradientUnits="userSpaceOnUse">
          <stop
             offset="0"
             style="stop-color:#77DE6C;fill-opacity:1.0;fill:url(#linearGradient8538)"
             id="stop8597" />
          <stop
             offset="1"
             style="stop-color:#0A8000;fill-opacity:1.0;fill:url(#linearGradient8538)"
             id="stop8599" />
        </radialGradient>
        <path
           d="M 83.849,37.137 C 90.323,44.215 93.89,53.399 93.89,63 c 0,9.602 -3.566,18.785 -10.043,25.861 l 3.771,3.451 C 94.958,84.291 99,73.881 99,63 99,52.119 94.958,41.709 87.619,33.688 z"
           id="path8601"
           style="fill:#000000;fill-opacity:1" />
      </g>
      <path
         sodipodi:nodetypes="ccccc"
         id="polygon26"
         d="m 48,46.640084 3.999998,0 0,41.780968 L 48,86.212062 z"
         style="fill:#000000" />
      <path
         style="fill:#000000"
         d="m 80,40.000002 3.999998,0 0,40.42105 L 80,78.283962 z"
         id="path2559"
         sodipodi:nodetypes="ccccc" />
      <path
         sodipodi:nodetypes="ccccc"
         id="rect2593"
         d="m 48,32 36,-8 0,16 -36,8 z"
         style="fill:#000000;fill-opacity:1;fill-rule:evenodd;stroke:none" />
      <g
         transform="matrix(0.6524713,-7.9358902e-2,7.6913118e-2,0.6269188,1.0073443,38.826178)"
         id="g4907"
         style="fill:#000000">
        <path
           style="fill:#000000;fill-opacity:1"
           id="path45"
           d="m 37.422745,90.448873 c 1.672024,5.389239 9.805048,8.256329 18.16517,6.40451 8.360764,-1.852368 13.780851,-7.722891 12.10947,-13.112134 C 66.02536,78.352554 57.892979,75.48492 49.532858,77.337284 41.172737,79.189648 35.750721,85.060176 37.422745,90.448873 z" />
        <path
           style="opacity:0.9;fill:#000000;fill-opacity:1;filter:url(#filter6116)"
           id="path49"
           d="M 43.576,95.141 C 41.685,87.924 31.358,84.38 20.508,87.226 9.659,90.072 2.397,98.231 4.288,105.45 c 1.104,4.218 5.1,7.166 10.387,8.333 -3.231,-1.651 -5.652,-4.326 -6.545,-7.736 -1.904,-7.269 3.803,-15.064 12.748,-17.412 8.945,-2.347 17.741,1.644 19.645,8.912 0.894,3.41 0.095,6.931 -1.911,9.956 4.034,-3.612 6.069,-8.145 4.964,-12.362 z"
           transform="matrix(0.686105,0,0,0.5432152,36.321363,32.23032)" />
        <path
           d="m 34.447549,87.550082 c -7.626375,4.164496 -12.096252,10.313936 -9.566387,13.160718 1.100762,1.23833 3.231368,1.53678 4.823819,1.56891 4.124595,0.08345 9.446953,-1.428 14.234531,-4.042258 7.625626,-4.163549 12.09604,-10.314544 9.565214,-13.160989 -1.100763,-1.238336 -3.231366,-1.536781 -4.823822,-1.568919 -4.125344,-0.082497 -9.445778,1.428283 -14.233355,4.042538 z"
           id="path70"
           style="opacity:0.8;fill:#000000;fill-opacity:1;filter:url(#filter5558)"
           transform="matrix(0.7077814,0,0,0.6148065,20.645198,26.252134)" />
        <path
           d="m 46.87479,109 c -7.172,1.882 -12.588,0.601 -11.925,3.134 0.273,1.045 1.302,1.832 2.116,2.308 2.241,1.311 6.431,2.239 11.471,0.917 7.171,-1.882 10.926,-6.96 10.263,-9.492 -0.273,-1.046 -1.302,-1.832 -2.116,-2.309 -2.241,-1.31 -4.77,4.12 -9.809,5.442 z"
           id="path72"
           style="opacity:0.6;fill:#000000;fill-opacity:1;filter:url(#filter2844)"
           transform="matrix(0.7114081,0.1240747,-0.1849201,0.7638422,40.01216,0.650991)" />
        <path
           style="opacity:0.8;fill:#000000;fill-opacity:1;filter:url(#filter3619)"
           d="m 87.84375,97.625 c -0.647929,8.38965 -8.33824,16.48063 -19.25,19.34375 -12.995,3.409 -25.651001,-1.86025 -28.25,-11.78125 -0.232934,-0.88908 -0.377065,-1.79014 -0.4375,-2.6875 -0.107691,1.56171 0.031406,3.1375 0.4375,4.6875 2.598999,9.921 15.255,15.19025 28.25,11.78125 11.777624,-3.09031 19.782779,-12.26827 19.25,-21.34375 z"
           id="path2338"
           clip-path="none"
           transform="matrix(0.6181529,0,0,0.5432152,13.113494,32.23032)" />
      </g>
      <path
         style="fill:#000000;fill-opacity:1"
         id="path2567"
         d="m 64.381316,84.560449 c 1.505451,3.245925 7.032532,4.39793 12.344843,2.57354 5.312687,-1.824786 8.397618,-5.935259 6.892586,-9.181238 -1.505409,-3.245584 -7.032113,-4.397981 -12.344381,-2.573249 -5.312268,1.824732 -8.398457,5.935362 -6.893048,9.180947 z" />
    </g>
  </g>
</svg>
