<?xml version="1.0" encoding="UTF-8" standalone="no"?>
<!-- Created with Inkscape (http://www.inkscape.org/) -->

<svg
   xmlns:dc="http://purl.org/dc/elements/1.1/"
   xmlns:cc="http://creativecommons.org/ns#"
   xmlns:rdf="http://www.w3.org/1999/02/22-rdf-syntax-ns#"
   xmlns:svg="http://www.w3.org/2000/svg"
   xmlns="http://www.w3.org/2000/svg"
   xmlns:sodipodi="http://sodipodi.sourceforge.net/DTD/sodipodi-0.dtd"
   xmlns:inkscape="http://www.inkscape.org/namespaces/inkscape"
   width="64px"
   height="64px"
   id="svg2383"
   sodipodi:version="0.32"
   inkscape:version="0.47 r22583"
   sodipodi:docname="fullscreen.svg"
   inkscape:output_extension="org.inkscape.output.svg.inkscape"
   inkscape:export-filename="/home/rob/.kde4/share/icons/nmfnms/48x48/actions/view-refresh.png"
   inkscape:export-xdpi="67.5"
   inkscape:export-ydpi="67.5"
   version="1.1">
  <defs
     id="defs2385">
    <inkscape:perspective
       sodipodi:type="inkscape:persp3d"
       inkscape:vp_x="0 : 32 : 1"
       inkscape:vp_y="0 : 1000 : 0"
       inkscape:vp_z="64 : 32 : 1"
       inkscape:persp3d-origin="32 : 21.333333 : 1"
       id="perspective2391" />
    <inkscape:perspective
       id="perspective10"
       inkscape:persp3d-origin="372.04724 : 350.78739 : 1"
       inkscape:vp_z="744.09448 : 526.18109 : 1"
       inkscape:vp_y="0 : 1000 : 0"
       inkscape:vp_x="0 : 526.18109 : 1"
       sodipodi:type="inkscape:persp3d" />
    <pattern
       patternUnits="userSpaceOnUse"
       width="52.00226"
       height="46.406551"
       patternTransform="translate(11.69844,8.7393398)"
       id="pattern2834">
      <path
         id="path2526"
         d="M 5.9999993,17.203293 C 11.433191,6.9833594 24.249858,3.0362863 34.626824,8.3872582 45.003791,13.738231 49.011513,26.360943 43.578321,36.580877 c -0.726471,1.366504 -1.604396,2.649552 -2.617718,3.825675"
         style="fill:none;stroke:#000000;stroke-width:11.99999809;stroke-linecap:round;stroke-linejoin:miter;stroke-miterlimit:4;stroke-opacity:1" />
    </pattern>
  </defs>
  <sodipodi:namedview
     id="base"
     pagecolor="#ffffff"
     bordercolor="#666666"
     borderopacity="1.0"
     inkscape:pageopacity="0.0"
     inkscape:pageshadow="2"
     inkscape:zoom="11.078125"
     inkscape:cx="25.672247"
     inkscape:cy="31.879467"
     inkscape:current-layer="layer1"
     showgrid="true"
     inkscape:document-units="px"
     inkscape:grid-bbox="true"
     inkscape:window-width="1493"
     inkscape:window-height="945"
     inkscape:window-x="160"
     inkscape:window-y="44"
     inkscape:window-maximized="0">
    <inkscape:grid
       type="xygrid"
       id="grid3165"
       empspacing="4"
       visible="true"
       enabled="true"
       snapvisiblegridlinesonly="true" />
  </sodipodi:namedview>
  <metadata
     id="metadata2388">
    <rdf:RDF>
      <cc:Work
         rdf:about="">
        <dc:format>image/svg+xml</dc:format>
        <dc:type
           rdf:resource="http://purl.org/dc/dcmitype/StillImage" />
        <dc:title></dc:title>
      </cc:Work>
    </rdf:RDF>
  </metadata>
  <g
     id="layer1"
     inkscape:label="Layer 1"
     inkscape:groupmode="layer">
    <path
       style="fill:#000000;fill-opacity:1;stroke:none"
       d="m 27,0 c -1,3 2,11 -4,13 L 18,4 C 17,7 19.498412,14.095984 13,16 12,10 10.305791,11.986027 8,9 9.2904566,14.384274 10.873988,19.684813 8.90625,26 13.641705,18.206484 22.214205,13 32,13 41.785795,13 50.358295,18.206484 55.09375,26 52.09288,20.46437 50.869753,10.764825 52,9 51.170838,11.461462 49.719157,14.206034 48,16 45.276073,15.68812 43.498277,7.4588148 43,3 40,5 41,11 39,13 36,11 36.166762,10.008591 38,1 37,3 34,3 32,8 31.208435,6.3360541 29.798404,4.7536687 27,0 z"
       id="rect3883"
       sodipodi:nodetypes="ccccccscccccccc" />
    <path
       style="opacity:1;fill:#000000;fill-opacity:1;stroke:none"
       d="M 32 16 C 18.745166 16 8 26.745166 8 40 C 8 53.254834 18.745166 64 32 64 C 45.254834 64 56 53.254834 56 40 C 56 26.745166 45.254834 16 32 16 z M 32 32 C 36.418278 32 40 35.581722 40 40 C 40 44.418278 36.418278 48 32 48 C 27.581722 48 24 44.418278 24 40 C 24 35.581722 27.581722 32 32 32 z "
       id="path3856" />
    <path
       style="opacity:0.60000005;fill:#000000;fill-opacity:1;stroke:none"
       d="M 32 32 C 27.581722 32 24 35.581722 24 40 C 24 44.418278 27.581722 48 32 48 C 36.418278 48 40 44.418278 40 40 C 40 35.581722 36.418278 32 32 32 z M 32 36 C 34.209139 36 36 37.790861 36 40 C 36 42.209139 34.209139 44 32 44 C 29.790861 44 28 42.209139 28 40 C 28 37.790861 29.790861 36 32 36 z "
       id="path3878" />
  </g>
</svg>
