<?xml version="1.0" encoding="UTF-8" standalone="no"?>
<!-- Created with Inkscape (http://www.inkscape.org/) -->

<svg
   xmlns:dc="http://purl.org/dc/elements/1.1/"
   xmlns:cc="http://creativecommons.org/ns#"
   xmlns:rdf="http://www.w3.org/1999/02/22-rdf-syntax-ns#"
   xmlns:svg="http://www.w3.org/2000/svg"
   xmlns="http://www.w3.org/2000/svg"
   xmlns:sodipodi="http://sodipodi.sourceforge.net/DTD/sodipodi-0.dtd"
   xmlns:inkscape="http://www.inkscape.org/namespaces/inkscape"
   width="64px"
   height="64px"
   id="svg2816"
   version="1.1"
   inkscape:version="0.47 r22583"
   sodipodi:docname="next7.svg">
  <defs
     id="defs2818">
    <inkscape:perspective
       sodipodi:type="inkscape:persp3d"
       inkscape:vp_x="0 : 32 : 1"
       inkscape:vp_y="0 : 1000 : 0"
       inkscape:vp_z="64 : 32 : 1"
       inkscape:persp3d-origin="32 : 21.333333 : 1"
       id="perspective2824" />
    <inkscape:perspective
       id="perspective2822"
       inkscape:persp3d-origin="0.5 : 0.33333333 : 1"
       inkscape:vp_z="1 : 0.5 : 1"
       inkscape:vp_y="0 : 1000 : 0"
       inkscape:vp_x="0 : 0.5 : 1"
       sodipodi:type="inkscape:persp3d" />
    <inkscape:perspective
       id="perspective2824-0"
       inkscape:persp3d-origin="32 : 21.333333 : 1"
       inkscape:vp_z="64 : 32 : 1"
       inkscape:vp_y="0 : 1000 : 0"
       inkscape:vp_x="0 : 32 : 1"
       sodipodi:type="inkscape:persp3d" />
  </defs>
  <sodipodi:namedview
     id="base"
     pagecolor="#ffffff"
     bordercolor="#666666"
     borderopacity="1.0"
     inkscape:pageopacity="0.0"
     inkscape:pageshadow="2"
     inkscape:zoom="5.6568543"
     inkscape:cx="10.44241"
     inkscape:cy="42.757417"
     inkscape:current-layer="layer1"
     showgrid="true"
     inkscape:document-units="px"
     inkscape:grid-bbox="true"
     inkscape:window-width="1337"
     inkscape:window-height="820"
     inkscape:window-x="93"
     inkscape:window-y="20"
     inkscape:window-maximized="0"
     inkscape:snap-global="true"
     showguides="false">
    <inkscape:grid
       type="xygrid"
       id="grid2826"
       empspacing="4"
       visible="true"
       enabled="true"
       snapvisiblegridlinesonly="true" />
  </sodipodi:namedview>
  <metadata
     id="metadata2821">
    <rdf:RDF>
      <cc:Work
         rdf:about="">
        <dc:format>image/svg+xml</dc:format>
        <dc:type
           rdf:resource="http://purl.org/dc/dcmitype/StillImage" />
        <dc:title></dc:title>
      </cc:Work>
    </rdf:RDF>
  </metadata>
  <g
     id="layer1"
     inkscape:label="Layer 1"
     inkscape:groupmode="layer">
    <text
       xml:space="preserve"
       style="font-size:40px;font-style:normal;font-weight:normal;fill:#000000;fill-opacity:1;stroke:none;font-family:Bitstream Vera Sans"
       x="-85.868149"
       y="86.743454"
       id="text3621"><tspan
         sodipodi:role="line"
         id="tspan3623"
         x="-85.868149"
         y="86.743454" /></text>
    <g
       id="g3886"
       transform="matrix(0.89904819,0,0,0.89904819,-5.4549963,-48.752007)">
      <path
         id="path2828"
         style="fill:#000000;fill-opacity:1;fill-rule:evenodd;stroke:#000000;stroke-width:0.25417364px;stroke-linecap:butt;stroke-linejoin:miter;stroke-opacity:1"
         d="m 72,101.63888 c 0,1.81323 -10.710477,7.38172 -12.454043,6.4751 -0.519297,-0.27002 -1.066355,-2.13324 -0.133914,-2.61567 2.297914,-1.3204 3.213948,-3.10334 3.213948,-3.85943 0,-0.75609 -0.916034,-2.539035 -3.213948,-3.859436 -0.932441,-0.482429 -0.385383,-2.345647 0.133914,-2.61567 C 61.289523,94.257156 72,99.825643 72,101.63888 z M 57.9319,89.819437 c -2.38108,0 -4.297978,1.916898 -4.297978,4.297978 l 0,15.042925 c 0,2.38108 1.916898,4.29798 4.297978,4.29798 l 15.042925,0 c 2.38108,0 4.297978,-1.9169 4.297978,-4.29798 l 0,-15.042925 c 0,-2.38108 -1.916898,-4.297978 -4.297978,-4.297978 l -15.042925,0 z m 1.359907,2.148989 12.32311,0 c 1.948156,0 3.508897,1.56074 3.508897,3.508896 l 0,12.323108 c 0,1.94816 -1.560741,3.5089 -3.508897,3.5089 l -12.32311,0 c -1.948156,0 -3.508896,-1.56074 -3.508896,-3.5089 l 0,-12.323108 c 0,-1.948156 1.56074,-3.508896 3.508896,-3.508896 z" />
      <path
         d="m 41.814484,108.18551 c 1.813235,0 7.381727,-10.710466 6.475108,-12.454029 -0.270023,-0.519298 -2.133243,-1.066356 -2.615674,-0.133915 -1.3204,2.297913 -3.103341,3.213944 -3.859434,3.213944 -0.756091,0 -2.539032,-0.916031 -3.859433,-3.213944 -0.482429,-0.932441 -2.345646,-0.385383 -2.61567,0.133915 -0.906618,1.743563 4.66187,12.454029 6.475103,12.454029 z M 29.995043,94.117424 c 0,-2.381078 1.9169,-4.297977 4.29798,-4.297977 l 15.042928,0 c 2.381084,0 4.29798,1.916899 4.29798,4.297977 l 0,15.042906 c 0,2.38108 -1.916896,4.29798 -4.29798,4.29798 l -15.042928,0 c -2.38108,0 -4.29798,-1.9169 -4.29798,-4.29798 l 0,-15.042906 z m 2.14899,1.359907 0,12.323099 c 0,1.94815 1.560739,3.50889 3.508897,3.50889 l 12.323113,0 c 1.948158,0 3.5089,-1.56074 3.5089,-3.50889 l 0,-12.323099 c 0,-1.948155 -1.560742,-3.508894 -3.5089,-3.508894 l -12.323113,0 c -1.948158,0 -3.508897,1.560739 -3.508897,3.508894 z"
         style="fill:#000000;fill-opacity:1;fill-rule:evenodd;stroke:#000000;stroke-width:0.25417364px;stroke-linecap:butt;stroke-linejoin:miter;stroke-opacity:1"
         id="path3875" />
      <path
         id="path3877"
         style="fill:#000000;fill-opacity:1;fill-rule:evenodd;stroke:#000000;stroke-width:0.25417364px;stroke-linecap:butt;stroke-linejoin:miter;stroke-opacity:1"
         d="m 41.814484,108.18551 c 1.813235,0 7.381727,-10.710466 6.475109,-12.454029 -0.270024,-0.519298 -2.133244,-1.066356 -2.615675,-0.133915 -1.3204,2.297913 -3.103343,3.213944 -3.859434,3.213944 -0.756093,0 -2.539032,-0.916031 -3.859433,-3.213944 -0.482429,-0.932441 -2.345646,-0.385383 -2.61567,0.133915 -0.906618,1.743563 4.661873,12.454029 6.475105,12.454029 z M 29.995043,94.117424 c 0,-2.381078 1.9169,-4.297977 4.29798,-4.297977 l 15.042928,0 c 2.381083,0 4.29798,1.916899 4.29798,4.297977 l 0,15.042906 c 0,2.38108 -1.916897,4.29798 -4.29798,4.29798 l -15.042928,0 c -2.38108,0 -4.29798,-1.9169 -4.29798,-4.29798 l 0,-15.042906 z m 2.14899,1.359907 0,12.323099 c 0,1.94815 1.560739,3.50889 3.508897,3.50889 l 12.323114,0 c 1.948155,0 3.508899,-1.56074 3.508899,-3.50889 l 0,-12.323099 c 0,-1.948155 -1.560744,-3.508894 -3.508899,-3.508894 l -12.323114,0 c -1.948158,0 -3.508897,1.560739 -3.508897,3.508894 z" />
      <path
         d="m 41.814484,71.453363 c 1.813235,0 7.381727,10.710466 6.475109,12.454027 -0.270024,0.519298 -2.133244,1.066355 -2.615675,0.133914 -1.3204,-2.297909 -3.103343,-3.213942 -3.859434,-3.213942 -0.756093,0 -2.539032,0.916033 -3.859433,3.213942 -0.482429,0.932441 -2.345646,0.385384 -2.61567,-0.133914 -0.906618,-1.743561 4.661873,-12.454027 6.475105,-12.454027 z M 29.995043,85.521447 c 0,2.38108 1.9169,4.297979 4.29798,4.297979 l 15.042928,0 c 2.381083,0 4.29798,-1.916899 4.29798,-4.297979 l 0,-15.042909 c 0,-2.38108 -1.916897,-4.297973 -4.29798,-4.297973 l -15.042928,0 c -2.38108,0 -4.29798,1.916893 -4.29798,4.297973 l 0,15.042909 z m 2.14899,-1.359907 0,-12.323095 c 0,-1.948155 1.560739,-3.508896 3.508897,-3.508896 l 12.323114,0 c 1.948155,0 3.508899,1.560741 3.508899,3.508896 l 0,12.323095 c 0,1.948155 -1.560744,3.508897 -3.508899,3.508897 l -12.323114,0 c -1.948158,0 -3.508897,-1.560742 -3.508897,-3.508897 z"
         style="fill:#000000;fill-opacity:1;fill-rule:evenodd;stroke:#000000;stroke-width:0.25417364px;stroke-linecap:butt;stroke-linejoin:miter;stroke-opacity:1"
         id="path3882" />
      <path
         d="m 11.628961,101.63888 c 0,1.81323 10.710476,7.38172 12.454042,6.4751 0.519298,-0.27002 1.066356,-2.13324 0.133915,-2.61567 -2.297915,-1.3204 -3.213948,-3.10334 -3.213948,-3.85943 0,-0.75609 0.916033,-2.539035 3.213948,-3.859436 0.932441,-0.482429 0.385383,-2.345647 -0.133915,-2.61567 -1.743566,-0.906618 -12.454042,4.661869 -12.454042,6.475106 z m 14.0681,-11.819443 c 2.38108,0 4.297978,1.916898 4.297978,4.297978 l 0,15.042925 c 0,2.38108 -1.916898,4.29798 -4.297978,4.29798 l -15.042925,0 c -2.3810796,0 -4.297978,-1.9169 -4.297978,-4.29798 l 0,-15.042925 c 0,-2.38108 1.9168984,-4.297978 4.297978,-4.297978 l 15.042925,0 z m -1.359907,2.148989 -12.323111,0 c -1.948155,0 -3.5088958,1.56074 -3.5088958,3.508896 l 0,12.323108 c 0,1.94816 1.5607408,3.5089 3.5088958,3.5089 l 12.323111,0 c 1.948155,0 3.508896,-1.56074 3.508896,-3.5089 l 0,-12.323108 c 0,-1.948156 -1.560741,-3.508896 -3.508896,-3.508896 z"
         style="fill:#000000;fill-opacity:1;fill-rule:evenodd;stroke:#000000;stroke-width:0.25417364px;stroke-linecap:butt;stroke-linejoin:miter;stroke-opacity:1"
         id="path3884" />
    </g>
  </g>
</svg>
