<?xml version="1.0" encoding="UTF-8" standalone="no"?>
<!-- Created with Inkscape (http://www.inkscape.org/) -->
<svg
   xmlns:dc="http://purl.org/dc/elements/1.1/"
   xmlns:cc="http://creativecommons.org/ns#"
   xmlns:rdf="http://www.w3.org/1999/02/22-rdf-syntax-ns#"
   xmlns:svg="http://www.w3.org/2000/svg"
   xmlns="http://www.w3.org/2000/svg"
   xmlns:sodipodi="http://sodipodi.sourceforge.net/DTD/sodipodi-0.dtd"
   xmlns:inkscape="http://www.inkscape.org/namespaces/inkscape"
   width="22"
   height="22"
   id="svg2"
   sodipodi:version="0.32"
   inkscape:version="0.46+devel"
   version="1.0"
   sodipodi:docname="kgpg.svg"
   inkscape:output_extension="org.inkscape.output.svg.inkscape"
   inkscape:export-filename="/home/loki/MyFiles/Code/Bespin/icons/apps/kgpg.png"
   inkscape:export-xdpi="90"
   inkscape:export-ydpi="90">
  <defs
     id="defs4">
    <inkscape:perspective
       sodipodi:type="inkscape:persp3d"
       inkscape:vp_x="0 : 526.18109 : 1"
       inkscape:vp_y="0 : 1000 : 0"
       inkscape:vp_z="744.09448 : 526.18109 : 1"
       inkscape:persp3d-origin="372.04724 : 350.78739 : 1"
       id="perspective10" />
  </defs>
  <sodipodi:namedview
     id="base"
     pagecolor="#ffffff"
     bordercolor="#666666"
     borderopacity="1.0"
     gridtolerance="10000"
     guidetolerance="10"
     objecttolerance="10"
     inkscape:pageopacity="0.0"
     inkscape:pageshadow="2"
     inkscape:zoom="10.5"
     inkscape:cx="-0.38095238"
     inkscape:cy="12.115784"
     inkscape:document-units="px"
     inkscape:current-layer="layer1"
     showgrid="false"
     inkscape:window-width="1076"
     inkscape:window-height="685"
     inkscape:window-x="295"
     inkscape:window-y="344" />
  <metadata
     id="metadata7">
    <rdf:RDF>
      <cc:Work
         rdf:about="">
        <dc:format>image/svg+xml</dc:format>
        <dc:type
           rdf:resource="http://purl.org/dc/dcmitype/StillImage" />
      </cc:Work>
    </rdf:RDF>
  </metadata>
  <g
     inkscape:label="Layer 1"
     inkscape:groupmode="layer"
     id="layer1">
    <path
       style="opacity:1;fill:#1a1a1a;fill-opacity:1;stroke:none"
       d="m 10.984196,1.0058284e-07 c -3.5354017,0 -6.4166667,2.8812649 -6.4166667,6.4166667 0,0.66288792 0.096574538,1.2961444 0.28448276,1.8965517 C 3.5538223,9.7691944 2.765805,11.678935 2.765805,13.781609 c 0,4.546522 3.6718681,8.2183918 8.2183908,8.2183908 4.546522,0 8.25,-3.6718688 8.25,-8.2183908 0,-2.102674 -0.81962694,-4.0124149 -2.1178161,-5.4683908 C 17.304288,7.7128112 17.400862,7.0795547 17.400862,6.4166668 c 0,-3.5354017 -2.881265,-6.4166667 -6.416667,-6.4166667 z m 0,1.5804598 c 2.0468112,0 3.6982759,1.6514646 3.6982759,3.6982759 0,0.37153661 -0.056729655,0.73674177 -0.15804598,1.0747126 C 13.449034,5.8383971 12.255473,5.5316093 10.984196,5.5316093 c -1.271278,0 -2.4648387,0.3067878 -3.5402301,0.8218391 C 7.3426488,6.0154775 7.2859195,5.6502723 7.2859195,5.2787357 7.2859196,3.2319247 8.9373842,1.5804599 10.984196,1.5804599 z m 0,9.387931 c 0.85081131,0 1.5488506,0.69804028 1.5488506,1.5488506 0,0.64874308 -0.41200386,1.1951229 -0.97988506,1.4224138 C 11.809061,15.101303 11.995832,16.55697 11.869253,17.227012 11.64796,18.398424 10.257214,18.398424 10.03592,17.227012 9.9081806,16.55083 10.060681,15.073974 10.320403,13.908046 9.8017916,13.659781 9.4353448,13.130255 9.4353448,12.517241 c 0,-0.8508103 0.69804028,-1.5488506 1.5488506,-1.5488506 z"
       id="path2435" />
  </g>
</svg>
