<?xml version="1.0" encoding="UTF-8" standalone="no"?>
<!-- Created with Inkscape (http://www.inkscape.org/) -->
<svg
   xmlns:dc="http://purl.org/dc/elements/1.1/"
   xmlns:cc="http://creativecommons.org/ns#"
   xmlns:rdf="http://www.w3.org/1999/02/22-rdf-syntax-ns#"
   xmlns:svg="http://www.w3.org/2000/svg"
   xmlns="http://www.w3.org/2000/svg"
   xmlns:sodipodi="http://sodipodi.sourceforge.net/DTD/sodipodi-0.dtd"
   xmlns:inkscape="http://www.inkscape.org/namespaces/inkscape"
   width="128"
   height="128"
   id="svg2"
   sodipodi:version="0.32"
   inkscape:version="0.46+devel"
   version="1.0"
   sodipodi:docname="klipper.alt.svg"
   inkscape:output_extension="org.inkscape.output.svg.inkscape">
  <defs
     id="defs4">
    <inkscape:perspective
       sodipodi:type="inkscape:persp3d"
       inkscape:vp_x="0 : 526.18109 : 1"
       inkscape:vp_y="0 : 1000 : 0"
       inkscape:vp_z="744.09448 : 526.18109 : 1"
       inkscape:persp3d-origin="372.04724 : 350.78739 : 1"
       id="perspective10" />
  </defs>
  <sodipodi:namedview
     id="base"
     pagecolor="#ffffff"
     bordercolor="#666666"
     borderopacity="1.0"
     inkscape:pageopacity="0.0"
     inkscape:pageshadow="2"
     inkscape:zoom="1.4"
     inkscape:cx="37.074591"
     inkscape:cy="35.126778"
     inkscape:document-units="px"
     inkscape:current-layer="layer1"
     showgrid="false"
     showborder="true"
     inkscape:showpageshadow="true"
     inkscape:window-width="916"
     inkscape:window-height="675"
     inkscape:window-x="386"
     inkscape:window-y="416" />
  <metadata
     id="metadata7">
    <rdf:RDF>
      <cc:Work
         rdf:about="">
        <dc:format>image/svg+xml</dc:format>
        <dc:type
           rdf:resource="http://purl.org/dc/dcmitype/StillImage" />
      </cc:Work>
    </rdf:RDF>
  </metadata>
  <g
     inkscape:label="Ebene 1"
     inkscape:groupmode="layer"
     id="layer1">
    <rect
       style="opacity:1;fill:#000000;fill-opacity:1;stroke:none"
       id="rect2425"
       width="128"
       height="24"
       x="0"
       y="104"
       ry="12" />
    <g
       id="g2448"
       transform="translate(2.991035,0)">
      <path
         id="path2431"
         d="M 6.3642529,-4.4408921e-16 C 3.9328279,1.1793927 2.1082619,2.608934 1.1449119,4.2775053 -5.4269947,15.660382 17.865149,56.000001 31.008963,56 44.152777,56 67.444918,15.660382 60.873013,4.2775053 59.911006,2.6112618 58.080013,1.1784288 55.653672,1.7763568e-15 48.954364,13.16032 38.382012,25.861247 31.008963,25.861247 23.63877,25.861247 13.063964,13.15486 6.3642539,0 z"
         style="fill:#000000;fill-opacity:1;stroke:none" />
      <path
         style="fill:#000000;fill-opacity:1;stroke:none"
         d="m 115.65368,56 c 2.43143,-1.179393 4.25599,-2.608934 5.21934,-4.277505 C 127.44492,40.339618 104.15278,-1e-06 91.008958,0 77.865148,0 54.573007,40.339618 61.144912,51.722495 62.106918,53.388739 63.937911,54.821571 66.364252,56 73.06356,42.83968 83.635912,30.138753 91.008958,30.138753 c 7.3702,0 17.945,12.706387 24.64471,25.861247 z"
         id="path2438" />
    </g>
    <rect
       ry="12"
       y="72"
       x="0"
       height="24"
       width="128"
       id="rect2444"
       style="opacity:1;fill:#000000;fill-opacity:1;stroke:none"
       rx="12" />
  </g>
</svg>
