<?xml version="1.0" encoding="UTF-8" standalone="no"?>
<!-- Created with Inkscape (http://www.inkscape.org/) -->
<svg
   xmlns:dc="http://purl.org/dc/elements/1.1/"
   xmlns:cc="http://creativecommons.org/ns#"
   xmlns:rdf="http://www.w3.org/1999/02/22-rdf-syntax-ns#"
   xmlns:svg="http://www.w3.org/2000/svg"
   xmlns="http://www.w3.org/2000/svg"
   xmlns:sodipodi="http://sodipodi.sourceforge.net/DTD/sodipodi-0.dtd"
   xmlns:inkscape="http://www.inkscape.org/namespaces/inkscape"
   width="64"
   height="64"
   id="svg2"
   version="1.1"
   inkscape:version="0.46+devel"
   sodipodi:docname="klipper-alt.svg"
   sodipodi:version="0.32"
   inkscape:output_extension="org.inkscape.output.svg.inkscape">
  <defs
     id="defs4">
    <inkscape:perspective
       sodipodi:type="inkscape:persp3d"
       inkscape:vp_x="0 : 526.18109 : 1"
       inkscape:vp_y="0 : 1000 : 0"
       inkscape:vp_z="744.09448 : 526.18109 : 1"
       inkscape:persp3d-origin="372.04724 : 350.78739 : 1"
       id="perspective10" />
  </defs>
  <sodipodi:namedview
     id="base"
     pagecolor="#ffffff"
     bordercolor="#666666"
     borderopacity="1.0"
     inkscape:pageopacity="0.0"
     inkscape:pageshadow="2"
     inkscape:zoom="12.15625"
     inkscape:cx="32"
     inkscape:cy="33.165175"
     inkscape:document-units="px"
     inkscape:current-layer="layer1"
     showgrid="true"
     inkscape:window-width="1475"
     inkscape:window-height="1052"
     inkscape:window-x="104"
     inkscape:window-y="26"
     inkscape:window-maximized="0">
    <inkscape:grid
       type="xygrid"
       id="grid2816"
       empspacing="4"
       visible="true"
       enabled="true"
       snapvisiblegridlinesonly="true" />
  </sodipodi:namedview>
  <metadata
     id="metadata7">
    <rdf:RDF>
      <cc:Work
         rdf:about="">
        <dc:format>image/svg+xml</dc:format>
        <dc:type
           rdf:resource="http://purl.org/dc/dcmitype/StillImage" />
        <dc:title />
      </cc:Work>
    </rdf:RDF>
  </metadata>
  <g
     inkscape:label="Layer 1"
     inkscape:groupmode="layer"
     id="layer1"
     transform="translate(0,-988.36218)">
    <path
       style="opacity:1;fill:#000000;fill-opacity:1;fill-rule:nonzero;stroke:none"
       d="M 32 0 C 20.750501 2.2614154e-15 10.866094 5.8176698 5.15625 14.59375 C 5.325191 14.399319 5.4856647 14.227049 5.65625 14.0625 C 5.6623207 14.056636 5.681428 14.068327 5.6875 14.0625 C 10.376718 15.88664 16.12021 19.082061 21.21875 21.59375 C 19.041981 23.847279 17.553306 26.768506 17.125 30.03125 C 18.479437 29.985102 19.846078 29.946684 21.1875 29.90625 C 22.164567 24.831628 26.640215 21 32 21 C 32.937422 21 33.849972 21.123096 34.71875 21.34375 C 35.333937 20.144048 35.967709 18.927876 36.59375 17.71875 C 35.148908 17.255563 33.598653 17 32 17 C 29.690458 17 27.517126 17.536036 25.5625 18.46875 C 25.552418 18.46682 25.541324 18.470692 25.53125 18.46875 C 19.180628 17.244261 14.53234 13.485336 10.6875 12.65625 C 10.974893 12.716858 11.266021 12.78328 11.5625 12.875 C 16.671705 7.4187757 23.93531 4 32 4 C 34.012588 4 35.982781 4.2215049 37.875 4.625 C 38.70008 3.3512279 39.491424 2.1311949 40.28125 1.09375 C 37.639619 0.38792286 34.86414 -1.2067893e-15 32 0 z M 60.59375 17.65625 C 60.649347 17.831147 60.677513 17.988557 60.71875 18.15625 C 60.76849 18.358524 60.814152 18.557596 60.84375 18.75 C 60.813284 18.554508 60.769847 18.361907 60.71875 18.15625 C 56.786186 21.316101 51.145917 24.732262 46.40625 27.90625 C 45.510617 24.778709 43.638895 22.06062 41.125 20.125 C 40.4912 21.313973 39.850408 22.51298 39.21875 23.6875 C 41.537382 25.704214 43 28.685723 43 32 C 43 34.990186 41.811126 37.704734 39.875 39.6875 C 40.595677 40.803525 41.307052 41.963417 42.03125 43.09375 C 45.064729 40.348989 47 36.413125 47 32 C 47 32.380198 46.996543 32.751907 46.96875 33.125 C 50.894224 28.60518 55.963246 26.454477 58.78125 23.84375 C 59.569114 26.429333 60 29.156732 60 32 C 60 39.216663 57.265078 45.785194 52.78125 50.75 C 53.480243 52.109241 54.117664 53.41351 54.625 54.625 C 60.415861 48.834139 64 40.836556 64 32 C 64 26.83298 62.77129 21.973235 60.59375 17.65625 z M 60.90625 19.34375 C 60.915418 19.524941 60.915231 19.702165 60.90625 19.875 C 60.888271 20.221019 60.835898 20.558545 60.75 20.875 C 60.703887 21.044883 60.658011 21.212477 60.59375 21.375 C 60.472517 21.681608 60.305713 21.965426 60.125 22.25 C 59.942429 22.5375 59.736424 22.823158 59.5 23.09375 C 59.735311 22.823261 59.943835 22.537549 60.125 22.25 C 60.306165 21.962451 60.473409 21.685162 60.59375 21.375 C 60.653921 21.219919 60.706287 21.036775 60.75 20.875 C 60.837425 20.55145 60.889664 20.229491 60.90625 19.875 C 60.914543 19.697754 60.916919 19.529772 60.90625 19.34375 z M 21.0625 34.96875 C 19.834877 35.031566 18.578208 35.130562 17.34375 35.1875 C 18.160893 38.973565 20.418907 42.216103 23.5 44.34375 C 25.628993 50.444177 24.684266 56.313831 25.875 60.0625 C 25.793732 59.80752 25.719396 59.5552 25.65625 59.28125 C 16.051041 57.058402 8.3398642 49.877781 5.34375 40.59375 C 3.8344344 40.53442 2.3788391 40.475533 1.09375 40.3125 C 4.6048738 53.4039 16.212098 63.167259 30.21875 63.9375 C 30.008616 63.893735 29.81728 63.83679 29.625 63.78125 C 28.858883 58.804837 28.693685 52.238056 28.3125 46.5625 C 29.490689 46.859627 30.729079 47 32 47 C 34.025716 47 35.955865 46.571597 37.71875 45.84375 C 37.003023 44.695654 36.266632 43.544879 35.5625 42.40625 C 34.447054 42.787087 33.244414 43 32 43 C 26.951305 43 22.699711 39.60488 21.40625 34.96875 C 21.287917 34.974635 21.18145 34.962663 21.0625 34.96875 z M 26 60.40625 C 26.099801 60.677514 26.215952 60.941732 26.34375 61.1875 C 26.216529 60.942696 26.099527 60.676154 26 60.40625 z M 26.375 61.25 C 26.528681 61.536912 26.706527 61.813625 26.90625 62.0625 C 27.01057 62.192493 27.131627 62.318434 27.25 62.4375 C 27.128054 62.315666 27.013454 62.195808 26.90625 62.0625 C 26.703348 61.810191 26.530724 61.541256 26.375 61.25 z M 27.625 62.78125 C 27.717771 62.856164 27.805773 62.930702 27.90625 63 C 27.806456 62.931366 27.717248 62.855406 27.625 62.78125 z "
       transform="translate(0,988.36218)"
       id="path4233" />
    <path
       sodipodi:type="arc"
       style="opacity:1;fill:#000000;fill-opacity:1;fill-rule:nonzero;stroke:none"
       id="path4285"
       sodipodi:cx="32"
       sodipodi:cy="32"
       sodipodi:rx="4"
       sodipodi:ry="4"
       d="m 36,32 a 4,4 0 1 1 -8,0 4,4 0 1 1 8,0 z"
       transform="translate(0,988.36218)" />
  </g>
</svg>
