<?xml version="1.0" encoding="UTF-8" standalone="no"?>
<!-- Created with Inkscape (http://www.inkscape.org/) -->
<svg
   xmlns:dc="http://purl.org/dc/elements/1.1/"
   xmlns:cc="http://creativecommons.org/ns#"
   xmlns:rdf="http://www.w3.org/1999/02/22-rdf-syntax-ns#"
   xmlns:svg="http://www.w3.org/2000/svg"
   xmlns="http://www.w3.org/2000/svg"
   xmlns:sodipodi="http://sodipodi.sourceforge.net/DTD/sodipodi-0.dtd"
   xmlns:inkscape="http://www.inkscape.org/namespaces/inkscape"
   width="128"
   height="128"
   id="svg2"
   sodipodi:version="0.32"
   inkscape:version="0.46+devel"
   version="1.0"
   sodipodi:docname="konversation.alt.svg"
   inkscape:output_extension="org.inkscape.output.svg.inkscape">
  <defs
     id="defs4">
    <inkscape:perspective
       sodipodi:type="inkscape:persp3d"
       inkscape:vp_x="0 : 526.18109 : 1"
       inkscape:vp_y="0 : 1000 : 0"
       inkscape:vp_z="744.09448 : 526.18109 : 1"
       inkscape:persp3d-origin="372.04724 : 350.78739 : 1"
       id="perspective10" />
  </defs>
  <sodipodi:namedview
     id="base"
     pagecolor="#ffffff"
     bordercolor="#666666"
     borderopacity="1.0"
     inkscape:pageopacity="0.0"
     inkscape:pageshadow="2"
     inkscape:zoom="1.979899"
     inkscape:cx="63.878963"
     inkscape:cy="31.146971"
     inkscape:document-units="px"
     inkscape:current-layer="layer1"
     showgrid="true"
     showguides="true"
     inkscape:guide-bbox="true"
     inkscape:window-width="1580"
     inkscape:window-height="1155"
     inkscape:window-x="0"
     inkscape:window-y="26"
     inkscape:snap-global="false">
    <inkscape:grid
       type="xygrid"
       id="grid3227"
       empspacing="5"
       visible="true"
       enabled="true" />
  </sodipodi:namedview>
  <metadata
     id="metadata7">
    <rdf:RDF>
      <cc:Work
         rdf:about="">
        <dc:format>image/svg+xml</dc:format>
        <dc:type
           rdf:resource="http://purl.org/dc/dcmitype/StillImage" />
      </cc:Work>
    </rdf:RDF>
  </metadata>
  <g
     inkscape:label="Ebene 1"
     inkscape:groupmode="layer"
     id="layer1">
    <g
       id="g3745">
      <path
         id="path3211"
         d="M 76.59375,0 C 48.220934,5.9603039e-15 25.1875,11.294513 25.1875,25.1875 c -1e-06,13.892987 23.033435,25.15625 51.40625,25.15625 9.71825,-1e-06 18.809064,-1.327243 26.5625,-3.625 C 120.28079,60.641996 95.136954,111.07197 95.625,110.375 128.77521,63.034201 117.26155,58.288778 116.9375,39.78125 124.15174,35.447732 128,31.210114 128,25.1875 128,11.294514 104.96657,0 76.59375,0 z m -16.75,12.28125 c 0.468747,2.2e-05 0.885413,0.104189 1.25,0.3125 0.374996,0.197938 0.562496,0.520855 0.5625,0.9375 l -0.03125,1.25 C 61.552079,15.906269 61.499996,16.812518 61.5,17.5 c -4e-06,0.572933 0.218746,2.208348 0.625,4.90625 0.322912,2.145843 0.499995,3.489592 0.53125,4.03125 0.052078,0.895841 0.291661,2.333339 0.71875,4.34375 0.26041,1.250003 0.374994,2.031252 0.375,2.3125 -6e-06,0.458334 -0.156256,0.802084 -0.46875,1.0625 -0.302089,0.260417 -0.697922,0.40625 -1.21875,0.40625 -0.614587,0 -1.125004,-0.114583 -1.53125,-0.3125 C 60.135414,34.041667 59.906247,33.770834 59.875,33.40625 59.864581,33.145835 59.791664,32.489585 59.65625,31.4375 59.364581,29.239589 59.197915,27.562507 59.125,26.40625 59.062498,25.645842 58.843749,24.208344 58.5,22.125 c -0.541667,-3.281234 -0.8125,-5.604149 -0.8125,-6.96875 0,-1.916645 0.718749,-2.874978 2.15625,-2.875 z m 20.75,0 c 0.479163,2.2e-05 0.885413,0.125022 1.1875,0.34375 0.312496,0.218772 0.468746,0.520855 0.46875,0.90625 -4e-06,0.270854 -0.010421,0.71877 -0.03125,1.375 -0.020838,0.875019 -0.031254,1.572935 -0.03125,2.0625 -4e-06,0.437517 0.062496,1.20835 0.1875,2.3125 0.083329,0.708348 0.135412,1.187514 0.15625,1.46875 0.260412,-0.260403 0.656245,-0.499986 1.1875,-0.71875 0.54166,-0.218735 1.07291,-0.312485 1.59375,-0.3125 1.822907,1.5e-05 3.364572,0.625014 4.65625,1.875 1.30207,1.250012 1.968736,2.65626 1.96875,4.25 -1.4e-05,1.145841 -0.520847,2.354173 -1.53125,3.625 -1.010428,1.270837 -2.364594,2.458336 -4.09375,3.5625 -1.718757,1.09375 -2.937506,1.65625 -3.65625,1.65625 -0.281255,0 -0.635421,-0.104167 -1.03125,-0.28125 -0.208337,-0.083333 -0.35417,-0.125 -0.46875,-0.15625 -0.750003,-0.208333 -1.125002,-1.343748 -1.125,-3.40625 -2e-06,-0.604162 -0.135419,-2.145827 -0.40625,-4.59375 -0.218752,-2.03124 -0.343751,-3.239572 -0.34375,-3.65625 -1e-06,-0.374988 -0.083335,-1.45832 -0.25,-3.21875 -0.281251,-2.854149 -0.406251,-4.770813 -0.40625,-5.75 -1e-06,-0.416645 0.156249,-0.729145 0.5,-0.96875 0.354165,-0.239561 0.843748,-0.374978 1.46875,-0.375 z m 14.75,0 c 0.468747,2.2e-05 0.885413,0.104189 1.25,0.3125 0.374996,0.197938 0.562496,0.520855 0.5625,0.9375 l -0.03125,1.25 C 97.052079,15.906269 96.999996,16.812518 97,17.5 c -4e-06,0.572933 0.218746,2.208348 0.625,4.90625 0.322912,2.145843 0.499995,3.489592 0.53125,4.03125 0.052078,0.895841 0.291661,2.333339 0.71875,4.34375 0.26041,1.250003 0.374994,2.031252 0.375,2.3125 -6e-06,0.458334 -0.156256,0.802084 -0.46875,1.0625 -0.302089,0.260417 -0.697922,0.40625 -1.21875,0.40625 -0.614587,0 -1.125004,-0.114583 -1.53125,-0.3125 C 95.635414,34.041667 95.406247,33.770834 95.375,33.40625 95.364581,33.145835 95.291664,32.489585 95.15625,31.4375 94.864581,29.239589 94.697915,27.562507 94.625,26.40625 94.562498,25.645842 94.343749,24.208344 94,22.125 c -0.541667,-3.281234 -0.8125,-5.604149 -0.8125,-6.96875 0,-1.916645 0.718749,-2.874978 2.15625,-2.875 z M 48.3125,14.1875 c 2.666652,2e-05 3.999984,0.645853 4,1.90625 -1.6e-05,0.822934 -0.479182,1.760433 -1.4375,2.8125 -0.94793,1.052098 -2.062512,1.906264 -3.375,2.5625 1.395821,-0.374987 2.916653,-0.562486 4.5625,-0.5625 1.520816,1.4e-05 2.677065,0.239597 3.5,0.75 0.822897,0.510429 1.24998,1.239595 1.25,2.15625 -2e-05,1.687509 -1.145853,3.385424 -3.40625,5.125 -2.260431,1.739587 -5.437512,3.395836 -9.53125,4.9375 -0.312507,0.114584 -0.55209,0.260417 -0.71875,0.4375 -0.229173,0.25 -0.468756,0.375 -0.75,0.375 -0.510422,0 -0.968755,-0.135417 -1.375,-0.375 -0.406254,-0.239583 -0.625004,-0.541666 -0.625,-0.9375 -4e-06,-0.541665 -0.19792,-2.156247 -0.59375,-4.8125 -0.208337,-1.427076 -0.343753,-2.406242 -0.40625,-2.9375 -0.260419,9e-06 -0.520836,-0.083324 -0.78125,-0.28125 -0.260419,-0.208324 -0.375002,-0.447907 -0.375,-0.6875 -2e-06,-0.385406 0.229165,-0.822906 0.71875,-1.3125 -3e-06,-0.374988 -0.125002,-1.229154 -0.40625,-2.5625 -0.218752,-1.020819 -0.364585,-1.697901 -0.40625,-2.0625 -2e-06,-0.031234 -0.062502,-0.083317 -0.1875,-0.15625 -0.395834,-0.239567 -0.593751,-0.499983 -0.59375,-0.78125 -1e-06,-0.364566 0.177082,-0.697899 0.5,-1 0.322915,-0.312482 1.499997,-0.770815 3.53125,-1.375 2.677076,-0.802063 4.96874,-1.21873 6.90625,-1.21875 z m -1.65625,2.125 c -0.520843,1.8e-05 -1.395842,0.197935 -2.625,0.5625 -1.218756,0.364601 -2.052089,0.6771 -2.46875,0.96875 0.031245,1.385432 0.187495,2.906264 0.46875,4.53125 0.708327,-0.270821 1.645826,-0.77082 2.78125,-1.5 1.145824,-0.729152 2.010406,-1.416652 2.625,-2.0625 0.624988,-0.656234 0.937488,-1.22915 0.9375,-1.71875 -1.2e-05,-0.510399 -0.562511,-0.781232 -1.71875,-0.78125 z m 25.09375,3.5 c 1.010408,1.5e-05 1.843741,0.385431 2.5,1.1875 0.666656,0.791679 1.208322,1.989595 1.625,3.59375 0.406238,1.302092 0.593738,3.104174 0.59375,5.40625 -1.2e-05,1.020837 -0.104178,2.031253 -0.3125,3 -0.125011,0.593751 -0.260428,0.947917 -0.40625,1.0625 -0.135428,0.104167 -0.322928,0.177084 -0.59375,0.25 -0.260427,0.072917 -0.489593,0.125 -0.6875,0.125 -0.479176,0 -0.885426,-0.104166 -1.1875,-0.3125 -0.291675,-0.218749 -0.437508,-0.520832 -0.4375,-0.90625 l 0.125,-1 c -0.583341,0.677085 -1.354174,1.208334 -2.3125,1.625 -0.958338,0.40625 -1.885421,0.625 -2.78125,0.625 -1.666668,0 -2.500001,-0.624999 -2.5,-1.84375 -1e-06,-1.822913 1.135415,-3.624994 3.40625,-5.4375 0.281246,-0.229159 0.677078,-0.562492 1.1875,-0.96875 0.520827,-0.406241 1.020827,-0.802074 1.53125,-1.1875 0.510409,-0.395823 0.895826,-0.614573 1.15625,-0.65625 -0.104175,-0.656239 -0.281258,-1.177072 -0.5625,-1.5625 -0.281257,-0.385405 -0.64584,-0.562488 -1.0625,-0.5625 -0.406256,1.2e-05 -0.885422,0.114596 -1.4375,0.375 -0.541671,0.250012 -0.958337,0.520845 -1.25,0.8125 -0.406253,0.406261 -0.687503,0.625011 -0.84375,0.625 -0.322919,1.1e-05 -0.645836,-0.135406 -0.96875,-0.40625 -0.312502,-0.270822 -0.468751,-0.583322 -0.46875,-0.9375 -1e-06,-0.489571 0.364581,-0.927071 1.0625,-1.3125 0.697913,-0.385403 1.531246,-0.760403 2.5,-1.09375 0.968744,-0.343735 1.677077,-0.499985 2.125,-0.5 z m 35.5,0 c 1.01041,1.5e-05 1.84374,0.385431 2.5,1.1875 0.66666,0.791679 1.20832,1.989595 1.625,3.59375 0.40624,1.302092 0.59374,3.104174 0.59375,5.40625 -1e-05,1.020837 -0.10418,2.031253 -0.3125,3 -0.12501,0.593751 -0.26043,0.947917 -0.40625,1.0625 -0.13543,0.104167 -0.32293,0.177084 -0.59375,0.25 -0.26043,0.072917 -0.48959,0.125 -0.6875,0.125 -0.47918,0 -0.88543,-0.104166 -1.1875,-0.3125 -0.29168,-0.218749 -0.43751,-0.520832 -0.4375,-0.90625 l 0.125,-1 c -0.58334,0.677085 -1.35417,1.208334 -2.3125,1.625 -0.95834,0.40625 -1.88542,0.625 -2.78125,0.625 -1.66667,0 -2.5,-0.624999 -2.5,-1.84375 0,-1.822913 1.13541,-3.624994 3.40625,-5.4375 0.28125,-0.229159 0.67708,-0.562492 1.1875,-0.96875 0.52083,-0.406241 1.02083,-0.802074 1.53125,-1.1875 0.51041,-0.395823 0.89583,-0.614573 1.15625,-0.65625 -0.10417,-0.656239 -0.28126,-1.177072 -0.5625,-1.5625 -0.28126,-0.385405 -0.64584,-0.562488 -1.0625,-0.5625 -0.40626,1.2e-05 -0.88542,0.114596 -1.4375,0.375 -0.54167,0.250012 -0.95834,0.520845 -1.25,0.8125 -0.40625,0.406261 -0.6875,0.625011 -0.84375,0.625 -0.32292,1.1e-05 -0.64584,-0.135406 -0.96875,-0.40625 -0.3125,-0.270822 -0.46875,-0.583322 -0.46875,-0.9375 0,-0.489571 0.36458,-0.927071 1.0625,-1.3125 0.69791,-0.385403 1.53125,-0.760403 2.5,-1.09375 0.96874,-0.343735 1.67708,-0.499985 2.125,-0.5 z m -22.0625,2.15625 c -0.375007,1.3e-05 -0.77084,0.135429 -1.15625,0.375 -0.375006,0.239595 -0.635422,0.552095 -0.8125,0.9375 -0.125005,0.260428 -0.260422,0.479177 -0.40625,0.65625 0.322911,4.010423 0.468745,6.625004 0.46875,7.84375 -5e-06,0.208336 0.135411,0.312502 0.375,0.3125 0.062494,2e-06 0.114577,-0.062497 0.1875,-0.15625 0.062494,-0.083331 0.145827,-0.156247 0.25,-0.21875 2.572908,-1.656246 3.87499,-3.520827 3.875,-5.59375 -1e-05,-1.260407 -0.302093,-2.249989 -0.875,-3 -0.562509,-0.760404 -1.187508,-1.156237 -1.90625,-1.15625 z m -34.5,1.0625 c -2.156262,1.2e-05 -4.864593,0.572928 -8.125,1.71875 0.114577,0.677092 0.312494,1.979174 0.59375,3.90625 0.218743,1.468754 0.343743,2.281254 0.375,2.4375 0.479159,-0.395829 1.343742,-0.739579 2.59375,-1.0625 1.687489,-0.447912 3.27082,-1.270828 4.75,-2.4375 1.479151,-1.166659 2.218733,-2.166658 2.21875,-3 -1.7e-05,-0.541656 -0.156266,-0.937489 -0.46875,-1.1875 -0.312516,-0.249989 -0.958349,-0.374988 -1.9375,-0.375 z m 22.28125,3.5625 c -2.802089,1.791673 -4.218754,3.364588 -4.21875,4.75 -4e-06,0.489586 0.281246,0.750002 0.8125,0.75 0.749994,2e-06 1.531243,-0.39583 2.34375,-1.1875 0.177076,-0.166663 0.406242,-0.343746 0.6875,-0.5 0.281242,-0.156246 0.437492,-0.218746 0.46875,-0.21875 -8e-06,-1.593744 -0.031258,-2.781243 -0.09375,-3.59375 z m 35.5,0 c -2.80209,1.791673 -4.21875,3.364588 -4.21875,4.75 0,0.489586 0.28125,0.750002 0.8125,0.75 0.74999,2e-06 1.53124,-0.39583 2.34375,-1.1875 0.17708,-0.166663 0.40624,-0.343746 0.6875,-0.5 0.28124,-0.156246 0.43749,-0.218746 0.46875,-0.21875 -1e-05,-1.593744 -0.03126,-2.781243 -0.09375,-3.59375 z"
         style="opacity:1;fill:#000000;fill-opacity:1;stroke:none" />
      <path
         id="path3216"
         d="M 51.40625,51.46875 C 23.033434,51.46875 0,62.732009 0,76.625 c -2e-06,6.022614 4.3482594,11.572736 11.5625,15.90625 -3.5689168,5.887453 21.931166,27.96936 24.09375,28.625 2.024245,0.6137 -14.38894,-14.87049 -10.8125,-22.96875 7.753436,2.29776 16.84425,3.625 26.5625,3.625 28.372815,0 51.40625,-11.294517 51.40625,-25.1875 0,-13.892987 -23.033434,-25.15625 -51.40625,-25.15625 z m 18.4375,12.8125 c 0.479163,2.2e-05 0.854163,0.145855 1.15625,0.40625 0.312496,0.250022 0.468745,0.552105 0.46875,0.9375 -5e-06,0.177104 -5e-06,0.50002 -0.03125,0.96875 -0.072921,1.114602 -0.125004,2.156268 -0.125,3.125 -4e-06,0.5521 0.072912,1.541682 0.21875,2.96875 0.124995,1.302096 0.197912,2.250012 0.21875,2.84375 0.208328,-0.822905 0.843744,-1.593737 1.90625,-2.34375 1.072909,-0.749986 2.218741,-1.124985 3.4375,-1.125 1.072905,1.5e-05 1.916655,0.614597 2.5,1.84375 0.58332,1.218761 0.874986,2.96876 0.875,5.28125 -1.4e-05,0.30209 -0.052097,1.093756 -0.15625,2.375 -0.114597,1.468754 -0.187513,2.437503 -0.1875,2.90625 -0.01043,0.572918 -0.187513,1.020834 -0.53125,1.34375 -0.343762,0.322917 -0.833345,0.5 -1.46875,0.5 -0.479177,-0.041666 -0.864594,-0.208333 -1.15625,-0.46875 -0.28126,-0.260416 -0.40626,-0.593749 -0.40625,-1 -1e-05,-0.312498 0.041657,-0.916664 0.125,-1.84375 0.145823,-1.645828 0.21874,-2.958327 0.21875,-3.9375 -1e-05,-1.333324 -0.12501,-2.447907 -0.375,-3.3125 -0.239593,-0.864572 -0.562509,-1.281238 -0.9375,-1.28125 -0.666675,1.2e-05 -1.416674,0.541678 -2.25,1.65625 -0.822922,1.104176 -1.218755,2.125008 -1.21875,3.0625 -5e-06,1.739589 0.114578,3.208338 0.34375,4.375 0.218744,1.156252 0.312494,1.822918 0.3125,2 -6e-06,0.78125 -0.427089,1.15625 -1.3125,1.15625 -0.489587,0 -0.864587,-0.041667 -1.09375,-0.125 -0.22917,-0.072917 -0.406253,-0.260416 -0.5625,-0.5625 -0.302086,-0.874999 -0.708336,-3.427079 -1.1875,-7.6875 -0.052085,-0.770824 -0.218751,-2.281239 -0.53125,-4.5 -0.468751,-3.354151 -0.71875,-5.583315 -0.71875,-6.6875 0,-1.020813 0.187499,-1.739562 0.5625,-2.1875 0.374999,-0.447895 1.020831,-0.687478 1.90625,-0.6875 z M 36.0625,64.3125 c 0.468747,2.2e-05 0.885413,0.104189 1.25,0.3125 0.374996,0.197938 0.562496,0.520855 0.5625,0.9375 l -0.0625,1.25 c -0.072921,1.125019 -0.093754,2.031268 -0.09375,2.71875 -4e-06,0.572933 0.187496,2.208348 0.59375,4.90625 0.322912,2.145843 0.499995,3.489592 0.53125,4.03125 0.052078,0.895841 0.291661,2.333339 0.71875,4.34375 0.26041,1.250003 0.406244,2.031252 0.40625,2.3125 -6e-06,0.458334 -0.156256,0.802084 -0.46875,1.0625 -0.302089,0.260417 -0.729172,0.40625 -1.25,0.40625 -0.614587,0 -1.125004,-0.114583 -1.53125,-0.3125 -0.395836,-0.208333 -0.593753,-0.479166 -0.625,-0.84375 -0.010419,-0.260415 -0.083336,-0.916665 -0.21875,-1.96875 -0.291669,-2.197911 -0.489585,-3.874993 -0.5625,-5.03125 -0.062502,-0.760408 -0.250001,-2.197906 -0.59375,-4.28125 -0.541667,-3.281234 -0.8125,-5.604149 -0.8125,-6.96875 0,-1.916645 0.718749,-2.874978 2.15625,-2.875 z m -11.53125,1.90625 c 2.666652,2e-05 3.999984,0.645853 4,1.90625 -1.6e-05,0.822934 -0.479182,1.760433 -1.4375,2.8125 -0.94793,1.052098 -2.093762,1.906264 -3.40625,2.5625 1.395821,-0.374987 2.916653,-0.562486 4.5625,-0.5625 1.520816,1.4e-05 2.708315,0.239597 3.53125,0.75 0.822897,0.510429 1.21873,1.239595 1.21875,2.15625 -2e-05,1.687509 -1.114603,3.385424 -3.375,5.125 -2.260431,1.739587 -5.437512,3.395836 -9.53125,4.9375 -0.312507,0.114584 -0.55209,0.260417 -0.71875,0.4375 -0.229173,0.25 -0.500006,0.375 -0.78125,0.375 -0.510422,0 -0.968755,-0.135417 -1.375,-0.375 -0.406254,-0.239583 -0.593754,-0.541666 -0.59375,-0.9375 -4e-06,-0.541665 -0.19792,-2.156247 -0.59375,-4.8125 -0.208336,-1.427076 -0.343753,-2.406242 -0.40625,-2.9375 -0.260419,9e-06 -0.520836,-0.083324 -0.78125,-0.28125 -0.260419,-0.208324 -0.406252,-0.447907 -0.40625,-0.6875 -2e-06,-0.385406 0.260415,-0.822906 0.75,-1.3125 -3e-06,-0.374988 -0.156252,-1.229154 -0.4375,-2.5625 -0.218752,-1.020819 -0.333335,-1.697901 -0.375,-2.0625 -2e-06,-0.031234 -0.062502,-0.083317 -0.1875,-0.15625 -0.395834,-0.239567 -0.593751,-0.499983 -0.59375,-0.78125 -1e-06,-0.364566 0.145832,-0.697899 0.46875,-1 0.322915,-0.312482 1.499997,-0.770815 3.53125,-1.375 2.677076,-0.802063 4.99999,-1.21873 6.9375,-1.21875 z m -1.6875,2.125 c -0.520843,1.8e-05 -1.395842,0.197935 -2.625,0.5625 -1.218756,0.364601 -2.020839,0.6771 -2.4375,0.96875 0.031245,1.385432 0.187495,2.906264 0.46875,4.53125 0.708327,-0.270821 1.614576,-0.77082 2.75,-1.5 1.145824,-0.729152 2.041656,-1.416652 2.65625,-2.0625 0.624988,-0.656234 0.937488,-1.22915 0.9375,-1.71875 -1.2e-05,-0.510399 -0.593761,-0.781232 -1.75,-0.78125 z m 25.09375,3.5 c 1.010408,1.5e-05 1.843741,0.385431 2.5,1.1875 0.666656,0.791679 1.208322,1.989595 1.625,3.59375 0.406238,1.302092 0.624988,3.104174 0.625,5.40625 -1.2e-05,1.020837 -0.104178,2.031253 -0.3125,3 -0.125011,0.593751 -0.260428,0.947917 -0.40625,1.0625 -0.135428,0.104167 -0.354178,0.177084 -0.625,0.25 -0.260427,0.072917 -0.489593,0.125 -0.6875,0.125 -0.479176,0 -0.854176,-0.104166 -1.15625,-0.3125 C 49.208325,85.937501 49.062492,85.635418 49.0625,85.25 l 0.09375,-1 c -0.583341,0.677085 -1.354174,1.208334 -2.3125,1.625 -0.958338,0.40625 -1.885421,0.625 -2.78125,0.625 -1.666668,0 -2.500001,-0.624999 -2.5,-1.84375 -1e-06,-1.822913 1.135415,-3.624994 3.40625,-5.4375 0.281246,-0.229159 0.677078,-0.562492 1.1875,-0.96875 0.520827,-0.406241 1.052077,-0.802074 1.5625,-1.1875 0.510409,-0.395823 0.895826,-0.614573 1.15625,-0.65625 -0.104175,-0.656239 -0.312508,-1.177072 -0.59375,-1.5625 -0.281257,-0.385405 -0.61459,-0.562488 -1.03125,-0.5625 -0.406256,1.2e-05 -0.885422,0.114596 -1.4375,0.375 -0.541671,0.250012 -0.958337,0.520845 -1.25,0.8125 -0.406253,0.406261 -0.687503,0.625011 -0.84375,0.625 -0.322919,1.1e-05 -0.645836,-0.135406 -0.96875,-0.40625 -0.312502,-0.270822 -0.468752,-0.583322 -0.46875,-0.9375 -2e-06,-0.489571 0.333331,-0.927071 1.03125,-1.3125 0.697913,-0.385403 1.531246,-0.760403 2.5,-1.09375 0.968744,-0.343735 1.677077,-0.499985 2.125,-0.5 z m 13.0625,0 c 1.010408,1.5e-05 1.843741,0.385431 2.5,1.1875 0.666656,0.791679 1.208322,1.989595 1.625,3.59375 0.406238,1.302092 0.624988,3.104174 0.625,5.40625 -1.2e-05,1.020837 -0.104178,2.031253 -0.3125,3 -0.125011,0.593751 -0.260428,0.947917 -0.40625,1.0625 -0.135428,0.104167 -0.354178,0.177084 -0.625,0.25 -0.260427,0.072917 -0.489593,0.125 -0.6875,0.125 -0.479176,0 -0.854176,-0.104166 -1.15625,-0.3125 C 62.270825,85.937501 62.124992,85.635418 62.125,85.25 l 0.09375,-1 c -0.583341,0.677085 -1.354174,1.208334 -2.3125,1.625 -0.958338,0.40625 -1.885421,0.625 -2.78125,0.625 -1.666668,0 -2.500001,-0.624999 -2.5,-1.84375 -1e-06,-1.822913 1.135415,-3.624994 3.40625,-5.4375 0.281246,-0.229159 0.677078,-0.562492 1.1875,-0.96875 0.520827,-0.406241 1.052077,-0.802074 1.5625,-1.1875 0.510409,-0.395823 0.895826,-0.614573 1.15625,-0.65625 -0.104175,-0.656239 -0.312508,-1.177072 -0.59375,-1.5625 -0.281257,-0.385405 -0.61459,-0.562488 -1.03125,-0.5625 -0.406256,1.2e-05 -0.885422,0.114596 -1.4375,0.375 -0.541671,0.250012 -0.958337,0.520845 -1.25,0.8125 -0.406253,0.406261 -0.687503,0.625011 -0.84375,0.625 -0.322919,1.1e-05 -0.645836,-0.135406 -0.96875,-0.40625 -0.312502,-0.270822 -0.468752,-0.583322 -0.46875,-0.9375 -2e-06,-0.489571 0.333331,-0.927071 1.03125,-1.3125 0.697913,-0.385403 1.531246,-0.760403 2.5,-1.09375 0.968744,-0.343735 1.677077,-0.499985 2.125,-0.5 z M 26.875,75.0625 c -2.156262,1.2e-05 -4.864593,0.572928 -8.125,1.71875 0.114577,0.677092 0.312494,1.979174 0.59375,3.90625 0.218743,1.468754 0.343743,2.281254 0.375,2.4375 0.479159,-0.395829 1.343742,-0.739579 2.59375,-1.0625 1.687489,-0.447912 3.27082,-1.270828 4.75,-2.4375 1.479151,-1.166659 2.218733,-2.166658 2.21875,-3 -1.7e-05,-0.541656 -0.156266,-0.937489 -0.46875,-1.1875 -0.312516,-0.249989 -0.958349,-0.374988 -1.9375,-0.375 z m 22.28125,3.5625 c -2.802089,1.791673 -4.187504,3.364588 -4.1875,4.75 -4e-06,0.489586 0.249996,0.750002 0.78125,0.75 0.749994,2e-06 1.531243,-0.39583 2.34375,-1.1875 0.177076,-0.166663 0.406242,-0.343746 0.6875,-0.5 0.281242,-0.156246 0.437492,-0.218746 0.46875,-0.21875 -8e-06,-1.593744 -0.031258,-2.781243 -0.09375,-3.59375 z m 13.0625,0 c -2.802089,1.791673 -4.187504,3.364588 -4.1875,4.75 -4e-06,0.489586 0.249996,0.750002 0.78125,0.75 0.749994,2e-06 1.531243,-0.39583 2.34375,-1.1875 0.177076,-0.166663 0.406242,-0.343746 0.6875,-0.5 0.281242,-0.156246 0.437492,-0.218746 0.46875,-0.21875 -8e-06,-1.593744 -0.031258,-2.781243 -0.09375,-3.59375 z m 23.4375,5.09375 c 0.437495,3e-06 0.822912,0.239586 1.1875,0.75 0.374994,0.500002 0.562494,0.968751 0.5625,1.40625 -6e-06,0.333334 -0.177089,0.625 -0.53125,0.875 -0.354172,0.25 -0.750005,0.374999 -1.21875,0.375 -1.260419,-1e-06 -1.906252,-0.5625 -1.90625,-1.71875 -2e-06,-0.427082 0.208331,-0.812498 0.59375,-1.15625 0.39583,-0.354164 0.83333,-0.531247 1.3125,-0.53125 z"
         style="opacity:1;fill:#000000;fill-opacity:1;stroke:none" />
    </g>
  </g>
</svg>
