<?xml version="1.0" encoding="UTF-8" standalone="no"?>
<!-- Created with Inkscape (http://www.inkscape.org/) -->
<svg
   xmlns:dc="http://purl.org/dc/elements/1.1/"
   xmlns:cc="http://creativecommons.org/ns#"
   xmlns:rdf="http://www.w3.org/1999/02/22-rdf-syntax-ns#"
   xmlns:svg="http://www.w3.org/2000/svg"
   xmlns="http://www.w3.org/2000/svg"
   xmlns:sodipodi="http://sodipodi.sourceforge.net/DTD/sodipodi-0.dtd"
   xmlns:inkscape="http://www.inkscape.org/namespaces/inkscape"
   width="128"
   height="128"
   id="svg2"
   sodipodi:version="0.32"
   inkscape:version="0.46+devel"
   version="1.0"
   sodipodi:docname="konversation.svg"
   inkscape:output_extension="org.inkscape.output.svg.inkscape">
  <defs
     id="defs4">
    <inkscape:perspective
       sodipodi:type="inkscape:persp3d"
       inkscape:vp_x="0 : 526.18109 : 1"
       inkscape:vp_y="0 : 1000 : 0"
       inkscape:vp_z="744.09448 : 526.18109 : 1"
       inkscape:persp3d-origin="372.04724 : 350.78739 : 1"
       id="perspective10" />
  </defs>
  <sodipodi:namedview
     id="base"
     pagecolor="#ffffff"
     bordercolor="#666666"
     borderopacity="1.0"
     inkscape:pageopacity="0.0"
     inkscape:pageshadow="2"
     inkscape:zoom="1.979899"
     inkscape:cx="87.976041"
     inkscape:cy="70.974012"
     inkscape:document-units="px"
     inkscape:current-layer="layer1"
     showgrid="true"
     showguides="true"
     inkscape:guide-bbox="true"
     inkscape:window-width="1066"
     inkscape:window-height="761"
     inkscape:window-x="513"
     inkscape:window-y="418"
     inkscape:snap-global="false">
    <inkscape:grid
       type="xygrid"
       id="grid3227"
       empspacing="5"
       visible="true"
       enabled="true" />
  </sodipodi:namedview>
  <metadata
     id="metadata7">
    <rdf:RDF>
      <cc:Work
         rdf:about="">
        <dc:format>image/svg+xml</dc:format>
        <dc:type
           rdf:resource="http://purl.org/dc/dcmitype/StillImage" />
      </cc:Work>
    </rdf:RDF>
  </metadata>
  <g
     inkscape:label="Ebene 1"
     inkscape:groupmode="layer"
     id="layer1">
    <path
       style="opacity:1;fill:#000000;fill-opacity:1;stroke:none"
       d="M 64 0 C 63.099365 0 62.204124 0.025415528 61.3125 0.0625 C 60.653627 0.084478067 59.996773 0.11830802 59.34375 0.15625 C 43.01722 1.1048549 28.574904 6.9842013 18.1875 15.625 C 6.8242296 25.077577 -2e-06 37.891573 0 52 C 0 66.108428 6.8242285 78.922423 18.1875 88.375 C 25.453999 94.419663 34.723098 99.115162 45.21875 101.71875 C 41.053707 108.22723 35.854495 113.80447 29.875 118.125 C 39.754148 124.3674 51.457909 128 64 128 C 76.542091 128 88.245852 124.3674 98.125 118.125 C 92.145505 113.80447 86.946293 108.22723 82.78125 101.71875 C 93.276902 99.115162 102.546 94.419663 109.8125 88.375 C 121.17577 78.922422 128 66.108427 128 52 C 128 37.891574 121.17577 25.077576 109.8125 15.625 C 99.425101 6.9842014 84.98278 1.1048549 68.65625 0.15625 C 68.003227 0.11830802 67.346372 0.084478068 66.6875 0.0625 C 65.798802 0.032855625 64.89874 0 64 0 z M 34.03125 13.1875 C 47.387162 24.886422 56 43.295288 56 64 C 55.999999 75.885269 53.132004 86.993594 48.1875 96.53125 C 39.879971 94.358089 32.308434 90.502949 26.03125 85.28125 C 15.948922 76.894233 9.5625 65.094492 9.5625 52 C 9.5624983 38.905508 15.948923 27.105768 26.03125 18.71875 C 28.505558 16.660489 31.19076 14.803536 34.03125 13.1875 z M 93.96875 13.1875 C 96.80924 14.803536 99.494443 16.660489 101.96875 18.71875 C 112.05107 27.105769 118.5 38.905507 118.5 52 C 118.5 65.094493 112.05108 76.894232 101.96875 85.28125 C 95.691565 90.50295 88.120029 94.35809 79.8125 96.53125 C 74.867996 86.993594 72 75.885269 72 64 C 72.000002 43.295289 80.612839 24.886423 93.96875 13.1875 z "
       id="path3239" />
    <path
       sodipodi:type="arc"
       style="opacity:1;fill:#000000;fill-opacity:1;stroke:none"
       id="path3299"
       sodipodi:cx="-133.0876"
       sodipodi:cy="36.581196"
       sodipodi:rx="17.425131"
       sodipodi:ry="14.142136"
       d="m -115.66247,36.581196 a 17.425131,14.142136 0 1 1 -34.850262,0 17.425131,14.142136 0 1 1 34.850262,0 z"
       transform="matrix(0.459107,0,0,0.5656854,93.101451,27.306551)" />
    <path
       transform="matrix(0.459107,0,0,0.5656854,157.10145,27.306551)"
       d="m -115.66247,36.581196 a 17.425131,14.142136 0 1 1 -34.850262,0 17.425131,14.142136 0 1 1 34.850262,0 z"
       sodipodi:ry="14.142136"
       sodipodi:rx="17.425131"
       sodipodi:cy="36.581196"
       sodipodi:cx="-133.0876"
       id="path3301"
       style="opacity:1;fill:#000000;fill-opacity:1;stroke:none"
       sodipodi:type="arc" />
  </g>
</svg>
