<?xml version="1.0" encoding="UTF-8" standalone="no"?>
<!-- Created with Inkscape (http://www.inkscape.org/) -->
<svg
   xmlns:dc="http://purl.org/dc/elements/1.1/"
   xmlns:cc="http://creativecommons.org/ns#"
   xmlns:rdf="http://www.w3.org/1999/02/22-rdf-syntax-ns#"
   xmlns:svg="http://www.w3.org/2000/svg"
   xmlns="http://www.w3.org/2000/svg"
   xmlns:sodipodi="http://sodipodi.sourceforge.net/DTD/sodipodi-0.dtd"
   xmlns:inkscape="http://www.inkscape.org/namespaces/inkscape"
   width="64"
   height="64"
   id="svg2"
   version="1.1"
   inkscape:version="0.46"
   sodipodi:docname="ksnapshot.svg"
   sodipodi:version="0.32"
   inkscape:output_extension="org.inkscape.output.svg.inkscape">
  <defs
     id="defs4">
    <inkscape:perspective
       sodipodi:type="inkscape:persp3d"
       inkscape:vp_x="0 : 526.18109 : 1"
       inkscape:vp_y="0 : 1000 : 0"
       inkscape:vp_z="744.09448 : 526.18109 : 1"
       inkscape:persp3d-origin="372.04724 : 350.78739 : 1"
       id="perspective10" />
  </defs>
  <sodipodi:namedview
     id="base"
     pagecolor="#ffffff"
     bordercolor="#666666"
     borderopacity="1.0"
     inkscape:pageopacity="0.0"
     inkscape:pageshadow="2"
     inkscape:zoom="2.8284271"
     inkscape:cx="28.238502"
     inkscape:cy="-0.32520486"
     inkscape:document-units="px"
     inkscape:current-layer="layer1"
     showgrid="true"
     inkscape:window-width="1440"
     inkscape:window-height="850"
     inkscape:window-x="-4"
     inkscape:window-y="-2"
     inkscape:window-maximized="1">
    <inkscape:grid
       type="xygrid"
       id="grid2816"
       empspacing="4"
       visible="true"
       enabled="true"
       snapvisiblegridlinesonly="true" />
  </sodipodi:namedview>
  <metadata
     id="metadata7">
    <rdf:RDF>
      <cc:Work
         rdf:about="">
        <dc:format>image/svg+xml</dc:format>
        <dc:type
           rdf:resource="http://purl.org/dc/dcmitype/StillImage" />
        <dc:title />
      </cc:Work>
    </rdf:RDF>
  </metadata>
  <g
     inkscape:label="Layer 1"
     inkscape:groupmode="layer"
     id="layer1"
     transform="translate(0,-988.36218)">
    <g
       id="g2393">
      <path
         transform="translate(0,988.36218)"
         id="rect2383"
         d="M 0 0.1875 L 0 64.34375 L 64.15625 64.34375 L 64.15625 0.1875 L 0 0.1875 z M 3.90625 4.09375 L 60.25 4.09375 L 60.25 60.4375 L 3.90625 60.4375 L 3.90625 4.09375 z "
         style="opacity:1;fill:#000000;fill-opacity:1;stroke:none;stroke-width:3.14299989;stroke-miterlimit:4;stroke-dasharray:none;stroke-dashoffset:0;stroke-opacity:1" />
      <path
         id="path2383"
         d="M 7.9082163,1004.4521 L 7.9082163,1017.205 L 10.87534,1017.205 L 10.87534,1006.3919 L 24.659319,1006.3919 L 24.659319,1004.4521 L 7.9082163,1004.4521 z M 39.532496,1004.4521 L 39.532496,1006.3919 L 53.354034,1006.3919 L 53.354034,1017.205 L 56.283598,1017.205 L 56.283598,1004.4521 L 39.532496,1004.4521 z M 7.9082163,1023.5194 L 7.9082163,1036.2722 L 24.659319,1036.2722 L 24.659319,1034.3325 L 10.87534,1034.3325 L 10.87534,1023.5194 L 7.9082163,1023.5194 z M 53.354034,1023.5194 L 53.354034,1034.3325 L 39.532496,1034.3325 L 39.532496,1036.2722 L 56.283598,1036.2722 L 56.283598,1023.5194 L 53.354034,1023.5194 z"
         style="opacity:1;fill:#000000;fill-opacity:1;stroke:none;stroke-width:3.14299989;stroke-miterlimit:4;stroke-dasharray:none;stroke-dashoffset:0;stroke-opacity:1" />
      <path
         transform="matrix(1.2018728,0,0,1.3206733,82.024738,975.52802)"
         d="M -36.062445,33.94796 A 5.4800777,5.4800777 0 1 1 -47.0226,33.94796 A 5.4800777,5.4800777 0 1 1 -36.062445,33.94796 z"
         sodipodi:ry="5.4800777"
         sodipodi:rx="5.4800777"
         sodipodi:cy="33.94796"
         sodipodi:cx="-41.542522"
         id="path2391"
         style="opacity:1;fill:none;fill-opacity:1;stroke:#000000;stroke-width:2;stroke-miterlimit:4;stroke-dasharray:none;stroke-dashoffset:0;stroke-opacity:1"
         sodipodi:type="arc" />
    </g>
  </g>
  <g
     inkscape:groupmode="layer"
     id="layer2"
     style="opacity:0.77167787" />
</svg>
