<?xml version="1.0" encoding="UTF-8" standalone="no"?>
<!-- Created with Inkscape (http://www.inkscape.org/) -->
<svg
   xmlns:dc="http://purl.org/dc/elements/1.1/"
   xmlns:cc="http://creativecommons.org/ns#"
   xmlns:rdf="http://www.w3.org/1999/02/22-rdf-syntax-ns#"
   xmlns:svg="http://www.w3.org/2000/svg"
   xmlns="http://www.w3.org/2000/svg"
   xmlns:sodipodi="http://sodipodi.sourceforge.net/DTD/sodipodi-0.dtd"
   xmlns:inkscape="http://www.inkscape.org/namespaces/inkscape"
   width="22"
   height="22"
   id="svg2"
   sodipodi:version="0.32"
   inkscape:version="0.46+devel"
   version="1.0"
   sodipodi:docname="ktorrent.svg"
   inkscape:output_extension="org.inkscape.output.svg.inkscape"
   inkscape:export-filename="/home/loki/MyFiles/Code/Bespin/icons/apps/juk.png"
   inkscape:export-xdpi="90"
   inkscape:export-ydpi="90">
  <defs
     id="defs4">
    <inkscape:perspective
       sodipodi:type="inkscape:persp3d"
       inkscape:vp_x="0 : 526.18109 : 1"
       inkscape:vp_y="0 : 1000 : 0"
       inkscape:vp_z="744.09448 : 526.18109 : 1"
       inkscape:persp3d-origin="372.04724 : 350.78739 : 1"
       id="perspective10" />
    <inkscape:perspective
       id="perspective18050"
       inkscape:persp3d-origin="372.04724 : 350.78739 : 1"
       inkscape:vp_z="744.09448 : 526.18109 : 1"
       inkscape:vp_y="0 : 1000 : 0"
       inkscape:vp_x="0 : 526.18109 : 1"
       sodipodi:type="inkscape:persp3d" />
  </defs>
  <sodipodi:namedview
     id="base"
     pagecolor="#ffffff"
     bordercolor="#666666"
     borderopacity="1.0"
     gridtolerance="10000"
     guidetolerance="10"
     objecttolerance="10"
     inkscape:pageopacity="0.0"
     inkscape:pageshadow="2"
     inkscape:zoom="11.2"
     inkscape:cx="11.950236"
     inkscape:cy="9.8820306"
     inkscape:document-units="px"
     inkscape:current-layer="layer1"
     showgrid="false"
     inkscape:window-width="768"
     inkscape:window-height="814"
     inkscape:window-x="189"
     inkscape:window-y="149" />
  <metadata
     id="metadata7">
    <rdf:RDF>
      <cc:Work
         rdf:about="">
        <dc:format>image/svg+xml</dc:format>
        <dc:type
           rdf:resource="http://purl.org/dc/dcmitype/StillImage" />
      </cc:Work>
    </rdf:RDF>
  </metadata>
  <g
     inkscape:label="Layer 1"
     inkscape:groupmode="layer"
     id="layer1">
    <g
       id="g3738"
       transform="matrix(1.0442889,0,0,1.0442889,-0.3543119,-0.4626509)">
      <path
         id="path3030"
         d="M 6.5852707,2.3185416 C 4.5597891,2.3976728 2.4144754,3.2165834 0.3392858,5.1995695 L 1.7860959,7.1878846 C 3.5212413,5.529834 5.0787205,4.9771395 6.6558468,4.9155245 8.232973,4.8539095 9.8697638,5.3286506 11.49031,5.9705489 c 1.620545,0.6418982 3.213859,1.4570708 4.86975,1.8665815 1.655892,0.4095107 3.437517,0.3816161 5.046192,-0.7709793 L 20.241746,4.8749467 C 19.235779,5.5957097 18.202962,5.6143076 16.854093,5.2807253 15.505225,4.9471429 13.909607,4.2146095 12.196071,3.5358773 10.482534,2.8571452 8.6107522,2.2394104 6.5852707,2.3185416 z"
         style="fill:#000000;fill-opacity:1;stroke:none" />
      <path
         style="fill:#000000;fill-opacity:1;stroke:none"
         d="m 6.5852707,13.882581 c -2.0254816,0.079131 -4.1707953,0.898042 -6.2459849,2.881028 l 1.4468101,1.988315 c 1.7351454,-1.65805 3.2926246,-2.210745 4.8697509,-2.27236 1.5771262,-0.061615 3.213917,0.413126 4.8344632,1.055024 1.620545,0.641899 3.213859,1.457071 4.86975,1.866582 1.655892,0.409511 3.437517,0.381616 5.046192,-0.770979 l -1.164506,-2.191205 c -1.005967,0.720763 -2.038784,0.739361 -3.387653,0.405779 C 15.505225,16.511182 13.909607,15.778649 12.196071,15.099917 10.482534,14.421185 8.6107522,13.80345 6.5852707,13.882581 z"
         id="path3806" />
      <path
         id="path3808"
         d="M 6.5852707,8.1452051 C 4.5597891,8.2243365 2.4144754,9.043247 0.3392858,11.026233 l 1.4468101,1.988315 c 1.7351454,-1.65805 3.2926246,-2.210745 4.8697509,-2.27236 1.5771262,-0.061615 3.213917,0.413126 4.8344632,1.055024 1.620545,0.641899 3.213859,1.457071 4.86975,1.866582 1.655892,0.409511 3.437517,0.381616 5.046192,-0.770979 L 20.241746,10.70161 c -1.005967,0.720763 -2.038784,0.739361 -3.387653,0.405779 C 15.505225,10.773806 13.909607,10.041273 12.196071,9.3625409 10.482534,8.683809 8.6107522,8.0660738 6.5852707,8.1452051 z"
         style="fill:#000000;fill-opacity:1;stroke:none" />
    </g>
  </g>
</svg>
