<?xml version="1.0" encoding="UTF-8" standalone="no"?>
<!-- Created with Inkscape (http://www.inkscape.org/) -->

<svg
   xmlns:dc="http://purl.org/dc/elements/1.1/"
   xmlns:cc="http://creativecommons.org/ns#"
   xmlns:rdf="http://www.w3.org/1999/02/22-rdf-syntax-ns#"
   xmlns:svg="http://www.w3.org/2000/svg"
   xmlns="http://www.w3.org/2000/svg"
   xmlns:xlink="http://www.w3.org/1999/xlink"
   xmlns:sodipodi="http://sodipodi.sourceforge.net/DTD/sodipodi-0.dtd"
   xmlns:inkscape="http://www.inkscape.org/namespaces/inkscape"
   width="64px"
   height="64px"
   id="svg2816"
   version="1.1"
   inkscape:version="0.47 r22583"
   sodipodi:docname="keyboard.svg">
  <defs
     id="defs2818">
    <inkscape:perspective
       sodipodi:type="inkscape:persp3d"
       inkscape:vp_x="0 : 32 : 1"
       inkscape:vp_y="0 : 1000 : 0"
       inkscape:vp_z="64 : 32 : 1"
       inkscape:persp3d-origin="32 : 21.333333 : 1"
       id="perspective2824" />
    <inkscape:perspective
       id="perspective2822"
       inkscape:persp3d-origin="0.5 : 0.33333333 : 1"
       inkscape:vp_z="1 : 0.5 : 1"
       inkscape:vp_y="0 : 1000 : 0"
       inkscape:vp_x="0 : 0.5 : 1"
       sodipodi:type="inkscape:persp3d" />
    <inkscape:perspective
       id="perspective2824-0"
       inkscape:persp3d-origin="32 : 21.333333 : 1"
       inkscape:vp_z="64 : 32 : 1"
       inkscape:vp_y="0 : 1000 : 0"
       inkscape:vp_x="0 : 32 : 1"
       sodipodi:type="inkscape:persp3d" />
    <radialGradient
       gradientTransform="matrix(11.936,0,0,8.3,-57.628,-63.945)"
       gradientUnits="userSpaceOnUse"
       xlink:href="#lg1"
       id="rg1"
       fy="15.716"
       fx="18.248"
       r="30"
       cy="15.716"
       cx="18.248" />
    <linearGradient
       id="lg1">
      <stop
         id="stop4147"
         offset="0"
         stop-color="#7fc0ff" />
      <stop
         id="stop4149"
         offset="0.155"
         stop-color="#7fc0ff" />
      <stop
         id="stop4151"
         offset="0.75"
         stop-color="#4074ae" />
      <stop
         id="stop4153"
         offset="1"
         stop-color="#36486c" />
    </linearGradient>
    <inkscape:perspective
       id="perspective4164"
       inkscape:persp3d-origin="235.705 : 80.723333 : 1"
       inkscape:vp_z="471.41 : 121.085 : 1"
       inkscape:vp_y="0 : 1000 : 0"
       inkscape:vp_x="0 : 121.085 : 1"
       sodipodi:type="inkscape:persp3d" />
  </defs>
  <sodipodi:namedview
     id="base"
     pagecolor="#ffffff"
     bordercolor="#666666"
     borderopacity="1.0"
     inkscape:pageopacity="0.0"
     inkscape:pageshadow="2"
     inkscape:zoom="8"
     inkscape:cx="22.306659"
     inkscape:cy="27.633947"
     inkscape:current-layer="layer1"
     showgrid="true"
     inkscape:document-units="px"
     inkscape:grid-bbox="true"
     inkscape:window-width="1337"
     inkscape:window-height="820"
     inkscape:window-x="93"
     inkscape:window-y="20"
     inkscape:window-maximized="0"
     inkscape:snap-global="true"
     showguides="false">
    <inkscape:grid
       type="xygrid"
       id="grid2826"
       empspacing="4"
       visible="true"
       enabled="true"
       snapvisiblegridlinesonly="true" />
  </sodipodi:namedview>
  <metadata
     id="metadata2821">
    <rdf:RDF>
      <cc:Work
         rdf:about="">
        <dc:format>image/svg+xml</dc:format>
        <dc:type
           rdf:resource="http://purl.org/dc/dcmitype/StillImage" />
        <dc:title></dc:title>
      </cc:Work>
    </rdf:RDF>
  </metadata>
  <g
     id="layer1"
     inkscape:label="Layer 1"
     inkscape:groupmode="layer">
    <text
       xml:space="preserve"
       style="font-size:40px;font-style:normal;font-weight:normal;fill:#000000;fill-opacity:1;stroke:none;font-family:Bitstream Vera Sans"
       x="-85.868149"
       y="86.743454"
       id="text3621"><tspan
         sodipodi:role="line"
         id="tspan3623"
         x="-85.868149"
         y="86.743454" /></text>
    <path
       style="fill:#000000"
       d="m 26.805795,8 c -0.331673,0.051288 -0.663106,0.130098 -0.999076,0.089484 -0.467212,-0.039048 -0.917644,0.189918 -1.384677,0.1789836 -0.397663,0.016128 -0.799258,0.00576 -1.191873,0.105768 -0.303624,-0.00552 -0.587756,0.111348 -0.882222,0.1871172 -0.244547,0.1220928 -0.527088,0.1308864 -0.753683,0.2847456 -0.0054,0.3030348 -0.436931,0.1981188 -0.630994,0.2928816 -0.175746,0.104652 -0.692082,-0.085836 -0.531671,0.3335592 -0.0093,0.36057 0.271658,0.469782 0.490773,0.4393224 0.324193,-0.055464 0.670766,-0.038796 0.975702,0.1301734 0.235195,0.210614 0.22529,0.665881 0.09348,0.968133 -0.105066,0.391553 0.50989,0.05577 0.403133,0.431188 -0.144331,-0.05233 -0.41491,-0.05148 -0.239545,0.235933 0.291474,0.379051 -0.282774,0.282338 -0.385608,0.536951 -0.200603,0.250444 -0.188686,0.66894 -0.09933,0.992538 -0.08693,0.448827 0.08844,0.889451 0.257078,1.252883 0.212387,0.01322 0.45183,-0.03912 0.578403,0.284747 0.25053,0.185361 0.417815,-0.271925 0.578412,-0.471864 0.05065,-0.38192 0.39949,-0.427414 0.484931,-0.805425 0.108621,-0.442318 0.47404,-0.347944 0.689417,-0.53695 0.269033,0.158287 0.624679,-0.151842 0.870539,-0.366102 0.20528,-0.333754 0.450992,-0.273942 0.730308,-0.333559 0.395241,-0.07056 0.763037,-0.284355 1.127609,-0.496271 0.220054,-0.254871 -0.452119,-0.184579 -0.192805,-0.390508 0.134987,0.343389 0.641559,0.275374 0.455724,-0.20339 -0.08526,-0.158546 -0.497229,-0.347682 -0.151906,-0.406779 0.310165,0.01203 0.629448,-0.131866 0.812108,-0.504406 0.200241,-0.179374 -0.183075,-0.5691028 0.15775,-0.5206804 0.23782,-0.106212 -0.01919,-0.352824 -0.04086,-0.3986424 C 28.212756,9.0848984 28.439817,8.9687216 28.66959,8.846102 28.8831,8.6688128 29.326331,8.78675 29.388219,8.4230528 29.031873,8.3472848 28.658741,8.3556848 28.295669,8.3661008 28.118991,8.4598208 28.182372,8.1189104 27.968484,8.1545768 27.591577,8.0095652 27.194138,7.9997396 26.805827,8 l -3.2e-5,0 z M 20.291377,8.1301736 C 18.60723,7.9996995 17.240905,10.570875 19.660405,9.38306 c 0.316332,-0.1379844 0.622386,-0.3224304 0.958169,-0.3416964 0.503675,-0.181716 1.000895,-0.3936972 1.507374,-0.5613564 0.146204,-0.030468 0.573316,-0.1580256 0.222012,-0.2603388 -0.518069,-0.166878 -1.044738,0.112272 -1.56579,-0.024408 -0.163409,-0.028908 -0.326624,-0.048684 -0.490772,-0.065088 l -2.1e-5,1.2e-6 z m 26.116084,1.2935556 c -0.231567,0.054396 -0.332048,0.4313496 -0.619312,0.3254232 -0.325684,0.032544 -0.644875,0.1319244 -0.964011,0.2196612 -0.138171,0.1327714 -0.531811,0.1498884 -0.362242,0.4474564 -0.249216,0.06899 -0.510868,0.0298 -0.759525,0.113892 -0.19257,0.138757 0.229772,0.46783 -0.09348,0.357963 -0.233704,0.01667 -0.450247,0.188553 -0.636836,-0.0895 -0.165834,-0.02292 -0.03822,0.249861 -0.22202,0.154577 -0.217056,-0.249407 -0.779294,-0.460216 -0.847164,0.04069 0.0226,0.193689 -0.310965,0.342345 -0.07597,0.520677 0.04397,0.365775 0.353642,0.351848 0.479089,0.56949 -0.407949,-0.154641 -0.787948,-0.524582 -1.226931,-0.455594 -0.167146,-0.0716 -0.340218,0.153536 -0.18112,0.317289 -0.290161,-0.102065 -0.587943,0.02194 -0.882214,0.07322 -0.267548,-0.229099 -0.50905,0.06405 -0.765374,0.162713 -0.190698,0.0091 -0.335783,0.159457 -0.420666,0.341695 -0.123574,0.0059 -0.427998,-0.151517 -0.169429,-0.227797 0.141713,-0.347814 -0.444311,-0.320412 -0.52583,-0.187118 0.114797,0.143184 0.04513,0.426825 0.146064,0.536948 -0.228654,0.04531 -0.522225,0.212176 -0.636835,0.455594 0.206218,0.328026 -0.264876,-0.04984 -0.368076,-0.04882 -0.257636,-0.05546 -0.09058,0.347878 -0.01165,0.366101 -0.335039,5.21e-4 -0.336437,-0.487225 -0.549197,-0.634577 0.282868,0.105971 0.593365,0.17983 0.882222,0.05696 0.324186,-0.069 0.265576,-0.608218 -0.03504,-0.658983 -0.396731,-0.290017 -0.857123,-0.302449 -1.273671,-0.512542 -0.157987,0.0082 -0.289789,-0.0072 -0.327184,-0.227798 -0.291847,-0.114024 -0.59986,-0.129778 -0.899746,-0.113892 -0.313722,-0.09685 -0.526435,0.219987 -0.812115,0.292883 -0.335216,-0.248885 -0.455482,0.400661 -0.753682,0.488135 -0.167519,0.397279 -0.514,0.558037 -0.636836,0.992543 -0.227155,0.307198 -0.476099,0.554587 -0.782899,0.658982 -0.215378,0.258258 -0.643469,0.290017 -0.508297,0.81356 0.165034,1.481792 0.462159,0.348296 1.057492,0.520679 0.07574,0.286371 0.214074,0.523085 0.350551,0.75661 0.134427,0.398058 -0.493289,0.200721 -0.245386,0.618303 -0.169943,0.137981 0.231132,0.353412 -0.04086,0.24407 -0.406264,-0.165576 -0.0571,-0.707472 -0.07597,-1.09017 -0.390499,1.101631 -1.353785,1.997584 -2.448012,2.676611 -0.126573,0.128095 -0.03434,0.499135 -0.297968,0.301017 -0.249409,-0.142933 -0.5764,0.263789 -0.210336,0.431185 0.361775,0.07419 0.644735,0.679941 0.479088,1.163389 -0.0038,0.571445 -0.478662,0.269387 -0.730316,0.284747 -0.306242,0.0045 -0.638746,-0.174689 -0.876372,0.162712 -0.04956,0.36187 0.039,0.792602 -0.0818,1.155253 -0.1333,0.240032 -0.125967,0.484881 -0.01756,0.732204 -0.135919,0.629762 0.523956,0.07946 0.595936,0.5939 0.26455,0.170261 0.56018,-0.141164 0.847165,-0.105763 0.227348,-0.16766 0.492783,-0.523608 0.48493,-0.854239 -0.0087,-0.348593 0.282261,-0.697839 0.531671,-0.797289 3.923997,-1.569399 1.063978,2.12416 3.114063,0.764727 -0.04972,-0.187705 -0.08077,-0.565653 0.140222,-0.349831 0.272216,0.214779 0.153124,-0.341892 -0.04676,-0.366104 -0.255206,-0.17625 -0.46544,-0.405737 -0.712792,-0.602033 -0.06541,-0.316832 -0.542275,-0.617068 -0.292119,-0.919321 0.315773,-0.165577 0.462908,0.42715 0.701101,0.610169 0.247157,0.125992 0.484651,0.349116 0.636835,0.650847 0.03084,0.426697 0.144704,0.820198 0.350551,1.155255 0.05224,0.14777 0.296045,0.103049 0.444068,0.154574 0.206964,0.286896 0.388225,-0.118584 0.175279,-0.341692 0.03682,-0.210615 -0.172988,-0.473687 0.08764,-0.504408 0.105632,-0.217383 0.430756,0.01282 0.514138,0.04069 -0.248283,0.230919 0.235428,0.574177 -0.01756,0.764747 0.502628,0.866278 1.503713,0.690486 2.091626,0.854203 0.03441,0.387385 -0.06238,0.727516 -0.13438,1.090169 0.01593,0.527967 -0.382337,0.763639 -0.677734,0.46373 -0.288297,-0.222591 -0.525309,0.393631 -0.812107,0.06508 -0.2997,-0.105414 -0.608233,-0.172738 -0.893912,-0.341694 -0.196681,-0.13928 -0.412012,-0.361091 -0.648519,-0.195256 -0.269973,0.06457 -0.306055,0.4252 -0.257069,0.724068 -0.272218,0.287674 -0.499512,-0.363108 -0.812108,-0.252204 -0.153311,-0.211395 -0.262639,-0.603336 -0.555044,-0.504407 -0.267355,0.03359 -0.533443,-0.13791 -0.706943,-0.414914 0.368914,-1.378988 -0.0095,-0.691015 -0.788742,-1.10643 -0.231085,0.182498 -0.463755,-0.05714 -0.712792,0.08135 -0.255383,0.118968 -0.577751,-0.0097 -0.777049,0.292883 -0.234076,0.258516 -0.500312,0.358875 -0.794589,0.276611 -0.227341,0.200719 -0.378547,-0.489634 -0.531664,-0.0244 -0.09292,0.530832 -0.496194,0.681501 -0.724475,1.065763 -0.209583,0.363433 -0.04863,0.887886 -0.333026,1.187795 -0.176118,0.378013 -0.634777,0.25943 -0.636835,0.797289 -0.176306,0.17625 -0.4273,0.343777 -0.338868,0.732203 -0.206965,0.380875 -0.486935,0.756871 -0.549196,1.277289 -0.0275,0.285591 0.237626,0.421878 0.116856,0.764746 0.126946,0.444138 -0.0023,0.931818 -0.128539,1.342373 -0.164155,0.221287 -0.09287,0.417192 0.02921,0.634574 -0.189766,0.523804 0.174619,0.810566 0.397291,1.122715 0.161164,0.258775 0.351583,0.500501 0.385608,0.862372 0.08189,0.402224 0.441553,0.437696 0.555037,0.821694 0.264178,0.145264 0.420992,0.590319 0.718633,0.634577 0.342697,-0.128345 0.685162,-0.410491 1.04581,-0.219661 0.31279,0.19942 0.597623,-0.209377 0.899747,-0.301017 0.267354,-0.173645 0.631934,-0.309673 0.888063,-0.04882 0.08395,0.220767 0.241976,0.40268 0.3564,0.57763 0.149753,0.168436 0.681005,-0.21296 0.782899,0.162709 0.178914,0.59826 -0.292033,1.332611 -0.163596,1.879322 0.169577,0.515211 0.516485,0.86335 0.689417,1.374917 -0.02447,0.477981 0.34429,0.819284 0.268761,1.301695 -0.08713,0.39259 0.217902,0.739622 0.105163,1.138982 -0.203788,0.349635 -0.310918,0.72843 -0.373925,1.171525 -0.07814,0.340784 -0.134846,0.7214 -0.07597,1.073899 0.140968,0.33037 0.231132,0.692698 0.356399,1.03322 0.195181,0.345729 0.321429,0.708252 0.239538,1.155254 0.07927,0.404827 0.06044,0.84109 0.192803,1.228475 0.148076,0.356143 0.425948,0.593704 0.426507,1.057627 0.03216,0.30642 0.338868,0.630345 0.105163,0.88678 0.03962,0.42331 0.299886,0.827683 0.630994,0.593898 0.321195,-0.102055 0.651742,-0.07934 0.981544,-0.154575 0.263991,-0.09685 0.543588,-0.196037 0.736158,-0.488136 0.211447,-0.318657 0.453796,-0.601838 0.590095,-1.000679 0.09572,-0.282728 0.345221,-0.404371 0.385608,-0.724068 0.158538,-0.285591 -0.02315,-0.755634 0.192804,-0.927457 0.318391,-0.01744 0.531663,-0.415176 0.531663,-0.837967 0.09535,-0.452728 -0.328209,-0.973146 0.01165,-1.301694 0.24137,-0.263723 0.403887,-0.644925 0.70695,-0.789154 0.306615,-0.240552 0.579531,-0.682087 0.531664,-1.204067 -0.0557,-0.457675 0.0016,-0.945943 -0.05259,-1.383049 -0.278944,-0.307201 -0.212574,-0.864587 -0.163588,-1.269154 -0.328116,-0.348855 0.05624,-0.771254 0.13438,-1.155255 0.04839,-0.413677 0.380791,-0.532784 0.484931,-0.894914 0.214251,-0.413419 0.425287,-0.870249 0.765366,-1.098307 0.471702,-0.427733 0.698584,-1.176537 0.923121,-1.863049 0.13629,-0.435027 0.337181,-0.864262 0.315493,-1.358644 0.0903,-0.338181 -0.129285,-0.556344 -0.315493,-0.292882 -0.258569,0.17781 -0.559668,0.1161 -0.782899,0.325422 -0.208271,-0.1536 -0.438936,0.26366 -0.601778,-0.138301 -0.08975,-0.315268 -0.136626,-0.671801 -0.368083,-0.894914 -0.12917,-0.375653 -0.414476,-0.439565 -0.607607,-0.699646 -0.126759,-0.398318 -0.134473,-0.875193 -0.449872,-1.098303 -0.138724,-0.377493 -0.0782,-0.851245 -0.239545,-1.228476 -0.21332,-0.358487 -0.40617,-0.712872 -0.502456,-1.179661 -0.127318,-0.343649 -0.300306,-0.852348 -0.379766,-1.106441 0.11068,0.211655 0.298714,0.2565 0.297969,-0.05696 0.100586,0.34547 0.309938,0.675125 0.461564,1.01695 0.116101,0.426176 0.395092,0.677532 0.51998,1.09017 0.100213,0.333752 0.06898,0.78056 0.327184,0.984408 0.277631,0.205406 0.272163,0.694842 0.508297,0.943726 0.20416,0.279604 0.102262,0.717561 0.233703,1.049492 0.03962,0.335057 0.05064,0.785899 0.397291,0.675254 0.276699,-0.183799 0.557796,-0.358161 0.853005,-0.48 0.199493,-0.309542 0.519235,-0.238795 0.753692,-0.463729 0.119092,-0.173645 0.03045,-0.466852 0.274594,-0.463729 0.208464,-0.129653 0.442401,-0.16154 0.566728,-0.439321 0.209583,-0.06014 0.261319,-0.364019 0.461557,-0.463728 -0.07364,-0.391291 0.214865,-0.526537 0.286285,-0.862375 0.150871,-0.275177 -0.02346,-0.528423 -0.151905,-0.740337 -0.115543,-0.279345 -0.396499,-0.02765 -0.461564,-0.398645 -0.160411,-0.143703 -0.154429,-0.919778 -0.350551,-0.455594 -0.102454,0.504018 -0.505073,0.686905 -0.829639,0.504408 -0.02726,-0.141106 0.06501,-0.71665 -0.16943,-0.642712 -0.04584,0.119244 -0.180367,0.324641 -0.13438,0.03254 -0.03457,-0.477201 -0.491611,-0.610364 -0.525822,-1.122714 0.03232,-0.604767 0.60421,-0.207685 0.601779,0.235934 0.166951,0.442056 0.587103,0.638221 0.917271,0.764745 0.19351,-0.03748 0.466893,-0.330629 0.496614,0.130169 0.247724,0.348594 0.685308,0.267371 1.016601,0.39051 0.368875,0.04712 0.729338,-0.130168 1.098393,-0.09764 0.114236,0.372024 0.37411,0.59175 0.584253,0.846102 0.136858,0.104127 0.29914,0.0692 0.07014,0.154576 -0.07256,0.282987 0.295537,0.390443 0.368083,0.642714 0.242303,0.118176 0.426219,-0.185232 0.414816,-0.471868 0.01685,0.460801 0.105354,0.90123 0.151905,1.358646 0.06285,0.413677 0.193884,0.789672 0.30381,1.179661 0.222858,0.414458 0.256797,0.951667 0.455722,1.383049 0.143027,0.340524 0.182286,0.777698 0.397291,1.049493 0.255011,0.007 0.444964,-0.411205 0.56088,-0.699661 0.173686,-0.197076 -0.04381,-0.601318 0.111006,-0.87051 0.104138,-0.364734 -0.07542,-0.745285 -0.01165,-1.098303 0.282681,-0.210356 0.480813,-0.522502 0.695259,-0.846103 0.140409,-0.411856 0.484651,-0.57216 0.636836,-0.935591 -0.04653,-0.505841 0.482126,-0.367339 0.718625,-0.520681 0.320263,-0.395715 0.315921,0.400207 0.531671,0.593898 0.182845,0.254352 0.358171,0.51046 0.438191,0.870508 0.105632,0.343389 -0.06751,0.829897 0.303809,0.870511 0.159852,-0.100735 0.369854,-0.291387 0.379767,-0.463731 0.135172,0.417065 0.231737,0.85463 0.385607,1.261019 0.157048,0.406129 0.04856,0.855277 0.08764,1.277287 -0.02952,0.324644 -0.08534,0.752834 0.175272,0.837968 0.177423,0.34677 0.361394,0.709489 0.397291,1.147117 0.09535,0.364214 0.18481,0.792146 0.479088,0.935594 0.129378,0.196815 0.460252,0.309672 0.368076,-0.113892 -0.222106,-0.416542 -0.04894,-1.029967 -0.368076,-1.374914 -0.233144,-0.303296 -0.537559,-0.511372 -0.590094,-0.984408 -0.0054,-0.342345 -0.347654,-0.318849 -0.222021,-0.707796 0.115729,-0.311626 0.05982,-0.782708 0.163597,-1.025086 0.08488,0.155424 0.141759,0.361091 0.333018,0.292884 0.159105,0.205405 0.298162,0.442768 0.391449,0.707796 0.113306,0.143183 0.15481,0.194408 0.280444,0.187118 0.06898,0.187183 0.01507,0.823712 0.268759,0.488135 0.19369,-0.252268 0.261272,-0.584722 0.525823,-0.683388 0.214073,-0.165316 0.325405,-0.512088 0.26876,-0.846103 -0.08563,-0.428517 -0.155929,-0.875454 -0.397291,-1.195932 -0.193511,-0.311105 -0.422064,-0.57997 -0.572571,-0.935593 -0.05942,-0.408734 0.226782,-1.000679 0.537513,-0.935595 0.189767,-0.02916 0.290628,0.727063 0.408975,0.284747 -0.07796,-0.498548 0.510029,-0.159003 0.630993,-0.577625 1.140775,-0.40608 1.244342,-1.591696 1.419735,-2.782375 -0.04972,-0.205928 -0.355693,-0.06221 -0.128539,-0.292881 0.03029,-0.475639 -0.370647,-0.707536 -0.479081,-1.130849 -0.06191,-0.265545 -0.288716,-0.318913 -0.403141,-0.42305 0.05159,-0.336099 0.276001,-0.56884 0.496614,-0.683389 0.02152,-0.308502 -0.343815,-0.139221 -0.467397,-0.317289 -0.137232,0.08097 -0.288158,0.340393 -0.356392,-0.01625 -0.01647,-0.293401 -0.443986,-0.06436 -0.368084,-0.366102 0.313722,0.06275 0.268761,-0.840178 0.595937,-0.528812 7.76e-4,0.225713 0.04319,0.81154 0.280444,0.463727 0.16901,-0.359005 0.72181,-0.217967 0.601777,0.284745 0.121525,0.316315 0.645256,0.06891 0.496614,0.610171 0.168078,0.21504 0.151633,0.576195 0.280444,0.821695 0.214818,-0.09424 0.697271,-0.166683 0.502455,-0.626442 -0.137417,-0.471994 -0.404204,-0.84864 -0.7011,-1.130845 -0.213693,-0.32048 0.336761,-0.506035 0.14607,-0.90305 -0.04094,-0.315272 0.195135,-0.584398 0.368068,-0.31729 0.363461,0.118704 0.430671,-0.462687 0.479089,-0.821696 0.117609,-0.339482 0.112552,-0.712548 0.163596,-1.073898 0.128811,-0.446741 -0.163177,-0.774247 -0.321342,-1.106441 -0.07457,-0.133287 -0.116615,-0.471603 0.02921,-0.178982 0.217243,0.189527 0.319983,0.530701 0.47909,0.797289 0.126937,0.296523 0.277818,0.575088 0.397282,0.878643 0.08357,0.339741 0.290589,0.390964 0.426507,0.122037 -0.161724,-0.277523 -0.431455,-0.469716 -0.48493,-0.854237 0.123209,-0.02604 0.241883,-0.117732 0.06424,-0.268476 -0.351669,-0.232483 -0.497267,-0.788435 -0.788741,-1.122712 -0.16508,-0.07004 -0.293851,-0.610624 -0.438182,-0.439322 0.0023,0.179114 0.149287,0.578734 -0.03503,0.260339 -0.199485,-0.182235 -0.520921,-0.43613 -0.730317,-0.268474 0.02392,0.266587 -0.369295,-0.02726 -0.379766,-0.219661 -0.183964,-0.03334 -0.401075,-0.03886 -0.216171,-0.33356 0.07738,-0.378271 0.153264,-0.773402 0.297968,-1.098305 0.321389,-0.120283 0.660202,0.0081 0.987387,-0.07323 0.316713,-0.236389 0.585465,0.229619 0.899746,0.130169 0.154997,-7.8e-4 0.540876,-0.132717 0.233703,-0.317289 -0.177609,-0.180674 -0.05562,-0.756999 0.22202,-0.577627 0.261364,-0.02004 0.561112,0.62384 0.730309,0.04069 0.202296,-0.06874 -0.197986,-0.462232 0.02338,-0.276611 0.08226,0.249145 0.340825,0.465488 0.09348,0.683389 -0.09684,0.284552 0.135591,0.629175 -0.157747,0.74034 -0.143399,0.286374 0.123156,0.697969 0.274594,0.943729 0.195003,0.263464 0.419539,0.49061 0.584253,0.797289 0.604129,1.319133 0.600167,-0.106024 0.782899,-0.138305 -0.0023,-0.162971 -0.29166,-0.362913 -0.04676,-0.390509 0.206033,-0.353541 -0.282074,-0.472905 -0.22786,-0.829829 -0.128624,-0.30616 -0.339893,-0.438282 -0.56088,-0.536951 -0.02882,-0.181976 -0.190559,-0.536102 0.06425,-0.46373 0.140594,-0.230137 0.332606,0.303297 0.420665,-0.13017 0.205839,-0.05727 0.48072,0.269125 0.613461,-0.105763 0.08469,-0.477982 0.421318,-0.634968 0.736158,-0.55322 0.322508,-0.244458 -0.216357,-0.394869 -0.356392,-0.479999 -0.166393,-0.105425 -0.394113,-0.218881 -0.140222,-0.414916 0.212201,-0.270232 0.492552,0.07726 0.736159,0.122037 0.181727,0.10128 0.769949,0.374109 0.590103,-0.130169 -0.189589,-0.148398 0.182658,-0.165186 -0.04676,-0.309152 -0.357845,-0.351197 -0.819075,-0.296266 -1.215247,-0.488136 -0.420278,-0.271272 -0.874967,-0.411075 -1.332095,-0.488136 -0.536193,-0.178593 -1.089047,-0.223175 -1.635906,-0.301017 -0.170136,-0.04347 -0.363453,0.0013 -0.303809,0.227797 -0.533023,-0.1989 -1.096147,-0.074 -1.635904,-0.203389 -0.259688,-0.267109 -0.590143,-0.27264 -0.899755,-0.33356 -0.340266,0.0072 -0.705164,0.108622 -1.022436,-0.122038 -0.330547,-0.09842 -0.650344,-0.248036 -0.993227,-0.252203 -0.334471,-0.04296 -0.67138,-0.07941 -1.004919,-0.130173 -0.106368,-7.79e-4 -0.257489,0.232093 -0.09933,0.309153 -0.291847,-0.05936 -0.569245,0.09237 -0.85884,0.05696 -0.189393,-0.159588 -0.332606,-0.03899 -0.233702,0.203388 -0.346077,-0.14605 -0.535734,-0.587911 -0.876381,-0.724066 -0.252774,-0.08878 -0.518682,0.09717 -0.753683,-0.122032 -0.139484,-0.08954 -0.281981,0.07478 -0.262918,0.170848 -0.26006,-0.01412 -0.515312,-0.09126 -0.777057,-0.08135 -0.319696,-0.03826 -0.64239,-0.0589 -0.958171,-0.138312 -0.199492,0.0341 -0.423143,0.277328 -0.613469,0.170847 0.133868,-0.219205 0.71186,-0.448953 0.315501,-0.7322034 -0.347373,-0.2783244 -0.761536,-0.104928 -1.127608,-0.2929044 -0.22379,-0.017448 -0.432441,-0.1502148 -0.65436,-0.1627092 -0.03931,-0.00768 -0.07793,-0.00768 -0.111014,0 l 4e-5,2.62e-5 z M 18.252343,10.880014 c -0.28923,0.128861 0.04009,-0.390179 -0.251228,-0.349826 -1.713218,0.805985 -3.411602,1.517022 -5.451391,1.619015 -0.301199,0.102578 -0.665492,0.167659 -0.993227,0.13017 -0.79877,-0.96941 -2.3986492,-0.606747 -3.7742375,-0.545151 -0.2643639,-0.07893 -0.5013839,-0.2721 -0.7887409,-0.195299 -0.3357827,0.01252 -0.6544145,-0.148785 -0.9873929,-0.178983 -0.2613656,-0.08696 -0.5343279,-0.177944 -0.794582,-0.04882 -0.3784078,0.04063 -0.7755122,-0.0035 -1.1217589,0.252204 -0.2976419,0.110652 -0.5760272,0.322233 -0.8880637,0.34983 -0.2037879,0.0037 -0.4924111,0.190373 -0.2979757,0.496272 0.059659,0.174947 0.2716578,0.327636 0,0.341695 -0.2514605,0.09502 -0.4921701,-0.12776 -0.759525,0.04069 -0.2538917,-0.0211 -0.5936446,0.215105 -0.4498728,0.593897 0.2185551,-0.03619 0.6321589,0.0153 0.7303168,-0.0082 -0.1787361,0.249926 -0.4337546,0.209573 -0.6543682,0.325424 -0.2626779,0.110124 -0.5174557,0.248818 -0.7653664,0.414916 -0.2755806,0.05468 -0.45917937,0.457545 -0.44403152,0.797287 0.0843147,0.217122 0.50315452,-0.134333 0.21617033,0.162712 C 0.54505133,15.432698 1.0455492,15.233278 1.1743596,15.27311 1.5236051,15.34443 0.96791496,15.543797 0.86470815,15.622941 0.55377137,15.750362 0.32568477,16.118807 0,16.184413 c -0.07084486,0.150215 0.30058608,0.15425 0.39144163,0.08135 C 0.83454111,15.941641 1.3201243,15.738318 1.7761265,15.452205 2.1276091,15.320477 2.4015968,15.009238 2.74598,14.85017 c 0.1161015,-0.08121 0.2801635,-0.153339 0.081803,0 -0.2503416,0.189528 -0.014133,0.357903 0.1519052,0.219661 0.2509015,-0.108043 0.5645765,-0.120477 0.6952592,-0.479998 0.2982019,-0.307983 0.4803013,0.248233 0.7945821,0.178982 0.2092108,0.123401 0.5354543,0.02793 0.6309947,0.366102 0.00309,0.333234 0.4780089,0.260338 0.2512269,0.618306 0.1232097,0.257994 0.1073163,0.52738 0.140222,0.805421 -0.2256632,0.209575 -0.059499,0.630672 -0.1226892,0.927458 -0.2222989,0.474598 0.3279683,0.557061 0.3797582,1.000679 0.096469,0.427736 -0.1645666,-0.19623 -0.1928034,-0.34983 -0.1607841,-0.222851 -0.5802298,-0.160434 -0.3622339,0.252203 0.3709336,0.344689 0.069835,0.934357 -0.099317,1.334237 -0.1950018,0.40769 -0.4366906,0.767349 -0.648519,1.155254 -0.062848,0.277523 -0.1607372,0.533241 -0.2979683,0.756609 -0.1746263,0.470174 0.083893,0.926353 -0.00544,1.40746 0.030837,0.367077 -0.034955,0.874282 0.3330265,0.886779 0.2959565,0.198378 0.2415948,0.676231 0.2862765,1.057626 -0.061675,0.412378 0.20267,0.70207 0.2103372,1.065765 -0.371307,0.189785 0.017792,0.681825 0.2336952,0.715932 0.074571,0.267108 -0.048779,0.63386 0.2337026,0.740337 0.072011,0.137466 0.2351479,0.624294 0.2979682,0.195257 -0.1607841,-0.431123 -0.236973,-0.907933 -0.3388675,-1.383053 -0.0376,-0.490737 -0.4107523,-0.889838 -0.2336951,-1.399322 0.1308694,-0.154902 0.3815374,0.08684 0.2979683,0.374238 -0.052352,0.518075 0.2974477,0.855865 0.397291,1.317966 0.05648,0.286632 0.078197,0.538119 0.2862776,0.715931 0.1677057,0.294184 0.2914744,0.642582 0.3972984,0.984409 0.00309,0.357965 -0.2108023,0.878902 0.1519052,1.073897 0.2509016,0.310063 0.5624251,0.503105 0.8471645,0.764746 0.3000728,0.149697 0.5887824,0.429429 0.9172712,0.40678 0.2034146,-0.105971 0.456282,-0.166356 0.595944,0.130169 0.1548023,0.313707 0.3802713,0.544434 0.6309862,0.561355 0.2342626,0.370463 0.7295255,0.148914 0.8179575,0.748476 0.08917,0.322038 0.258382,-0.136213 0.327183,0.154575 -0.274275,0.03958 -0.219588,0.64961 0.05842,0.658983 0.226037,0.193952 0.338534,0.584071 0.648519,0.569491 0.114044,0.293404 0.451272,0.251488 0.368075,-0.130169 0.170697,-0.365516 0.476984,-0.0382 0.426507,0.301018 0.205847,0.370721 0.173967,0.872135 0.105163,1.301694 -0.07139,0.378532 -0.332932,0.569883 -0.39145,0.943728 -0.323812,0.04556 -0.235846,0.576846 -0.408974,0.870508 -0.08226,0.29783 0.122969,0.528162 0.181113,0.707798 -0.197425,0.240032 -0.37415,0.595329 -0.192796,0.935594 -0.02897,0.374627 0.343256,0.393109 0.397291,0.748475 0.151811,0.463662 0.377614,0.854559 0.531663,1.317964 0.170324,0.450387 0.301433,0.940018 0.543354,1.3261 0.17145,0.349638 0.506619,0.358292 0.742001,0.593899 0.216504,0.244718 0.50891,0.459889 0.537512,0.894917 0.09311,0.708381 0.04001,1.436289 0.116856,2.147796 0.009,0.35432 0.07426,0.700181 0.02338,1.057627 -0.0079,0.429299 0.02315,0.869401 0.111006,1.285424 0.06354,0.407172 0.102549,0.825014 0.03503,1.236612 0.03162,0.380874 -0.122409,0.775353 0.02921,1.114575 0.1247,0.422008 0.0946,0.908126 0.257069,1.309829 0.372798,0.104379 0.286517,0.755634 0.385607,1.155256 -0.0062,0.49074 0.31989,0.867642 0.280443,1.358643 0.106187,0.429037 0.354847,0.745677 0.444033,1.179661 0.16546,0.327506 0.510355,0.698164 0.741999,0.252204 0.153498,-0.07056 0.03363,0.327441 0.227854,0.317288 0.05741,0.472254 0.383744,0.35536 0.642685,0.390508 0.187141,0.135125 0.606027,-0.04372 0.222012,-0.195253 -0.272404,-0.152819 -0.598928,-0.338832 -0.689418,-0.764747 -0.218741,-0.250706 -0.410194,-0.612708 -0.210328,-0.992543 0.02804,-0.28507 0.426879,-0.578409 0.122689,-0.837965 -0.272405,-0.03359 -0.579484,-0.475315 -0.222012,-0.707796 0.312968,-0.126787 -0.133262,-0.867906 0.239544,-0.772881 0.151998,-0.425656 -0.363314,-0.1469 -0.3564,-0.561358 -0.03798,-0.23795 0.35177,0.176771 0.455722,-0.06508 0.295398,-0.154641 -0.215478,-0.847014 0.128532,-0.732204 0.316713,0.01641 0.79215,-0.08161 0.817956,-0.634576 0.09984,-0.326465 -0.139802,-0.597218 -0.251228,-0.846102 -0.112924,-0.05755 -0.298248,-0.240422 -0.05259,-0.113892 0.310351,0.133038 0.760317,0.323472 0.882222,-0.276611 0.198179,-0.316052 0.10128,-1.033219 0.414816,-1.130846 0.120219,-0.225193 0.15798,-0.568058 0.350551,-0.748474 0.127699,-0.400402 -0.124982,-0.840374 0.01165,-1.23661 0.18304,-0.369162 0.516439,-0.450257 0.777057,-0.66712 0.306615,-0.0966 0.640339,-0.09685 0.794582,-0.553219 -0.0031,-0.469651 0.282362,-0.830612 0.239545,-1.317966 0.160038,-0.429559 0.11068,-0.91776 0.04676,-1.374917 -0.02206,-0.518074 0.311057,-0.85326 0.461557,-1.285423 0.374856,-0.492562 0.561725,-1.331178 0.315501,-1.993222 -0.195749,-0.272835 -0.53784,-0.212175 -0.695261,-0.58576 -0.211455,-0.393113 -0.553965,-0.388556 -0.864696,-0.40678 -0.178923,-0.107781 -0.398829,-0.210093 -0.56672,-0.13017 -0.09797,-0.43789 -0.555932,-0.639522 -0.853015,-0.602034 -0.032,-0.33844 -0.492822,-0.171237 -0.420657,-0.642709 -0.02431,-0.326988 -0.217343,-0.596439 -0.245386,-0.943732 -0.145457,-0.381916 -0.409448,-0.707146 -0.724475,-0.789151 -0.246971,-0.124961 -0.56467,0.07815 -0.753683,-0.252203 -0.216691,-0.224153 -0.287451,-0.723612 -0.619311,-0.732203 -0.13386,-0.06874 -0.024,-0.403525 -0.222012,-0.455592 0.30026,-0.01116 0.06036,-0.628071 -0.07597,-0.244069 -0.0087,0.274658 -0.159199,0.164468 -0.05841,-0.04069 -0.314841,-0.272837 -0.67876,0.354841 -0.993228,-0.03254 -0.217623,-0.0059 -0.404586,-0.0645 -0.537513,-0.284747 -0.168645,0.0544 -0.261979,-0.389792 -0.356399,-0.04069 -0.09629,0.06406 -0.391823,0.402614 -0.274594,0.08135 0.300259,-0.190569 -0.02742,-0.558426 -0.181121,-0.227797 -0.225096,0.316572 -0.680018,0.171041 -0.800424,0.650847 -0.03947,0.250187 -0.306428,0.87103 -0.444032,0.447458 -0.291288,-0.505318 -0.635297,0.130503 -0.958178,-0.05696 -0.266041,-0.17781 -0.458006,-0.58433 -0.321335,-0.992543 0.03589,-0.363172 0.155129,-0.708641 0.157748,-1.073897 -0.148635,-0.454293 -0.600939,-0.448954 -0.91728,-0.309152 -0.192377,0.05208 -0.323766,-0.09913 -0.157746,-0.31729 0.01623,-0.361087 0.230246,-0.601383 0.292127,-0.943729 0.01499,-0.283507 0.1491,-0.530569 0.175279,-0.781015 -0.250716,-0.20827 -0.74294,-0.105633 -0.8822219,0.268473 -0.034955,0.383741 -0.1736407,0.837382 -0.508297,0.732203 -0.2565187,0.01282 -0.4775514,0.154903 -0.6835772,-0.130168 -0.2755799,-0.394676 -0.2967554,-1.00224 -0.2629186,-1.521356 0.019808,-0.48423 0.2884376,-0.869208 0.2746018,-1.358645 0.1095617,-0.46861 0.5009178,-0.582574 0.7770578,-0.805424 0.3096045,-0.336097 0.6610881,0.07204 1.0049111,0.0244 0.28119,0.116904 0.0091,-0.49139 0.297968,-0.309154 0.277267,-0.125225 0.621836,-0.187507 0.794582,0.187119 0.280258,-0.275178 0.446556,0.220508 0.362242,0.55322 0.02897,0.359008 0.130915,0.828985 0.333018,1.016951 0.310373,-1.14446 0.129594,-1.987143 0.940646,-2.993899 0.725984,-0.45394 0.773716,-0.907929 0.928963,-1.708473 0.135359,0.332452 0.265015,-0.333625 0.432348,-0.40678 0.197992,-0.404828 0.486329,-0.684042 0.847164,-0.732206 0.381024,-0.02967 0.242674,-0.77249 0.630994,-0.854236 0.308113,-0.199158 0.613888,-0.399165 0.946487,-0.561357 0.123023,-0.08748 0.268341,-0.05878 0.07597,0.04069 -0.166205,0.09476 -0.508576,0.601579 -0.146063,0.610171 0.153684,-0.321519 0.386641,-0.364151 0.630995,-0.447459 0.126945,-0.11376 0.578924,-0.191348 0.245386,-0.390509 -0.34363,0.05883 -0.540971,-0.48872 -0.315494,-0.821695 0.374485,-0.276739 -0.135918,-0.607566 -0.35055,-0.414916 -0.182286,0.01116 -0.528913,0.371636 -0.537513,0.309155 0.23389,-0.279346 0.532417,-0.52452 0.835482,-0.545087 0.34195,-0.02916 0.689696,-0.02811 1.028284,0 0.311663,-0.06195 0.514884,-0.519243 0.841323,-0.471864 -0.177991,0.266328 -0.415244,0.701353 -0.630994,1.008815 -0.191072,0.100735 -0.297782,0.487485 0.0054,0.406781 0.281188,-2.62e-4 0.55172,-0.118728 0.771207,0.130169 0.218563,0.289758 0.477784,-0.226299 0.268761,-0.366101 0.02113,-0.254611 0.243607,-0.747629 -0.116848,-0.61017 -0.210709,0.188225 -0.314849,-0.26151 -0.116855,-0.374237 -0.989485,-1.744481 0.03167,-5.506693 -0.192811,-6.776957 -0.189573,-0.05963 -0.461044,-0.252009 -0.56088,-0.390507 -0.30774,-0.8915194 -0.39151,0.08087 -0.472874,0.09767 z m 8.670301,1.838649 c -0.01779,2.57e-4 -0.03829,1.96e-4 -0.05841,0.0082 -0.197434,-0.01379 -0.456414,0.48397 -0.09933,0.325424 0.253706,-0.06587 -0.1269,0.286373 0.09933,0.357965 -0.125641,0.324384 0.442253,0.242245 0.61931,0.309153 0.229587,-0.172344 0.481281,-0.271925 0.730309,-0.374238 0.350558,-0.122357 0.06697,-0.70018 -0.181113,-0.602032 -0.282874,0.13564 -0.636369,-0.04705 -0.858855,0.203388 -0.05958,-0.06605 -0.126852,-0.229606 -0.251228,-0.227797 l -1.3e-5,-6.3e-5 z m 7.788081,0.325423 c 0.168451,-0.01412 0.529986,0.0096 0.251228,0.29288 -0.266787,0.255393 -0.694133,0.611865 -0.391449,1.11458 0.02191,0.522758 0.539804,0.475378 0.800431,0.325421 0.171629,-0.04634 0.571351,-0.190308 0.584246,0.03254 -0.219674,0.360308 -0.553259,-0.04334 -0.82379,0.178981 -0.323448,0.08774 -0.435246,0.576199 -0.537513,0.951865 0.04653,0.327767 -0.145411,0.860814 -0.414824,0.634577 -0.189759,-0.07004 -0.411639,0.08253 -0.601777,0.162711 -0.171443,0.123402 -0.336903,0.126925 -0.444033,-0.113892 -0.13685,-0.09217 -0.385421,0.203258 -0.198645,-0.105764 0.06805,-0.176249 0.01531,-0.4621 0.134381,-0.162712 0.249775,0.273877 0.331013,-0.274269 0.572561,-0.211525 0.158548,-0.31527 0.01382,-0.871029 0.368084,-0.968136 0.249215,-0.251748 0.06253,-0.50753 -0.128539,-0.66712 -0.193875,-0.493081 0.216225,-0.688856 0.455723,-0.878643 0.274827,-0.115596 0.126565,-0.462881 0.373916,-0.585763 z m -4.901872,2.19661 c -0.189767,0.05182 -0.411973,0.380485 -0.385608,0.634577 0.143585,0.169742 -0.06409,0.407886 0.116847,0.545084 0.115543,0.226757 0.346162,0.06144 0.385608,0.357967 0.203416,0.401182 -0.475391,0.238405 -0.22786,0.610168 -0.102262,0.08044 -0.241549,0.26672 -0.02338,0.309152 0.178923,-0.02186 0.177338,0.06275 0.01165,0.130169 -0.146017,0.05077 -0.408602,0.509745 -0.08179,0.390509 1.69638,-0.275194 1.122233,-0.89705 0.555017,-2.172203 0.07256,-0.157245 0.238418,-0.349441 0.02921,-0.496271 -0.151439,0.0086 -0.381165,0.01752 -0.134381,-0.154576 0.07457,-0.177292 -0.187055,-0.129849 -0.245385,-0.154576 l 7.2e-5,0 z m -0.549204,1.138984 c -0.03208,-0.0026 -0.06556,0.0025 -0.09933,0.01627 l -0.05259,0 c -0.193504,0.03123 -0.197939,0.40678 -0.438183,0.309152 -0.23782,0.159328 0.197566,0.553351 -0.122697,0.634577 -0.163215,0.326205 0.235101,0.561551 0.385608,0.260339 0.253147,-0.05571 0.478848,-0.224087 0.449873,-0.642713 0.263051,-0.17563 0.10208,-0.558561 -0.122696,-0.577625 l 1.5e-5,0 z m 30.282187,3.449491 c -0.04358,0.22337 0.385842,0.71769 0.06425,0.740339 -0.106571,0.281427 0.09492,0.612058 0.227854,0.715931 0.232211,0.001 -0.05298,-0.522695 0.227861,-0.317288 0.15387,0.12939 0.369108,0.244135 0.379766,-0.105752 0.376753,-0.582417 -0.307824,-0.736649 -0.899755,-1.033221 l 2.4e-5,-9e-6 z m 0.496623,1.423738 c -0.357286,0.242376 0.123481,0.805032 0.01165,1.212203 -0.05476,0.211134 -0.20309,0.455919 -0.333027,0.301016 -0.155361,0.185623 7.78e-4,0.642518 -0.286285,0.520677 -0.334656,-0.04712 -0.650065,0.235738 -0.724467,0.699661 -0.179108,0.152301 -0.158127,0.473625 0.05259,0.528814 -0.02563,0.377233 0.388831,0.706497 0.391449,0.187119 0.08207,-0.382959 -0.110687,-0.610756 -0.350558,-0.715933 0.314468,0.197858 0.689324,-0.620907 0.888063,0 0.135554,0.362133 0.346301,-0.05605 0.379766,-0.235931 0.161724,0.134083 0.270812,-0.113892 0.408974,-0.146437 -1.85e-4,-0.318134 0.198087,0.232353 0.222021,-0.178984 0.0031,-0.43008 -0.17827,-0.823713 -0.175279,-1.236609 -0.06525,-0.383739 -0.217764,-0.76481 -0.484923,-0.935594 l 2.6e-5,-2e-6 z m -22.628096,2.530169 c 1.052778,-0.195435 -0.413826,-0.620003 0,0 z m 22.008784,0.03253 c -0.261,-0.02004 -0.447953,0.535908 -0.09348,0.536949 0.173315,-0.127579 0.485537,-0.428388 0.09348,-0.536949 z m -4.311785,5.141694 c -0.01794,0.0017 -0.03721,0.0096 -0.05842,0.01626 -0.430196,-0.03827 -0.2516,0.9354 0.09933,0.618306 0.141798,-0.172314 0.228304,-0.661991 -0.04086,-0.634578 l -5e-5,1.2e-5 z m 1.30287,5.5404 c -0.179108,0.301474 -0.311057,0.666079 -0.625152,0.699661 -0.08507,0.232483 -0.121384,0.526407 -0.356392,0.325425 -0.348873,0.03515 -0.202576,0.681371 -0.175279,1.016948 0.186403,0.221549 0.130783,0.658528 0.315501,0.862373 0.208836,-0.04216 0.366584,0.351199 0.555037,0.03254 0.103584,0.01164 0.199485,0.123597 0.30381,0.122037 0.04055,0.389208 0.331954,0.08181 0.455715,0.0082 0.0062,-0.296267 0.08592,-0.557649 0.105173,-0.846104 0.141388,-1.032992 0.906408,-4.210652 -0.578413,-2.22108 z m -4.241671,-0.317286 c -0.336343,0.112212 0.07014,0.565585 0.192805,0.732204 0.174245,0.236645 0.247437,0.543718 0.455714,0.699661 0.05725,0.415499 0.236135,0.728686 0.397291,1.073896 0.07108,0.294965 0.204581,0.534021 0.356392,0.756611 0.08923,0.352344 0.623203,0.374237 0.934804,0.561356 0.05088,-0.433725 0.07644,-0.930451 -0.262911,-1.138982 0.0016,-0.209055 -0.12676,-0.368315 -0.210329,-0.414918 0.09871,-0.471213 -0.324054,-0.652606 -0.496614,-0.935592 C 53.202362,35.32929 52.997121,34.864522 52.7236,34.530244 52.62451,34.22721 52.357016,34.271011 52.168561,34.180416 z m 9.540873,4.002732 c 0.192197,0.257478 0.267967,0.680917 0.02921,0.927459 -0.08451,0.427478 0.299794,0.150996 0.432348,0.09764 0.206779,0.311364 0.615054,0.68723 0.858848,0.219659 0.07778,-0.522761 0.571824,-0.378727 0.666052,0.04069 0.05741,0.203552 0.166035,0.386634 0.303809,0.471865 l 0,-1.008813 c -0.01748,-0.03062 -0.03666,-0.05367 -0.05842,-0.07323 0.0054,-0.03788 0.03006,-0.07792 0.05842,-0.113892 l 0,-0.34983 c -0.172451,-0.145353 -0.360462,-0.12971 -0.373925,-0.439323 -0.218181,-0.332975 -0.484642,-0.595852 -0.800423,-0.707797 -0.272024,-0.159328 -0.555737,-0.259233 -0.82964,-0.414917 -1.634184,-0.81084 -2.286159,0.312625 -0.286279,1.350489 z m 1.022405,1.903867 c -0.165833,0.238471 -0.225002,0.665295 -0.315493,0.99254 -0.06751,0.292621 -0.09077,0.60659 -0.198645,0.878645 -0.0016,0.374367 -0.268574,0.808548 -0.47909,0.34983 -0.889591,-2.079416 -2.282052,-1.456472 -3.2835,-0.325347 -0.221918,-0.05102 -0.173446,0.304791 -0.227853,0.414914 -0.111434,-0.447261 -0.403887,-0.02936 -0.356392,0.301018 -0.177804,0.366298 -0.409309,0.78694 -0.777058,0.707796 -0.281748,0.230921 -0.625013,0.228839 -0.888062,0.520679 -0.1363,0.168439 -0.30082,0.27316 -0.420666,0.366101 -0.02897,0.463404 -0.296748,0.888277 -0.146064,1.334238 -0.259501,-0.305898 -0.184997,0.430275 -0.105162,0.610169 0.11517,0.457416 0.01344,0.94015 0.08764,1.407457 0.06378,0.427477 -0.371912,0.672913 -0.309651,1.033222 0.126006,0.291059 0.40304,0.488852 0.625145,0.252203 0.23277,-0.259558 0.49965,-0.446027 0.806272,-0.366102 0.272777,0.101259 0.474414,-0.100625 0.666045,-0.309152 0.246791,-0.08228 0.467639,-0.293599 0.730316,-0.284745 0.329615,-0.082 0.649218,-0.327769 0.993228,-0.227797 0.261558,0.17781 0.581262,0.391157 0.490771,0.894914 0.123024,0.50558 0.405379,-0.145532 0.61347,-0.227797 0.150126,-0.128095 -0.118719,0.292232 -0.186963,0.341696 -0.238939,0.279085 0.07885,0.305247 0.181113,0.211527 -0.0376,0.241072 0.217158,0.432682 0.0818,0.748473 1.001282,0.831109 1.531205,0.594376 2.471385,-0.504412 0.229967,-0.203583 0.28404,-0.612055 0.519988,-0.813557 0.244167,-0.318915 0.587711,-0.580034 0.689418,-1.041356 0.0023,-0.0051 0.0038,-0.01116 0.0062,-0.01626 l 0,-3.010171 c -0.0348,-0.04873 -0.07279,-0.09203 -0.122689,-0.122037 -0.03045,-0.417583 -0.138265,-0.863479 -0.432348,-1.065763 -0.218564,-0.231963 -0.05228,-0.726477 -0.157748,-1.057628 0.01942,-0.336877 -0.08428,-0.742681 -0.344708,-0.740338 0.01966,-0.412377 -0.06712,-0.816683 -0.157754,-1.204067 l -0.02338,-0.03254 -0.02921,-0.01626 -3.55e-4,-9.3e-5 z m -22.452834,2.115131 c -0.222859,0.385042 -0.03208,0.85248 -0.08764,1.285422 -0.04397,0.349896 -0.362187,0.617719 -0.239538,1.000677 0.01942,0.382959 0.02035,0.892508 0.350551,1.016951 0.349805,0.102578 0.622527,-0.311821 0.671886,-0.772882 0.13686,-2.389162 1.921853,-5.29654 -0.695259,-2.530168 z m 19.671779,6.947796 c -0.310359,0.118188 0.210562,0.149173 0.05259,0 l -0.05259,0 z"
       id="path4158"
       sodipodi:nodetypes="csccccscscccccccccsccsccccccccccccccccsssccccccccccccccccccccccssccccccccccccccscccccscccccsccccccccccccccccccsccccccscccscccscccsccccccsscccccccccccccsscccccscccccsccccccccccccssccccccccccccccccccccccccsscscccccccccccscccccccsccccscscccccccsccccccccccccccccscccccccccccccccccccccscccccccccsccccccccccccscccssccccccscccccccccccscccccscccsccscssccccccccccsccccccccccccscccccscccccccscccccscscccsccccccccccccccccccccscccccccccccccccccccccccccccccsccccccccssccccccccccscssccccccsccccscccccccscccssccccsccccccsccccccccccccccsccccccccccccccccccsccccscccccccccscccccccccsccccccccccccccscccccccccccccsccscccccccsccccccscccscsscccccsccccscccccccccccscsccccc" />
  </g>
</svg>
