<?xml version="1.0" encoding="UTF-8" standalone="no"?>
<!-- Created with Inkscape (http://www.inkscape.org/) -->
<svg
   xmlns:dc="http://purl.org/dc/elements/1.1/"
   xmlns:cc="http://creativecommons.org/ns#"
   xmlns:rdf="http://www.w3.org/1999/02/22-rdf-syntax-ns#"
   xmlns:svg="http://www.w3.org/2000/svg"
   xmlns="http://www.w3.org/2000/svg"
   xmlns:sodipodi="http://sodipodi.sourceforge.net/DTD/sodipodi-0.dtd"
   xmlns:inkscape="http://www.inkscape.org/namespaces/inkscape"
   width="64"
   height="64"
   id="svg2"
   version="1.1"
   inkscape:version="0.46"
   sodipodi:docname="disk-suspend.svg"
   sodipodi:version="0.32"
   inkscape:output_extension="org.inkscape.output.svg.inkscape">
  <defs
     id="defs4">
    <inkscape:perspective
       sodipodi:type="inkscape:persp3d"
       inkscape:vp_x="0 : 526.18109 : 1"
       inkscape:vp_y="0 : 1000 : 0"
       inkscape:vp_z="744.09448 : 526.18109 : 1"
       inkscape:persp3d-origin="372.04724 : 350.78739 : 1"
       id="perspective10" />
    <pattern
       id="pattern2834"
       patternTransform="translate(11.69844,8.7393398)"
       height="46.406551"
       width="52.00226"
       patternUnits="userSpaceOnUse">
      <path
         style="fill:none;stroke:#000000;stroke-width:11.99999809;stroke-linecap:round;stroke-linejoin:miter;stroke-miterlimit:4;stroke-opacity:1"
         d="M 5.9999993,17.203293 C 11.433191,6.9833594 24.249858,3.0362863 34.626824,8.3872582 45.003791,13.738231 49.011513,26.360943 43.578321,36.580877 c -0.726471,1.366504 -1.604396,2.649552 -2.617718,3.825675"
         id="path2526" />
    </pattern>
    <inkscape:perspective
       sodipodi:type="inkscape:persp3d"
       inkscape:vp_x="0 : 526.18109 : 1"
       inkscape:vp_y="0 : 1000 : 0"
       inkscape:vp_z="744.09448 : 526.18109 : 1"
       inkscape:persp3d-origin="372.04724 : 350.78739 : 1"
       id="perspective2548" />
    <inkscape:perspective
       id="perspective2391"
       inkscape:persp3d-origin="32 : 21.333333 : 1"
       inkscape:vp_z="64 : 32 : 1"
       inkscape:vp_y="0 : 1000 : 0"
       inkscape:vp_x="0 : 32 : 1"
       sodipodi:type="inkscape:persp3d" />
    <inkscape:perspective
       id="perspective2660"
       inkscape:persp3d-origin="372.04724 : 350.78739 : 1"
       inkscape:vp_z="744.09448 : 526.18109 : 1"
       inkscape:vp_y="0 : 1000 : 0"
       inkscape:vp_x="0 : 526.18109 : 1"
       sodipodi:type="inkscape:persp3d" />
    <inkscape:perspective
       id="perspective3506"
       inkscape:persp3d-origin="372.04724 : 350.78739 : 1"
       inkscape:vp_z="744.09448 : 526.18109 : 1"
       inkscape:vp_y="0 : 1000 : 0"
       inkscape:vp_x="0 : 526.18109 : 1"
       sodipodi:type="inkscape:persp3d" />
    <inkscape:perspective
       id="perspective3649"
       inkscape:persp3d-origin="372.04724 : 350.78739 : 1"
       inkscape:vp_z="744.09448 : 526.18109 : 1"
       inkscape:vp_y="0 : 1000 : 0"
       inkscape:vp_x="0 : 526.18109 : 1"
       sodipodi:type="inkscape:persp3d" />
  </defs>
  <sodipodi:namedview
     id="base"
     pagecolor="#ffffff"
     bordercolor="#666666"
     borderopacity="1.0"
     inkscape:pageopacity="0.0"
     inkscape:pageshadow="2"
     inkscape:zoom="4.2978834"
     inkscape:cx="-5.7687321"
     inkscape:cy="30.59413"
     inkscape:document-units="px"
     inkscape:current-layer="layer1"
     showgrid="true"
     inkscape:window-width="1440"
     inkscape:window-height="850"
     inkscape:window-x="-4"
     inkscape:window-y="-2"
     inkscape:window-maximized="0">
    <inkscape:grid
       type="xygrid"
       id="grid2816"
       empspacing="4"
       visible="true"
       enabled="true"
       snapvisiblegridlinesonly="true" />
  </sodipodi:namedview>
  <metadata
     id="metadata7">
    <rdf:RDF>
      <cc:Work
         rdf:about="">
        <dc:format>image/svg+xml</dc:format>
        <dc:type
           rdf:resource="http://purl.org/dc/dcmitype/StillImage" />
        <dc:title />
      </cc:Work>
    </rdf:RDF>
  </metadata>
  <g
     inkscape:label="Layer 1"
     inkscape:groupmode="layer"
     id="layer1"
     transform="translate(0,-988.36218)">
    <path
       style="fill:#000000;fill-opacity:1;fill-rule:nonzero;stroke:none"
       d="M 31.635214,992.26843 C 30.901629,992.2737 30.166934,992.33272 29.447714,992.39343 C 29.324473,992.40383 29.195498,992.41268 29.072714,992.42468 C 28.454497,992.48507 27.866037,992.5747 27.260214,992.67468 C 27.220459,992.68124 27.174913,992.66795 27.135214,992.67468 C 27.08295,992.68363 27.031129,992.69668 26.978964,992.70593 C 26.294112,992.82594 25.614535,992.97458 24.947714,993.14343 C 24.926102,993.14893 24.906806,993.16912 24.885214,993.17468 C 24.150454,993.36269 23.439222,993.58605 22.728964,993.83093 C 22.021354,994.07489 21.31592,994.34559 20.635214,994.64343 C 19.948809,994.94376 19.29163,995.25968 18.635214,995.61218 C 18.627016,995.61658 18.612157,995.60777 18.603964,995.61218 C 17.961748,995.95788 17.339899,996.344 16.728964,996.73718 C 15.480704,997.5405 14.299628,998.43881 13.197714,999.42468 C 13.169646,999.44979 13.131929,999.46195 13.103964,999.48718 C 12.588744,999.9519 12.114663,1000.4545 11.635214,1000.9559 C 10.622965,1002.0145 9.691598,1003.1552 8.853964,1004.3622 C 8.0391216,1005.5363 7.29685,1006.7541 6.666464,1008.0497 C 6.6421676,1008.0996 6.627971,1008.1559 6.603964,1008.2059 C 4.8651982,1011.8339 3.8703642,1015.8841 3.853964,1020.1747 C 3.836997,1024.6135 4.8734166,1028.8136 6.697714,1032.5497 C 7.0272296,1033.2245 7.379344,1033.8753 7.760214,1034.5184 C 9.271228,1037.0699 11.170231,1039.3524 13.385214,1041.2997 C 13.914607,1041.7651 14.446503,1042.2185 15.010214,1042.6434 C 15.028618,1042.6573 15.054275,1042.6608 15.072714,1042.6747 C 16.838761,1043.9993 18.767713,1045.1364 20.822714,1046.0184 C 20.835307,1046.0238 20.841362,1046.0443 20.853964,1046.0497 C 21.472087,1046.3139 22.088861,1046.5483 22.728964,1046.7684 C 22.862206,1046.8145 23.001072,1046.8493 23.135214,1046.8934 C 23.664457,1047.0665 24.186321,1047.2203 24.728964,1047.3622 C 24.853203,1047.395 24.979059,1047.4248 25.103964,1047.4559 C 25.828715,1047.6349 26.576874,1047.8034 27.322714,1047.9247 C 27.375418,1047.9332 27.426161,1047.9477 27.478964,1047.9559 C 28.117033,1048.0559 28.764803,1048.1185 29.416464,1048.1747 C 29.489907,1048.1811 29.561611,1048.2001 29.635214,1048.2059 C 29.85618,1048.2232 30.069079,1048.2251 30.291464,1048.2372 C 30.853635,1048.2687 31.408497,1048.2706 31.978964,1048.2684 C 32.686656,1048.2649 33.409491,1048.2611 34.103964,1048.2059 C 34.176459,1048.2002 34.250374,1048.1809 34.322714,1048.1747 C 34.970433,1048.1186 35.625929,1048.0553 36.260214,1047.9559 C 36.3024,1047.9492 36.343089,1047.9316 36.385214,1047.9247 C 37.105877,1047.8083 37.809153,1047.6574 38.510214,1047.4872 C 38.60613,1047.4639 38.695936,1047.4177 38.791464,1047.3934 C 38.853172,1047.3776 38.917418,1047.3784 38.978964,1047.3622 C 39.566076,1047.2087 40.157587,1047.0521 40.728964,1046.8622 C 40.782949,1046.8442 40.831374,1046.8179 40.885214,1046.7997 C 42.288592,1046.3236 43.623206,1045.7322 44.916464,1045.0497 C 46.877609,1044.0146 48.703313,1042.7518 50.353964,1041.2997 C 52.566562,1039.3532 54.469361,1037.0681 55.978964,1034.5184 C 58.467569,1030.3153 59.905241,1025.4143 59.885214,1020.1747 C 59.87186,1016.6816 59.190568,1013.3475 58.010214,1010.2684 C 57.472422,1008.8655 56.819168,1007.5208 56.072714,1006.2372 C 55.696647,1005.5905 55.310228,1004.9746 54.885214,1004.3622 C 54.469979,1003.7638 54.032133,1003.1753 53.572714,1002.6122 C 53.105364,1002.0393 52.614419,1001.4897 52.103964,1000.9559 C 51.091134,999.89683 49.989742,998.90849 48.822714,998.01843 C 48.230077,997.56644 47.638605,997.14158 47.010214,996.73718 C 46.399277,996.344 45.77743,995.95788 45.135214,995.61218 C 45.127141,995.60783 45.11204,995.61651 45.103964,995.61218 C 44.450291,995.26114 43.787381,994.94274 43.103964,994.64343 C 42.420389,994.34405 41.720933,994.07596 41.010214,993.83093 C 40.299954,993.58605 39.588724,993.36269 38.853964,993.17468 C 38.83237,993.16912 38.813076,993.14893 38.791464,993.14343 C 38.14937,992.98084 37.481557,992.82327 36.822714,992.70593 C 36.697743,992.68367 36.573248,992.66402 36.447714,992.64343 C 35.8505,992.54546 35.244454,992.4842 34.635214,992.42468 C 34.531037,992.4143 34.427223,992.40265 34.322714,992.39343 C 34.312298,992.39253 34.301881,992.39431 34.291464,992.39343 C 34.28115,992.39253 34.270529,992.39431 34.260214,992.39343 C 33.541468,992.33297 32.805793,992.27352 32.072714,992.26843 C 31.970197,992.26771 31.862986,992.26803 31.760214,992.26843 C 31.718066,992.26859 31.677316,992.26808 31.635214,992.26843 z M 31.666464,1000.2684 C 31.70894,1000.268 31.748923,1000.2686 31.791464,1000.2684 C 31.875064,1000.2681 31.958101,1000.2677 32.041464,1000.2684 C 32.511584,1000.2731 32.98588,1000.3256 33.447714,1000.3622 C 33.583483,1000.3729 33.718969,1000.38 33.853964,1000.3934 C 34.218813,1000.4298 34.588897,1000.4627 34.947714,1000.5184 C 35.332339,1000.5781 35.695657,1000.6559 36.072714,1000.7372 C 36.637712,1000.8581 37.21396,1001.0071 37.760214,1001.1747 C 38.238375,1001.3214 38.704263,1001.4938 39.166464,1001.6747 C 39.460468,1001.7906 39.754462,1001.9204 40.041464,1002.0497 C 40.390461,1002.2059 40.73463,1002.3743 41.072714,1002.5497 C 41.269038,1002.652 41.474025,1002.7536 41.666464,1002.8622 C 41.773129,1002.9221 41.873518,1002.9878 41.978964,1003.0497 C 42.738675,1003.4965 43.475285,1003.9785 44.166464,1004.5184 C 44.453872,1004.7429 44.735707,1004.9664 45.010214,1005.2059 C 45.148723,1005.3267 45.281347,1005.4565 45.416464,1005.5809 C 46.316623,1006.4113 47.149762,1007.3183 47.885214,1008.2997 C 48.06701,1008.5422 48.245597,1008.7988 48.416464,1009.0497 C 48.545611,1009.2396 48.637521,1009.4489 48.760214,1009.6434 C 48.833526,1009.7595 48.907988,1009.8695 48.978964,1009.9872 C 49.189713,1010.337 49.414489,1010.6864 49.603964,1011.0497 C 49.825606,1011.4746 50.037709,1011.9201 50.228964,1012.3622 L 50.260214,1012.3622 C 50.803678,1013.6213 51.203591,1014.9531 51.478964,1016.3309 L 13.572714,1016.2059 C 13.090232,1016.2044 12.637033,1016.2861 12.197714,1016.3934 C 12.472877,1014.9923 12.926863,1013.6412 13.478964,1012.3622 L 13.510214,1012.3622 C 13.874003,1011.5213 14.288721,1010.7012 14.760214,1009.9247 C 14.803888,1009.8527 14.84066,1009.7773 14.885214,1009.7059 C 15.118286,1009.3328 15.378708,1008.9684 15.635214,1008.6122 C 16.191809,1007.8392 16.788813,1007.1097 17.447714,1006.4247 C 17.76703,1006.0927 18.106288,1005.7653 18.447714,1005.4559 C 18.45855,1005.4461 18.468106,1005.4345 18.478964,1005.4247 C 18.48474,1005.4195 18.504432,1005.4299 18.510214,1005.4247 C 18.857579,1005.112 19.203965,1004.8065 19.572714,1004.5184 C 20.263893,1003.9785 21.000501,1003.4965 21.760214,1003.0497 C 21.864707,1002.9882 21.967017,1002.9218 22.072714,1002.8622 C 22.268313,1002.7522 22.46687,1002.6532 22.666464,1002.5497 C 23.037467,1002.3573 23.407358,1002.1566 23.791464,1001.9872 C 23.987697,1001.9006 24.185741,1001.8175 24.385214,1001.7372 C 24.437998,1001.7158 24.488457,1001.6956 24.541464,1001.6747 C 25.012446,1001.4896 25.491369,1001.3243 25.978964,1001.1747 C 26.523982,1001.0074 27.071532,1000.858 27.635214,1000.7372 C 27.718117,1000.7193 27.801932,1000.6915 27.885214,1000.6747 C 28.179609,1000.6156 28.492568,1000.5644 28.791464,1000.5184 C 29.150281,1000.4627 29.520363,1000.4298 29.885214,1000.3934 C 30.021622,1000.3801 30.154271,1000.3727 30.291464,1000.3622 C 30.752453,1000.3257 31.197216,1000.2731 31.666464,1000.2684 z M 12.197714,1024.0184 C 12.627342,1024.1239 13.069846,1024.2044 13.541464,1024.2059 L 51.478964,1024.3309 C 51.18628,1025.7281 50.733505,1027.0837 50.166464,1028.3622 C 49.95876,1028.8324 49.752321,1029.2868 49.510214,1029.7372 C 49.273085,1030.1777 48.997394,1030.5985 48.728964,1031.0184 C 48.532481,1031.3263 48.316542,1031.6286 48.103964,1031.9247 C 47.858377,1032.2662 47.620095,1032.6309 47.353964,1032.9559 C 47.302377,1033.0189 47.250049,1033.0811 47.197714,1033.1434 C 47.083081,1033.28 46.940893,1033.385 46.822714,1033.5184 C 46.60591,1033.7632 46.394856,1034.0033 46.166464,1034.2372 C 45.834403,1034.5771 45.490603,1034.9215 45.135214,1035.2372 C 44.779823,1035.5529 44.418797,1035.8533 44.041464,1036.1434 C 43.67564,1036.4247 43.30163,1036.7 42.916464,1036.9559 C 42.846765,1037.0021 42.768021,1037.0356 42.697714,1037.0809 C 42.069865,1037.4869 41.402412,1037.871 40.728964,1038.2059 C 40.482854,1038.3277 40.230687,1038.4378 39.978964,1038.5497 C 39.802087,1038.6287 39.627246,1038.6944 39.447714,1038.7684 C 39.134322,1038.8969 38.831356,1039.0307 38.510214,1039.1434 C 38.230281,1039.2423 37.951923,1039.338 37.666464,1039.4247 C 37.433326,1039.4954 37.184344,1039.5498 36.947714,1039.6122 C 36.710724,1039.6741 36.469305,1039.7463 36.228964,1039.7997 C 35.749059,1039.9074 35.283613,1040.0084 34.791464,1040.0809 C 34.728889,1040.09 34.666724,1040.1037 34.603964,1040.1122 C 34.172467,1040.1716 33.731192,1040.2057 33.291464,1040.2372 C 32.85002,1040.2687 32.396518,1040.266 31.947714,1040.2684 C 31.883679,1040.2687 31.824108,1040.2688 31.760214,1040.2684 C 31.312731,1040.2659 30.887874,1040.2687 30.447714,1040.2372 C 30.207116,1040.22 29.96716,1040.2003 29.728964,1040.1747 C 29.529926,1040.1537 29.332459,1040.139 29.135214,1040.1122 C 29.073118,1040.1036 29.009629,1040.0901 28.947714,1040.0809 C 28.456084,1040.0094 27.95827,1039.9062 27.478964,1039.7997 C 27.243991,1039.7469 27.023254,1039.6731 26.791464,1039.6122 C 26.550767,1039.5495 26.309781,1039.496 26.072714,1039.4247 C 25.746044,1039.3255 25.423365,1039.2274 25.103964,1039.1122 C 24.871171,1039.0282 24.645177,1038.9232 24.416464,1038.8309 C 24.165187,1038.7303 23.912576,1038.6288 23.666464,1038.5184 C 23.43864,1038.4156 23.202168,1038.3169 22.978964,1038.2059 C 22.277306,1037.857 21.59975,1037.4756 20.947714,1037.0497 C 20.915952,1037.0289 20.885601,1037.0081 20.853964,1036.9872 C 20.453203,1036.7228 20.077604,1036.4351 19.697714,1036.1434 C 19.320381,1035.8533 18.959353,1035.5529 18.603964,1035.2372 C 17.893186,1034.6057 17.218652,1033.9316 16.603964,1033.2059 C 16.29662,1032.8431 16.010208,1032.4653 15.728964,1032.0809 C 15.478233,1031.7383 15.23916,1031.3771 15.010214,1031.0184 C 14.905033,1030.8536 14.798145,1030.6865 14.697714,1030.5184 C 14.525423,1030.2306 14.3557,1029.9404 14.197714,1029.6434 C 13.972828,1029.2202 13.767343,1028.8028 13.572714,1028.3622 C 12.963824,1026.9893 12.48859,1025.5272 12.197714,1024.0184 z"
       id="path3923" />
  </g>
</svg>
