<?xml version="1.0" encoding="UTF-8" standalone="no"?>
<!-- Created with Inkscape (http://www.inkscape.org/) -->
<svg
   xmlns:dc="http://purl.org/dc/elements/1.1/"
   xmlns:cc="http://creativecommons.org/ns#"
   xmlns:rdf="http://www.w3.org/1999/02/22-rdf-syntax-ns#"
   xmlns:svg="http://www.w3.org/2000/svg"
   xmlns="http://www.w3.org/2000/svg"
   xmlns:sodipodi="http://sodipodi.sourceforge.net/DTD/sodipodi-0.dtd"
   xmlns:inkscape="http://www.inkscape.org/namespaces/inkscape"
   width="64"
   height="64"
   id="svg2"
   version="1.1"
   inkscape:version="0.46+devel"
   sodipodi:docname="mail.svg"
   sodipodi:version="0.32"
   inkscape:output_extension="org.inkscape.output.svg.inkscape">
  <defs
     id="defs4">
    <inkscape:perspective
       sodipodi:type="inkscape:persp3d"
       inkscape:vp_x="0 : 526.18109 : 1"
       inkscape:vp_y="0 : 1000 : 0"
       inkscape:vp_z="744.09448 : 526.18109 : 1"
       inkscape:persp3d-origin="372.04724 : 350.78739 : 1"
       id="perspective10" />
  </defs>
  <sodipodi:namedview
     id="base"
     pagecolor="#ffffff"
     bordercolor="#666666"
     borderopacity="1.0"
     inkscape:pageopacity="0.0"
     inkscape:pageshadow="2"
     inkscape:zoom="8.0654367"
     inkscape:cx="17.183691"
     inkscape:cy="35.463013"
     inkscape:document-units="px"
     inkscape:current-layer="layer1"
     showgrid="true"
     inkscape:window-width="1425"
     inkscape:window-height="969"
     inkscape:window-x="154"
     inkscape:window-y="83"
     inkscape:window-maximized="0">
    <inkscape:grid
       type="xygrid"
       id="grid2816"
       empspacing="4"
       visible="true"
       enabled="true"
       snapvisiblegridlinesonly="true" />
  </sodipodi:namedview>
  <metadata
     id="metadata7">
    <rdf:RDF>
      <cc:Work
         rdf:about="">
        <dc:format>image/svg+xml</dc:format>
        <dc:type
           rdf:resource="http://purl.org/dc/dcmitype/StillImage" />
        <dc:title />
      </cc:Work>
    </rdf:RDF>
  </metadata>
  <g
     inkscape:label="Layer 1"
     inkscape:groupmode="layer"
     id="layer1"
     transform="translate(0,-988.36218)">
    <path
       style="opacity:1;fill:#000000;fill-opacity:1;fill-rule:nonzero;stroke:none"
       d="M 4.5714286,999.79075 C 2.0388571,999.79075 0,1001.8296 0,1004.3622 l 0,32 c 0,2.5325726 2.0388571,4.5714286 4.5714286,4.5714286 l 54.857143,0 C 61.961143,1040.9336 64,1038.8947 64,1036.3622 l 0,-32 c 0,-2.53262 -2.038857,-4.57148 -4.571429,-4.57148 z M 10.5,1004.3622 l 43,0 c -5.925667,3.53525 -20.492627,13.71425 -21.5,13.71425 -1.007373,0 -15.574333,-10.179 -21.5,-13.71425 z m -5.75,1.42855 c 2.1753634,2.5143886 26.041442,18.000001 27.25,18 1.2085577,0 25.074637,-15.48561 27.25,-18 0.107291,0.2654 0.178571,0.5525 0.178571,0.8572 l 0,27.428571 c 0,1.2662834 -1.0194286,2.2857143 -2.2857143,2.2857143 l -50.285714,0 C 5.5908571,1036.3621 4.5714286,1035.3427 4.5714286,1034.0764 l 0,-27.428571 c 0,-0.304629 0.0712845,-0.591729 0.1785714,-0.857129 z"
       id="rect3738" />
  </g>
</svg>
