<?xml version="1.0" encoding="UTF-8" standalone="no"?>
<!-- Created with Inkscape (http://www.inkscape.org/) -->

<svg
   xmlns:dc="http://purl.org/dc/elements/1.1/"
   xmlns:cc="http://creativecommons.org/ns#"
   xmlns:rdf="http://www.w3.org/1999/02/22-rdf-syntax-ns#"
   xmlns:svg="http://www.w3.org/2000/svg"
   xmlns="http://www.w3.org/2000/svg"
   xmlns:sodipodi="http://sodipodi.sourceforge.net/DTD/sodipodi-0.dtd"
   xmlns:inkscape="http://www.inkscape.org/namespaces/inkscape"
   width="16"
   height="16"
   id="svg2"
   version="1.1"
   inkscape:version="0.48.1 r9760"
   sodipodi:docname="media-playback-pause.svg">
  <defs
     id="defs4">
    <inkscape:perspective
       sodipodi:type="inkscape:persp3d"
       inkscape:vp_x="0 : 526.18109 : 1"
       inkscape:vp_y="0 : 1000 : 0"
       inkscape:vp_z="744.09448 : 526.18109 : 1"
       inkscape:persp3d-origin="372.04724 : 350.78739 : 1"
       id="perspective10" />
  </defs>
  <sodipodi:namedview
     id="base"
     pagecolor="#ffffff"
     bordercolor="#666666"
     borderopacity="1.0"
     inkscape:pageopacity="0.0"
     inkscape:pageshadow="2"
     inkscape:zoom="12.551145"
     inkscape:cx="10.972304"
     inkscape:cy="8"
     inkscape:document-units="px"
     inkscape:current-layer="layer1"
     showgrid="true"
     inkscape:window-width="1004"
     inkscape:window-height="776"
     inkscape:window-x="239"
     inkscape:window-y="262"
     inkscape:window-maximized="0">
    <inkscape:grid
       type="xygrid"
       id="grid2816"
       empspacing="8"
       visible="true"
       enabled="true"
       snapvisiblegridlinesonly="true"
       originx="2.7755576e-17px"
       originy="0px"
       spacingx="1.3333px"
       spacingy="1.3333px" />
  </sodipodi:namedview>
  <metadata
     id="metadata7">
    <rdf:RDF>
      <cc:Work
         rdf:about="">
        <dc:format>image/svg+xml</dc:format>
        <dc:type
           rdf:resource="http://purl.org/dc/dcmitype/StillImage" />
        <dc:title />
      </cc:Work>
    </rdf:RDF>
  </metadata>
  <g
     inkscape:label="Layer 1"
     inkscape:groupmode="layer"
     id="layer1"
     transform="translate(0,-1036.3622)">
    <g
       id="g3098"
       transform="translate(-1,0)">
      <path
         id="path2993"
         transform="translate(0,1036.3622)"
         d="M 4.28125,2.0625 C 2.3112856,3.3010805 1,5.5012217 1,8 1,10.498778 2.3112856,12.698919 4.28125,13.9375 4.0965048,12.09639 4,10.105299 4,8 4,5.8947013 4.0965048,3.9036097 4.28125,2.0625 z m 7.4375,0 C 11.903495,3.9036097 12,5.8947013 12,8 c 0,2.105299 -0.09651,4.09639 -0.28125,5.9375 C 13.688714,12.698919 15,10.498778 15,8 15,5.5012217 13.688714,3.3010805 11.71875,2.0625 z"
         style="fill:#000000;fill-opacity:1;stroke:none"
         inkscape:connector-curvature="0" />
      <path
         sodipodi:type="arc"
         style="fill:#000000;fill-opacity:1;stroke:none"
         id="path2995"
         sodipodi:cx="6.6665001"
         sodipodi:cy="7.33355"
         sodipodi:rx="2.6666"
         sodipodi:ry="3.33325"
         d="m 9.3331001,7.33355 c 0,1.8409031 -1.1938775,3.33325 -2.6666,3.33325 -1.4727225,0 -2.6666,-1.4923469 -2.6666,-3.33325 0,-1.8409032 1.1938775,-3.3332501 2.6666,-3.3332501 1.4727225,0 2.6666,1.4923469 2.6666,3.3332501 z"
         transform="matrix(0.75001875,0,0,2.40006,2.9999999,1026.7612)" />
    </g>
  </g>
</svg>
