<?xml version="1.0" encoding="UTF-8" standalone="no"?>
<!-- Created with Inkscape (http://www.inkscape.org/) -->
<svg
   xmlns:dc="http://purl.org/dc/elements/1.1/"
   xmlns:cc="http://creativecommons.org/ns#"
   xmlns:rdf="http://www.w3.org/1999/02/22-rdf-syntax-ns#"
   xmlns:svg="http://www.w3.org/2000/svg"
   xmlns="http://www.w3.org/2000/svg"
   xmlns:sodipodi="http://sodipodi.sourceforge.net/DTD/sodipodi-0.dtd"
   xmlns:inkscape="http://www.inkscape.org/namespaces/inkscape"
   width="64"
   height="64"
   id="svg2"
   version="1.1"
   inkscape:version="0.46+devel"
   sodipodi:docname="new-mail.svg"
   sodipodi:version="0.32"
   inkscape:output_extension="org.inkscape.output.svg.inkscape">
  <defs
     id="defs4">
    <inkscape:perspective
       sodipodi:type="inkscape:persp3d"
       inkscape:vp_x="0 : 526.18109 : 1"
       inkscape:vp_y="0 : 1000 : 0"
       inkscape:vp_z="744.09448 : 526.18109 : 1"
       inkscape:persp3d-origin="372.04724 : 350.78739 : 1"
       id="perspective10" />
  </defs>
  <sodipodi:namedview
     id="base"
     pagecolor="#ffffff"
     bordercolor="#666666"
     borderopacity="1.0"
     inkscape:pageopacity="0.0"
     inkscape:pageshadow="2"
     inkscape:zoom="5.703125"
     inkscape:cx="32"
     inkscape:cy="21.479452"
     inkscape:document-units="px"
     inkscape:current-layer="layer1"
     showgrid="true"
     inkscape:window-width="1425"
     inkscape:window-height="969"
     inkscape:window-x="154"
     inkscape:window-y="116"
     inkscape:window-maximized="0">
    <inkscape:grid
       type="xygrid"
       id="grid2816"
       empspacing="4"
       visible="true"
       enabled="true"
       snapvisiblegridlinesonly="true" />
  </sodipodi:namedview>
  <metadata
     id="metadata7">
    <rdf:RDF>
      <cc:Work
         rdf:about="">
        <dc:format>image/svg+xml</dc:format>
        <dc:type
           rdf:resource="http://purl.org/dc/dcmitype/StillImage" />
        <dc:title />
      </cc:Work>
    </rdf:RDF>
  </metadata>
  <g
     inkscape:label="Layer 1"
     inkscape:groupmode="layer"
     id="layer1"
     transform="translate(0,-988.36218)">
    <g
       id="g2761"
       transform="matrix(1.1428571,0,0,1.1428571,-4.5714272,-145.76598)">
      <path
         id="rect3738"
         transform="translate(0,988.36218)"
         d="M 8,4 C 5.784,4 4,5.784 4,8 l 0,28 c 0,2.216 1.784,4 4,4 l 28,0 0,-4 -26,0 C 8.892,36 8,35.108 8,34 L 8,10 C 8,9.73339 8.062374,9.48218 8.15625,9.25 10.059693,11.450092 30.942512,25 32,25 33.057488,25 53.940307,11.450092 55.84375,9.25 55.93763,9.48218 56,9.73339 56,10 l 0,24 c 0,1.108 -0.892,2 -2,2 l -2,0 0,4 4,0 c 2.216,0 4,-1.784 4,-4 L 60,8 C 60,5.784 58.216,4 56,4 z m 5.1875,4 37.625,0 C 45.627541,11.09335 32.881451,20 32,20 31.118549,20 18.372459,11.09335 13.1875,8 z"
         style="opacity:1;fill:#000000;fill-opacity:1;fill-rule:nonzero;stroke:none" />
      <g
         id="g2748">
        <rect
           style="opacity:1;fill:#000000;fill-opacity:1;fill-rule:nonzero;stroke:none"
           id="rect3750"
           width="24"
           height="8"
           x="32"
           y="44"
           transform="translate(0,988.36218)"
           ry="1.75"
           rx="1.75" />
        <rect
           ry="1.75"
           transform="matrix(0,-1,1,0,0,0)"
           y="40"
           x="-1048.3622"
           height="8"
           width="24"
           id="rect2746"
           style="opacity:1;fill:#000000;fill-opacity:1;fill-rule:nonzero;stroke:none"
           rx="1.75" />
      </g>
    </g>
  </g>
</svg>
