<?xml version="1.0" encoding="UTF-8" standalone="no"?>
<!-- Created with Inkscape (http://www.inkscape.org/) -->

<svg
   xmlns:dc="http://purl.org/dc/elements/1.1/"
   xmlns:cc="http://creativecommons.org/ns#"
   xmlns:rdf="http://www.w3.org/1999/02/22-rdf-syntax-ns#"
   xmlns:svg="http://www.w3.org/2000/svg"
   xmlns="http://www.w3.org/2000/svg"
   xmlns:sodipodi="http://sodipodi.sourceforge.net/DTD/sodipodi-0.dtd"
   xmlns:inkscape="http://www.inkscape.org/namespaces/inkscape"
   width="128"
   height="128"
   id="svg2"
   version="1.1"
   inkscape:version="0.47 r22583"
   sodipodi:docname="media-playback-start.svg"
   inkscape:export-filename="/home/rob/.kde4/share/icons/nmfnms/48x48/actions/media-skip-backward.png"
   inkscape:export-xdpi="33.75"
   inkscape:export-ydpi="33.75"
   sodipodi:version="0.32"
   inkscape:output_extension="org.inkscape.output.svg.inkscape">
  <defs
     id="defs4">
    <inkscape:perspective
       sodipodi:type="inkscape:persp3d"
       inkscape:vp_x="0 : 526.18109 : 1"
       inkscape:vp_y="0 : 1000 : 0"
       inkscape:vp_z="744.09448 : 526.18109 : 1"
       inkscape:persp3d-origin="372.04724 : 350.78739 : 1"
       id="perspective10" />
    <inkscape:perspective
       id="perspective2826"
       inkscape:persp3d-origin="0.5 : 0.33333333 : 1"
       inkscape:vp_z="1 : 0.5 : 1"
       inkscape:vp_y="0 : 1000 : 0"
       inkscape:vp_x="0 : 0.5 : 1"
       sodipodi:type="inkscape:persp3d" />
  </defs>
  <sodipodi:namedview
     id="base"
     pagecolor="#ffffff"
     bordercolor="#666666"
     borderopacity="1.0"
     inkscape:pageopacity="0.0"
     inkscape:pageshadow="2"
     inkscape:zoom="1.016466"
     inkscape:cx="43.217391"
     inkscape:cy="64"
     inkscape:document-units="px"
     inkscape:current-layer="layer1"
     showgrid="true"
     inkscape:window-width="1162"
     inkscape:window-height="1084"
     inkscape:window-x="412"
     inkscape:window-y="26"
     inkscape:window-maximized="0"
     inkscape:showpageshadow="false"
     showborder="false" />
  <metadata
     id="metadata7">
    <rdf:RDF>
      <cc:Work
         rdf:about="">
        <dc:format>image/svg+xml</dc:format>
        <dc:type
           rdf:resource="http://purl.org/dc/dcmitype/StillImage" />
        <dc:title></dc:title>
      </cc:Work>
    </rdf:RDF>
  </metadata>
  <g
     inkscape:label="Layer 1"
     inkscape:groupmode="layer"
     id="layer1"
     transform="translate(0,-924.36218)">
    <g
       id="g4172"
       transform="matrix(0,-1.0325183,1.0325183,0,-956.50208,1052.3944)">
      <path
         id="rect2933"
         transform="translate(0,924.36218)"
         d="M 15.25,4 C 4,4 4,12 4,12 1.629752,25.717517 0.33851761,40.792206 0.03125,56 l 16.75,0 c 0.297618,-10.49343 1.205856,-20.864641 2.84375,-30.34375 0,0 -0.01315,-5.90625 8.28125,-5.90625 22.80352,0 66.141529,23.681448 78.34375,36.25 L 124,56 C 112,40 48,4 15.25,4 z M 0.09375,72 C 0.46781011,87.373797 1.7892247,102.47142 4,116 c 0,0 0,8 11.25,8 C 48,124 112,88 124,72 l -17.75,0 c -12.202221,12.568554 -55.54023,36.25 -78.34375,36.25 -8.2944,0 -8.28125,-5.90625 -8.28125,-5.90625 C 18.095723,92.985472 17.154006,82.606365 16.8125,72 z"
         style="fill:#000000;fill-opacity:1;fill-rule:nonzero;stroke:none" />
      <path
         style="fill:#000000;fill-opacity:1;fill-rule:nonzero;stroke:none"
         d="m 56.125,34.09375 c -9.310307,10.983943 -23.84375,38.740229 -23.84375,53.875 0,5.947305 4.21875,5.96875 4.21875,5.96875 6.157692,1.063987 12.829749,1.696982 19.625,1.96875 l 0,-61.8125 z m 15.75,0 0,61.78125 c 6.856656,-0.297961 13.545457,-0.944012 19.625,-1.9375 0,0 4.21875,-0.02144 4.21875,-5.96875 0,-15.134771 -14.533429,-42.891057 -23.84375,-53.875 z"
         transform="matrix(0,0.96850584,-0.96850584,0,123.99995,926.37781)"
         id="path2997" />
    </g>
  </g>
</svg>
