<?xml version="1.0" encoding="UTF-8" standalone="no"?>
<!-- Created with Inkscape (http://www.inkscape.org/) -->

<svg
   xmlns:dc="http://purl.org/dc/elements/1.1/"
   xmlns:cc="http://creativecommons.org/ns#"
   xmlns:rdf="http://www.w3.org/1999/02/22-rdf-syntax-ns#"
   xmlns:svg="http://www.w3.org/2000/svg"
   xmlns="http://www.w3.org/2000/svg"
   xmlns:sodipodi="http://sodipodi.sourceforge.net/DTD/sodipodi-0.dtd"
   xmlns:inkscape="http://www.inkscape.org/namespaces/inkscape"
   width="128"
   height="128"
   id="svg2"
   version="1.1"
   inkscape:version="0.47 r22583"
   sodipodi:docname="preferences-system.svg"
   inkscape:export-filename="/home/rob/projects/start-here9.png"
   inkscape:export-xdpi="67.5"
   inkscape:export-ydpi="67.5">
  <defs
     id="defs4">
    <inkscape:perspective
       sodipodi:type="inkscape:persp3d"
       inkscape:vp_x="0 : 526.18109 : 1"
       inkscape:vp_y="0 : 1000 : 0"
       inkscape:vp_z="744.09448 : 526.18109 : 1"
       inkscape:persp3d-origin="372.04724 : 350.78739 : 1"
       id="perspective10" />
  </defs>
  <sodipodi:namedview
     id="base"
     pagecolor="#ffffff"
     bordercolor="#666666"
     borderopacity="1.0"
     inkscape:pageopacity="0.0"
     inkscape:pageshadow="2"
     inkscape:zoom="4.4083688"
     inkscape:cx="31.057696"
     inkscape:cy="42.606233"
     inkscape:document-units="px"
     inkscape:current-layer="layer1"
     showgrid="true"
     inkscape:window-width="1224"
     inkscape:window-height="1086"
     inkscape:window-x="370"
     inkscape:window-y="21"
     inkscape:window-maximized="0">
    <inkscape:grid
       type="xygrid"
       id="grid2816"
       empspacing="4"
       visible="true"
       enabled="true"
       snapvisiblegridlinesonly="true" />
  </sodipodi:namedview>
  <metadata
     id="metadata7">
    <rdf:RDF>
      <cc:Work
         rdf:about="">
        <dc:format>image/svg+xml</dc:format>
        <dc:type
           rdf:resource="http://purl.org/dc/dcmitype/StillImage" />
        <dc:title />
      </cc:Work>
    </rdf:RDF>
  </metadata>
  <g
     inkscape:label="Layer 1"
     inkscape:groupmode="layer"
     id="layer1"
     transform="translate(0,-924.36218)">
    <path
       style="opacity:1;fill:#000000;fill-opacity:1;fill-rule:nonzero;stroke:none"
       d="M 8.8898652,955.87946 C -5.6062933,980.41894 -2.3403,1012.5315 18.745166,1033.617 c 21.085466,21.0855 53.198071,24.3515 77.737552,9.8553 l -11.799845,-11.7998 c -17.840681,8.5326 -39.842904,5.4119 -54.623998,-9.3692 C 15.27778,1007.5222 12.157085,985.51999 20.68971,967.67931 L 8.8898652,955.87946 z m 22.6274168,-22.62741 11.799845,11.79984 c 17.840682,-8.53262 39.842904,-5.41193 54.623998,9.36916 14.781095,14.7811 17.901795,36.78332 9.369165,54.62405 l 11.79984,11.7998 c 14.49617,-24.53949 11.23017,-56.65209 -9.8553,-77.73755 -21.085462,-21.08547 -53.198063,-24.35147 -77.737548,-9.8553 z"
       id="path3693" />
    <path
       style="opacity:1;fill:#000000;fill-opacity:1;fill-rule:nonzero;stroke:none"
       d="m 49.857864,974.22004 c -7.810485,7.81049 -7.810485,20.47379 0,28.28426 7.810486,7.8105 20.473786,7.8105 28.284272,0 7.810485,-7.81047 7.810485,-20.47377 0,-28.28426 -7.810486,-7.81048 -20.473786,-7.81048 -28.284272,0 z m 5.656855,5.65686 c 4.686291,-4.68629 12.284271,-4.68629 16.970562,0 4.686292,4.68629 4.686292,12.28427 0,16.97056 -4.686291,4.68634 -12.284271,4.68634 -16.970562,0 -4.686292,-4.68629 -4.686292,-12.28427 0,-16.97056 z"
       id="path3753" />
    <path
       id="path3763"
       transform="translate(0,924.36218)"
       style="opacity:1;fill:#000000;fill-opacity:1;fill-rule:nonzero;stroke:none"
       d="m 128,116 c 0,6.62742 -5.37258,12 -12,12 -6.62742,0 -12,-5.37258 -12,-12 0,-6.62742 5.37258,-12 12,-12 6.62742,0 12,5.37258 12,12 z M 12,0 C 5.372583,0 0,5.372583 0,12 c 0,6.627417 5.372583,12 12,12 0.55583,0 1.089252,-0.05185 1.625,-0.125 L 13.09375,24.40625 39.375,50.6875 c 1.259772,-2.32971 2.843914,-4.53141 4.8125,-6.5 1.968586,-1.96859 4.170298,-3.55273 6.5,-4.8125 L 24.40625,13.09375 23.875,13.625 C 23.948151,13.089252 24,12.55583 24,12 24,5.372583 18.627417,0 12,0 z m 11.875,13.65625 c -0.0443,0.318323 -0.118733,0.62768 -0.1875,0.9375 -0.143505,0.646541 -0.319324,1.272357 -0.5625,1.875 0.243516,-0.602154 0.418518,-1.228925 0.5625,-1.875 0.06975,-0.312993 0.142722,-0.615813 0.1875,-0.9375 z M 22.71875,17.375 C 22.575503,17.659532 22.41467,17.94774 22.25,18.21875 22.086999,18.487014 21.901655,18.746072 21.71875,19 21.906469,18.740553 22.083109,18.493232 22.25,18.21875 22.416891,17.944268 22.573846,17.663359 22.71875,17.375 z m -1.6875,2.5 c -0.359457,0.411918 -0.744332,0.796793 -1.15625,1.15625 0.414612,-0.361496 0.794754,-0.741638 1.15625,-1.15625 z M 19,21.71875 C 18.746072,21.901655 18.487014,22.086999 18.21875,22.25 17.94774,22.41467 17.659532,22.575503 17.375,22.71875 17.663359,22.573846 17.944268,22.416891 18.21875,22.25 18.493232,22.083109 18.740553,21.906469 19,21.71875 z M 16.46875,23.125 c -0.602643,0.243176 -1.228459,0.418995 -1.875,0.5625 -0.30982,0.06877 -0.619177,0.143197 -0.9375,0.1875 0.321687,-0.04478 0.624507,-0.117747 0.9375,-0.1875 0.646075,-0.143982 1.272846,-0.318984 1.875,-0.5625 z M 88.625,77.3125 c -1.259772,2.3297 -2.843914,4.5314 -4.8125,6.5 -1.968586,1.9686 -4.170298,3.5528 -6.5,4.8125 l 26.28125,26.28125 0.53125,-0.53125 c 0.72591,-5.31648 4.93352,-9.52409 10.25,-10.25 l 0.53125,-0.53125 L 88.625,77.3125 z" />
  </g>
</svg>
