<?xml version="1.0" encoding="UTF-8" standalone="no"?>
<!-- Created with Inkscape (http://www.inkscape.org/) -->

<svg
   xmlns:dc="http://purl.org/dc/elements/1.1/"
   xmlns:cc="http://creativecommons.org/ns#"
   xmlns:rdf="http://www.w3.org/1999/02/22-rdf-syntax-ns#"
   xmlns:svg="http://www.w3.org/2000/svg"
   xmlns="http://www.w3.org/2000/svg"
   xmlns:sodipodi="http://sodipodi.sourceforge.net/DTD/sodipodi-0.dtd"
   xmlns:inkscape="http://www.inkscape.org/namespaces/inkscape"
   width="64"
   height="64"
   id="svg2"
   version="1.1"
   inkscape:version="0.47 r22583"
   sodipodi:docname="print.svg">
  <defs
     id="defs4">
    <inkscape:perspective
       sodipodi:type="inkscape:persp3d"
       inkscape:vp_x="0 : 526.18109 : 1"
       inkscape:vp_y="0 : 1000 : 0"
       inkscape:vp_z="744.09448 : 526.18109 : 1"
       inkscape:persp3d-origin="372.04724 : 350.78739 : 1"
       id="perspective10" />
  </defs>
  <sodipodi:namedview
     id="base"
     pagecolor="#ffffff"
     bordercolor="#666666"
     borderopacity="1.0"
     inkscape:pageopacity="0.0"
     inkscape:pageshadow="2"
     inkscape:zoom="11.40625"
     inkscape:cx="19.550685"
     inkscape:cy="32"
     inkscape:document-units="px"
     inkscape:current-layer="layer1"
     showgrid="true"
     inkscape:window-width="1425"
     inkscape:window-height="969"
     inkscape:window-x="363"
     inkscape:window-y="59"
     inkscape:window-maximized="0">
    <inkscape:grid
       type="xygrid"
       id="grid2816"
       empspacing="4"
       visible="true"
       enabled="true"
       snapvisiblegridlinesonly="true" />
  </sodipodi:namedview>
  <metadata
     id="metadata7">
    <rdf:RDF>
      <cc:Work
         rdf:about="">
        <dc:format>image/svg+xml</dc:format>
        <dc:type
           rdf:resource="http://purl.org/dc/dcmitype/StillImage" />
        <dc:title />
      </cc:Work>
    </rdf:RDF>
  </metadata>
  <g
     inkscape:label="Layer 1"
     inkscape:groupmode="layer"
     id="layer1"
     transform="translate(0,-988.36218)">
    <path
       style="opacity:1;fill:#000000;fill-opacity:1;fill-rule:nonzero;stroke:none"
       d="m 10,1028.3622 c -1.108,0 -2,0.892 -2,2 l 0,20 c 0,1.108 0.892,2 2,2 l 44,0 c 1.108,0 2,-0.892 2,-2 l 0,-20 c 0,-1.108 -0.892,-2 -2,-2 l -2,0 0,19 c 0,0.554 -0.446,1 -1,1 l -38,0 c -0.554,0 -1,-0.446 -1,-1 l 0,-19 -2,0 z"
       id="rect3888" />
    <rect
       style="opacity:1;fill:#000000;fill-opacity:1;fill-rule:nonzero;stroke:none"
       id="rect3903"
       width="32"
       height="2"
       x="16"
       y="1026.3622"
       ry="1" />
    <rect
       style="opacity:1;fill:#000000;fill-opacity:1;fill-rule:nonzero;stroke:none"
       id="rect3905"
       width="32"
       height="2"
       x="16"
       y="1030.3622"
       ry="1" />
    <rect
       style="opacity:1;fill:#000000;fill-opacity:1;fill-rule:nonzero;stroke:none"
       id="rect3907"
       width="32"
       height="2"
       x="16"
       y="1034.3622"
       ry="1" />
    <rect
       style="opacity:1;fill:#000000;fill-opacity:1;fill-rule:nonzero;stroke:none"
       id="rect3909"
       width="32"
       height="2"
       x="16"
       y="1038.3622"
       ry="1" />
    <path
       id="rect3936"
       transform="translate(0,988.36218)"
       style="opacity:1;fill:#000000;fill-opacity:1;fill-rule:nonzero;stroke:none"
       d="m 20,0 c -2.216,0 -4,1.784 -4,4 l 0,11 c 0,2.216 1.784,4 4,4 l 24,0 c 2.216,0 4,-1.784 4,-4 L 48,4 C 48,1.784 46.216,0 44,0 L 20,0 z m 2,4 20,0 c 1.108,0 2,0.892 2,2 l 0,6 c -1,0 -0.892,0 -2,0 l -20,0 c -1.108,0 0,0 -2,0 l 0,-6 c 0,-1.108 0.892,-2 2,-2 z m -6,9 C 8.7523603,13.994044 4,15.631924 4,17.5 4,17.595 4.00706,17.68755 4.03125,17.78125 4.0232955,17.85405 4,17.925 4,18 l 0,24 c 0,1.108 0.892,2 2,2 l 2,0 0,-2 c 0,-1.108 0.892,-2 2,-2 l 2.09375,0 0,-2.03125 c 0,-1.108 0.892,-2 2,-2 l 35.90625,0 c 1.108,0 2,0.892 2,2 L 52,40 l 2,0 c 1.108,0 2,0.892 2,2 l 0,2 2,0 c 1.108,0 2,-0.892 2,-2 L 60,18 C 60,17.925 59.97671,17.85405 59.96875,17.78125 59.99294,17.68725 60,17.5949 60,17.5 60,15.631924 55.24764,13.994044 48,13 l 0,2 c 0,2.216 -1.784,4 -4,4 l -24,0 c -2.216,0 -4,-1.784 -4,-4 l 0,-2 z m 2.03125,7 C 19.123715,20 20,20.8984 20,22 c 0,1.1015 -0.876285,2 -1.96875,2 -1.092465,0 -2,-0.8985 -2,-2 0,-1.1016 0.907535,-2 2,-2 z m -7.96875,0.09375 c 0.80661,0 1.495585,0.50465 1.78125,1.21875 C 11.93427,21.5388 12,21.8032 12,22.0625 12,23.1398 11.124702,24 10.0625,24 9.0002976,24 8.15625,23.1398 8.15625,22.0625 c 0,-0.5884 0.2500688,-1.1424 0.65625,-1.5 0.3375309,-0.2972 0.7679235,-0.46875 1.25,-0.46875 z"
       sodipodi:nodetypes="cccccccccccccccccccssccccccccccccccccccsscccccccsssccsssssc" />
  </g>
</svg>
