<?xml version="1.0" encoding="UTF-8" standalone="no"?>
<!-- Created with Inkscape (http://www.inkscape.org/) -->
<svg
   xmlns:dc="http://purl.org/dc/elements/1.1/"
   xmlns:cc="http://creativecommons.org/ns#"
   xmlns:rdf="http://www.w3.org/1999/02/22-rdf-syntax-ns#"
   xmlns:svg="http://www.w3.org/2000/svg"
   xmlns="http://www.w3.org/2000/svg"
   xmlns:sodipodi="http://sodipodi.sourceforge.net/DTD/sodipodi-0.dtd"
   xmlns:inkscape="http://www.inkscape.org/namespaces/inkscape"
   width="128"
   height="128"
   id="svg2"
   version="1.1"
   inkscape:version="0.46"
   sodipodi:docname="quassel.svg"
   sodipodi:version="0.32"
   inkscape:output_extension="org.inkscape.output.svg.inkscape">
  <defs
     id="defs4">
    <inkscape:path-effect
       effect="skeletal"
       id="path-effect3666"
       is_visible="true"
       pattern="M 0,0 0,10 10,5 z"
       copytype="single_stretched"
       prop_scale="1"
       scale_y_rel="false"
       spacing="0"
       normal_offset="0"
       tang_offset="0"
       prop_units="false"
       vertical_pattern="false"
       fuse_tolerance="0" />
    <inkscape:perspective
       sodipodi:type="inkscape:persp3d"
       inkscape:vp_x="0 : 526.18109 : 1"
       inkscape:vp_y="0 : 1000 : 0"
       inkscape:vp_z="744.09448 : 526.18109 : 1"
       inkscape:persp3d-origin="372.04724 : 350.78739 : 1"
       id="perspective10" />
    <inkscape:perspective
       id="perspective3622"
       inkscape:persp3d-origin="0.5 : 0.33333333 : 1"
       inkscape:vp_z="1 : 0.5 : 1"
       inkscape:vp_y="0 : 1000 : 0"
       inkscape:vp_x="0 : 0.5 : 1"
       sodipodi:type="inkscape:persp3d" />
    <inkscape:perspective
       id="perspective6606"
       inkscape:persp3d-origin="372.04724 : 350.78739 : 1"
       inkscape:vp_z="744.09448 : 526.18109 : 1"
       inkscape:vp_y="0 : 1000 : 0"
       inkscape:vp_x="0 : 526.18109 : 1"
       sodipodi:type="inkscape:persp3d" />
    <inkscape:perspective
       sodipodi:type="inkscape:persp3d"
       inkscape:vp_x="0 : 526.18109 : 1"
       inkscape:vp_y="0 : 1000 : 0"
       inkscape:vp_z="744.09448 : 526.18109 : 1"
       inkscape:persp3d-origin="372.04724 : 350.78739 : 1"
       id="perspective2525" />
    <inkscape:perspective
       id="perspective6794"
       inkscape:persp3d-origin="372.04724 : 350.78739 : 1"
       inkscape:vp_z="744.09448 : 526.18109 : 1"
       inkscape:vp_y="0 : 1000 : 0"
       inkscape:vp_x="0 : 526.18109 : 1"
       sodipodi:type="inkscape:persp3d" />
    <inkscape:perspective
       id="perspective6847"
       inkscape:persp3d-origin="372.04724 : 350.78739 : 1"
       inkscape:vp_z="744.09448 : 526.18109 : 1"
       inkscape:vp_y="0 : 1000 : 0"
       inkscape:vp_x="0 : 526.18109 : 1"
       sodipodi:type="inkscape:persp3d" />
    <inkscape:perspective
       id="perspective11344"
       inkscape:persp3d-origin="30 : 20 : 1"
       inkscape:vp_z="60 : 30 : 1"
       inkscape:vp_y="0 : 1000 : 0"
       inkscape:vp_x="0 : 30 : 1"
       sodipodi:type="inkscape:persp3d" />
  </defs>
  <sodipodi:namedview
     id="base"
     pagecolor="#ffffff"
     bordercolor="#666666"
     borderopacity="1.0"
     inkscape:pageopacity="0.0"
     inkscape:pageshadow="2"
     inkscape:zoom="0.96950969"
     inkscape:cx="-38.238333"
     inkscape:cy="157.95476"
     inkscape:document-units="px"
     inkscape:current-layer="layer2"
     showgrid="true"
     inkscape:window-width="1418"
     inkscape:window-height="841"
     inkscape:window-x="14"
     inkscape:window-y="3"
     inkscape:window-maximized="0">
    <inkscape:grid
       type="xygrid"
       id="grid2816"
       empspacing="4"
       visible="true"
       enabled="true"
       snapvisiblegridlinesonly="true" />
  </sodipodi:namedview>
  <metadata
     id="metadata7">
    <rdf:RDF>
      <cc:Work
         rdf:about="">
        <dc:format>image/svg+xml</dc:format>
        <dc:type
           rdf:resource="http://purl.org/dc/dcmitype/StillImage" />
        <dc:title />
      </cc:Work>
    </rdf:RDF>
  </metadata>
  <g
     inkscape:label="Layer 1"
     inkscape:groupmode="layer"
     id="layer1"
     transform="translate(0,-924.36218)">
    <path
       style="font-size:12px;fill:#b3b3b3;fill-opacity:1;fill-rule:evenodd;stroke:none;stroke-width:3.12500167000000006;stroke-dasharray:none"
       d="M 97.40625 77.375 L 97.53125 77.5 L 97.59375 77.4375 L 97.40625 77.375 z "
       id="path11463"
       transform="translate(0,924.36218)" />
    <path
       style="font-size:12px;fill:#b3b3b3;fill-opacity:1;fill-rule:evenodd;stroke:none;stroke-width:3.12500167000000006;stroke-dasharray:none"
       d="M 97.40625 77.375 L 97.59375 77.4375 L 97.53125 77.5 L 97.40625 77.375 z "
       id="path11461"
       transform="translate(0,924.36218)" />
    <path
       style="font-size:12px;fill:#b3b3b3;fill-opacity:1;fill-rule:evenodd;stroke:none;stroke-width:3.12500167000000006;stroke-dasharray:none"
       d="M 68.96875 72.125 L 68.5625 73.59375 C 68.546392 73.6476 68.525475 73.699903 68.5 73.75 L 68.1875 74.40625 L 68.65625 74.65625 C 68.666911 74.66642 68.67733 74.676843 68.6875 74.6875 L 69.09375 74.96875 L 70.375 75.03125 L 71.625 72.6875 C 71.673075 72.59426 71.736455 72.509763 71.8125 72.4375 L 68.96875 72.125 z "
       id="path11455"
       transform="translate(0,924.36218)" />
    <path
       style="font-size:12px;fill:#000000;fill-opacity:1;fill-rule:evenodd;stroke:none;stroke-width:3.12500167000000006;stroke-dasharray:none"
       d="M 68.96875 72.125 L 71.8125 72.4375 C 71.736455 72.509763 71.673075 72.59426 71.625 72.6875 L 70.375 75.03125 L 69.09375 74.96875 L 68.6875 74.6875 C 68.67733 74.676843 68.666911 74.66642 68.65625 74.65625 L 68.1875 74.40625 L 68.5 73.75 C 68.525475 73.699903 68.546392 73.6476 68.5625 73.59375 L 68.96875 72.125 z "
       id="path11453"
       transform="translate(0,924.36218)" />
    <path
       style="font-size:12px;fill:#b3b3b3;fill-opacity:1;fill-rule:evenodd;stroke:none;stroke-width:3.12500167000000006;stroke-dasharray:none"
       d="M 86.5625 70.59375 L 86.375 72.34375 L 89.5 71.1875 L 86.5625 70.59375 z "
       id="path11451"
       transform="translate(0,924.36218)" />
    <path
       style="font-size:12px;fill:#000000;fill-opacity:1;fill-rule:evenodd;stroke:none;stroke-width:3.12500167000000006;stroke-dasharray:none"
       d="M 86.5625 70.59375 L 89.5 71.1875 L 86.375 72.34375 L 86.5625 70.59375 z "
       id="path11449"
       transform="translate(0,924.36218)" />
    <path
       style="font-size:12px;fill:#b3b3b3;fill-opacity:1;fill-rule:evenodd;stroke:none;stroke-width:3.12500167000000006;stroke-dasharray:none"
       d="M 79.96875 63.375 L 79.59375 63.875 L 79.96875 63.78125 L 79.96875 63.375 z "
       id="path11447"
       transform="translate(0,924.36218)" />
    <path
       style="font-size:12px;fill:#b3b3b3;fill-opacity:1;fill-rule:evenodd;stroke:none;stroke-width:3.12500167000000006;stroke-dasharray:none"
       d="M 79.96875 63.375 L 79.96875 63.78125 L 79.59375 63.875 L 79.96875 63.375 z "
       id="path11445"
       transform="translate(0,924.36218)" />
    <path
       style="font-size:12px;fill:#b3b3b3;fill-opacity:1;fill-rule:evenodd;stroke:none;stroke-width:3.12500167000000006;stroke-dasharray:none"
       d="M 78.71875 59.5625 L 77.1875 61.5 L 77.375 61.53125 C 77.738414 61.59305 78.03189 61.862069 78.125 62.21875 L 78.21875 62.59375 L 78.5625 62.15625 L 78.3125 60.6875 C 78.287203 60.4812 78.331174 60.272339 78.4375 60.09375 L 78.71875 59.5625 z "
       id="path11443"
       transform="translate(0,924.36218)" />
    <path
       style="font-size:12px;fill:#000000;fill-opacity:1;fill-rule:evenodd;stroke:none;stroke-width:3.12500167000000006;stroke-dasharray:none"
       d="M 78.71875 59.5625 L 78.4375 60.09375 C 78.331174 60.272339 78.287203 60.4812 78.3125 60.6875 L 78.5625 62.15625 L 78.21875 62.59375 L 78.125 62.21875 C 78.03189 61.862069 77.738414 61.59305 77.375 61.53125 L 77.1875 61.5 L 78.71875 59.5625 z "
       id="path11441"
       transform="translate(0,924.36218)" />
    <path
       style="font-size:12px;fill:#b3b3b3;fill-opacity:1;fill-rule:evenodd;stroke:none;stroke-width:3.12500167000000006;stroke-dasharray:none"
       d="M 80.625 57.125 L 80.34375 57.46875 C 80.354166 57.46858 80.364584 57.468579 80.375 57.46875 L 81.28125 57.46875 C 81.484096 57.46876 81.681469 57.534549 81.84375 57.65625 C 81.889492 57.59819 81.94194 57.545739 82 57.5 L 80.625 57.125 z "
       id="path11439"
       transform="translate(0,924.36218)" />
    <path
       style="font-size:12px;fill:#b3b3b3;fill-opacity:1;fill-rule:evenodd;stroke:none;stroke-width:3.12500167000000006;stroke-dasharray:none"
       d="M 80.625 57.125 L 82 57.5 C 81.94194 57.545739 81.889492 57.59819 81.84375 57.65625 C 81.681469 57.534549 81.484096 57.46876 81.28125 57.46875 L 80.375 57.46875 C 80.364584 57.468579 80.354166 57.46858 80.34375 57.46875 L 80.625 57.125 z "
       id="path11437"
       transform="translate(0,924.36218)" />
    <path
       style="opacity:1;fill:#000000;fill-opacity:1;fill-rule:nonzero;stroke:none"
       d="M 64 0 C 28.653776 7.1054274e-15 -1.110223e-16 28.653776 0 64 C 0 99.346224 28.653776 128 64 128 C 99.346224 128 128 99.346224 128 64 C 128 28.653776 99.346224 -1.4321877e-14 64 0 z M 64 18.78125 C 88.967382 18.78125 109.25 39.032621 109.25 64 C 109.24998 88.96734 88.998635 109.25 64.03125 109.25 C 39.06387 109.25 18.75 88.967341 18.75 64 C 18.75 39.03262 39.032622 18.781249 64 18.78125 z "
       id="path3798"
       transform="translate(0,924.36218)" />
    <path
       style="font-size:12px;fill:#000000;fill-opacity:1;fill-rule:evenodd;stroke:none;stroke-width:6.85052013;stroke-dasharray:none;stroke-opacity:1"
       d="M 77.118334,968.86026 C 61.117944,968.86026 48.108774,981.86943 48.108774,997.86982 C 48.108774,1013.8702 61.117944,1026.8937 77.118334,1026.8937 C 93.118724,1026.8937 106.14215,1013.8702 106.14215,997.86982 C 106.14215,981.86943 93.118724,968.86026 77.118334,968.86026 z M 77.118334,971.98217 C 91.427904,971.98217 103.00598,983.56025 103.00598,997.86982 C 103.00598,1012.1794 91.427904,1023.7718 77.118334,1023.7718 C 62.808764,1023.7718 51.230684,1012.1794 51.230684,997.86982 C 51.230684,983.56025 62.808764,971.98217 77.118334,971.98217 z" />
    <path
       d="M 53.831516,984.90515 L 56.576982,983.88831 L 56.576982,982.87148 L 57.28877,982.87148 L 57.28877,983.88831 L 58.712345,983.78663 L 62.779702,977.58391 L 58.102242,979.51591 L 58.102242,979.41422"
       id="path594"
       sodipodi:nodetypes="ccccccccc"
       style="font-size:12px;fill:none;fill-opacity:0.75000000000000000;fill-rule:evenodd;stroke:none;stroke-width:1.87499463999999993;stroke-linecap:round;stroke-linejoin:round;stroke-dasharray:none" />
    <path
       d="M 62.983071,981.95632 L 67.152111,980.22769 L 70.914422,979.71927 L 74.981771,975.44855 L 70.304306,974.83844 L 67.152111,978.2957 L 62.983071,981.95632 z"
       id="path595"
       sodipodi:nodetypes="ccccccc"
       style="font-size:12px;fill:none;fill-opacity:0.75000000000000000;fill-rule:evenodd;stroke:none;stroke-width:1.87499463999999993;stroke-linecap:round;stroke-linejoin:round;stroke-dasharray:none" />
    <path
       d="M 70.812731,991.41293 L 73.456513,990.70114 L 72.134622,988.26072 L 72.846413,987.65062 L 72.032947,986.83715 L 70.812731,991.41293 z"
       id="path597"
       style="font-size:12px;fill:none;fill-opacity:0.75000000000000000;fill-rule:evenodd;stroke:none;stroke-width:1.87499463999999993;stroke-linecap:round;stroke-linejoin:round;stroke-dasharray:none" />
    <path
       d="M 70.405997,990.19272 L 70.711056,988.56578 L 68.982431,989.6843 L 70.405997,990.19272 z"
       id="path598"
       style="font-size:12px;fill:none;fill-opacity:0.75000000000000000;fill-rule:evenodd;stroke:none;stroke-width:1.87499463999999993;stroke-linecap:round;stroke-linejoin:round;stroke-dasharray:none" />
    <path
       style="font-size:12px;fill:#000000;fill-opacity:1;fill-rule:evenodd;stroke:none;stroke-width:3.12500167000000006;stroke-dasharray:none"
       d="M 70.75 47.5 C 70.379636 47.565093 69.991082 47.524319 69.625 47.625 C 69.465476 47.6728 69.331765 47.728908 69.1875 47.8125 C 68.238904 48.362153 67.384775 48.771886 66.53125 49.34375 C 66.365051 49.307771 66.098955 49.394893 65.96875 49.46875 C 64.702923 50.186775 64.191906 50.414985 63.71875 50.75 C 62.753212 51.165195 61.874236 51.618671 60.8125 52.40625 C 60.13214 52.919388 59.4402 53.473132 59.15625 54.3125 C 59.071237 54.714767 58.984317 55.18416 59.21875 55.5625 C 59.260619 55.630071 59.301729 55.749579 59.375 55.71875 C 59.513893 55.660313 59.645266 55.595893 59.78125 55.53125 C 59.939701 55.520536 60.102675 55.493676 60.375 55.5 C 60.845242 55.501568 61.311012 55.501081 61.78125 55.5 C 62.064715 55.495525 62.235509 55.484788 62.4375 55.46875 C 62.463227 55.483093 62.502608 55.495132 62.53125 55.5 C 62.704134 55.529385 62.940705 55.441501 63.15625 55.34375 C 63.177998 55.337375 63.197301 55.319465 63.21875 55.3125 C 63.270349 55.288385 63.335624 55.268545 63.375 55.25 C 63.494285 55.202096 63.65153 55.134019 63.78125 55.0625 C 63.989278 54.968028 64.202914 54.878476 64.4375 54.78125 C 64.153431 54.986876 63.917835 55.214711 63.96875 55.59375 C 64.013648 55.787372 64.093324 55.95692 64.1875 56.125 C 63.692654 56.411914 63.192849 56.753218 62.5625 57.125 C 62.218582 57.327844 61.923798 57.584883 61.6875 57.90625 C 61.403455 58.339779 61.148564 58.791829 60.96875 59.28125 C 60.716191 59.441417 60.533597 59.573566 60.4375 59.625 C 60.551434 59.57396 60.705821 59.513183 60.90625 59.46875 C 60.860987 59.615809 60.804707 59.783901 60.78125 59.9375 L 61.125 59.78125 C 61.138619 59.792775 61.140925 59.798907 61.15625 59.8125 C 61.563353 59.581203 62.011096 59.317368 62.34375 59.125 L 62.59375 59 C 62.65426 58.979673 62.718562 58.948582 62.78125 58.9375 C 63.024255 58.894538 63.259984 58.914424 63.5 58.84375 C 63.8865 58.761071 64.283553 58.731836 64.65625 58.59375 C 65.930349 57.85636 67.22113 57.362972 68.125 56.21875 C 68.410718 55.823669 68.668991 55.394148 69.0625 55.09375 C 69.345917 54.791433 69.629 54.481589 69.21875 54.125 C 69.163979 54.104744 69.120831 54.065342 69.0625 54.0625 C 68.78172 54.048829 68.287023 54.498506 68 54.5625 C 67.560466 54.724668 67.126937 54.900159 66.6875 55.0625 C 66.530165 54.827755 66.402927 54.595383 66.34375 54.3125 C 66.415147 54.036727 66.738364 53.958405 66.9375 53.78125 C 67.255436 53.614245 67.322296 53.227177 67.40625 52.90625 C 67.466518 52.65551 67.555707 52.669004 67.71875 52.53125 C 67.854133 52.416869 67.943458 52.225901 68.0625 52.09375 C 68.267601 51.776739 68.571082 51.555324 68.6875 51.1875 C 68.68195 50.920501 68.461501 50.743948 68.375 50.5 C 68.287517 50.316879 68.201008 50.224883 68.09375 50.15625 C 68.14574 50.04776 68.159862 49.92811 68.15625 49.84375 C 68.513355 49.612235 68.872517 49.372807 69.21875 49.125 C 69.598897 48.849831 70.001871 48.597053 70.375 48.3125 C 70.431444 48.269455 70.833783 47.927359 70.84375 47.875 C 70.866778 47.754004 70.77813 47.619911 70.75 47.5 z M 68.03125 49.15625 C 67.834237 49.307937 67.640372 49.480245 67.4375 49.625 C 67.39597 49.639354 67.353547 49.640882 67.3125 49.65625 C 67.313648 49.643506 67.320486 49.621533 67.3125 49.625 C 67.133618 49.702668 66.959923 49.79677 66.78125 49.875 C 66.796416 49.842094 66.804683 49.814394 66.8125 49.78125 C 67.065317 49.619529 67.311712 49.444748 67.5625 49.28125 C 67.577688 49.272341 67.61053 49.258474 67.625 49.25 C 67.762859 49.206058 67.886806 49.178272 68.03125 49.15625 z M 87.6875 49.375 C 87.575709 49.577794 87.392923 49.736659 87.15625 49.8125 L 85.625 50.375 L 88.5 53.8125 C 88.800044 54.16335 88.800044 54.680399 88.5 55.03125 L 84.5625 59.8125 C 84.403524 60.01124 84.159659 60.16393 83.90625 60.1875 C 83.65284 60.21108 83.411657 60.103509 83.21875 59.9375 L 82.0625 58.96875 L 81.1875 60.65625 L 81.71875 61.40625 C 81.847062 61.57703 81.913212 61.786499 81.90625 62 L 81.8125 64.53125 C 81.799899 64.94208 81.521186 65.296813 81.125 65.40625 L 75.3125 67 L 72.28125 68.90625 L 72.84375 71.3125 C 72.917035 71.62777 72.822529 71.958543 72.59375 72.1875 L 72.78125 72.1875 L 73.09375 71.71875 C 73.204681 71.54576 73.369375 71.414003 73.5625 71.34375 L 76.3125 70.40625 C 76.541275 70.33889 76.787122 70.361243 77 70.46875 C 77.164705 70.15654 77.490803 69.963303 77.84375 69.96875 L 78.84375 69.96875 C 79.138832 69.96876 79.41669 70.107693 79.59375 70.34375 L 82.4375 74.15625 L 82.9375 72.8125 C 83.065293 72.48323 83.367285 72.253723 83.71875 72.21875 L 84.53125 72.09375 L 84.84375 69.375 C 84.874228 69.11904 85.011835 68.903717 85.21875 68.75 C 85.425668 68.59629 85.683648 68.517763 85.9375 68.5625 L 91.03125 69.5625 C 91.499396 69.65626 91.822326 70.086833 91.78125 70.5625 L 91.6875 71.78125 C 91.658766 72.15208 91.413549 72.470863 91.0625 72.59375 L 86.1875 74.375 L 86.21875 74.5 L 89.53125 73.84375 C 89.810357 73.78675 90.093662 73.880144 90.3125 74.0625 C 90.531341 74.24487 90.661983 74.496443 90.65625 74.78125 L 90.5625 78.5625 C 90.558981 78.8098 90.457892 79.045649 90.28125 79.21875 C 90.502483 79.22935 90.712824 79.317949 90.875 79.46875 L 95.34375 83.59375 L 97.90625 79.8125 C 97.543875 79.9504 97.13399 79.851003 96.875 79.5625 L 94.84375 77.34375 C 94.648512 77.14335 94.563525 76.871849 94.59375 76.59375 C 94.62398 76.31565 94.766271 76.060048 95 75.90625 L 95.90625 75.3125 C 96.143407 75.148 96.443114 75.101893 96.71875 75.1875 L 99 75.875 L 101.96875 73.625 C 102.12702 73.49208 102.32476 73.415183 102.53125 73.40625 L 104.625 73.40625 C 104.08826 62.517981 97.297678 53.308292 87.6875 49.375 z M 63.53125 53.75 C 63.531286 53.781016 63.531254 53.812735 63.53125 53.84375 C 63.478688 53.868146 63.416328 53.887658 63.375 53.90625 C 63.312417 53.906272 63.250083 53.906439 63.1875 53.90625 C 63.305589 53.859907 63.412553 53.795264 63.53125 53.75 z M 65.78125 57.125 C 65.763257 57.150845 65.768369 57.193311 65.75 57.21875 C 65.719471 57.224342 65.686623 57.212647 65.65625 57.21875 C 65.701417 57.191622 65.736342 57.152125 65.78125 57.125 z M 55 58.40625 L 52.625 59.65625 C 52.791701 60.364 52.947891 61.083811 53.15625 61.78125 C 53.207776 61.913798 53.236161 62.052932 53.28125 62.1875 C 52.74848 62.459036 52.494826 62.636081 52.375 63.03125 L 52.03125 63.1875 C 51.998858 63.254288 51.96989 63.308213 51.9375 63.375 C 51.790383 63.7506 51.730498 64.114358 52.0625 64.40625 C 52.119859 64.451436 52.193563 64.485119 52.25 64.53125 C 52.241453 64.895985 52.219976 65.260172 52.21875 65.625 C 52.218434 65.82095 52.218607 66.0228 52.21875 66.21875 C 52.07623 66.436078 51.914128 66.641238 51.75 66.84375 C 51.37376 67.347854 50.986987 67.847701 50.5625 68.3125 C 50.269724 68.668994 50.046371 69.046967 49.9375 69.5 C 49.766007 70.043778 49.529785 70.577121 49.375 71.125 C 49.286498 71.722943 49.312476 72.303109 49.3125 72.90625 C 49.321054 73.406227 49.347533 73.912577 49.4375 74.40625 C 49.557858 74.999489 49.705726 75.585688 49.78125 76.1875 C 49.868066 76.831197 49.87844 77.479239 49.9375 78.125 C 50.035238 78.787521 50.221174 79.434644 50.53125 80.03125 C 50.817031 80.661421 50.545001 80.111347 50.84375 80.71875 C 50.347396 81.009552 50.017595 81.18868 49.90625 81.25 C 50.00027 81.231075 50.266669 81.192848 50.625 81.1875 C 50.677684 81.187805 50.667459 81.186919 50.78125 81.1875 C 50.883433 81.18836 50.989904 81.213032 51.09375 81.21875 C 51.195829 81.398335 51.3181 81.539457 51.5 81.65625 C 51.599942 81.691532 51.720317 81.711796 51.84375 81.71875 C 51.94815 81.987271 51.992441 82.274782 52.03125 82.5625 C 52.008472 82.63656 51.991095 82.699592 51.96875 82.78125 C 51.800202 83.587286 51.705862 84.419139 51.96875 85.21875 C 52.010352 85.300452 52.039782 85.394634 52.09375 85.46875 C 52.813188 86.45681 54.465208 84.925684 54.90625 83.9375 C 55.912791 83.530684 56.876907 83.054186 57.8125 82.3125 C 58.317974 81.941101 58.720596 81.51436 58.625 80.84375 C 58.568962 80.343564 58.435826 79.860779 58.0625 79.5 C 57.535538 79.114327 56.929147 78.87869 56.28125 78.78125 C 55.692484 78.679286 55.096101 78.736786 54.5 78.71875 C 54.150429 78.717774 53.786516 78.711366 53.4375 78.6875 C 53.242533 78.66786 53.058872 78.688176 53.15625 78.4375 C 53.278936 78.125244 53.372887 77.821776 53.46875 77.5 C 53.565212 77.171962 53.669673 76.843934 53.5625 76.5 C 53.425515 76.159329 53.23118 75.868453 53.03125 75.5625 C 52.830496 75.277092 52.556189 75.047504 52.375 74.75 C 52.180563 74.407983 52.126885 74.009496 52.0625 73.625 C 52.019261 73.273744 51.988203 72.910706 52.0625 72.5625 C 52.205592 72.063146 52.366363 71.572625 52.46875 71.0625 C 52.553501 70.662817 52.673766 70.269089 52.78125 69.875 C 52.898282 69.496983 53.027255 69.123402 53.28125 68.8125 C 53.529594 68.529144 53.842737 68.343001 54.09375 68.0625 C 54.385696 67.703469 54.664319 67.34846 54.96875 67 C 55.21067 66.744929 55.462863 66.514328 55.75 66.3125 C 56.069453 66.048907 56.247296 65.688572 56.40625 65.3125 C 56.568247 64.913629 56.672432 64.529367 56.625 64.09375 C 56.615024 63.742144 56.6097 63.368761 56.5 63.03125 C 56.37719 62.711443 56.187466 62.444356 56.0625 62.125 C 55.85529 61.590428 55.671769 61.036465 55.46875 60.5 C 55.256089 59.809463 55.080345 59.125866 55 58.40625 z M 76.03125 77.4375 L 67.1875 78.46875 L 66.84375 80.0625 C 66.785139 80.3119 66.62706 80.526448 66.40625 80.65625 L 63.125 82.65625 L 62.4375 86.75 L 65.96875 91.8125 L 74.09375 93.0625 C 74.168933 93.0744 74.242391 93.095403 74.3125 93.125 L 76.84375 94.125 C 77.277612 94.2985 77.517503 94.764949 77.40625 95.21875 L 77.125 96.375 L 78.84375 97.84375 C 78.956334 97.94655 79.042146 98.075249 79.09375 98.21875 L 79.5 99.21875 C 79.653399 99.56855 79.579228 99.976603 79.3125 100.25 L 79.09375 100.46875 L 80.71875 101.15625 C 81.019067 101.24332 81.185687 101.52104 81.28125 101.8125 C 84.630053 101.32272 87.751047 100.24184 90.59375 98.65625 C 90.515271 98.471431 90.477963 98.272103 90.53125 98.0625 L 91.46875 94.375 C 91.484892 94.2769 91.516537 94.181949 91.5625 94.09375 L 95.40625 87.90625 C 95.033232 88.08175 94.589363 87.992903 94.3125 87.6875 L 88.53125 81.1875 C 88.3669 81.00315 88.275635 80.792712 88.28125 80.5625 C 88.286865 80.332288 88.38936 80.082349 88.5625 79.90625 L 87.09375 80.4375 C 86.942688 80.4875 86.781374 80.498249 86.625 80.46875 L 83 79.84375 L 82.59375 80.53125 C 82.380937 80.90245 81.943779 81.082449 81.53125 80.96875 L 76.75 79.625 C 76.376633 79.5082 76.115039 79.171848 76.09375 78.78125 L 76.03125 77.4375 z M 54.25 80.34375 C 54.289581 80.350035 54.335767 80.336373 54.375 80.34375 C 54.335099 80.363993 54.288464 80.38696 54.25 80.40625 C 54.252843 80.385827 54.249375 80.364231 54.25 80.34375 z M 51.6875 81.40625 C 51.701413 81.424116 51.70612 81.450197 51.71875 81.46875 C 51.67108 81.473224 51.660098 81.441379 51.6875 81.40625 z "
       id="path11435"
       transform="translate(0,924.36218)" />
  </g>
  <g
     inkscape:groupmode="layer"
     id="layer2"
     style="opacity:0.66523605">
    <path
       style="font-size:12px;fill:#000000;fill-opacity:1;fill-rule:evenodd;stroke:none;stroke-width:3.12500167;stroke-dasharray:none"
       d="M 77.437502,47.304725 C 62.282522,47.304725 49.968752,59.587255 49.968752,74.742225 C 49.968752,89.897245 62.282522,102.21094 77.437502,102.21094 C 77.737342,102.21094 78.014972,102.12674 78.312502,102.11724 L 78.281252,102.08594 C 79.341252,102.05224 80.379492,101.92254 81.406252,101.77344 C 81.309902,101.48204 81.115292,101.20444 80.812502,101.11724 L 79.187502,100.42974 L 79.406252,100.21094 C 79.675172,99.937541 79.748412,99.529641 79.593752,99.179741 L 79.187502,98.179745 C 79.135472,98.036345 79.051012,97.907545 78.937502,97.804745 L 77.218752,96.335945 L 77.500002,95.179745 C 77.612172,94.725845 77.343692,94.259345 76.906252,94.085945 L 74.375002,93.085945 C 74.304312,93.056445 74.232052,93.035445 74.156252,93.023445 L 65.968752,91.773445 L 62.406252,86.710945 L 63.093752,82.617245 L 66.406252,80.617245 C 66.628882,80.487545 66.784652,80.272745 66.843752,80.023445 L 67.187502,78.429745 L 76.093752,77.398445 L 76.156252,78.742245 C 76.177712,79.132945 76.436062,79.469145 76.812502,79.585945 L 81.656252,80.929745 C 82.072182,81.043445 82.504182,80.863345 82.718752,80.492245 L 83.125002,79.804745 L 86.781252,80.429745 C 86.938912,80.459245 87.097692,80.448345 87.250002,80.398445 L 88.750002,79.867245 C 88.575442,80.043345 88.443162,80.293245 88.437502,80.523445 C 88.431842,80.753745 88.553052,80.964245 88.718752,81.148445 L 94.531252,87.648445 C 94.810392,87.953845 95.248912,88.042745 95.625002,87.867245 L 91.750002,94.054745 C 91.703652,94.142845 91.672532,94.237845 91.656252,94.335945 L 90.718752,98.023445 C 90.665032,98.233045 90.702132,98.432345 90.781252,98.617241 C 91.431542,98.257345 92.127082,97.955045 92.750002,97.554745 C 92.776912,97.537445 92.817182,97.541245 92.843752,97.523445 L 92.843752,97.492245 C 99.973122,92.646745 104.63243,84.494745 104.8125,75.273475 L 103.09375,75.273475 L 103.125,75.242225 L 105,75.242225 C 105.00357,75.060735 105.0625,74.893375 105.0625,74.710975 C 105.0625,74.250985 104.9601,73.821725 104.9375,73.367225 L 102.8125,73.367225 C 102.60431,73.376135 102.40958,73.453075 102.25,73.585975 L 99.250002,75.835945 L 96.968752,75.148475 C 96.690842,75.062875 96.395362,75.108975 96.156252,75.273475 L 95.218752,75.867245 C 94.983102,76.021145 94.842982,76.276545 94.812502,76.554745 C 94.782032,76.832845 94.865662,77.104245 95.062502,77.304745 L 97.125002,79.523445 C 97.386132,79.811945 97.790892,79.911245 98.156252,79.773445 L 95.562502,83.554745 L 91.062502,79.429745 C 90.898992,79.278845 90.691812,79.190345 90.468752,79.179745 C 90.646852,79.006645 90.746462,78.770745 90.750002,78.523445 L 90.843752,74.742225 C 90.849542,74.457435 90.720652,74.205875 90.500002,74.023475 C 90.279362,73.841185 90.000162,73.747715 89.718752,73.804725 L 86.375002,74.460975 L 86.343752,74.335975 L 91.250002,72.554725 C 91.603942,72.431835 91.846032,72.113025 91.875002,71.742225 L 91.968752,70.523475 C 92.010162,70.047875 91.690752,69.617275 91.218752,69.523475 L 86.093752,68.523475 C 85.837802,68.478775 85.583622,68.557275 85.375002,68.710975 C 85.166382,68.864775 85.030732,69.080085 85.000002,69.335975 L 84.687502,72.054725 L 83.843752,72.179725 C 83.489392,72.214725 83.191352,72.444275 83.062502,72.773475 L 82.562502,74.117225 L 79.687502,70.304725 C 79.508982,70.068645 79.235022,69.929725 78.937502,69.929725 L 77.937502,69.929725 C 77.581642,69.924235 77.259812,70.117515 77.093752,70.429725 C 76.879122,70.322225 76.605662,70.299825 76.375002,70.367225 L 73.625002,71.304725 C 73.430282,71.374935 73.236852,71.506735 73.125002,71.679725 L 72.812502,72.148475 L 72.625002,72.148475 C 72.855662,71.919575 72.948892,71.588775 72.875002,71.273475 L 72.312502,68.867225 L 75.375002,66.960975 L 81.250002,65.367225 C 81.649452,65.257825 81.924792,64.903025 81.937502,64.492225 L 82.031252,61.960975 C 82.038272,61.747475 81.973122,61.538025 81.843752,61.367225 L 81.312502,60.617225 L 82.187502,58.929725 L 83.343752,59.898475 C 83.538252,60.064565 83.775752,60.172075 84.031252,60.148475 C 84.286742,60.124975 84.558462,59.972275 84.718752,59.773475 L 88.687502,54.992225 C 88.990022,54.641375 88.990022,54.124315 88.687502,53.773475 L 85.781252,50.335975 L 87.312502,49.773475 C 87.551132,49.697645 87.731032,49.538775 87.843752,49.335975 C 87.004952,48.995475 86.127542,48.782285 85.250002,48.523475 L 85.218752,48.554725 C 85.209102,48.551855 85.197162,48.557595 85.187502,48.554725 C 82.714812,47.821445 80.147112,47.304725 77.437502,47.304725 z M 83.437502,50.554725 L 86.718752,54.398475 L 86.687502,54.429725 L 83.437502,50.554725 z M 75.375002,63.054725 L 76.531252,63.242225 L 76.531252,63.273475 L 75.437502,63.085975 C 75.413242,63.081365 75.398442,63.061185 75.375002,63.054725 z M 97.812502,84.773445 L 96.750002,85.273445 L 97.687502,84.804745 C 97.729442,84.785645 97.769152,84.785645 97.812502,84.773445 z M 65.406252,93.585945 L 73.812502,94.867245 L 73.875002,94.867245 L 73.937502,94.898445 L 73.875002,94.898445 L 65.406252,93.585945 z"
       id="path11433" />
  </g>
</svg>
