<?xml version="1.0" encoding="UTF-8" standalone="no"?>
<!-- Created with Inkscape (http://www.inkscape.org/) -->
<svg
   xmlns:dc="http://purl.org/dc/elements/1.1/"
   xmlns:cc="http://creativecommons.org/ns#"
   xmlns:rdf="http://www.w3.org/1999/02/22-rdf-syntax-ns#"
   xmlns:svg="http://www.w3.org/2000/svg"
   xmlns="http://www.w3.org/2000/svg"
   xmlns:sodipodi="http://sodipodi.sourceforge.net/DTD/sodipodi-0.dtd"
   xmlns:inkscape="http://www.inkscape.org/namespaces/inkscape"
   width="64"
   height="64"
   id="svg2"
   version="1.1"
   inkscape:version="0.46"
   sodipodi:docname="ram-suspend.svg"
   sodipodi:version="0.32"
   inkscape:output_extension="org.inkscape.output.svg.inkscape">
  <defs
     id="defs4">
    <inkscape:perspective
       sodipodi:type="inkscape:persp3d"
       inkscape:vp_x="0 : 526.18109 : 1"
       inkscape:vp_y="0 : 1000 : 0"
       inkscape:vp_z="744.09448 : 526.18109 : 1"
       inkscape:persp3d-origin="372.04724 : 350.78739 : 1"
       id="perspective10" />
    <pattern
       id="pattern2834"
       patternTransform="translate(11.69844,8.7393398)"
       height="46.406551"
       width="52.00226"
       patternUnits="userSpaceOnUse">
      <path
         style="fill:none;stroke:#000000;stroke-width:11.99999809;stroke-linecap:round;stroke-linejoin:miter;stroke-miterlimit:4;stroke-opacity:1"
         d="M 5.9999993,17.203293 C 11.433191,6.9833594 24.249858,3.0362863 34.626824,8.3872582 45.003791,13.738231 49.011513,26.360943 43.578321,36.580877 c -0.726471,1.366504 -1.604396,2.649552 -2.617718,3.825675"
         id="path2526" />
    </pattern>
    <inkscape:perspective
       sodipodi:type="inkscape:persp3d"
       inkscape:vp_x="0 : 526.18109 : 1"
       inkscape:vp_y="0 : 1000 : 0"
       inkscape:vp_z="744.09448 : 526.18109 : 1"
       inkscape:persp3d-origin="372.04724 : 350.78739 : 1"
       id="perspective2548" />
    <inkscape:perspective
       id="perspective2391"
       inkscape:persp3d-origin="32 : 21.333333 : 1"
       inkscape:vp_z="64 : 32 : 1"
       inkscape:vp_y="0 : 1000 : 0"
       inkscape:vp_x="0 : 32 : 1"
       sodipodi:type="inkscape:persp3d" />
    <inkscape:perspective
       id="perspective2660"
       inkscape:persp3d-origin="372.04724 : 350.78739 : 1"
       inkscape:vp_z="744.09448 : 526.18109 : 1"
       inkscape:vp_y="0 : 1000 : 0"
       inkscape:vp_x="0 : 526.18109 : 1"
       sodipodi:type="inkscape:persp3d" />
    <inkscape:perspective
       id="perspective3506"
       inkscape:persp3d-origin="372.04724 : 350.78739 : 1"
       inkscape:vp_z="744.09448 : 526.18109 : 1"
       inkscape:vp_y="0 : 1000 : 0"
       inkscape:vp_x="0 : 526.18109 : 1"
       sodipodi:type="inkscape:persp3d" />
  </defs>
  <sodipodi:namedview
     id="base"
     pagecolor="#ffffff"
     bordercolor="#666666"
     borderopacity="1.0"
     inkscape:pageopacity="0.0"
     inkscape:pageshadow="2"
     inkscape:zoom="4.2978834"
     inkscape:cx="-5.7687321"
     inkscape:cy="30.59413"
     inkscape:document-units="px"
     inkscape:current-layer="layer1"
     showgrid="true"
     inkscape:window-width="1440"
     inkscape:window-height="850"
     inkscape:window-x="-4"
     inkscape:window-y="-2"
     inkscape:window-maximized="0">
    <inkscape:grid
       type="xygrid"
       id="grid2816"
       empspacing="4"
       visible="true"
       enabled="true"
       snapvisiblegridlinesonly="true" />
  </sodipodi:namedview>
  <metadata
     id="metadata7">
    <rdf:RDF>
      <cc:Work
         rdf:about="">
        <dc:format>image/svg+xml</dc:format>
        <dc:type
           rdf:resource="http://purl.org/dc/dcmitype/StillImage" />
        <dc:title />
      </cc:Work>
    </rdf:RDF>
  </metadata>
  <g
     inkscape:label="Layer 1"
     inkscape:groupmode="layer"
     id="layer1"
     transform="translate(0,-988.36218)">
    <path
       transform="matrix(0.9999284,1.1963222e-2,-1.1963222e-2,0.9999284,0,0)"
       style="font-size:146.18452454px;font-style:normal;font-variant:normal;font-weight:normal;font-stretch:normal;fill:#000000;fill-opacity:1;stroke:none;stroke-width:1px;stroke-linecap:butt;stroke-linejoin:miter;stroke-opacity:1;font-family:Prototype;-inkscape-font-specification:Prototype"
       d="M 63.391991,1003.0276 C 63.781767,1002.3455 63.684311,1001.7607 63.099622,1001.2733 C 62.612292,1000.6887 62.027555,1000.5912 61.345408,1000.981 L 49.212093,1009.1673 L 45.118926,993.96412 C 44.923982,993.18457 44.436701,992.84348 43.657081,992.94083 C 42.974857,992.94093 42.536304,993.33076 42.34142,994.1103 L 38.248253,1009.752 L 26.261122,1000.981 C 25.578916,1000.5912 24.945451,1000.6887 24.360723,1001.2733 C 23.873432,1001.7607 23.824704,1002.3455 24.214539,1003.0276 L 32.400872,1015.1609 L 16.320575,1019.254 C 15.638379,1019.449 15.297282,1019.9363 15.297283,1020.7159 C 15.297282,1021.3982 15.638379,1021.8367 16.320575,1022.0315 L 32.547057,1026.1247 L 24.945461,1037.3809 C 24.458169,1038.0632 24.506898,1038.6966 25.091646,1039.2813 C 25.676373,1039.7687 26.26111,1039.8174 26.84586,1039.4275 L 38.248253,1031.6797 L 42.34142,1047.4677 C 42.536304,1048.1499 42.974857,1048.5397 43.657081,1048.6371 C 44.436701,1048.6372 44.923982,1048.2961 45.118926,1047.6138 L 49.504462,1031.6797 L 59.737378,1038.6966 C 60.32207,1039.1839 60.906808,1039.1839 61.491593,1038.6966 C 62.076283,1038.1119 62.125011,1037.5272 61.637777,1036.9424 L 54.767104,1026.1247 L 70.993587,1021.8854 C 71.675724,1021.6905 72.01682,1021.252 72.016878,1020.5697 C 72.01682,1019.7901 71.675724,1019.3028 70.993587,1019.1079 L 54.913289,1014.7223 L 63.391991,1003.0276"
       id="text3566" />
  </g>
</svg>
