<?xml version="1.0" encoding="UTF-8" standalone="no"?>
<!-- Created with Inkscape (http://www.inkscape.org/) -->

<svg
   xmlns:dc="http://purl.org/dc/elements/1.1/"
   xmlns:cc="http://creativecommons.org/ns#"
   xmlns:rdf="http://www.w3.org/1999/02/22-rdf-syntax-ns#"
   xmlns:svg="http://www.w3.org/2000/svg"
   xmlns="http://www.w3.org/2000/svg"
   xmlns:sodipodi="http://sodipodi.sourceforge.net/DTD/sodipodi-0.dtd"
   xmlns:inkscape="http://www.inkscape.org/namespaces/inkscape"
   width="64"
   height="64"
   id="svg2"
   version="1.1"
   inkscape:version="0.48.0 r9654"
   sodipodi:docname="reply_all.svg"
   sodipodi:version="0.32"
   inkscape:output_extension="org.inkscape.output.svg.inkscape">
  <defs
     id="defs4">
    <inkscape:perspective
       sodipodi:type="inkscape:persp3d"
       inkscape:vp_x="0 : 526.18109 : 1"
       inkscape:vp_y="0 : 1000 : 0"
       inkscape:vp_z="744.09448 : 526.18109 : 1"
       inkscape:persp3d-origin="372.04724 : 350.78739 : 1"
       id="perspective10" />
  </defs>
  <sodipodi:namedview
     id="base"
     pagecolor="#ffffff"
     bordercolor="#666666"
     borderopacity="1.0"
     inkscape:pageopacity="0.0"
     inkscape:pageshadow="2"
     inkscape:zoom="4.0327184"
     inkscape:cx="24.364234"
     inkscape:cy="57.035443"
     inkscape:document-units="px"
     inkscape:current-layer="layer1"
     showgrid="true"
     inkscape:window-width="1425"
     inkscape:window-height="969"
     inkscape:window-x="154"
     inkscape:window-y="50"
     inkscape:window-maximized="0">
    <inkscape:grid
       type="xygrid"
       id="grid2816"
       empspacing="4"
       visible="true"
       enabled="true"
       snapvisiblegridlinesonly="true" />
  </sodipodi:namedview>
  <metadata
     id="metadata7">
    <rdf:RDF>
      <cc:Work
         rdf:about="">
        <dc:format>image/svg+xml</dc:format>
        <dc:type
           rdf:resource="http://purl.org/dc/dcmitype/StillImage" />
        <dc:title></dc:title>
      </cc:Work>
    </rdf:RDF>
  </metadata>
  <g
     inkscape:label="Layer 1"
     inkscape:groupmode="layer"
     id="layer1"
     transform="translate(0,-988.36218)">
    <path
       style="fill:#000000;fill-opacity:1;fill-rule:nonzero;stroke:none"
       d="m 42,988.36218 c -6.663179,4.67166 -13.327768,9.34128 -20,14.00002 6.674585,4.6553 13.335328,9.3305 20,14 -2.264569,-8.7157 -2.863993,-17.8856 0,-28.00002 z"
       id="rect3995"
       sodipodi:nodetypes="cccc"
       inkscape:connector-curvature="0" />
    <path
       sodipodi:type="arc"
       style="fill:#000000;fill-opacity:1;fill-rule:nonzero;stroke:none"
       id="path4011"
       sodipodi:cx="8"
       sodipodi:cy="14"
       sodipodi:rx="8"
       sodipodi:ry="8"
       d="M 16,14 A 8,8 0 1 1 0,14 8,8 0 1 1 16,14 z"
       transform="matrix(0.75,0,0,0.75,12,983.86218)" />
    <path
       style="fill:#000000;fill-opacity:1;fill-rule:nonzero;stroke:none"
       d="M 34.956164,19.96875 C 55.287677,19.716243 52,18.128989 52,60 52,64 64,64 64,60 64,9.733314 63.905481,8.0558519 35,8 z"
       transform="translate(0,988.36218)"
       id="rect4016"
       sodipodi:nodetypes="ccccc"
       inkscape:connector-curvature="0" />
    <path
       transform="matrix(0.75,0,0,0.75,12,999.8622)"
       d="M 16,14 A 8,8 0 1 1 0,14 8,8 0 1 1 16,14 z"
       sodipodi:ry="8"
       sodipodi:rx="8"
       sodipodi:cy="14"
       sodipodi:cx="8"
       id="path3018"
       style="fill:#000000;fill-opacity:1;fill-rule:nonzero;stroke:none"
       sodipodi:type="arc" />
    <path
       sodipodi:type="arc"
       style="fill:#000000;fill-opacity:1;fill-rule:nonzero;stroke:none"
       id="path3026"
       sodipodi:cx="8"
       sodipodi:cy="14"
       sodipodi:rx="8"
       sodipodi:ry="8"
       d="M 16,14 A 8,8 0 1 1 0,14 8,8 0 1 1 16,14 z"
       transform="matrix(0.75,0,0,0.75,0,991.8622)" />
  </g>
</svg>
