<?xml version="1.0" encoding="UTF-8" standalone="no"?>
<!-- Created with Inkscape (http://www.inkscape.org/) -->
<svg
   xmlns:dc="http://purl.org/dc/elements/1.1/"
   xmlns:cc="http://creativecommons.org/ns#"
   xmlns:rdf="http://www.w3.org/1999/02/22-rdf-syntax-ns#"
   xmlns:svg="http://www.w3.org/2000/svg"
   xmlns="http://www.w3.org/2000/svg"
   xmlns:sodipodi="http://sodipodi.sourceforge.net/DTD/sodipodi-0.dtd"
   xmlns:inkscape="http://www.inkscape.org/namespaces/inkscape"
   width="64"
   height="64"
   id="svg2"
   version="1.1"
   inkscape:version="0.46+devel"
   sodipodi:docname="start-here-alt2.svg"
   sodipodi:version="0.32"
   inkscape:output_extension="org.inkscape.output.svg.inkscape">
  <defs
     id="defs4">
    <inkscape:perspective
       sodipodi:type="inkscape:persp3d"
       inkscape:vp_x="0 : 526.18109 : 1"
       inkscape:vp_y="0 : 1000 : 0"
       inkscape:vp_z="744.09448 : 526.18109 : 1"
       inkscape:persp3d-origin="372.04724 : 350.78739 : 1"
       id="perspective10" />
  </defs>
  <sodipodi:namedview
     id="base"
     pagecolor="#ffffff"
     bordercolor="#666666"
     borderopacity="1.0"
     inkscape:pageopacity="0.0"
     inkscape:pageshadow="2"
     inkscape:zoom="1.0993301"
     inkscape:cx="5.1055275"
     inkscape:cy="31.678392"
     inkscape:document-units="px"
     inkscape:current-layer="layer1"
     showgrid="true"
     inkscape:window-width="1293"
     inkscape:window-height="1032"
     inkscape:window-x="180"
     inkscape:window-y="42"
     inkscape:window-maximized="0">
    <inkscape:grid
       type="xygrid"
       id="grid2816"
       empspacing="4"
       visible="true"
       enabled="true"
       snapvisiblegridlinesonly="true" />
  </sodipodi:namedview>
  <metadata
     id="metadata7">
    <rdf:RDF>
      <cc:Work
         rdf:about="">
        <dc:format>image/svg+xml</dc:format>
        <dc:type
           rdf:resource="http://purl.org/dc/dcmitype/StillImage" />
        <dc:title />
      </cc:Work>
    </rdf:RDF>
  </metadata>
  <g
     inkscape:label="Layer 1"
     inkscape:groupmode="layer"
     id="layer1"
     transform="translate(0,-988.36218)">
    <path
       style="opacity:1;fill:#000000;fill-opacity:1;fill-rule:nonzero;stroke:none"
       d="M 32 0 C 24.524751 1.5027019e-15 17.665745 2.5795975 12.21875 6.875 C 17.181544 11.388274 24.292132 19.785536 29 24.59375 C 29.925575 24.219548 30.940304 24 32 24 C 34.866901 24 37.368766 25.515158 38.78125 27.78125 C 45.438814 26.716579 56.200476 24.234031 62.875 23.5625 C 59.173908 9.9815691 46.753893 -6.0241164e-15 32 0 z M 31.84375 8 C 40.193135 8 47.553096 12.352777 51.8125 18.9375 C 49.120942 20.028353 44.761019 23.240871 35.84375 20.3125 C 26.58868 17.273198 25.207463 11.814089 23.625 9.46875 C 26.188754 8.5142607 28.953548 8 31.84375 8 z M 9.25 9.5 C 3.5329423 15.280613 -3.1225023e-17 23.227464 0 32 C 0 45.477013 8.3317321 57.002842 20.125 61.71875 C 21.545913 55.169696 25.220324 44.77516 27.03125 38.28125 C 25.183099 36.815862 24 34.541807 24 32 C 24 30.62933 24.361295 29.346437 24.96875 28.21875 C 20.719963 22.995038 13.172675 14.942766 9.25 9.5 z M 10.59375 21.21875 C 12.787791 23.037258 17.992345 25.087342 19.96875 34.53125 C 22.012013 44.294627 17.719165 48.180938 16.59375 50.71875 C 11.351509 46.288052 8 39.614994 8 32.15625 C 8 28.212407 8.9396742 24.506573 10.59375 21.21875 z M 63.65625 27.4375 C 61.878592 28.005639 59.724294 28.569736 57.4375 29.125 C 57.529127 29.648513 57.594259 30.131682 57.65625 30.59375 C 57.587537 30.139694 57.495791 29.638574 57.40625 29.125 C 51.503297 30.557268 44.590328 31.92 39.90625 33.125 C 39.369374 36.927193 36.170719 39.877918 32.25 40 C 29.842296 46.299381 26.627458 56.855856 23.875 62.96875 C 26.468412 63.647162 29.193917 64 32 64 C 49.673112 64 64 49.673112 64 32 C 64 30.450893 63.869005 28.927793 63.65625 27.4375 z M 52.25 36 C 53.494671 35.977383 54.523885 36.053251 55.375 36.03125 C 53.624052 47.054456 44.511292 55.556353 33.3125 56.25 C 33.930188 53.554421 32.719265 47.838356 40.1875 41.15625 C 45.124919 36.738559 49.244036 36.05462 52.25 36 z "
       transform="translate(0,988.36218)"
       id="path3625" />
    <path
       sodipodi:type="arc"
       style="fill:#000000;fill-opacity:1;fill-rule:nonzero;stroke:none;opacity:1"
       id="path2819"
       sodipodi:cx="32"
       sodipodi:cy="32"
       sodipodi:rx="4"
       sodipodi:ry="4"
       d="m 36,32 a 4,4 0 1 1 -8,0 4,4 0 1 1 8,0 z"
       transform="translate(0,988.36218)" />
  </g>
</svg>
