<?xml version="1.0" encoding="UTF-8" standalone="no"?>
<!-- Created with Inkscape (http://www.inkscape.org/) -->
<svg
   xmlns:dc="http://purl.org/dc/elements/1.1/"
   xmlns:cc="http://creativecommons.org/ns#"
   xmlns:rdf="http://www.w3.org/1999/02/22-rdf-syntax-ns#"
   xmlns:svg="http://www.w3.org/2000/svg"
   xmlns="http://www.w3.org/2000/svg"
   xmlns:sodipodi="http://sodipodi.sourceforge.net/DTD/sodipodi-0.dtd"
   xmlns:inkscape="http://www.inkscape.org/namespaces/inkscape"
   width="128"
   height="128"
   id="svg2"
   version="1.1"
   inkscape:version="0.46+devel"
   sodipodi:docname="system-search.svg"
   sodipodi:version="0.32"
   inkscape:output_extension="org.inkscape.output.svg.inkscape">
  <defs
     id="defs4">
    <inkscape:perspective
       sodipodi:type="inkscape:persp3d"
       inkscape:vp_x="0 : 526.18109 : 1"
       inkscape:vp_y="0 : 1000 : 0"
       inkscape:vp_z="744.09448 : 526.18109 : 1"
       inkscape:persp3d-origin="372.04724 : 350.78739 : 1"
       id="perspective10" />
  </defs>
  <sodipodi:namedview
     id="base"
     pagecolor="#ffffff"
     bordercolor="#666666"
     borderopacity="1.0"
     inkscape:pageopacity="0.0"
     inkscape:pageshadow="2"
     inkscape:zoom="9.4023105"
     inkscape:cx="63.849589"
     inkscape:cy="64"
     inkscape:document-units="px"
     inkscape:current-layer="layer1"
     showgrid="true"
     inkscape:window-width="1186"
     inkscape:window-height="944"
     inkscape:window-x="345"
     inkscape:window-y="91"
     inkscape:window-maximized="0">
    <inkscape:grid
       type="xygrid"
       id="grid2816"
       empspacing="4"
       visible="true"
       enabled="true"
       snapvisiblegridlinesonly="true" />
  </sodipodi:namedview>
  <metadata
     id="metadata7">
    <rdf:RDF>
      <cc:Work
         rdf:about="">
        <dc:format>image/svg+xml</dc:format>
        <dc:type
           rdf:resource="http://purl.org/dc/dcmitype/StillImage" />
        <dc:title />
      </cc:Work>
    </rdf:RDF>
  </metadata>
  <g
     inkscape:label="Layer 1"
     inkscape:groupmode="layer"
     id="layer1"
     transform="translate(0,-924.36218)">
    <path
       sodipodi:type="star"
       style="opacity:0.3;fill:#000000;fill-opacity:1;fill-rule:nonzero;stroke:none"
       id="path2881"
       sodipodi:sides="13"
       sodipodi:cx="64"
       sodipodi:cy="64"
       sodipodi:r1="63.245552"
       sodipodi:r2="50.533195"
       sodipodi:arg1="-2.176341"
       sodipodi:arg2="-1.93468"
       inkscape:flatsided="false"
       inkscape:rounded="0.8"
       inkscape:randomized="0"
       d="M 28,12.000001 C 40.258666,3.5132329 32.08145,22.082103 46.014918,16.775635 59.948384,11.469167 41.490682,3.0440276 56.289188,1.2262537 71.087695,-0.59152042 55.217746,12.050256 70.021258,13.826817 84.824768,15.603378 72.396642,-0.43443481 86.344829,4.8332149 100.29302,10.100865 80.36595,13.919469 92.6482,22.372071 c 12.28225,8.4526 8.73083,-11.523816 18.63334,-0.377498 9.90251,11.14632 -9.51663,5.266955 -2.56936,18.459208 6.94728,13.192252 13.08616,-6.146411 16.67444,8.325088 3.58828,14.471501 -10.87423,0.24106 -10.85347,15.150778 0.0207,14.909716 14.44359,0.639061 10.89561,15.120495 -3.54797,14.481437 -9.74068,-4.840059 -16.65119,8.371488 -6.91051,13.21154 12.49218,7.278132 2.62075,18.45198 -9.87144,11.17385 -6.37566,-8.812379 -18.634322,-0.32561 -12.258664,8.48677 7.678962,12.24987 -6.254507,17.55634 -13.933468,5.30646 -1.550046,-10.76589 -16.348553,-8.94812 -14.798506,1.81778 1.106581,14.41532 -13.696929,12.63875 -14.803511,-1.77656 3.630661,-10.25306 -10.317529,-15.52071 -13.948187,-5.26765 -5.7193,13.27838 -18.001548,4.82578 -12.282249,-8.4526 7.979627,-7.39139 -1.922883,-18.537706 C 16.319541,86.416017 14.98709,106.66186 8.0398193,93.469612 1.092548,80.277359 18.540375,90.633183 14.952091,76.161682 11.363808,61.690183 0.77526675,78.997769 0.75450923,64.088053 0.73375171,49.178335 11.370444,66.456372 14.918418,51.974935 18.466392,37.4935 1.0474681,47.897867 7.9579789,34.686322 14.86849,21.474776 16.25731,41.716835 26.128744,30.542985 36.000177,19.369138 15.741336,20.486769 28,12.000001 z"
       transform="translate(0,924.36218)" />
    <path
       style="opacity:1;fill:#000000;fill-opacity:1;fill-rule:nonzero;stroke:none"
       d="m 48.28125,944.20593 c -13.09189,0 -23.6875,10.7638 -23.6875,24.0625 0,13.2987 10.59561,24.09375 23.6875,24.09375 C 61.37314,992.36218 72,981.56713 72,968.26843 72,954.96973 61.37314,944.20593 48.28125,944.20593 z M 48,952.36218 c 8.836556,0 16,7.16344 16,16 0,8.83656 -7.163444,16 -16,16 -8.836556,0 -16,-7.16344 -16,-16 0,-8.83656 7.163444,-16 16,-16 z"
       id="path3657" />
    <path
       style="opacity:1;fill:#000000;fill-opacity:1;fill-rule:nonzero;stroke:none"
       d="M 68.84375,55.875 C 63.539493,56.519641 60.443386,59.310732 60.5,64.5 l 31.25,31.25 c 2.350423,2.350423 6.149577,2.350423 8.5,0 2.35042,-2.350423 2.35042,-6.118327 0,-8.46875 z"
       transform="translate(0,924.36218)"
       id="rect3666"
       sodipodi:nodetypes="cccscc" />
  </g>
</svg>
