<?xml version="1.0" encoding="UTF-8" standalone="no"?>
<!-- Created with Inkscape (http://www.inkscape.org/) -->

<svg
   xmlns:dc="http://purl.org/dc/elements/1.1/"
   xmlns:cc="http://creativecommons.org/ns#"
   xmlns:rdf="http://www.w3.org/1999/02/22-rdf-syntax-ns#"
   xmlns:svg="http://www.w3.org/2000/svg"
   xmlns="http://www.w3.org/2000/svg"
   xmlns:sodipodi="http://sodipodi.sourceforge.net/DTD/sodipodi-0.dtd"
   xmlns:inkscape="http://www.inkscape.org/namespaces/inkscape"
   width="128"
   height="128"
   id="svg4318"
   version="1.1"
   inkscape:version="0.47 r22583"
   sodipodi:docname="edit-rename.svg">
  <defs
     id="defs4320">
    <inkscape:perspective
       sodipodi:type="inkscape:persp3d"
       inkscape:vp_x="0 : 526.18109 : 1"
       inkscape:vp_y="0 : 1000 : 0"
       inkscape:vp_z="744.09448 : 526.18109 : 1"
       inkscape:persp3d-origin="372.04724 : 350.78739 : 1"
       id="perspective4326" />
  </defs>
  <sodipodi:namedview
     id="base"
     pagecolor="#ffffff"
     bordercolor="#666666"
     borderopacity="1.0"
     inkscape:pageopacity="0.0"
     inkscape:pageshadow="2"
     inkscape:zoom="1.979899"
     inkscape:cx="-6.9237687"
     inkscape:cy="19.074473"
     inkscape:document-units="px"
     inkscape:current-layer="layer1"
     showgrid="true"
     inkscape:window-width="1569"
     inkscape:window-height="1022"
     inkscape:window-x="339"
     inkscape:window-y="55"
     inkscape:window-maximized="0">
    <inkscape:grid
       type="xygrid"
       id="grid4328"
       empspacing="8"
       visible="true"
       enabled="true"
       snapvisiblegridlinesonly="true" />
  </sodipodi:namedview>
  <metadata
     id="metadata4323">
    <rdf:RDF>
      <cc:Work
         rdf:about="">
        <dc:format>image/svg+xml</dc:format>
        <dc:type
           rdf:resource="http://purl.org/dc/dcmitype/StillImage" />
        <dc:title></dc:title>
      </cc:Work>
    </rdf:RDF>
  </metadata>
  <g
     inkscape:label="Layer 1"
     inkscape:groupmode="layer"
     id="layer1"
     transform="translate(0,-924.36218)">
    <path
       style="fill:#000000;fill-opacity:1;fill-rule:nonzero;stroke:none"
       d="M 48.09375 33.6875 C 41.970592 36.660289 36.380957 41.428565 32 48 L 32 72 C 32 89.72802 46.272 112 64 112 C 81.728 112 96 89.72802 96 72 L 96 48 C 91.619043 41.428565 86.029408 36.660289 79.90625 33.6875 C 79.058338 41.725793 72.263013 48 64 48 C 55.736987 48 48.941662 41.725793 48.09375 33.6875 z "
       transform="translate(0,924.36218)"
       id="rect3866" />
    <path
       transform="translate(0,924.36218)"
       style="fill:#000000;fill-opacity:1;fill-rule:nonzero;stroke:none"
       d="m 64,8 c 1.144869,0 1.623638,8.541267 8,8 7.870212,-0.668075 21.947102,-10.2709564 24,-8 2.72256,3.011749 -16,14.125958 -16,16 l -8,8 c 0,4.432 -3.568,8 -8,8 -4.432,0 -8,-3.568 -8,-8 L 48,24 C 48,24 29.097039,11.13087 32,8 c 1.432951,-1.5454506 19.998693,7.837973 24,8 6.240378,0.252695 6.492605,-8 8,-8 z"
       id="rect3872"
       sodipodi:nodetypes="cssccsccssc" />
    <path
       style="fill:#000000;stroke:none;stroke-width:1px;stroke-linecap:butt;stroke-linejoin:miter;stroke-opacity:1;fill-opacity:1"
       d="M 0,32 16,32 32,48 32,64 16,40 0,32 z"
       id="path3875"
       transform="translate(0,924.36218)" />
    <path
       style="fill:#000000;stroke:none;stroke-width:1px;stroke-linecap:butt;stroke-linejoin:miter;stroke-opacity:1;fill-opacity:1"
       d="M 32,64 16,72 0,64 16,80 32,72 32,64 z"
       id="path3879"
       transform="translate(0,924.36218)" />
    <path
       style="fill:#000000;stroke:none;stroke-width:1px;stroke-linecap:butt;stroke-linejoin:miter;stroke-opacity:1;fill-opacity:1"
       d="m 40,96 -16,8 0,24 8,-8 0,-8 16,-8 -8,-8 z"
       id="path3881"
       transform="translate(0,924.36218)" />
    <path
       id="path3883"
       d="m 128,956.36218 -16,0 -16,16 0,16 16,-24 16,-8 z"
       style="fill:#000000;fill-opacity:1;stroke:none" />
    <path
       id="path3885"
       d="m 96,988.36218 16,8 16,-8 -16,16.00002 -16,-8.00002 0,-8 z"
       style="fill:#000000;fill-opacity:1;stroke:none" />
    <path
       id="path3887"
       d="m 88,1020.3622 16,8 0,24 -8,-8 0,-8 -16,-8 8,-8 z"
       style="fill:#000000;fill-opacity:1;stroke:none" />
  </g>
</svg>
