<?xml version="1.0" encoding="UTF-8" standalone="no"?>
<!-- Created with Inkscape (http://www.inkscape.org/) -->
<svg
   xmlns:dc="http://purl.org/dc/elements/1.1/"
   xmlns:cc="http://creativecommons.org/ns#"
   xmlns:rdf="http://www.w3.org/1999/02/22-rdf-syntax-ns#"
   xmlns:svg="http://www.w3.org/2000/svg"
   xmlns="http://www.w3.org/2000/svg"
   xmlns:sodipodi="http://sodipodi.sourceforge.net/DTD/sodipodi-0.dtd"
   xmlns:inkscape="http://www.inkscape.org/namespaces/inkscape"
   width="128"
   height="128"
   id="svg2"
   version="1.1"
   inkscape:version="0.46+devel"
   sodipodi:docname="trash.svg"
   sodipodi:version="0.32"
   inkscape:output_extension="org.inkscape.output.svg.inkscape">
  <defs
     id="defs4">
    <inkscape:perspective
       sodipodi:type="inkscape:persp3d"
       inkscape:vp_x="0 : 526.18109 : 1"
       inkscape:vp_y="0 : 1000 : 0"
       inkscape:vp_z="744.09448 : 526.18109 : 1"
       inkscape:persp3d-origin="372.04724 : 350.78739 : 1"
       id="perspective10" />
  </defs>
  <sodipodi:namedview
     id="base"
     pagecolor="#ffffff"
     bordercolor="#666666"
     borderopacity="1.0"
     inkscape:pageopacity="0.0"
     inkscape:pageshadow="2"
     inkscape:zoom="2.3505776"
     inkscape:cx="74.290522"
     inkscape:cy="121.56196"
     inkscape:document-units="px"
     inkscape:current-layer="layer1"
     showgrid="true"
     inkscape:window-width="977"
     inkscape:window-height="961"
     inkscape:window-x="345"
     inkscape:window-y="91"
     inkscape:window-maximized="0">
    <inkscape:grid
       type="xygrid"
       id="grid2816"
       empspacing="4"
       visible="true"
       enabled="true"
       snapvisiblegridlinesonly="true" />
  </sodipodi:namedview>
  <metadata
     id="metadata7">
    <rdf:RDF>
      <cc:Work
         rdf:about="">
        <dc:format>image/svg+xml</dc:format>
        <dc:type
           rdf:resource="http://purl.org/dc/dcmitype/StillImage" />
        <dc:title />
      </cc:Work>
    </rdf:RDF>
  </metadata>
  <g
     inkscape:label="Layer 1"
     inkscape:groupmode="layer"
     id="layer1"
     transform="translate(0,-924.36218)">
    <path
       style="opacity:1;fill:#000000;fill-opacity:1;fill-rule:nonzero;stroke:none"
       d="M 64 0 C 28.653776 7.1054274e-15 -1.1242185e-16 28.653776 0 64 C 0 99.346224 28.653776 128 64 128 C 99.346224 128 128 99.346224 128 64 C 128 28.653776 99.346224 -1.4323277e-14 64 0 z M 64 8 C 94.927946 8 120 33.072054 120 64 C 120 94.927946 94.927946 120 64 120 C 33.072054 120 8 94.927946 8 64 C 8 33.072054 33.072054 8 64 8 z "
       transform="translate(0,924.36218)"
       id="path2818" />
    <path
       style="opacity:1;fill:#000000;fill-opacity:1;fill-rule:nonzero;stroke:none"
       d="M 70.28125 74.21875 C 68.454287 75.343126 66.302609 76 64 76 C 61.746259 76 59.645331 75.361919 57.84375 74.28125 L 39.40625 105.21875 C 54.746303 114.36919 73.904952 114.25493 89.125 104.90625 L 70.28125 74.21875 z "
       transform="translate(0,924.36218)"
       id="path2828" />
    <path
       style="opacity:1;fill:#000000;fill-opacity:1;fill-rule:nonzero;stroke:none"
       d="M 40.0625 22.375 C 25.161654 30.941945 15.991883 46.84324 16 64.03125 L 52 64 C 52 59.547204 54.429603 55.664748 58.03125 53.59375 L 40.0625 22.375 z "
       transform="translate(0,924.36218)"
       id="path2830" />
    <path
       style="opacity:1;fill:#000000;fill-opacity:1;fill-rule:nonzero;stroke:none"
       d="M 89.375 23.25 L 70.3125 53.8125 C 73.723954 55.928628 76 59.690317 76 64 C 76 64.031779 76.000247 64.062029 76 64.09375 L 112 64.3125 C 112.11134 47.619377 103.5464 32.072942 89.375 23.25 z "
       transform="translate(0,924.36218)"
       id="path2834" />
    <path
       sodipodi:type="arc"
       style="opacity:1;fill:#000000;fill-opacity:1;fill-rule:nonzero;stroke:none"
       id="path2847"
       sodipodi:cx="64"
       sodipodi:cy="64"
       sodipodi:rx="8"
       sodipodi:ry="8"
       d="m 72,64 a 8,8 0 1 1 -16,0 8,8 0 1 1 16,0 z"
       transform="translate(0,924.36218)" />
  </g>
</svg>
