<?xml version="1.0" encoding="UTF-8" standalone="no"?>
<!-- Created with Inkscape (http://www.inkscape.org/) -->

<svg
   xmlns:dc="http://purl.org/dc/elements/1.1/"
   xmlns:cc="http://creativecommons.org/ns#"
   xmlns:rdf="http://www.w3.org/1999/02/22-rdf-syntax-ns#"
   xmlns:svg="http://www.w3.org/2000/svg"
   xmlns="http://www.w3.org/2000/svg"
   xmlns:sodipodi="http://sodipodi.sourceforge.net/DTD/sodipodi-0.dtd"
   xmlns:inkscape="http://www.inkscape.org/namespaces/inkscape"
   width="22"
   height="22"
   id="svg2"
   sodipodi:version="0.32"
   inkscape:version="0.47 r22583"
   version="1.0"
   sodipodi:docname="unlock.svg"
   inkscape:output_extension="org.inkscape.output.svg.inkscape"
   inkscape:export-filename="/home/loki/MyFiles/Code/Bespin/icons/apps/kgpg.png"
   inkscape:export-xdpi="90"
   inkscape:export-ydpi="90">
  <defs
     id="defs4">
    <inkscape:perspective
       sodipodi:type="inkscape:persp3d"
       inkscape:vp_x="0 : 526.18109 : 1"
       inkscape:vp_y="0 : 1000 : 0"
       inkscape:vp_z="744.09448 : 526.18109 : 1"
       inkscape:persp3d-origin="372.04724 : 350.78739 : 1"
       id="perspective10" />
  </defs>
  <sodipodi:namedview
     id="base"
     pagecolor="#ffffff"
     bordercolor="#666666"
     borderopacity="1.0"
     gridtolerance="10000"
     guidetolerance="10"
     objecttolerance="10"
     inkscape:pageopacity="0.0"
     inkscape:pageshadow="2"
     inkscape:zoom="14.849242"
     inkscape:cx="12.182541"
     inkscape:cy="14.809524"
     inkscape:document-units="px"
     inkscape:current-layer="layer1"
     showgrid="false"
     inkscape:window-width="1076"
     inkscape:window-height="685"
     inkscape:window-x="295"
     inkscape:window-y="344"
     inkscape:window-maximized="0" />
  <metadata
     id="metadata7">
    <rdf:RDF>
      <cc:Work
         rdf:about="">
        <dc:format>image/svg+xml</dc:format>
        <dc:type
           rdf:resource="http://purl.org/dc/dcmitype/StillImage" />
      </cc:Work>
    </rdf:RDF>
  </metadata>
  <g
     inkscape:label="Layer 1"
     inkscape:groupmode="layer"
     id="layer1">
    <path
       style="opacity:1;fill:#1a1a1a;fill-opacity:1;stroke:none"
       d="M 10.96875,0 C 7.4333483,0 4.5625,2.8708482 4.5625,6.40625 c 0,0.6628879 0.093342,1.3058427 0.28125,1.90625 -1.2981898,1.4559759 -2.0625,3.366076 -2.0625,5.46875 0,4.546522 3.6409773,8.218751 8.1875,8.21875 4.546522,0 8.25,-3.672228 8.25,-8.21875 0,-2.102674 -0.795561,-4.0127741 -2.09375,-5.46875 -2.328984,0.8768767 -2.977175,-1.4045508 -2.59375,-1.96875 -1.075392,-0.5150513 -2.291223,-0.8125 -3.5625,-0.8125 -1.271278,0 -2.4558586,0.2974487 -3.53125,0.8125 C 7.3361829,6.0057791 7.28125,5.6527866 7.28125,5.28125 c 1e-7,-2.046811 1.6406882,-3.6875 3.6875,-3.6875 1.023406,0 1.956282,0.3937824 2.625,1.0625 l 1.625,-1.0625 C 14.088261,0.60031547 12.586712,0 10.96875,0 z m 0,10.96875 c 0.850811,0 1.5625,0.71169 1.5625,1.5625 0,0.648743 -0.400869,1.178959 -0.96875,1.40625 0.255899,1.161648 0.439079,2.611208 0.3125,3.28125 -0.221293,1.171412 -1.622456,1.171412 -1.84375,0 -0.1277394,-0.676182 0.02153,-2.146572 0.28125,-3.3125 -0.5186114,-0.248265 -0.875,-0.761986 -0.875,-1.375 0,-0.85081 0.68044,-1.5625 1.53125,-1.5625 z"
       id="path2435"
       sodipodi:nodetypes="cscsssccscssccccscsscsc" />
  </g>
</svg>
