<?xml version="1.0" encoding="UTF-8" standalone="no"?>
<!-- Created with Inkscape (http://www.inkscape.org/) -->
<svg
   xmlns:dc="http://purl.org/dc/elements/1.1/"
   xmlns:cc="http://creativecommons.org/ns#"
   xmlns:rdf="http://www.w3.org/1999/02/22-rdf-syntax-ns#"
   xmlns:svg="http://www.w3.org/2000/svg"
   xmlns="http://www.w3.org/2000/svg"
   xmlns:sodipodi="http://sodipodi.sourceforge.net/DTD/sodipodi-0.dtd"
   xmlns:inkscape="http://www.inkscape.org/namespaces/inkscape"
   width="128"
   height="128"
   id="svg2"
   version="1.1"
   inkscape:version="0.46+devel"
   sodipodi:docname="user-icon.alt2.svg"
   sodipodi:version="0.32"
   inkscape:output_extension="org.inkscape.output.svg.inkscape">
  <defs
     id="defs4">
    <inkscape:perspective
       sodipodi:type="inkscape:persp3d"
       inkscape:vp_x="0 : 526.18109 : 1"
       inkscape:vp_y="0 : 1000 : 0"
       inkscape:vp_z="744.09448 : 526.18109 : 1"
       inkscape:persp3d-origin="372.04724 : 350.78739 : 1"
       id="perspective10" />
  </defs>
  <sodipodi:namedview
     id="base"
     pagecolor="#ffffff"
     bordercolor="#666666"
     borderopacity="1.0"
     inkscape:pageopacity="0.0"
     inkscape:pageshadow="2"
     inkscape:zoom="1.1739077"
     inkscape:cx="46.004706"
     inkscape:cy="64.075294"
     inkscape:document-units="px"
     inkscape:current-layer="layer1"
     showgrid="true"
     inkscape:window-width="1285"
     inkscape:window-height="1088"
     inkscape:window-x="113"
     inkscape:window-y="26"
     inkscape:window-maximized="0">
    <inkscape:grid
       type="xygrid"
       id="grid2816"
       empspacing="4"
       visible="true"
       enabled="true"
       snapvisiblegridlinesonly="true" />
  </sodipodi:namedview>
  <metadata
     id="metadata7">
    <rdf:RDF>
      <cc:Work
         rdf:about="">
        <dc:format>image/svg+xml</dc:format>
        <dc:type
           rdf:resource="http://purl.org/dc/dcmitype/StillImage" />
        <dc:title />
      </cc:Work>
    </rdf:RDF>
  </metadata>
  <g
     inkscape:label="Layer 1"
     inkscape:groupmode="layer"
     id="layer1"
     transform="translate(0,-924.36218)">
    <path
       style="opacity:1;fill:#000000;fill-opacity:1;stroke:none"
       d="M 64 0 C 43.379835 7.5033251e-07 22.746455 7.8265299 15.46875 23.5 C 0.91334023 54.846941 34.889179 127.99999 64 128 C 93.110821 128 127.08666 54.846939 112.53125 23.5 C 105.25354 7.8265301 84.620165 -7.5033251e-07 64 0 z M 44 40 C 50.624 40 56 43.584 56 48 C 56 52.416 50.624 56 44 56 C 37.376 56 32 52.416 32 48 C 32 43.584 37.376 40 44 40 z M 84 40 C 90.624 40 96 43.584 96 48 C 96 52.416 90.624 56 84 56 C 77.376 56 72 52.416 72 48 C 72 43.584 77.376 40 84 40 z M 64 92 C 72.832 91.999997 80 94.688 80 98 C 80 101.312 72.832 104 64 104 C 55.168 104 48 101.312 48 98 C 48 94.687997 55.168 92 64 92 z "
       transform="translate(0,924.36218)"
       id="path2557" />
  </g>
</svg>
