<?xml version="1.0" encoding="UTF-8" standalone="no"?>
<!-- Created with Inkscape (http://www.inkscape.org/) -->
<svg
   xmlns:dc="http://purl.org/dc/elements/1.1/"
   xmlns:cc="http://creativecommons.org/ns#"
   xmlns:rdf="http://www.w3.org/1999/02/22-rdf-syntax-ns#"
   xmlns:svg="http://www.w3.org/2000/svg"
   xmlns="http://www.w3.org/2000/svg"
   xmlns:sodipodi="http://sodipodi.sourceforge.net/DTD/sodipodi-0.dtd"
   xmlns:inkscape="http://www.inkscape.org/namespaces/inkscape"
   width="128"
   height="128"
   id="svg2"
   version="1.1"
   inkscape:version="0.46"
   sodipodi:docname="user-switch.svg"
   sodipodi:version="0.32"
   inkscape:output_extension="org.inkscape.output.svg.inkscape">
  <defs
     id="defs4">
    <inkscape:perspective
       sodipodi:type="inkscape:persp3d"
       inkscape:vp_x="0 : 526.18109 : 1"
       inkscape:vp_y="0 : 1000 : 0"
       inkscape:vp_z="744.09448 : 526.18109 : 1"
       inkscape:persp3d-origin="372.04724 : 350.78739 : 1"
       id="perspective10" />
    <inkscape:perspective
       id="perspective3205"
       inkscape:persp3d-origin="62.949001 : 20.514666 : 1"
       inkscape:vp_z="125.898 : 30.771999 : 1"
       inkscape:vp_y="0 : 1000 : 0"
       inkscape:vp_x="0 : 30.771999 : 1"
       sodipodi:type="inkscape:persp3d" />
  </defs>
  <sodipodi:namedview
     id="base"
     pagecolor="#ffffff"
     bordercolor="#666666"
     borderopacity="1.0"
     inkscape:pageopacity="0.0"
     inkscape:pageshadow="2"
     inkscape:zoom="1.6601562"
     inkscape:cx="234.3855"
     inkscape:cy="91.826481"
     inkscape:document-units="px"
     inkscape:current-layer="layer1"
     showgrid="true"
     inkscape:window-width="1285"
     inkscape:window-height="844"
     inkscape:window-x="147"
     inkscape:window-y="0"
     inkscape:window-maximized="0"
     showguides="true"
     inkscape:guide-bbox="true">
    <inkscape:grid
       type="xygrid"
       id="grid2816"
       empspacing="4"
       visible="true"
       enabled="true"
       snapvisiblegridlinesonly="true" />
  </sodipodi:namedview>
  <metadata
     id="metadata7">
    <rdf:RDF>
      <cc:Work
         rdf:about="">
        <dc:format>image/svg+xml</dc:format>
        <dc:type
           rdf:resource="http://purl.org/dc/dcmitype/StillImage" />
        <dc:title />
      </cc:Work>
    </rdf:RDF>
  </metadata>
  <g
     inkscape:label="Layer 1"
     inkscape:groupmode="layer"
     id="layer1"
     transform="translate(0,-924.36218)">
    <g
       id="g4162"
       transform="matrix(0.7135238,0,0,0.7135238,44.831753,301.26376)">
      <g
         id="g4157">
        <path
           style="fill:#000000;fill-opacity:1;stroke:none"
           d="M 64.21875,924.36218 C 43.650539,924.40151 23.10313,932.22819 15.84375,947.86218 C 1.3141302,979.15358 35.142464,1052.1038 64.21875,1052.3622 L 64.21875,924.36218 z M 63.75,931.42468 L 63.75,1045.2997 C 37.882301,1045.0698 7.7924825,980.16931 20.71875,952.33093 C 27.177053,938.42216 45.451503,931.45967 63.75,931.42468 z"
           id="path2391" />
        <path
           style="fill:#000000;fill-opacity:1;stroke:none"
           d="M 64,0 L 64,128 C 93.07629,127.7416 126.90462,54.79139 112.375,23.5 C 105.11562,7.86601 84.56821,0.03933 64,0 z M 84.53125,50.28125 C 93.564049,49.99495 101.3125,58.53125 101.3125,58.53125 C 96.126982,58.26017 91.707624,69.23335 74.09375,60.96875 C 73.825808,60.522149 73.60718,60.1518 73.25,60.375 C 72.892828,60.598199 72.16573,62.02285 70.78125,60.90625 C 69.396768,59.789719 71.5,57.21875 71.5,57.21875 C 75.923891,52.23661 80.425431,50.41139 84.53125,50.28125 z"
           transform="translate(0,924.36218)"
           id="path2557" />
        <path
           id="path3249"
           d="M 43.682141,974.65431 C 34.64934,974.36801 26.91714,982.89446 26.91714,982.89446 C 32.102657,982.62338 36.505767,993.60642 54.119641,985.34182 C 54.387581,984.89522 54.606211,984.52492 54.963391,984.74812 C 55.320561,984.97132 56.047661,986.39592 57.432141,985.27932 C 58.81662,984.16279 56.713391,981.59181 56.713391,981.59181 C 52.289498,976.60967 47.78796,974.78445 43.682141,974.65431 z"
           sodipodi:nodetypes="cccsscc" />
      </g>
    </g>
    <g
       transform="matrix(0.7135238,0,0,0.7135238,-9.2344143,264.421)"
       id="g2386">
      <g
         id="g2388">
        <path
           id="path2390"
           d="M 64.21875,924.36218 C 43.650539,924.40151 23.10313,932.22819 15.84375,947.86218 C 1.3141302,979.15358 35.142464,1052.1038 64.21875,1052.3622 L 64.21875,924.36218 z M 63.75,931.42468 L 63.75,1045.2997 C 37.882301,1045.0698 7.7924825,980.16931 20.71875,952.33093 C 27.177053,938.42216 45.451503,931.45967 63.75,931.42468 z"
           style="fill:#000000;fill-opacity:1;stroke:none" />
        <path
           id="path2392"
           transform="translate(0,924.36218)"
           d="M 64,0 L 64,128 C 93.07629,127.7416 126.90462,54.79139 112.375,23.5 C 105.11562,7.86601 84.56821,0.03933 64,0 z M 84.53125,50.28125 C 93.564049,49.99495 101.3125,58.53125 101.3125,58.53125 C 96.126982,58.26017 91.707624,69.23335 74.09375,60.96875 C 73.825808,60.522149 73.60718,60.1518 73.25,60.375 C 72.892828,60.598199 72.16573,62.02285 70.78125,60.90625 C 69.396768,59.789719 71.5,57.21875 71.5,57.21875 C 75.923891,52.23661 80.425431,50.41139 84.53125,50.28125 z"
           style="fill:#000000;fill-opacity:1;stroke:none" />
        <path
           sodipodi:nodetypes="cccsscc"
           d="M 43.682141,974.65431 C 34.64934,974.36801 26.91714,982.89446 26.91714,982.89446 C 32.102657,982.62338 36.505767,993.60642 54.119641,985.34182 C 54.387581,984.89522 54.606211,984.52492 54.963391,984.74812 C 55.320561,984.97132 56.047661,986.39592 57.432141,985.27932 C 58.81662,984.16279 56.713391,981.59181 56.713391,981.59181 C 52.289498,976.60967 47.78796,974.78445 43.682141,974.65431 z"
           id="path2394" />
      </g>
    </g>
  </g>
</svg>
