<?xml version="1.0" encoding="UTF-8" standalone="no"?>
<!-- Created with Inkscape (http://www.inkscape.org/) -->

<svg
   xmlns:dc="http://purl.org/dc/elements/1.1/"
   xmlns:cc="http://creativecommons.org/ns#"
   xmlns:rdf="http://www.w3.org/1999/02/22-rdf-syntax-ns#"
   xmlns:svg="http://www.w3.org/2000/svg"
   xmlns="http://www.w3.org/2000/svg"
   xmlns:sodipodi="http://sodipodi.sourceforge.net/DTD/sodipodi-0.dtd"
   xmlns:inkscape="http://www.inkscape.org/namespaces/inkscape"
   width="128"
   height="128"
   id="svg2"
   version="1.1"
   inkscape:version="0.47 r22583"
   sodipodi:docname="user-icon.alt5.svg">
  <defs
     id="defs4">
    <inkscape:perspective
       sodipodi:type="inkscape:persp3d"
       inkscape:vp_x="0 : 526.18109 : 1"
       inkscape:vp_y="0 : 1000 : 0"
       inkscape:vp_z="744.09448 : 526.18109 : 1"
       inkscape:persp3d-origin="372.04724 : 350.78739 : 1"
       id="perspective10" />
  </defs>
  <sodipodi:namedview
     id="base"
     pagecolor="#ffffff"
     bordercolor="#666666"
     borderopacity="1.0"
     inkscape:pageopacity="0.0"
     inkscape:pageshadow="2"
     inkscape:zoom="3.359375"
     inkscape:cx="16.14667"
     inkscape:cy="64.297674"
     inkscape:document-units="px"
     inkscape:current-layer="layer1"
     showgrid="true"
     inkscape:window-width="1150"
     inkscape:window-height="1020"
     inkscape:window-x="508"
     inkscape:window-y="55"
     inkscape:window-maximized="0">
    <inkscape:grid
       type="xygrid"
       id="grid2816"
       empspacing="8"
       visible="true"
       enabled="true"
       snapvisiblegridlinesonly="true" />
  </sodipodi:namedview>
  <metadata
     id="metadata7">
    <rdf:RDF>
      <cc:Work
         rdf:about="">
        <dc:format>image/svg+xml</dc:format>
        <dc:type
           rdf:resource="http://purl.org/dc/dcmitype/StillImage" />
        <dc:title></dc:title>
      </cc:Work>
    </rdf:RDF>
  </metadata>
  <g
     inkscape:label="Layer 1"
     inkscape:groupmode="layer"
     id="layer1"
     transform="translate(0,-924.36218)">
    <path
       style="fill:#000000;fill-opacity:1;stroke:none;opacity:1"
       d="M 63.40625 1.15625 C 48.738618 1.13954 34.267869 3.4028871 16 8 C 16.29388 15.501713 16 24 16 32 C 8 40 7.9805747 56.023541 24 72 C 32 80 32 80 40 112 C 48 132.92719 80 132.59601 88 112 C 96 80 96 80 104 72 C 120.5672 56.094418 120 40 112 32 C 112 24 112.53186 14.473836 112 8 C 92.938399 3.469727 78.073882 1.17296 63.40625 1.15625 z M 41 23.875 C 46.468197 23.716403 58.174854 30.057864 56 40 C 48 24 40 32 32 32 C 27.338217 28.745712 33.547075 25.035284 40 24 C 40.303175 23.930845 40.635454 23.885573 41 23.875 z M 87 23.875 C 87.364546 23.885573 87.696825 23.930845 88 24 C 94.452925 25.03528 100.66178 28.74571 96 32 C 88 32 80 24 72 40 C 69.825146 30.057869 81.531803 23.716406 87 23.875 z M 40 64 C 46.685842 69.022991 54.993692 72 64 72 C 73.006308 72 81.314158 69.022991 88 64 C 88 86.09139 77.254834 104 64 104 C 50.745166 104 40 86.09139 40 64 z "
       transform="translate(0,924.36218)"
       id="rect2818" />
  </g>
</svg>
