<?xml version="1.0" encoding="UTF-8" standalone="no"?>
<!-- Created with Inkscape (http://www.inkscape.org/) -->

<svg
   xmlns:dc="http://purl.org/dc/elements/1.1/"
   xmlns:cc="http://creativecommons.org/ns#"
   xmlns:rdf="http://www.w3.org/1999/02/22-rdf-syntax-ns#"
   xmlns:svg="http://www.w3.org/2000/svg"
   xmlns="http://www.w3.org/2000/svg"
   xmlns:sodipodi="http://sodipodi.sourceforge.net/DTD/sodipodi-0.dtd"
   xmlns:inkscape="http://www.inkscape.org/namespaces/inkscape"
   width="128"
   height="128"
   id="svg2"
   version="1.1"
   inkscape:version="0.47 r22583"
   sodipodi:docname="view-right-close.svg">
  <defs
     id="defs4">
    <inkscape:perspective
       sodipodi:type="inkscape:persp3d"
       inkscape:vp_x="0 : 526.18109 : 1"
       inkscape:vp_y="0 : 1000 : 0"
       inkscape:vp_z="744.09448 : 526.18109 : 1"
       inkscape:persp3d-origin="372.04724 : 350.78739 : 1"
       id="perspective10" />
  </defs>
  <sodipodi:namedview
     id="base"
     pagecolor="#ffffff"
     bordercolor="#666666"
     borderopacity="1.0"
     inkscape:pageopacity="0.0"
     inkscape:pageshadow="2"
     inkscape:zoom="7.9195959"
     inkscape:cx="53.2928"
     inkscape:cy="66.877719"
     inkscape:document-units="px"
     inkscape:current-layer="layer1"
     showgrid="true"
     inkscape:window-width="1653"
     inkscape:window-height="1022"
     inkscape:window-x="155"
     inkscape:window-y="67"
     inkscape:window-maximized="0">
    <inkscape:grid
       type="xygrid"
       id="grid2816"
       empspacing="8"
       visible="true"
       enabled="true"
       snapvisiblegridlinesonly="true"
       spacingx="1.3333px"
       spacingy="1.3333px" />
  </sodipodi:namedview>
  <metadata
     id="metadata7">
    <rdf:RDF>
      <cc:Work
         rdf:about="">
        <dc:format>image/svg+xml</dc:format>
        <dc:type
           rdf:resource="http://purl.org/dc/dcmitype/StillImage" />
        <dc:title></dc:title>
      </cc:Work>
    </rdf:RDF>
  </metadata>
  <g
     inkscape:label="Layer 1"
     inkscape:groupmode="layer"
     id="layer1"
     transform="translate(0,-924.36218)">
    <path
       style="fill:#000000;fill-opacity:1;fill-rule:nonzero;stroke:none"
       d="m 65.177233,934.95593 c 8.689628,0.15981 17.467197,2.4504 25.53125,7.09375 l -0.03125,0.0625 c 7.014781,4.04999 9.105677,13.535 4.6875,21.1875 -4.418153,7.65248 -13.672711,10.58122 -20.6875,6.53125 -0.128013,-0.0739 -0.250279,-0.17245 -0.375,-0.25 -10.13938,-5.56516 -22.906645,-2.03567 -28.71875,8.03125 4.418193,-7.65251 1.777496,-17.4255 -5.875,-21.84375 -7.174203,-4.14194 -16.19387,-2.10864 -20.9375,4.46875 9.902421,-16.00976 26.996097,-25.03121 44.65625,-25.28125 0.57816,-0.008 1.170691,-0.0106 1.75,0 z m 45.093747,26.65625 c 9.19415,15.96473 9.83872,36.30674 -0.0313,53.40622 -4.85074,8.4018 -11.631216,14.9505 -19.468747,19.4688 l 0,-0.063 c -7.01479,4.05 -16.269341,1.1212 -20.6875,-6.5313 -4.418203,-7.6524 -2.327284,-17.1375 4.6875,-21.1875 0.13717,-0.079 0.267401,-0.1136 0.40625,-0.1875 2.944941,-1.7919 5.49777,-4.3651 7.34375,-7.56247 3.956504,-6.85284 3.638876,-14.95052 -0.0625,-21.34375 l 0.03125,-0.0625 c 0.01171,0.0204 0.05072,0.0421 0.0625,0.0625 4.41821,7.65245 14.191252,10.2932 21.843747,5.875 7.65243,-4.41808 10.29316,-14.2224 5.875,-21.875 z m -83.499997,12.09375 c 8.836335,0 16,6.55628 16,14.65625 0,0.11581 0.0029,0.22858 0,0.34375 0.152177,7.20931 3.919782,14.16007 10.625,18.03127 3.386795,1.9554 7.07051,2.8531 10.71875,2.8437 l 0,0.063 c -0.02376,10e-5 -0.03886,0 -0.0625,0 -8.836377,0 -16.031283,7.1637 -16.03125,16 -1.6e-5,8.8364 7.226164,16 16.0625,16 -9.065209,0.01 -18.274318,-2.2988 -26.6875,-7.1562 -8.76842,-5.0624 -15.54919,-12.2558 -20.09375,-20.5313 -4.30034,-7.8307 -6.56708,-16.65288 -6.59375,-25.59372 l 0.0625,0 c 0,-8.09997 7.16366,-14.65625 16,-14.65625 z"
       id="path3158" />
  </g>
</svg>
