<?xml version="1.0" encoding="UTF-8" standalone="no"?>
<!-- Created with Inkscape (http://www.inkscape.org/) -->

<svg
   xmlns:dc="http://purl.org/dc/elements/1.1/"
   xmlns:cc="http://creativecommons.org/ns#"
   xmlns:rdf="http://www.w3.org/1999/02/22-rdf-syntax-ns#"
   xmlns:svg="http://www.w3.org/2000/svg"
   xmlns="http://www.w3.org/2000/svg"
   xmlns:sodipodi="http://sodipodi.sourceforge.net/DTD/sodipodi-0.dtd"
   xmlns:inkscape="http://www.inkscape.org/namespaces/inkscape"
   width="128"
   height="128"
   id="svg4318"
   version="1.1"
   inkscape:version="0.47 r22583"
   sodipodi:docname="folder.svg">
  <defs
     id="defs4320">
    <inkscape:perspective
       sodipodi:type="inkscape:persp3d"
       inkscape:vp_x="0 : 526.18109 : 1"
       inkscape:vp_y="0 : 1000 : 0"
       inkscape:vp_z="744.09448 : 526.18109 : 1"
       inkscape:persp3d-origin="372.04724 : 350.78739 : 1"
       id="perspective4326" />
  </defs>
  <sodipodi:namedview
     id="base"
     pagecolor="#ffffff"
     bordercolor="#666666"
     borderopacity="1.0"
     inkscape:pageopacity="0.0"
     inkscape:pageshadow="2"
     inkscape:zoom="2.8"
     inkscape:cx="11.638669"
     inkscape:cy="70.216166"
     inkscape:document-units="px"
     inkscape:current-layer="layer1"
     showgrid="true"
     inkscape:window-width="1423"
     inkscape:window-height="997"
     inkscape:window-x="140"
     inkscape:window-y="80"
     inkscape:window-maximized="0">
    <inkscape:grid
       type="xygrid"
       id="grid4328"
       empspacing="8"
       visible="true"
       enabled="true"
       snapvisiblegridlinesonly="true" />
  </sodipodi:namedview>
  <metadata
     id="metadata4323">
    <rdf:RDF>
      <cc:Work
         rdf:about="">
        <dc:format>image/svg+xml</dc:format>
        <dc:type
           rdf:resource="http://purl.org/dc/dcmitype/StillImage" />
        <dc:title></dc:title>
      </cc:Work>
    </rdf:RDF>
  </metadata>
  <g
     inkscape:label="Layer 1"
     inkscape:groupmode="layer"
     id="layer1"
     transform="translate(0,-924.36218)">
    <path
       style="opacity:1;fill:#000000;fill-opacity:1;fill-rule:nonzero;stroke:none"
       d="M 16 8 C 11.568 8 8 11.568 8 16 L 8 112 C 8 116.432 11.568 120 16 120 L 112 120 C 116.432 120 120 116.432 120 112 L 120 16 C 120 11.568 116.432 8 112 8 L 16 8 z M 16 32 L 40 32 L 40 112 L 16 112 L 16 32 z M 48.5625 32.28125 L 112 32.28125 L 112 112 L 48.5625 112 L 48.5625 32.28125 z "
       transform="translate(0,924.36218)"
       id="rect3590" />
    <rect
       style="fill:#000000;fill-opacity:1;fill-rule:nonzero;stroke:none"
       id="rect3616"
       width="8"
       height="16"
       x="24"
       y="40"
       transform="translate(0,924.36218)"
       ry="4" />
    <rect
       style="fill:#000000;fill-opacity:1;fill-rule:nonzero;stroke:none"
       id="rect3618"
       width="8"
       height="16"
       x="24"
       y="64"
       transform="translate(0,924.36218)"
       ry="4" />
    <rect
       style="fill:#000000;fill-opacity:1;fill-rule:nonzero;stroke:none"
       id="rect3620"
       width="8"
       height="16"
       x="24"
       y="88"
       transform="translate(0,924.36218)"
       ry="4" />
    <rect
       style="fill:#000000;fill-opacity:1;fill-rule:nonzero;stroke:none"
       id="rect3622"
       width="48"
       height="8"
       x="56"
       y="40"
       transform="translate(0,924.36218)"
       ry="4" />
    <rect
       style="fill:#000000;fill-opacity:1;fill-rule:nonzero;stroke:none"
       id="rect3624"
       width="48"
       height="8"
       x="56"
       y="64"
       transform="translate(0,924.36218)"
       ry="4" />
  </g>
</svg>
