<?xml version="1.0" encoding="UTF-8" standalone="no"?>
<!-- Created with Inkscape (http://www.inkscape.org/) -->

<svg
   xmlns:dc="http://purl.org/dc/elements/1.1/"
   xmlns:cc="http://creativecommons.org/ns#"
   xmlns:rdf="http://www.w3.org/1999/02/22-rdf-syntax-ns#"
   xmlns:svg="http://www.w3.org/2000/svg"
   xmlns="http://www.w3.org/2000/svg"
   xmlns:xlink="http://www.w3.org/1999/xlink"
   xmlns:sodipodi="http://sodipodi.sourceforge.net/DTD/sodipodi-0.dtd"
   xmlns:inkscape="http://www.inkscape.org/namespaces/inkscape"
   width="64px"
   height="64px"
   id="svg2383"
   sodipodi:version="0.32"
   inkscape:version="0.91 r13725"
   sodipodi:docname="view-restore.svg"
   inkscape:output_extension="org.inkscape.output.svg.inkscape"
   inkscape:export-filename="/home/rob/.kde4/share/icons/nmfnms/48x48/actions/view-refresh.png"
   inkscape:export-xdpi="67.5"
   inkscape:export-ydpi="67.5"
   version="1.1">
  <defs
     id="defs2385">
    <inkscape:perspective
       sodipodi:type="inkscape:persp3d"
       inkscape:vp_x="0 : 32 : 1"
       inkscape:vp_y="0 : 1000 : 0"
       inkscape:vp_z="64 : 32 : 1"
       inkscape:persp3d-origin="32 : 21.333333 : 1"
       id="perspective2391" />
    <inkscape:perspective
       id="perspective10"
       inkscape:persp3d-origin="372.04724 : 350.78739 : 1"
       inkscape:vp_z="744.09448 : 526.18109 : 1"
       inkscape:vp_y="0 : 1000 : 0"
       inkscape:vp_x="0 : 526.18109 : 1"
       sodipodi:type="inkscape:persp3d" />
    <pattern
       patternUnits="userSpaceOnUse"
       width="52.00226"
       height="46.406551"
       patternTransform="translate(11.69844,8.7393398)"
       id="pattern2834">
      <path
         id="path2526"
         d="M 5.9999993,17.203293 C 11.433191,6.9833594 24.249858,3.0362863 34.626824,8.3872582 45.003791,13.738231 49.011513,26.360943 43.578321,36.580877 c -0.726471,1.366504 -1.604396,2.649552 -2.617718,3.825675"
         style="fill:none;stroke:#000000;stroke-width:11.99999809;stroke-linecap:round;stroke-linejoin:miter;stroke-miterlimit:4;stroke-opacity:1" />
    </pattern>
  </defs>
  <sodipodi:namedview
     id="base"
     pagecolor="#ffffff"
     bordercolor="#666666"
     borderopacity="1.0"
     inkscape:pageopacity="0.0"
     inkscape:pageshadow="2"
     inkscape:zoom="6.0435533"
     inkscape:cx="56.090607"
     inkscape:cy="32.825251"
     inkscape:current-layer="layer1"
     showgrid="true"
     inkscape:document-units="px"
     inkscape:grid-bbox="true"
     inkscape:window-width="1366"
     inkscape:window-height="741"
     inkscape:window-x="0"
     inkscape:window-y="27"
     inkscape:window-maximized="1"
     inkscape:snap-bbox="true"
     inkscape:snap-nodes="false"
     inkscape:bbox-paths="true"
     showguides="true"
     inkscape:guide-bbox="true">
    <inkscape:grid
       type="xygrid"
       id="grid3165"
       empspacing="4"
       visible="true"
       enabled="true"
       snapvisiblegridlinesonly="true" />
  </sodipodi:namedview>
  <metadata
     id="metadata2388">
    <rdf:RDF>
      <cc:Work
         rdf:about="">
        <dc:format>image/svg+xml</dc:format>
        <dc:type
           rdf:resource="http://purl.org/dc/dcmitype/StillImage" />
        <dc:title></dc:title>
      </cc:Work>
    </rdf:RDF>
  </metadata>
  <g
     id="layer1"
     inkscape:label="Layer 1"
     inkscape:groupmode="layer">
    <rect
       style="opacity:1;fill:#000000;fill-opacity:1;stroke:none"
       id="rect3029"
       width="40"
       height="40"
       x="12"
       y="12"
       ry="7.5"
       rx="7.5" />
    <g
       id="g2993"
       transform="matrix(1.0666667,0,0,1.0666667,-2.1333334,-2.1333331)"
       style="opacity:0.4">
      <path
         sodipodi:nodetypes="ccssc"
         inkscape:connector-curvature="0"
         id="rect3018-7"
         d="m 62,21 0,22 -5.34375,-5.34375 c -3.133897,-3.133897 -3.133897,-8.178603 0,-11.3125 z"
         style="fill:#000000;fill-opacity:1;stroke:none" />
      <use
         height="64"
         width="64"
         transform="matrix(-1,0,0,1,64,0)"
         id="use3017"
         xlink:href="#rect3018-7"
         y="0"
         x="0"
         style="" />
      <use
         height="64"
         width="64"
         transform="matrix(0,1,-1,0,64,0)"
         id="use3019"
         xlink:href="#use3017"
         y="0"
         x="0"
         style="" />
      <use
         height="64"
         width="64"
         transform="matrix(1,0,0,-1,0,64)"
         id="use3021"
         xlink:href="#use3019"
         y="0"
         x="0"
         style="" />
    </g>
    <path
       style="fill:#000000;fill-opacity:1;stroke:#000000;stroke-width:0.19933555;stroke-linejoin:miter;stroke-miterlimit:4;stroke-opacity:1;display:none"
       d="M 9.973422,2.026578 C 5.556148,2.026578 2,5.582725 2,10 l 0,7.91113 16.040283,-15.884552 -8.066861,0 z m 35.880399,0 15.946845,15.946844 0,-7.973422 c 0,-4.417275 -3.556148,-7.973422 -7.973422,-7.973422 l -7.973423,0 z m 15.946845,43.85382 -16.009136,15.946845 8.035714,0 c 4.417274,0 7.973422,-3.556147 7.973422,-7.973423 l 0,-7.973422 z M 2,46.347591 2,53.85382 c 0,4.417276 3.556148,7.973423 7.973422,7.973423 l 8.066861,0 L 2,46.347591 z"
       id="rect3023"
       inkscape:connector-curvature="0" />
  </g>
</svg>
