<?xml version="1.0" encoding="UTF-8" standalone="no"?>
<!-- Created with Inkscape (http://www.inkscape.org/) -->

<svg
   xmlns:dc="http://purl.org/dc/elements/1.1/"
   xmlns:cc="http://creativecommons.org/ns#"
   xmlns:rdf="http://www.w3.org/1999/02/22-rdf-syntax-ns#"
   xmlns:svg="http://www.w3.org/2000/svg"
   xmlns="http://www.w3.org/2000/svg"
   xmlns:sodipodi="http://sodipodi.sourceforge.net/DTD/sodipodi-0.dtd"
   xmlns:inkscape="http://www.inkscape.org/namespaces/inkscape"
   width="128"
   height="128"
   id="svg2"
   sodipodi:version="0.32"
   inkscape:version="0.48.2 r9819"
   version="1.0"
   sodipodi:docname="vlc.svg"
   inkscape:output_extension="org.inkscape.output.svg.inkscape">
  <defs
     id="defs4">
    <inkscape:perspective
       sodipodi:type="inkscape:persp3d"
       inkscape:vp_x="0 : 526.18109 : 1"
       inkscape:vp_y="0 : 1000 : 0"
       inkscape:vp_z="744.09448 : 526.18109 : 1"
       inkscape:persp3d-origin="372.04724 : 350.78739 : 1"
       id="perspective10" />
  </defs>
  <sodipodi:namedview
     id="base"
     pagecolor="#ffffff"
     bordercolor="#666666"
     borderopacity="1.0"
     inkscape:pageopacity="0.0"
     inkscape:pageshadow="2"
     inkscape:zoom="0.70000001"
     inkscape:cx="28.939082"
     inkscape:cy="58.467219"
     inkscape:document-units="px"
     inkscape:current-layer="layer2"
     showgrid="true"
     showguides="false"
     inkscape:window-width="1440"
     inkscape:window-height="850"
     inkscape:window-x="72"
     inkscape:window-y="151"
     inkscape:window-maximized="0">
    <inkscape:grid
       type="xygrid"
       id="grid2383"
       visible="true"
       enabled="true" />
  </sodipodi:namedview>
  <metadata
     id="metadata7">
    <rdf:RDF>
      <cc:Work
         rdf:about="">
        <dc:format>image/svg+xml</dc:format>
        <dc:type
           rdf:resource="http://purl.org/dc/dcmitype/StillImage" />
      </cc:Work>
    </rdf:RDF>
  </metadata>
  <g
     inkscape:label="Capa 1"
     inkscape:groupmode="layer"
     id="layer1" />
  <g
     inkscape:groupmode="layer"
     id="layer2"
     style="opacity:0.76">
    <path
       style="fill:#000000;fill-opacity:1;fill-rule:nonzero;stroke:none;opacity:0.33"
       d="m 64,16 c -26.50967,0 -48,21.490332 -48,48 0,26.509668 21.49033,48 48,48 26.50967,0 48,-21.490332 48,-48 C 112,37.490332 90.50967,16 64,16 z"
       id="path3830"
       inkscape:connector-curvature="0" />
    <path
       style="fill:#000000;fill-opacity:1;fill-rule:nonzero;stroke:none;opacity:0.66"
       d="M 23 0 C 10.258 0 2.0714252e-17 10.258 0 23 L 0 105 C 0 117.742 10.258 128 23 128 L 105 128 C 117.742 128 128 117.742 128 105 L 128 23 C 128 10.258 117.742 2.0714252e-17 105 0 L 23 0 z M 64 16 C 90.50967 16 112 37.490332 112 64 C 112 90.509668 90.50967 112 64 112 C 37.49033 112 16 90.509668 16 64 C 16 37.490332 37.49033 16 64 16 z "
       id="rect3020" />
    <path
       style="opacity:1;fill:#000000;fill-opacity:1;fill-rule:nonzero;stroke:none"
       d="M 64 16 C 37.490332 16 16 37.490332 16 64 C 16 90.509668 37.490332 112 64 112 C 90.509668 112 112 90.509668 112 64 C 112 37.490332 90.509668 16 64 16 z M 64 28 C 83.882251 28 100 44.117749 100 64 C 100 83.882251 83.882251 100 64 100 C 44.117749 100 28 83.882251 28 64 C 28 44.117749 44.117749 28 64 28 z M 64 36 C 48.536027 36 36 48.536027 36 64 C 36 79.463973 48.536027 92 64 92 C 79.463973 92 92 79.463973 92 64 C 92 48.536027 79.463973 36 64 36 z M 64 48 C 72.836556 48 80 55.163444 80 64 C 80 72.836556 72.836556 80 64 80 C 55.163444 80 48 72.836556 48 64 C 48 55.163444 55.163444 48 64 48 z M 64 56 C 59.581722 56 56 59.581722 56 64 C 56 68.418278 59.581722 72 64 72 C 68.418278 72 72 68.418278 72 64 C 72 59.581722 68.418278 56 64 56 z "
       id="path3790" />
  </g>
</svg>
