<?xml version="1.0" encoding="UTF-8" standalone="no"?>
<!-- Created with Inkscape (http://www.inkscape.org/) -->
<svg
   xmlns:dc="http://purl.org/dc/elements/1.1/"
   xmlns:cc="http://creativecommons.org/ns#"
   xmlns:rdf="http://www.w3.org/1999/02/22-rdf-syntax-ns#"
   xmlns:svg="http://www.w3.org/2000/svg"
   xmlns="http://www.w3.org/2000/svg"
   xmlns:xlink="http://www.w3.org/1999/xlink"
   xmlns:sodipodi="http://sodipodi.sourceforge.net/DTD/sodipodi-0.dtd"
   xmlns:inkscape="http://www.inkscape.org/namespaces/inkscape"
   width="128"
   height="128"
   id="svg2921"
   sodipodi:version="0.32"
   inkscape:version="0.46+devel"
   version="1.0"
   sodipodi:docname="volume0.svg"
   inkscape:output_extension="org.inkscape.output.svg.inkscape">
  <defs
     id="defs2923">
    <inkscape:perspective
       sodipodi:type="inkscape:persp3d"
       inkscape:vp_x="0 : 526.18109 : 1"
       inkscape:vp_y="0 : 1000 : 0"
       inkscape:vp_z="744.09448 : 526.18109 : 1"
       inkscape:persp3d-origin="372.04724 : 350.78739 : 1"
       id="perspective2929" />
    <inkscape:perspective
       id="perspective2908"
       inkscape:persp3d-origin="372.04724 : 350.78739 : 1"
       inkscape:vp_z="744.09448 : 526.18109 : 1"
       inkscape:vp_y="0 : 1000 : 0"
       inkscape:vp_x="0 : 526.18109 : 1"
       sodipodi:type="inkscape:persp3d" />
    <linearGradient
       inkscape:collect="always"
       xlink:href="#linearGradient3223"
       id="linearGradient2896"
       gradientUnits="userSpaceOnUse"
       gradientTransform="matrix(0,-3.4516455,2.6740186,0,-855.445,37.06924)"
       x1="11.66507"
       y1="10.737893"
       x2="-8.9148693"
       y2="10.737893" />
    <linearGradient
       id="linearGradient3223">
      <stop
         style="stop-color:#707070;stop-opacity:1;"
         offset="0"
         id="stop3225" />
      <stop
         id="stop3231"
         offset="0.47999999"
         style="stop-color:#585858;stop-opacity:1;" />
      <stop
         style="stop-color:#202020;stop-opacity:1;"
         offset="0.51999998"
         id="stop3233" />
      <stop
         style="stop-color:#606060;stop-opacity:1;"
         offset="1"
         id="stop3227" />
    </linearGradient>
  </defs>
  <sodipodi:namedview
     id="base"
     pagecolor="#ffffff"
     bordercolor="#666666"
     borderopacity="1.0"
     inkscape:pageopacity="0.0"
     inkscape:pageshadow="2"
     inkscape:zoom="1.4"
     inkscape:cx="-11.378307"
     inkscape:cy="5.7142854"
     inkscape:document-units="px"
     inkscape:current-layer="layer1"
     showgrid="false"
     inkscape:window-width="844"
     inkscape:window-height="675"
     inkscape:window-x="450"
     inkscape:window-y="385" />
  <metadata
     id="metadata2926">
    <rdf:RDF>
      <cc:Work
         rdf:about="">
        <dc:format>image/svg+xml</dc:format>
        <dc:type
           rdf:resource="http://purl.org/dc/dcmitype/StillImage" />
      </cc:Work>
    </rdf:RDF>
  </metadata>
  <g
     inkscape:label="Ebene 1"
     inkscape:groupmode="layer"
     id="layer1">
    <path
       style="opacity:1;fill:#000000;fill-opacity:1;stroke:none"
       d="m 50.422346,24.68757 c -9.86032,0.47261 -50.5026,32.1059 -50.42223,40.12492 0.08575,8.55361 47.0271,42.37226 52.74266,37.9999 5.71558,-4.37232 4.98603,-73.56852 -0.81528,-77.74982 -0.36257,-0.26133 -0.84778,-0.4065 -1.50513,-0.37498 z"
       id="path2431" />
    <path
       style="opacity:0.66;fill:#000000;fill-opacity:1;stroke:none"
       d="M 74.28125 19.90625 C 73.513324 19.852568 72.719667 20.022 72 20.4375 L 65.0625 24.4375 C 63.143388 25.5455 62.485751 27.987138 63.59375 29.90625 L 83.28125 64 L 63.59375 98.09375 C 62.485749 100.01286 63.143388 102.4545 65.0625 103.5625 L 72 107.5625 C 73.919116 108.6705 76.36075 108.01286 77.46875 106.09375 L 92.53125 80 L 107.59375 106.09375 C 108.70175 108.01286 111.14339 108.6705 113.0625 107.5625 L 120 103.5625 C 121.91911 102.4545 122.57675 100.01286 121.46875 98.09375 L 101.78125 64 L 121.46875 29.90625 C 122.57675 27.987137 121.91911 25.5455 120 24.4375 L 113.0625 20.4375 C 111.14339 19.3295 108.70175 19.987138 107.59375 21.90625 L 92.53125 48 L 77.46875 21.90625 C 76.77625 20.706805 75.561127 19.99572 74.28125 19.90625 z "
       id="rect2477" />
  </g>
</svg>
