<?xml version="1.0" encoding="UTF-8" standalone="no"?>
<!-- Created with Inkscape (http://www.inkscape.org/) -->

<svg
   xmlns:dc="http://purl.org/dc/elements/1.1/"
   xmlns:cc="http://creativecommons.org/ns#"
   xmlns:rdf="http://www.w3.org/1999/02/22-rdf-syntax-ns#"
   xmlns:svg="http://www.w3.org/2000/svg"
   xmlns="http://www.w3.org/2000/svg"
   xmlns:sodipodi="http://sodipodi.sourceforge.net/DTD/sodipodi-0.dtd"
   xmlns:inkscape="http://www.inkscape.org/namespaces/inkscape"
   width="128"
   height="128"
   id="svg2"
   version="1.1"
   inkscape:version="0.48.2 r9819"
   sodipodi:docname="Neues Dokument 1">
  <defs
     id="defs4" />
  <sodipodi:namedview
     id="base"
     pagecolor="#ffffff"
     bordercolor="#666666"
     borderopacity="1.0"
     inkscape:pageopacity="0.0"
     inkscape:pageshadow="2"
     inkscape:zoom="2.8"
     inkscape:cx="56.273373"
     inkscape:cy="62.178572"
     inkscape:document-units="px"
     inkscape:current-layer="layer1"
     showgrid="false"
     inkscape:window-width="1098"
     inkscape:window-height="756"
     inkscape:window-x="408"
     inkscape:window-y="81"
     inkscape:window-maximized="0" />
  <metadata
     id="metadata7">
    <rdf:RDF>
      <cc:Work
         rdf:about="">
        <dc:format>image/svg+xml</dc:format>
        <dc:type
           rdf:resource="http://purl.org/dc/dcmitype/StillImage" />
        <dc:title></dc:title>
      </cc:Work>
    </rdf:RDF>
  </metadata>
  <g
     inkscape:label="Ebene 1"
     inkscape:groupmode="layer"
     id="layer1"
     transform="translate(0,-924.36218)">
    <g
       id="g3769"
       transform="translate(-1.2506886,0.00535912)">
      <path
         inkscape:connector-curvature="0"
         id="path2985"
         d="m 72.55325,1048.3622 0.448452,-55.99999"
         style="fill:none;stroke:#000000;stroke-width:7.99999952;stroke-linecap:round;stroke-linejoin:miter;stroke-miterlimit:4;stroke-opacity:1;stroke-dasharray:none" />
      <path
         sodipodi:open="true"
         sodipodi:end="5.5850536"
         sodipodi:start="2.0943951"
         transform="matrix(1.6754653,0,0,1.6753022,-15.229351,844.65451)"
         d="M 33.335033,121.59458 C 14.975391,110.99464 8.6849123,87.518254 19.284857,69.158611 29.884802,50.798968 53.361186,44.50849 71.720829,55.108435 c 3.877856,2.238881 7.334077,5.138995 10.212327,8.56916"
         sodipodi:ry="38.385796"
         sodipodi:rx="38.385796"
         sodipodi:cy="88.351509"
         sodipodi:cx="52.527931"
         id="path3755"
         style="fill:none;stroke:#000000;stroke-width:4.77502537;stroke-linecap:round;stroke-miterlimit:4;stroke-opacity:1;stroke-dasharray:none"
         sodipodi:type="arc" />
      <path
         sodipodi:open="true"
         sodipodi:type="arc"
         style="fill:none;stroke:#000000;stroke-width:6.57414722;stroke-linecap:round;stroke-miterlimit:4;stroke-opacity:1;stroke-dasharray:none"
         id="path3761"
         sodipodi:cx="52.527931"
         sodipodi:cy="88.351509"
         sodipodi:rx="38.385796"
         sodipodi:ry="38.385796"
         d="m 23.122707,63.677594 c 13.627027,-16.240057 37.839082,-18.358336 54.079139,-4.731309 16.240057,13.627027 18.358337,37.839082 4.731309,54.079135 -2.87825,3.43017 -6.334471,6.33028 -10.212327,8.56916"
         transform="matrix(1.2183168,0,0,1.2154605,8.7837119,884.09831)"
         sodipodi:start="3.8397244"
         sodipodi:end="7.3303829" />
      <path
         sodipodi:open="true"
         sodipodi:end="7.3303829"
         sodipodi:start="2.0943951"
         transform="matrix(0.76144802,0,0,0.75590029,32.782086,923.51798)"
         d="M 33.335033,121.59458 C 14.975391,110.99464 8.6849123,87.518254 19.284857,69.158611 29.884802,50.798968 53.361186,44.50849 71.720829,55.108435 90.080472,65.70838 96.37095,89.184764 85.771005,107.54441 c -3.369057,5.83538 -8.214798,10.68112 -14.050177,14.05017"
         sodipodi:ry="38.385796"
         sodipodi:rx="38.385796"
         sodipodi:cy="88.351509"
         sodipodi:cx="52.527931"
         id="path3763"
         style="fill:none;stroke:#000000;stroke-width:10.54478168;stroke-linecap:round;stroke-miterlimit:4;stroke-opacity:1;stroke-dasharray:none"
         sodipodi:type="arc" />
      <path
         transform="matrix(1.4933334,0,0,1.4933334,-35.755865,891.8768)"
         d="m 80.714288,64.60714 c 0,4.438002 -3.597712,8.035714 -8.035714,8.035714 -4.438003,0 -8.035715,-3.597712 -8.035715,-8.035714 0,-4.438003 3.597712,-8.035715 8.035715,-8.035715 4.438002,0 8.035714,3.597712 8.035714,8.035715 z"
         sodipodi:ry="8.0357141"
         sodipodi:rx="8.0357141"
         sodipodi:cy="64.60714"
         sodipodi:cx="72.678574"
         id="path3767"
         style="fill:#000000;stroke:none"
         sodipodi:type="arc" />
    </g>
  </g>
</svg>
