<?xml version="1.0" encoding="UTF-8" standalone="no"?>
<!-- Created with Inkscape (http://www.inkscape.org/) -->
<svg
   xmlns:dc="http://purl.org/dc/elements/1.1/"
   xmlns:cc="http://creativecommons.org/ns#"
   xmlns:rdf="http://www.w3.org/1999/02/22-rdf-syntax-ns#"
   xmlns:svg="http://www.w3.org/2000/svg"
   xmlns="http://www.w3.org/2000/svg"
   xmlns:sodipodi="http://sodipodi.sourceforge.net/DTD/sodipodi-0.dtd"
   xmlns:inkscape="http://www.inkscape.org/namespaces/inkscape"
   width="128"
   height="128"
   id="svg2"
   sodipodi:version="0.32"
   inkscape:version="0.46"
   version="1.0"
   sodipodi:docname="xmbc.svg"
   inkscape:output_extension="org.inkscape.output.svg.inkscape">
  <defs
     id="defs4">
    <inkscape:perspective
       sodipodi:type="inkscape:persp3d"
       inkscape:vp_x="0 : 526.18109 : 1"
       inkscape:vp_y="0 : 1000 : 0"
       inkscape:vp_z="744.09448 : 526.18109 : 1"
       inkscape:persp3d-origin="372.04724 : 350.78739 : 1"
       id="perspective10" />
    <inkscape:perspective
       id="perspective2512"
       inkscape:persp3d-origin="372.04724 : 350.78739 : 1"
       inkscape:vp_z="744.09448 : 526.18109 : 1"
       inkscape:vp_y="0 : 1000 : 0"
       inkscape:vp_x="0 : 526.18109 : 1"
       sodipodi:type="inkscape:persp3d" />
  </defs>
  <sodipodi:namedview
     id="base"
     pagecolor="#ffffff"
     bordercolor="#666666"
     borderopacity="1.0"
     inkscape:pageopacity="0.0"
     inkscape:pageshadow="2"
     inkscape:zoom="1.979899"
     inkscape:cx="-11.533058"
     inkscape:cy="74.23323"
     inkscape:document-units="px"
     inkscape:current-layer="layer1"
     showgrid="true"
     showguides="false"
     inkscape:window-width="1440"
     inkscape:window-height="850"
     inkscape:window-x="-4"
     inkscape:window-y="-2">
    <inkscape:grid
       type="xygrid"
       id="grid2383"
       visible="true"
       enabled="true" />
  </sodipodi:namedview>
  <metadata
     id="metadata7">
    <rdf:RDF>
      <cc:Work
         rdf:about="">
        <dc:format>image/svg+xml</dc:format>
        <dc:type
           rdf:resource="http://purl.org/dc/dcmitype/StillImage" />
      </cc:Work>
    </rdf:RDF>
  </metadata>
  <g
     inkscape:label="Capa 1"
     inkscape:groupmode="layer"
     id="layer1">
    <flowRoot
       xml:space="preserve"
       id="flowRoot2420"
       style="font-size:40px;font-style:normal;font-weight:normal;fill:#000000;fill-opacity:1;stroke:none;stroke-width:1px;stroke-linecap:butt;stroke-linejoin:miter;stroke-opacity:1;font-family:Sans;-inkscape-font-specification:Clean;font-stretch:normal;font-variant:normal"><flowRegion
         id="flowRegion2422"><rect
           id="rect2424"
           width="128.28937"
           height="53.033009"
           x="0.50507629"
           y="37.086269"
           style="-inkscape-font-specification:Clean;font-family:Sans;font-weight:normal;font-style:normal;font-stretch:normal;font-variant:normal" /></flowRegion><flowPara
         id="flowPara2426" /></flowRoot>    <path
       style="fill:#000000;fill-opacity:1;stroke:none;stroke-width:2;stroke-miterlimit:4;stroke-dasharray:none;stroke-dashoffset:0;stroke-opacity:1"
       d="M 1.5531585,82.804042 C 1.1410595,82.420515 1.1350988,82.311849 1.4717678,81.320449 C 1.9530045,79.903347 3.6107951,77.897357 4.8547107,77.226949 C 5.4251469,76.919506 7.0461962,76.544765 8.6272435,76.354823 C 12.208378,75.924601 12.921877,75.67337 14.362635,74.335373 C 16.863996,72.012412 18.102938,69.203919 18.115025,65.82925 C 18.123136,63.56484 17.752111,62.325224 16.615282,60.818524 C 15.600911,59.474137 14.802316,59.128381 11.76514,58.718643 C 9.9121479,58.468667 8.5833402,58.127031 7.9841625,57.746574 C 6.720449,56.944174 5.9754781,55.519409 5.9754781,53.904996 L 5.9754781,52.614118 L 10.543943,52.614118 C 17.246917,52.614118 18.230753,52.97104 21.090935,56.440414 C 22.045803,57.598647 22.883758,58.54629 22.953068,58.54629 C 23.022378,58.54629 23.922592,57.708801 24.953536,56.685202 C 28.171103,53.490553 29.880021,52.827064 36.054632,52.375133 C 38.07975,52.226904 39.782061,52.049812 39.837509,51.981594 C 39.892952,51.913365 40.113436,50.659673 40.327456,49.195599 C 40.922417,45.125624 40.952285,45.043924 41.827149,45.091789 C 42.700591,45.139581 44.192112,46.435943 44.651038,47.546165 C 44.825426,47.96809 45.04463,49.214244 45.13814,50.315405 L 45.308168,52.317513 L 48.362612,52.319269 C 51.528095,52.321071 55.298153,52.876765 57.522597,53.66941 C 59.652565,54.428387 62.187388,57.866466 63.122372,61.264626 L 63.549718,62.817784 L 64.151908,61.942623 C 64.483138,61.461286 65.230961,60.333356 65.813766,59.436115 C 68.255342,55.677226 72.200684,52.791975 75.530431,52.330286 C 79.510848,51.778374 82.529107,52.93081 85.264765,56.047034 C 86.041825,56.932214 86.738732,57.656464 86.813439,57.656464 C 86.888149,57.656464 87.633004,57.022262 88.468694,56.247126 C 90.471502,54.38947 93.034835,52.971086 95.445094,52.386838 C 97.093576,51.987254 97.670484,51.969357 99.118484,52.272927 C 102.53348,52.988884 105.38044,55.349865 106.98553,58.797102 C 107.44849,59.791402 107.88152,60.606108 107.94783,60.607576 C 108.01413,60.609044 109.0447,59.525115 110.23799,58.198842 C 111.43127,56.872569 113.0534,55.269496 113.84274,54.636457 C 116.10781,52.819872 117.17557,52.564703 122.73278,52.511958 L 127.59499,52.465816 L 127.67123,53.281163 C 127.73218,53.932971 127.48889,54.4147 126.45817,55.68287 C 124.92191,57.573064 123.74475,58.115561 120.60862,58.37865 C 117.83957,58.610944 116.9385,58.920473 115.50232,60.132727 C 112.24377,62.883171 110.67096,68.715502 112.15213,72.555926 C 112.68778,73.944817 113.90891,75.444199 114.93883,75.97765 C 115.40288,76.218006 117.02259,76.603125 118.53816,76.833471 C 122.03157,77.36441 123.17631,77.960454 123.85739,79.603045 C 124.13879,80.281728 124.3355,81.190398 124.29452,81.622331 C 124.18502,82.776316 122.91651,82.981764 117.93318,82.652567 C 114.11968,82.400639 113.68023,82.312517 112.4027,81.543499 C 111.63943,81.084022 110.2765,79.926111 109.37396,78.970359 C 108.47143,78.014599 107.62628,77.232623 107.49589,77.232623 C 107.36551,77.232623 107.13395,78.000098 106.98136,78.938123 C 106.42676,82.347364 106.40178,82.416261 105.68287,82.519633 C 104.83757,82.641176 103.2785,81.40964 102.6358,80.112684 C 102.03025,78.890739 102.02829,76.558264 102.62774,70.48217 C 103.1027,65.667839 103.03764,64.505533 102.1782,62.450001 C 101.10816,59.890792 99.396487,58.711397 96.738094,58.701659 C 95.073755,58.695567 94.61724,58.814477 93.405873,59.569684 C 91.490547,60.76375 89.282423,63.68741 88.806408,65.659661 C 88.60967,66.474765 88.217476,68.911605 87.934845,71.074863 C 86.65677,80.857727 86.469915,82.099584 86.220482,82.469384 C 85.599079,83.390643 83.219458,81.693799 82.356768,79.714266 L 81.822487,78.488301 L 82.266414,73.485498 C 82.883794,66.528407 82.865448,64.317 82.176761,62.672028 C 81.434413,60.898854 80.315947,59.519323 79.277951,59.096588 C 78.078219,58.607993 75.243221,58.687131 74.014659,59.243515 C 71.55732,60.356397 69.463221,62.984508 68.772125,65.82297 C 68.572252,66.644015 68.084015,69.627149 67.687214,72.452152 C 67.290438,75.277158 66.789883,78.044609 66.574897,78.60206 C 65.810055,80.585179 63.231698,82.857924 61.736998,82.866531 C 61.231452,82.869436 61.21472,82.482572 61.557182,78.710354 C 61.74206,76.674083 61.889257,74.674375 61.884265,74.266538 C 61.875827,73.574335 61.856134,73.562497 61.588063,74.088535 C 60.025357,77.155197 56.560635,80.617121 53.508335,82.161777 C 52.335027,82.755537 51.721069,82.85511 49.195578,82.861139 C 45.766392,82.869345 44.637224,82.505058 42.568872,80.723246 C 40.99399,79.366551 39.761281,77.543845 38.823231,75.184826 C 37.903434,72.871714 37.816792,69.381406 38.517483,62.869103 C 38.810697,60.143814 38.996392,57.847314 38.930101,57.765758 C 38.863829,57.684206 38.373854,57.761834 37.841308,57.938275 C 37.308738,58.11471 35.641939,58.446976 34.137287,58.676634 C 32.632641,58.906289 30.9361,59.291498 30.367218,59.532649 C 27.196217,60.87685 25.025614,64.443332 24.828483,68.633262 C 24.70036,71.356472 24.975602,72.548482 26.07113,74.014748 C 27.293454,75.650722 28.169588,76.07023 31.018336,76.383516 C 32.426105,76.538334 33.911187,76.79523 34.318512,76.954399 C 35.356735,77.360112 36.502524,78.937072 36.814304,80.3894 C 37.310547,82.700958 37.453692,82.644975 31.43404,82.493386 C 28.131939,82.410217 25.738318,82.217357 25.141391,81.986353 C 24.482463,81.731353 23.517802,80.818648 22.089004,79.098373 L 20,76.583232 L 18.351535,78.26422 C 16.500016,80.152253 13.511014,82.041106 11.520075,82.581227 C 10.790845,82.779062 8.3500168,83.003249 6.09602,83.079404 C 2.8295689,83.189783 1.9075911,83.133892 1.553165,82.804042 L 1.5531585,82.804042 z M 52.876396,75.600606 C 56.236494,73.789414 58.444109,68.972374 57.841869,64.765822 C 57.421035,61.826091 56.15255,59.957271 53.903953,58.964051 C 52.747374,58.453178 47.096105,58.040326 45.692986,58.364202 C 45.003023,58.523457 44.774585,58.754983 44.553838,59.518824 C 44.192211,60.769895 43.581654,66.783804 43.584665,69.064616 C 43.588377,71.899852 45.005841,74.961273 46.716207,75.828176 C 48.519838,76.742359 50.922939,76.653575 52.876396,75.600606 z"
       id="path2536" />
  </g>
  <g
     inkscape:groupmode="layer"
     id="layer2"
     style="opacity:0.76" />
</svg>
