<?xml version="1.0" encoding="UTF-8" standalone="no"?>
<!-- Created with Inkscape (http://www.inkscape.org/) -->

<svg
   xmlns:dc="http://purl.org/dc/elements/1.1/"
   xmlns:cc="http://creativecommons.org/ns#"
   xmlns:rdf="http://www.w3.org/1999/02/22-rdf-syntax-ns#"
   xmlns:svg="http://www.w3.org/2000/svg"
   xmlns="http://www.w3.org/2000/svg"
   xmlns:sodipodi="http://sodipodi.sourceforge.net/DTD/sodipodi-0.dtd"
   xmlns:inkscape="http://www.inkscape.org/namespaces/inkscape"
   width="128"
   height="128"
   id="svg2"
   version="1.1"
   inkscape:version="0.48.0 r9654"
   sodipodi:docname="zoom-out.svg"
   sodipodi:version="0.32"
   inkscape:output_extension="org.inkscape.output.svg.inkscape">
  <defs
     id="defs4">
    <inkscape:perspective
       sodipodi:type="inkscape:persp3d"
       inkscape:vp_x="0 : 526.18109 : 1"
       inkscape:vp_y="0 : 1000 : 0"
       inkscape:vp_z="744.09448 : 526.18109 : 1"
       inkscape:persp3d-origin="372.04724 : 350.78739 : 1"
       id="perspective10" />
  </defs>
  <sodipodi:namedview
     id="base"
     pagecolor="#ffffff"
     bordercolor="#666666"
     borderopacity="1.0"
     inkscape:pageopacity="0.0"
     inkscape:pageshadow="2"
     inkscape:zoom="1.1531917"
     inkscape:cx="89.944046"
     inkscape:cy="53.160519"
     inkscape:document-units="px"
     inkscape:current-layer="layer1"
     showgrid="true"
     inkscape:window-width="1266"
     inkscape:window-height="1102"
     inkscape:window-x="313"
     inkscape:window-y="26"
     inkscape:window-maximized="0">
    <inkscape:grid
       type="xygrid"
       id="grid2816"
       empspacing="8"
       visible="true"
       enabled="true"
       snapvisiblegridlinesonly="true" />
  </sodipodi:namedview>
  <metadata
     id="metadata7">
    <rdf:RDF>
      <cc:Work
         rdf:about="">
        <dc:format>image/svg+xml</dc:format>
        <dc:type
           rdf:resource="http://purl.org/dc/dcmitype/StillImage" />
        <dc:title></dc:title>
      </cc:Work>
    </rdf:RDF>
  </metadata>
  <g
     inkscape:label="Layer 1"
     inkscape:groupmode="layer"
     id="layer1"
     transform="translate(0,-924.36218)">
    <g
       id="g4438"
       transform="translate(0,160)">
      <path
         transform="matrix(1.75,0,0,1.75,-6,876.36218)"
         d="M 72,64 C 72,81.673112 57.673112,96 40,96 22.326888,96 8,81.673112 8,64 8,46.326888 22.326888,32 40,32 57.673112,32 72,46.326888 72,64 z"
         sodipodi:ry="32"
         sodipodi:rx="32"
         sodipodi:cy="64"
         sodipodi:cx="40"
         id="path4393"
         style="fill:none;stroke:#000000;stroke-width:9.14285755;stroke-linecap:butt;stroke-linejoin:miter;stroke-miterlimit:4;stroke-opacity:1;stroke-dasharray:none"
         sodipodi:type="arc" />
      <path
         sodipodi:type="arc"
         style="opacity:0.33000004;fill:none;stroke:#000000;stroke-width:11.29411793;stroke-linecap:butt;stroke-linejoin:miter;stroke-miterlimit:4;stroke-opacity:1;stroke-dasharray:none"
         id="path4395"
         sodipodi:cx="40"
         sodipodi:cy="64"
         sodipodi:rx="32"
         sodipodi:ry="32"
         d="M 72,64 C 72,81.673112 57.673112,96 40,96 22.326888,96 8,81.673112 8,64 8,46.326888 22.326888,32 40,32 57.673112,32 72,46.326888 72,64 z"
         transform="matrix(1.0625,0,0,1.0625,21.5,920.36218)" />
      <path
         transform="matrix(0.62500001,0,0,0.62500001,39,948.36218)"
         d="M 72,64 C 72,81.673112 57.673112,96 40,96 22.326888,96 8,81.673112 8,64 8,46.326888 22.326888,32 40,32 57.673112,32 72,46.326888 72,64 z"
         sodipodi:ry="32"
         sodipodi:rx="32"
         sodipodi:cy="64"
         sodipodi:cx="40"
         id="path4397"
         style="opacity:0.33000004;fill:none;stroke:#000000;stroke-width:12.79999924;stroke-linecap:butt;stroke-linejoin:miter;stroke-miterlimit:4;stroke-opacity:1;stroke-dasharray:none"
         sodipodi:type="arc" />
    </g>
    <g
       id="g4443"
       transform="translate(-200,-186)">
      <path
         sodipodi:type="arc"
         style="opacity:0.33000004;fill:none;stroke:#000000;stroke-width:9.14285755;stroke-linecap:butt;stroke-linejoin:miter;stroke-miterlimit:4;stroke-opacity:1;stroke-dasharray:none"
         id="path4399"
         sodipodi:cx="40"
         sodipodi:cy="64"
         sodipodi:rx="32"
         sodipodi:ry="32"
         d="M 72,64 C 72,81.673112 57.673112,96 40,96 22.326888,96 8,81.673112 8,64 8,46.326888 22.326888,32 40,32 57.673112,32 72,46.326888 72,64 z"
         transform="matrix(1.75,0,0,1.75,194,876.36218)" />
      <path
         transform="matrix(1.0625,0,0,1.0625,221.5,920.36218)"
         d="M 72,64 C 72,81.673112 57.673112,96 40,96 22.326888,96 8,81.673112 8,64 8,46.326888 22.326888,32 40,32 57.673112,32 72,46.326888 72,64 z"
         sodipodi:ry="32"
         sodipodi:rx="32"
         sodipodi:cy="64"
         sodipodi:cx="40"
         id="path4401"
         style="opacity:0.33000004;fill:none;stroke:#000000;stroke-width:11.29411793;stroke-linecap:butt;stroke-linejoin:miter;stroke-miterlimit:4;stroke-opacity:1;stroke-dasharray:none"
         sodipodi:type="arc" />
      <path
         sodipodi:type="arc"
         style="fill:none;stroke:#000000;stroke-width:12.79999924;stroke-linecap:butt;stroke-linejoin:miter;stroke-miterlimit:4;stroke-opacity:1;stroke-dasharray:none"
         id="path4403"
         sodipodi:cx="40"
         sodipodi:cy="64"
         sodipodi:rx="32"
         sodipodi:ry="32"
         d="M 72,64 C 72,81.673112 57.673112,96 40,96 22.326888,96 8,81.673112 8,64 8,46.326888 22.326888,32 40,32 57.673112,32 72,46.326888 72,64 z"
         transform="matrix(0.62500001,0,0,0.62500001,239,948.36218)" />
    </g>
    <g
       id="g4448"
       transform="translate(-380,0)">
      <path
         sodipodi:type="arc"
         style="opacity:0.33000004;fill:none;stroke:#000000;stroke-width:9.14285755;stroke-linecap:butt;stroke-linejoin:miter;stroke-miterlimit:4;stroke-opacity:1;stroke-dasharray:none"
         id="path4405"
         sodipodi:cx="40"
         sodipodi:cy="64"
         sodipodi:rx="32"
         sodipodi:ry="32"
         d="M 72,64 C 72,81.673112 57.673112,96 40,96 22.326888,96 8,81.673112 8,64 8,46.326888 22.326888,32 40,32 57.673112,32 72,46.326888 72,64 z"
         transform="matrix(1.75,0,0,1.75,374,876.36218)" />
      <path
         transform="matrix(1.0625,0,0,1.0625,401.5,920.36218)"
         d="M 72,64 C 72,81.673112 57.673112,96 40,96 22.326888,96 8,81.673112 8,64 8,46.326888 22.326888,32 40,32 57.673112,32 72,46.326888 72,64 z"
         sodipodi:ry="32"
         sodipodi:rx="32"
         sodipodi:cy="64"
         sodipodi:cx="40"
         id="path4407"
         style="fill:none;stroke:#000000;stroke-width:11.29411793;stroke-linecap:butt;stroke-linejoin:miter;stroke-miterlimit:4;stroke-opacity:1;stroke-dasharray:none"
         sodipodi:type="arc" />
      <path
         sodipodi:type="arc"
         style="opacity:0.33000004;fill:none;stroke:#000000;stroke-width:12.79999924;stroke-linecap:butt;stroke-linejoin:miter;stroke-miterlimit:4;stroke-opacity:1;stroke-dasharray:none"
         id="path4409"
         sodipodi:cx="40"
         sodipodi:cy="64"
         sodipodi:rx="32"
         sodipodi:ry="32"
         d="M 72,64 C 72,81.673112 57.673112,96 40,96 22.326888,96 8,81.673112 8,64 8,46.326888 22.326888,32 40,32 57.673112,32 72,46.326888 72,64 z"
         transform="matrix(0.62500001,0,0,0.62500001,419,948.36218)" />
    </g>
  </g>
</svg>
