<?xml version="1.0" encoding="UTF-8" standalone="no"?>
<!-- Created with Inkscape (http://www.inkscape.org/) -->
<svg
   xmlns:dc="http://purl.org/dc/elements/1.1/"
   xmlns:cc="http://creativecommons.org/ns#"
   xmlns:rdf="http://www.w3.org/1999/02/22-rdf-syntax-ns#"
   xmlns:svg="http://www.w3.org/2000/svg"
   xmlns="http://www.w3.org/2000/svg"
   xmlns:sodipodi="http://sodipodi.sourceforge.net/DTD/sodipodi-0.dtd"
   xmlns:inkscape="http://www.inkscape.org/namespaces/inkscape"
   width="128"
   height="128"
   id="svg2"
   sodipodi:version="0.32"
   inkscape:version="0.46"
   version="1.0"
   sodipodi:docname="abstract1.svg"
   inkscape:output_extension="org.inkscape.output.svg.inkscape">
  <defs
     id="defs4">
    <inkscape:perspective
       sodipodi:type="inkscape:persp3d"
       inkscape:vp_x="0 : 526.18109 : 1"
       inkscape:vp_y="0 : 1000 : 0"
       inkscape:vp_z="744.09448 : 526.18109 : 1"
       inkscape:persp3d-origin="372.04724 : 350.78739 : 1"
       id="perspective10" />
    <inkscape:perspective
       sodipodi:type="inkscape:persp3d"
       inkscape:vp_x="0 : 526.18109 : 1"
       inkscape:vp_y="0 : 1000 : 0"
       inkscape:vp_z="744.09448 : 526.18109 : 1"
       inkscape:persp3d-origin="372.04724 : 350.78739 : 1"
       id="perspective3411" />
    <inkscape:perspective
       sodipodi:type="inkscape:persp3d"
       inkscape:vp_x="0 : 526.18109 : 1"
       inkscape:vp_y="0 : 1000 : 0"
       inkscape:vp_z="744.09448 : 526.18109 : 1"
       inkscape:persp3d-origin="372.04724 : 350.78739 : 1"
       id="perspective3258" />
    <linearGradient
       id="linearGradient4622">
      <stop
         id="stop4624"
         offset="0"
         style="stop-color:#dabce7;stop-opacity:1;" />
      <stop
         id="stop4626"
         offset="1"
         style="stop-color:#efe8ef;stop-opacity:1;" />
    </linearGradient>
    <inkscape:perspective
       id="perspective11"
       inkscape:persp3d-origin="24 : 16 : 1"
       inkscape:vp_z="48 : 24 : 1"
       inkscape:vp_y="0 : 1000 : 0"
       inkscape:vp_x="0 : 24 : 1"
       sodipodi:type="inkscape:persp3d" />
    <inkscape:perspective
       sodipodi:type="inkscape:persp3d"
       inkscape:vp_x="0 : 526.18109 : 1"
       inkscape:vp_y="0 : 1000 : 0"
       inkscape:vp_z="744.09448 : 526.18109 : 1"
       inkscape:persp3d-origin="372.04724 : 350.78739 : 1"
       id="perspective3385" />
    <inkscape:perspective
       sodipodi:type="inkscape:persp3d"
       inkscape:vp_x="0 : 526.18109 : 1"
       inkscape:vp_y="0 : 1000 : 0"
       inkscape:vp_z="744.09448 : 526.18109 : 1"
       inkscape:persp3d-origin="372.04724 : 350.78739 : 1"
       id="perspective3383" />
    <linearGradient
       id="linearGradient3377">
      <stop
         id="stop3379"
         offset="0"
         style="stop-color:#dabce7;stop-opacity:1;" />
      <stop
         id="stop3381"
         offset="1"
         style="stop-color:#efe8ef;stop-opacity:1;" />
    </linearGradient>
    <inkscape:perspective
       id="perspective3375"
       inkscape:persp3d-origin="24 : 16 : 1"
       inkscape:vp_z="48 : 24 : 1"
       inkscape:vp_y="0 : 1000 : 0"
       inkscape:vp_x="0 : 24 : 1"
       sodipodi:type="inkscape:persp3d" />
    <inkscape:perspective
       sodipodi:type="inkscape:persp3d"
       inkscape:vp_x="0 : 526.18109 : 1"
       inkscape:vp_y="0 : 1000 : 0"
       inkscape:vp_z="744.09448 : 526.18109 : 1"
       inkscape:persp3d-origin="372.04724 : 350.78739 : 1"
       id="perspective3567" />
    <inkscape:perspective
       sodipodi:type="inkscape:persp3d"
       inkscape:vp_x="0 : 526.18109 : 1"
       inkscape:vp_y="0 : 1000 : 0"
       inkscape:vp_z="744.09448 : 526.18109 : 1"
       inkscape:persp3d-origin="372.04724 : 350.78739 : 1"
       id="perspective3565" />
    <linearGradient
       id="linearGradient3559">
      <stop
         id="stop3561"
         offset="0"
         style="stop-color:#dabce7;stop-opacity:1;" />
      <stop
         id="stop3563"
         offset="1"
         style="stop-color:#efe8ef;stop-opacity:1;" />
    </linearGradient>
    <inkscape:perspective
       id="perspective3557"
       inkscape:persp3d-origin="24 : 16 : 1"
       inkscape:vp_z="48 : 24 : 1"
       inkscape:vp_y="0 : 1000 : 0"
       inkscape:vp_x="0 : 24 : 1"
       sodipodi:type="inkscape:persp3d" />
  </defs>
  <sodipodi:namedview
     id="base"
     pagecolor="#ffffff"
     bordercolor="#666666"
     borderopacity="1.0"
     inkscape:pageopacity="0.0"
     inkscape:pageshadow="2"
     inkscape:zoom="1.4142136"
     inkscape:cx="-38.973455"
     inkscape:cy="160.18188"
     inkscape:document-units="px"
     inkscape:current-layer="layer1"
     showgrid="false"
     width="524.41px"
     borderlayer="false"
     inkscape:showpageshadow="false"
     inkscape:window-width="1440"
     inkscape:window-height="846"
     inkscape:window-x="-4"
     inkscape:window-y="-1" />
  <metadata
     id="metadata7">
    <rdf:RDF>
      <cc:Work
         rdf:about="">
        <dc:format>image/svg+xml</dc:format>
        <dc:type
           rdf:resource="http://purl.org/dc/dcmitype/StillImage" />
      </cc:Work>
    </rdf:RDF>
  </metadata>
  <g
     inkscape:label="Capa 1"
     inkscape:groupmode="layer"
     id="layer1">
    <path
       style="opacity:0.66000001;fill:#000000;fill-opacity:1;stroke:none;stroke-width:3;stroke-miterlimit:4;stroke-dasharray:none;stroke-opacity:1"
       d="M 127.96875,63.906251 C 127.96875,56.221768 126.59205,48.852073 124.09375,42.031251 C 123.73943,41.065836 123.3679,40.099156 122.96875,39.156251 C 122.5662,38.204811 122.13436,37.239643 121.6875,36.312501 C 121.24388,35.393542 120.76709,34.487556 120.28125,33.593751 C 119.79141,32.692241 119.28149,31.780794 118.75,30.906251 C 118.22228,30.03899 117.66111,29.183205 117.09375,28.343751 C 115.37836,25.805023 113.49166,23.385001 111.4375,21.125001 C 110.06805,19.618334 108.63167,18.181945 107.125,16.812501 C 107.11946,16.807465 107.09929,16.817535 107.09375,16.812501 C 106.34599,16.133346 105.59206,15.455903 104.8125,14.812501 C 104.80642,14.807482 104.78733,14.817518 104.78125,14.812501 C 104.00171,14.169622 103.21626,13.543338 102.40625,12.937501 C 101.58281,12.321006 100.75979,11.73313 99.906249,11.156251 C 99.060006,10.584454 98.218292,10.031487 97.343749,9.5000011 C 96.461515,8.963168 95.565898,8.4632079 94.656249,7.9687511 C 93.754739,7.4789098 92.864641,7.009363 91.937499,6.5625011 C 91.001833,6.1108185 90.054129,5.687795 89.093749,5.2812511 C 88.142309,4.8787029 87.193152,4.5131512 86.218749,4.1562511 C 86.209636,4.1529064 86.196614,4.1595917 86.187499,4.1562511 C 85.222099,3.8031588 84.236615,3.4632388 83.249999,3.1562511 C 83.240582,3.1533142 83.228168,3.1591838 83.218749,3.1562511 C 82.23208,2.8497619 81.256569,2.5403404 80.249999,2.2812511 C 80.240242,2.2787327 80.228508,2.2837649 80.218749,2.2812511 C 79.211976,2.0226226 78.181614,1.7724191 77.156249,1.5625011 C 77.146327,1.5604632 77.134923,1.5645344 77.124999,1.5625011 C 76.099565,1.3530875 75.073963,1.1594056 74.031249,1.0000011 C 74.02105,0.99843552 74.010199,1.0015618 73.999999,1.0000011 C 72.957106,0.84108882 71.902614,0.73259402 70.843749,0.62500112 C 70.83341,0.62394442 70.822839,0.62605282 70.812499,0.62500112 C 69.753464,0.51791262 68.698697,0.42945937 67.624999,0.37500112 C 67.614537,0.37446481 67.604212,0.37553236 67.593749,0.37500112 C 66.519771,0.32104754 65.431086,0.28125112 64.343749,0.28125112 C 64.333302,0.28125112 64.322944,0.28124608 64.312499,0.28125112 C 63.848134,0.28125112 63.3995,0.30259112 62.937499,0.31250112 L 62.937499,0.28125112 L 0.68749888,0.28125112 L 0.68749888,62.531251 L 0.71874888,62.531251 C 0.70857888,62.999218 0.68749888,63.467108 0.68749888,63.937501 C 0.69544888,80.400026 6.9381889,95.416724 17.218749,106.71875 C 18.588189,108.22542 20.024579,109.66181 21.531249,111.03125 C 21.537069,111.03654 21.556669,111.02596 21.562499,111.03125 C 22.310489,111.71116 23.063949,112.38709 23.843749,113.03125 C 23.850099,113.03649 23.868649,113.02601 23.874999,113.03125 C 24.654769,113.6749 25.439769,114.29964 26.249999,114.90625 C 26.256769,114.91131 26.274479,114.90119 26.281249,114.90625 C 27.908409,116.12351 29.57049,117.28375 31.312499,118.34375 C 31.320176,118.34842 31.33607,118.33909 31.343749,118.34375 C 33.085835,119.40281 34.872478,120.38998 36.718749,121.28125 C 36.727218,121.28533 36.741528,121.27717 36.749999,121.28125 C 38.596399,122.17158 40.497555,122.97551 42.437499,123.6875 C 42.446711,123.69087 42.459535,123.68413 42.468749,123.6875 C 43.434271,124.04136 44.419534,124.37977 45.406249,124.6875 C 45.415811,124.69048 45.427935,124.68453 45.437499,124.6875 C 46.424264,124.99474 47.39961,125.30269 48.406249,125.5625 C 48.415989,125.56501 48.427757,125.56 48.437499,125.5625 C 49.44434,125.82185 50.474596,126.07064 51.499999,126.28125 C 51.510027,126.2833 51.521219,126.2792 51.531249,126.28125 C 52.556719,126.49136 53.582283,126.68369 54.624999,126.84375 C 54.635181,126.84531 54.646066,126.8422 54.656249,126.84375 C 55.699144,127.00332 56.75367,127.11054 57.812499,127.21875 C 57.822817,127.2198 57.833429,127.21771 57.843749,127.21875 C 58.902748,127.32646 59.957629,127.41371 61.031249,127.46875 C 61.041566,127.46927 61.052181,127.46823 61.062499,127.46875 C 62.136401,127.52327 63.225284,127.56197 64.312499,127.5625 C 64.782892,127.5625 65.250776,127.54142 65.718749,127.53125 L 65.718749,127.5625 L 127.96875,127.5625 L 127.96875,65.312501 L 127.9375,65.312501 C 127.94767,64.844534 127.96875,64.376644 127.96875,63.906251 z M 114.1875,63.906251 C 114.1875,64.274727 114.16422,64.633428 114.15625,65.000001 L 114.1875,65.000001 L 114.1875,113.78125 L 65.406249,113.78125 L 65.406249,113.75 C 65.039668,113.75797 64.680976,113.78125 64.312499,113.78125 C 63.460844,113.78083 62.622475,113.73021 61.781249,113.6875 C 61.773166,113.68709 61.758082,113.68791 61.749999,113.6875 C 60.908993,113.64439 60.079555,113.58437 59.249999,113.5 C 59.241915,113.49918 59.226831,113.50082 59.218749,113.5 C 58.389329,113.41523 57.566941,113.34374 56.749999,113.21875 C 56.742023,113.21753 56.726725,113.21997 56.718749,113.21875 C 55.901951,113.09337 55.115785,112.94584 54.312499,112.78125 C 54.304642,112.77964 54.289106,112.78286 54.281249,112.78125 C 53.478013,112.61627 52.663691,112.4219 51.874999,112.21875 C 51.867367,112.21679 51.851379,112.22071 51.843749,112.21875 C 51.055212,112.01523 50.304219,111.77192 49.531249,111.53125 C 49.523757,111.52892 49.507493,111.53358 49.499999,111.53125 C 48.727069,111.29019 47.975078,111.02719 47.218749,110.75 C 47.211532,110.74736 47.194719,110.75264 47.187499,110.75 C 45.667869,110.19227 44.165101,109.54117 42.718749,108.84375 C 42.712113,108.84055 42.694135,108.84694 42.687499,108.84375 C 41.241245,108.14558 39.864641,107.3921 38.499999,106.5625 C 38.493979,106.55885 38.474756,106.56616 38.468749,106.5625 C 37.104169,105.73217 35.805859,104.82853 34.531249,103.875 C 34.525939,103.87104 34.505301,103.87897 34.499999,103.875 C 33.865309,103.39982 33.235819,102.91044 32.624999,102.40625 C 32.014159,101.90165 31.429672,101.3451 30.843749,100.8125 C 30.839179,100.80836 30.817057,100.81665 30.812499,100.8125 C 29.632269,99.739771 28.51023,98.617733 27.437499,97.437501 C 19.384359,88.584211 14.474979,76.833204 14.468749,63.937501 C 14.468749,63.569025 14.492029,63.210328 14.499999,62.843751 L 14.468749,62.843751 L 14.468749,14.062501 L 63.249999,14.062501 L 63.249999,14.093751 C 63.611901,14.085988 63.948746,14.062501 64.312499,14.062501 C 64.320681,14.062497 64.335567,14.062501 64.343749,14.062501 C 65.195501,14.062501 66.033714,14.113987 66.874999,14.156251 C 66.883195,14.156667 66.898056,14.155831 66.906249,14.156251 C 67.747316,14.19891 68.576668,14.259865 69.406249,14.343751 C 69.414349,14.344575 69.429401,14.342924 69.437499,14.343751 C 70.266946,14.428033 71.089312,14.500519 71.906249,14.625001 C 71.914239,14.626223 71.929509,14.623774 71.937499,14.625001 C 72.754295,14.749868 73.540491,14.898459 74.343749,15.062501 C 74.351523,15.064093 74.367229,15.060904 74.374999,15.062501 C 75.178205,15.226937 75.992606,15.422409 76.781249,15.625001 C 76.788894,15.62697 76.804855,15.623029 76.812499,15.625001 C 77.600983,15.827955 78.352104,16.072416 79.124999,16.312501 C 79.132378,16.314798 79.148872,16.3102 79.156249,16.312501 C 79.929101,16.552975 80.681265,16.81716 81.437499,17.093751 C 81.44464,17.096368 81.46161,17.09113 81.468749,17.093751 C 82.232034,17.373324 82.97345,17.68467 83.718749,18.000001 C 84.47105,18.318462 85.235808,18.64618 85.968749,19.000001 C 86.695013,19.350044 87.387562,19.71004 88.093749,20.093751 C 88.80631,20.481077 89.496412,20.86073 90.187499,21.281251 C 90.872561,21.697584 91.524604,22.145842 92.187499,22.593751 C 92.85611,23.045641 93.511224,23.485828 94.156249,23.968751 C 94.790759,24.443325 95.420606,24.933909 96.031249,25.437501 C 96.64191,25.941502 97.22675,26.499244 97.812499,27.031251 C 97.816837,27.035194 97.839413,27.027306 97.843749,27.031251 C 99.023977,28.103987 100.14601,29.226023 101.21875,30.406251 C 102.82785,32.176592 104.31252,34.073824 105.65625,36.062501 C 106.10068,36.720076 106.55536,37.383144 106.96875,38.062501 C 107.38508,38.747562 107.77254,39.450066 108.15625,40.156251 C 108.53683,40.856401 108.9025,41.561396 109.25,42.281251 C 109.60004,43.007515 109.93467,43.785954 110.25,44.531251 C 110.56266,45.269863 110.8787,46.025006 111.15625,46.781251 C 113.11326,52.124252 114.1875,57.886711 114.1875,63.906251 z M 101.15625,63.906251 C 101.15625,59.461529 100.35127,55.22643 98.906249,51.281251 C 98.70131,50.722852 98.480866,50.17038 98.249999,49.625001 C 98.017163,49.074685 97.758465,48.505012 97.499999,47.968751 C 97.243409,47.437224 96.968513,46.89198 96.687499,46.375001 C 96.404175,45.853566 96.119911,45.318338 95.812499,44.812501 C 95.507262,44.310874 95.171909,43.829293 94.843749,43.343751 C 93.851564,41.875344 92.781883,40.463441 91.593749,39.156251 C 90.801659,38.284791 89.965209,37.47959 89.093749,36.687501 C 89.090546,36.684589 89.065701,36.690412 89.062499,36.687501 C 88.629991,36.294677 88.2009,35.872146 87.749999,35.500001 C 87.299111,35.128158 86.812261,34.787919 86.343749,34.437501 C 85.867472,34.080915 85.39994,33.739919 84.906249,33.406251 C 84.416781,33.075524 83.943337,32.744914 83.437499,32.437501 C 82.927214,32.126999 82.401142,31.848495 81.874999,31.562501 C 81.353564,31.279175 80.817509,31.008467 80.281249,30.750001 C 79.740055,30.488747 79.211735,30.235147 78.656249,30.000001 C 78.105933,29.767167 77.532344,29.581433 76.968749,29.375001 C 76.41036,29.170773 75.820659,28.958813 75.249999,28.781251 C 74.679305,28.603978 74.113452,28.431109 73.531249,28.281251 C 72.948933,28.131659 72.343071,27.996418 71.749999,27.875001 C 71.156882,27.753876 70.540607,27.62345 69.937499,27.531251 C 69.334287,27.439336 68.706199,27.374733 68.093749,27.312501 C 67.4812,27.25056 66.839778,27.187749 66.218749,27.156251 C 65.597554,27.125044 64.972667,27.125001 64.343749,27.125001 C 64.075156,27.125 63.767221,27.119269 63.499999,27.125001 L 27.499999,27.125001 L 27.499999,63.093751 L 27.531249,63.093751 C 27.525359,63.364424 27.499999,63.665426 27.499999,63.937501 C 27.504609,73.459463 31.147453,82.150387 37.093749,88.687501 C 37.885831,89.558967 38.691039,90.395416 39.562499,91.187501 C 39.565864,91.190567 39.590375,91.184443 39.593749,91.187501 C 40.026377,91.580765 40.455217,91.971164 40.906249,92.343751 C 41.357274,92.716033 41.843856,93.055386 42.312499,93.406251 C 42.316417,93.409183 42.339829,93.403327 42.343749,93.406251 C 43.284897,94.110321 44.211166,94.793151 45.218749,95.406251 C 45.223187,95.408953 45.245554,95.403556 45.249999,95.406251 C 46.257628,96.018813 47.30711,96.578234 48.374999,97.093751 C 48.379898,97.096103 48.401348,97.091388 48.406249,97.093751 C 49.474205,97.60871 50.565432,98.088187 51.687499,98.500001 C 52.24596,98.704679 52.835531,98.884509 53.406249,99.062501 C 53.976999,99.240215 54.542757,99.443474 55.124999,99.593751 C 55.707359,99.743761 56.313154,99.846931 56.906249,99.968751 C 57.499381,100.09028 58.115639,100.21993 58.718749,100.3125 C 59.321963,100.4048 59.95007,100.46866 60.562499,100.53125 C 60.56846,100.53186 60.58778,100.53065 60.593749,100.53125 C 61.206278,100.59355 61.816514,100.65567 62.437499,100.6875 C 63.058643,100.71904 63.714901,100.71844 64.343749,100.71875 C 64.615822,100.71875 64.885573,100.72464 65.156249,100.71875 L 101.15625,100.71875 L 101.15625,64.750001 L 101.125,64.750001 C 101.13088,64.479329 101.15625,64.178328 101.15625,63.906251 z M 87.906249,64.531251 C 87.906249,64.705399 87.878764,64.889249 87.874999,65.062501 L 87.906249,65.062501 L 87.906249,88.093751 L 64.843749,88.093751 C 64.670498,88.097521 64.517896,88.093749 64.343749,88.093751 C 63.941244,88.093553 63.522574,88.082688 63.124999,88.062501 C 62.727527,88.042128 62.329563,88.008625 61.937499,87.968751 C 61.933679,87.968366 61.910068,87.969139 61.906249,87.968751 C 61.514252,87.928689 61.136094,87.902829 60.749999,87.843751 C 60.363968,87.7845 59.973398,87.702786 59.593749,87.625001 C 59.214128,87.547027 58.810244,87.471015 58.437499,87.375001 C 58.064824,87.278815 57.709066,87.176252 57.343749,87.062501 C 56.978451,86.948574 56.576202,86.818508 56.218749,86.687501 C 55.50055,86.423912 54.808566,86.110858 54.124999,85.781251 C 54.121861,85.779738 54.096883,85.782755 54.093749,85.781251 C 53.410228,85.451284 52.769951,85.07958 52.124999,84.687501 C 52.122155,84.685777 52.096585,84.68923 52.093749,84.687501 C 51.448827,84.295075 50.8524,83.888149 50.249999,83.437501 C 50.24749,83.435628 50.221254,83.439372 50.218749,83.437501 C 49.918786,83.212924 49.632434,82.957037 49.343749,82.718751 C 49.055058,82.480269 48.776912,82.251715 48.499999,82.000001 C 48.49784,81.998043 48.470899,82.001962 48.468749,82.000001 C 47.910955,81.493013 47.41324,80.96405 46.906249,80.406251 C 43.100217,76.222054 40.75295,70.625953 40.749999,64.531251 C 40.749999,64.357106 40.777477,64.204502 40.781249,64.031251 L 40.749999,64.031251 L 40.749999,62.000001 C 41.315201,65.617668 42.925764,68.910475 45.281249,71.500001 C 45.675277,71.933513 46.066489,72.324729 46.499999,72.718751 C 46.501673,72.720279 46.529571,72.71723 46.531249,72.718751 C 46.746465,72.914383 46.963131,73.127153 47.187499,73.312501 C 47.411863,73.497693 47.641871,73.669215 47.874999,73.843751 C 48.343176,74.193997 48.811273,74.538761 49.312499,74.843751 C 49.314707,74.845093 49.341538,74.842408 49.343749,74.843751 C 49.844993,75.14847 50.343775,75.399807 50.874999,75.656251 C 50.877438,75.657425 50.903811,75.655072 50.906249,75.656251 C 51.437506,75.912421 51.973073,76.170138 52.531249,76.375001 C 52.809055,76.47681 53.091093,76.567712 53.374999,76.656251 C 53.658921,76.744658 53.96036,76.831493 54.249999,76.906251 C 54.539694,76.980874 54.861211,77.0644 55.156249,77.125001 C 55.451305,77.185461 55.73123,77.2352 56.031249,77.281251 C 56.331321,77.32717 56.664095,77.343864 56.968749,77.375001 C 57.273452,77.405997 57.566088,77.452916 57.874999,77.468751 C 58.183991,77.484439 58.499677,77.499849 58.812499,77.500001 C 58.947844,77.500002 59.0841,77.471681 59.218749,77.468751 L 77.156249,77.468751 L 77.156249,59.562501 L 77.124999,59.562501 C 77.127927,59.427852 77.156249,59.322847 77.156249,59.187501 C 77.156246,56.976455 76.75008,54.837541 76.031249,52.875001 C 75.929299,52.597224 75.802345,52.3338 75.687499,52.062501 C 75.571674,51.788746 75.441074,51.485519 75.312499,51.218751 C 75.18486,50.954342 75.07729,50.694676 74.937499,50.437501 C 74.79656,50.178115 74.652922,49.907882 74.499999,49.656251 C 74.348157,49.406715 74.163243,49.179031 73.999999,48.937501 C 73.506431,48.207034 72.96604,47.49402 72.374999,46.843751 C 71.980971,46.410244 71.589759,46.019031 71.156249,45.625001 C 71.154656,45.623552 71.126592,45.62645 71.124999,45.625001 C 70.909845,45.429586 70.693052,45.216374 70.468749,45.031251 C 70.244452,44.846271 70.014312,44.67432 69.781249,44.500001 C 69.544324,44.322621 69.308087,44.165983 69.062499,44.000001 C 68.81901,43.835479 68.59538,43.652927 68.343749,43.500001 C 68.089904,43.34554 67.82423,43.204768 67.562499,43.062501 C 67.303109,42.921558 67.048013,42.816079 66.781249,42.687501 C 66.512032,42.557541 66.245078,42.429477 65.968749,42.312501 C 65.694994,42.196677 65.405361,42.071446 65.124999,41.968751 C 64.847226,41.867154 64.565126,41.775829 64.281249,41.687501 C 63.997358,41.59931 63.695868,41.512048 63.406249,41.437501 C 63.116574,41.363084 62.795025,41.279149 62.499999,41.218751 C 62.204951,41.158501 61.925017,41.108367 61.624999,41.062501 C 61.324928,41.016778 60.992164,40.99971 60.687499,40.968751 L 63.812499,40.968751 L 63.812499,41.000001 C 63.98354,40.996332 64.171833,40.968753 64.343749,40.968751 C 64.746299,40.968751 65.13364,41.011276 65.531249,41.031251 C 65.928749,41.051412 66.357926,41.085355 66.749999,41.125001 C 67.142008,41.164834 67.520152,41.19117 67.906249,41.250001 C 68.29228,41.309016 68.682865,41.391224 69.062499,41.468751 C 69.442106,41.546467 69.846028,41.654254 70.218749,41.750001 C 70.591398,41.84592 70.947217,41.917787 71.312499,42.031251 C 71.67776,42.144905 72.08009,42.306783 72.437499,42.437501 C 72.798238,42.569631 73.147761,42.69472 73.499999,42.843751 C 73.855548,42.99426 74.216097,43.14528 74.562499,43.312501 C 74.905742,43.477937 75.228746,43.662403 75.562499,43.843751 C 75.899266,44.026805 76.235882,44.207509 76.562499,44.406251 C 76.886269,44.603016 77.186704,44.788312 77.499999,45.000001 C 77.815994,45.213571 78.132651,45.428016 78.437499,45.656251 C 78.737378,45.880542 79.023897,46.136999 79.312499,46.375001 C 79.601106,46.613201 79.879413,46.873569 80.156249,47.125001 C 80.158298,47.126865 80.185451,47.123139 80.187499,47.125001 C 80.745292,47.631992 81.274259,48.129707 81.781249,48.687501 C 82.541735,49.524191 83.239933,50.435121 83.874999,51.375001 C 84.085043,51.68578 84.273376,51.991427 84.468749,52.312501 C 84.665514,52.636273 84.849903,52.978746 85.031249,53.312501 C 85.211117,53.643402 85.398265,53.972285 85.562499,54.312501 C 85.727935,54.655744 85.88222,55.022763 86.031249,55.375001 C 86.179019,55.724081 86.337575,56.080088 86.468749,56.437501 C 87.393662,58.962684 87.906246,61.686326 87.906249,64.531251 z"
       id="path2406" />
    <rect
       style="opacity:0.66000001;fill:#000000;fill-opacity:1;stroke:none;stroke-width:3;stroke-miterlimit:4;stroke-dasharray:none;stroke-opacity:1"
       id="rect3181"
       width="0.98214287"
       height="0"
       x="38.660713"
       y="20.142857"
       rx="5.7008772"
       ry="0" />
  </g>
</svg>
