<?xml version="1.0" encoding="UTF-8" standalone="no"?>
<!-- Created with Inkscape (http://www.inkscape.org/) -->

<svg
   xmlns:dc="http://purl.org/dc/elements/1.1/"
   xmlns:cc="http://creativecommons.org/ns#"
   xmlns:rdf="http://www.w3.org/1999/02/22-rdf-syntax-ns#"
   xmlns:svg="http://www.w3.org/2000/svg"
   xmlns="http://www.w3.org/2000/svg"
   xmlns:sodipodi="http://sodipodi.sourceforge.net/DTD/sodipodi-0.dtd"
   xmlns:inkscape="http://www.inkscape.org/namespaces/inkscape"
   width="128"
   height="128"
   id="svg2"
   version="1.1"
   inkscape:version="0.47pre2 r22153"
   sodipodi:docname="user-icon.svg">
  <defs
     id="defs4">
    <inkscape:perspective
       sodipodi:type="inkscape:persp3d"
       inkscape:vp_x="0 : 526.18109 : 1"
       inkscape:vp_y="0 : 1000 : 0"
       inkscape:vp_z="744.09448 : 526.18109 : 1"
       inkscape:persp3d-origin="372.04724 : 350.78739 : 1"
       id="perspective10" />
  </defs>
  <sodipodi:namedview
     id="base"
     pagecolor="#ffffff"
     bordercolor="#666666"
     borderopacity="1.0"
     inkscape:pageopacity="0.0"
     inkscape:pageshadow="2"
     inkscape:zoom="3.3203125"
     inkscape:cx="47.75558"
     inkscape:cy="49.96849"
     inkscape:document-units="px"
     inkscape:current-layer="layer1"
     showgrid="true"
     inkscape:window-width="1285"
     inkscape:window-height="1088"
     inkscape:window-x="113"
     inkscape:window-y="19"
     inkscape:window-maximized="0">
    <inkscape:grid
       type="xygrid"
       id="grid2816"
       empspacing="2"
       visible="true"
       enabled="true"
       snapvisiblegridlinesonly="true" />
  </sodipodi:namedview>
  <metadata
     id="metadata7">
    <rdf:RDF>
      <cc:Work
         rdf:about="">
        <dc:format>image/svg+xml</dc:format>
        <dc:type
           rdf:resource="http://purl.org/dc/dcmitype/StillImage" />
        <dc:title></dc:title>
      </cc:Work>
    </rdf:RDF>
  </metadata>
  <g
     inkscape:label="Layer 1"
     inkscape:groupmode="layer"
     id="layer1"
     transform="translate(0,-924.36218)">
    <path
       style="opacity:0.66000007;fill:#000000;fill-opacity:1;fill-rule:nonzero;stroke:none"
       d="M 64 0 C 28.653776 7.1054274e-15 -1.110223e-16 28.653776 0 64 C 0 99.346224 28.653776 128 64 128 C 99.346224 128 128 99.346224 128 64 C 128 28.653776 99.346224 -1.0399089e-14 64 0 z M 53.875 8.125 C 57.26148 8.125 60 10.785177 60 14.0625 C 60 17.339823 57.26148 20 53.875 20 C 51.239895 20 48.990511 18.383811 48.125 16.125 C 38.811506 17.742915 25.187649 27.79542 18.6875 37.03125 C 19.497359 37.763238 20 38.822389 20 40 C 20 42.209139 18.209139 44 16 44 C 13.790861 44 12 42.209139 12 40 C 12 37.790861 13.790861 36 16 36 C 16.447572 36 16.879431 36.083146 17.28125 36.21875 C 25.924073 24.591058 36.561038 17.921579 47.78125 14.625 C 47.762476 14.435671 47.75 14.256582 47.75 14.0625 C 47.75 10.785177 50.48852 8.125 53.875 8.125 z M 83.84375 15.96875 C 86.146452 15.96875 88 17.749215 88 19.96875 C 88 22.188285 86.146452 24 83.84375 24 C 81.541048 24 79.65625 22.188285 79.65625 19.96875 C 79.65625 17.749215 81.541048 15.96875 83.84375 15.96875 z M 40.0625 31.78125 C 42.097613 31.78125 43.767441 33.396003 43.96875 35.46875 C 49.656513 39.352256 57.34365 41.241331 67.9375 40.21875 C 67.933384 40.145101 67.90625 40.074666 67.90625 40 C 67.90625 37.788262 69.73622 36 71.96875 36 C 74.20128 36 76 37.788262 76 40 C 76 42.211738 74.20128 44 71.96875 44 C 70.513873 44 69.249177 43.234911 68.53125 42.09375 C 58.700858 42.826921 50.114204 41.731737 43.71875 37.3125 C 43.15654 38.872081 41.745237 40 40.0625 40 C 37.892346 40 36.15625 38.146515 36.15625 35.875 C 36.15625 33.603485 37.892346 31.78125 40.0625 31.78125 z M 104 40 C 106.20914 40 108 41.790861 108 44 C 108 46.209139 106.20914 48 104 48 C 101.79086 48 100 46.209139 100 44 C 100 41.790861 101.79086 40 104 40 z M 52.09375 52.40625 C 54.250909 52.40625 56 54.090117 56 56.1875 C 56 58.284883 54.250909 60 52.09375 60 C 49.936591 60 48.1875 58.284883 48.1875 56.1875 C 48.1875 54.090117 49.936591 52.40625 52.09375 52.40625 z M 86 56 C 87.104569 56 88 56.895431 88 58 C 88 59.104569 87.104569 60 86 60 C 84.895431 60 84 59.104569 84 58 C 84 56.895431 84.895431 56 86 56 z M 14 60 C 15.104569 60 16 60.895431 16 62 C 16 62.325391 15.919118 62.634703 15.78125 62.90625 C 21.924373 65.188336 40.118318 67.245873 58.75 68.625 C 60.02235 65.892063 62.786707 64 66 64 C 69.565688 64 72.56067 66.339864 73.59375 69.5625 C 86.856513 70.272675 98.737806 70.565405 104.40625 70.15625 C 105.01697 68.673688 106.40035 67.625 108.03125 67.625 C 110.2248 67.625 112 69.496803 112 71.8125 C 112 74.128197 110.2248 76 108.03125 76 C 105.9291 76 104.23326 74.275134 104.09375 72.09375 C 98.694291 72.319055 87.12151 72.071089 73.96875 71.4375 C 73.981956 71.625442 74 71.808699 74 72 C 74 76.205767 70.748118 79.646819 66.625 79.96875 C 66.416665 79.985017 66.212511 80 66 80 C 65.787489 80 65.583335 79.985017 65.375 79.96875 C 61.251882 79.646819 58 76.205767 58 72 C 58 71.501188 58.037646 71.004787 58.125 70.53125 C 37.46361 69.120527 17.404216 66.869897 14 64 C 12.895431 64 12 63.104569 12 62 C 12 60.895431 12.895431 60 14 60 z M 32 72 C 34.209139 72 36 73.790861 36 76 C 36 76.222526 35.972439 76.443615 35.9375 76.65625 C 44.446589 80.153872 63.056037 94.322251 71.03125 104.75 C 71.439415 104.59091 71.882705 104.5 72.34375 104.5 C 74.368361 104.5 76 106.18121 76 108.25 C 76 110.31879 74.368361 112 72.34375 112 C 70.319139 112 68.65625 110.31879 68.65625 108.25 C 68.65625 107.17348 69.126547 106.2156 69.84375 105.53125 C 61.048889 95.891969 42.931409 80.204744 35.34375 78.21875 C 34.62809 79.302216 33.395662 80 32 80 C 29.790861 80 28 78.209139 28 76 C 28 73.790861 29.790861 72 32 72 z M 88 80 C 90.209139 80 92 81.790861 92 84 C 92 86.209139 90.209139 88 88 88 C 85.790861 88 84 86.209139 84 84 C 84 81.790861 85.790861 80 88 80 z M 23.875 96.0625 C 26.15951 96.0625 28 97.842903 28 100.03125 C 28 102.2196 26.15951 104 23.875 104 C 21.59049 104 19.71875 102.2196 19.71875 100.03125 C 19.71875 97.842903 21.59049 96.0625 23.875 96.0625 z M 48.0625 96.53125 C 50.237852 96.53125 52 98.186404 52 100.25 C 52 102.3136 50.237852 104 48.0625 104 C 45.887148 104 44.125 102.3136 44.125 100.25 C 44.125 98.186404 45.887148 96.53125 48.0625 96.53125 z M 102 104.21875 C 103.10717 104.21875 104 105.04636 104 106.09375 C 104 107.14114 103.10717 108 102 108 C 100.89283 108 100 107.14114 100 106.09375 C 100 105.04636 100.89283 104.21875 102 104.21875 z "
       transform="translate(0,924.36218)"
       id="path2872" />
  </g>
</svg>
