<?xml version="1.0" encoding="UTF-8" standalone="no"?>
<!-- Created with Inkscape (http://www.inkscape.org/) -->
<svg
   xmlns:dc="http://purl.org/dc/elements/1.1/"
   xmlns:cc="http://creativecommons.org/ns#"
   xmlns:rdf="http://www.w3.org/1999/02/22-rdf-syntax-ns#"
   xmlns:svg="http://www.w3.org/2000/svg"
   xmlns="http://www.w3.org/2000/svg"
   xmlns:sodipodi="http://sodipodi.sourceforge.net/DTD/sodipodi-0.dtd"
   xmlns:inkscape="http://www.inkscape.org/namespaces/inkscape"
   width="128"
   height="128"
   id="svg2"
   version="1.1"
   inkscape:version="0.46"
   sodipodi:docname="bookmark-missing.svg"
   sodipodi:version="0.32"
   inkscape:output_extension="org.inkscape.output.svg.inkscape">
  <defs
     id="defs4">
    <inkscape:perspective
       sodipodi:type="inkscape:persp3d"
       inkscape:vp_x="0 : 526.18109 : 1"
       inkscape:vp_y="0 : 1000 : 0"
       inkscape:vp_z="744.09448 : 526.18109 : 1"
       inkscape:persp3d-origin="372.04724 : 350.78739 : 1"
       id="perspective10" />
    <inkscape:perspective
       sodipodi:type="inkscape:persp3d"
       inkscape:vp_x="0 : 526.18109 : 1"
       inkscape:vp_y="0 : 1000 : 0"
       inkscape:vp_z="744.09448 : 526.18109 : 1"
       inkscape:persp3d-origin="372.04724 : 350.78739 : 1"
       id="perspective3411" />
    <inkscape:perspective
       sodipodi:type="inkscape:persp3d"
       inkscape:vp_x="0 : 526.18109 : 1"
       inkscape:vp_y="0 : 1000 : 0"
       inkscape:vp_z="744.09448 : 526.18109 : 1"
       inkscape:persp3d-origin="372.04724 : 350.78739 : 1"
       id="perspective2451" />
    <linearGradient
       id="linearGradient4622">
      <stop
         id="stop4624"
         offset="0"
         style="stop-color:#dabce7;stop-opacity:1;" />
      <stop
         id="stop4626"
         offset="1"
         style="stop-color:#efe8ef;stop-opacity:1;" />
    </linearGradient>
    <inkscape:perspective
       id="perspective11"
       inkscape:persp3d-origin="24 : 16 : 1"
       inkscape:vp_z="48 : 24 : 1"
       inkscape:vp_y="0 : 1000 : 0"
       inkscape:vp_x="0 : 24 : 1"
       sodipodi:type="inkscape:persp3d" />
    <inkscape:perspective
       sodipodi:type="inkscape:persp3d"
       inkscape:vp_x="0 : 526.18109 : 1"
       inkscape:vp_y="0 : 1000 : 0"
       inkscape:vp_z="744.09448 : 526.18109 : 1"
       inkscape:persp3d-origin="372.04724 : 350.78739 : 1"
       id="perspective2511" />
    <inkscape:perspective
       sodipodi:type="inkscape:persp3d"
       inkscape:vp_x="0 : 526.18109 : 1"
       inkscape:vp_y="0 : 1000 : 0"
       inkscape:vp_z="744.09448 : 526.18109 : 1"
       inkscape:persp3d-origin="372.04724 : 350.78739 : 1"
       id="perspective2509" />
    <linearGradient
       id="linearGradient2503">
      <stop
         id="stop2505"
         offset="0"
         style="stop-color:#dabce7;stop-opacity:1;" />
      <stop
         id="stop2507"
         offset="1"
         style="stop-color:#efe8ef;stop-opacity:1;" />
    </linearGradient>
    <inkscape:perspective
       id="perspective2501"
       inkscape:persp3d-origin="24 : 16 : 1"
       inkscape:vp_z="48 : 24 : 1"
       inkscape:vp_y="0 : 1000 : 0"
       inkscape:vp_x="0 : 24 : 1"
       sodipodi:type="inkscape:persp3d" />
  </defs>
  <sodipodi:namedview
     id="base"
     pagecolor="#ffffff"
     bordercolor="#666666"
     borderopacity="1.0"
     inkscape:pageopacity="0.0"
     inkscape:pageshadow="2"
     inkscape:zoom="3.7178349"
     inkscape:cx="65.666046"
     inkscape:cy="46.002812"
     inkscape:document-units="px"
     inkscape:current-layer="layer1"
     showgrid="false"
     inkscape:window-width="1097"
     inkscape:window-height="841"
     inkscape:window-x="0"
     inkscape:window-y="0"
     inkscape:window-maximized="0">
    <inkscape:grid
       type="xygrid"
       id="grid2816"
       empspacing="8"
       visible="true"
       enabled="true"
       snapvisiblegridlinesonly="true" />
  </sodipodi:namedview>
  <metadata
     id="metadata7">
    <rdf:RDF>
      <cc:Work
         rdf:about="">
        <dc:format>image/svg+xml</dc:format>
        <dc:type
           rdf:resource="http://purl.org/dc/dcmitype/StillImage" />
        <dc:title />
      </cc:Work>
    </rdf:RDF>
  </metadata>
  <g
     inkscape:label="Layer 1"
     inkscape:groupmode="layer"
     id="layer1"
     transform="translate(0,-924.36218)">
    <path
       style="opacity:0.66000001;fill:#000000;fill-opacity:1;fill-rule:nonzero;stroke:none"
       d="M 64.134487,924.83091 C 55.729384,924.83091 47.753106,956.19929 40.953236,961.34627 C 34.153364,966.49324 3.0405802,964.70185 0.44326098,973.02982 C -2.1540585,981.3578 24.035199,998.96909 26.632518,1007.297 C 29.229837,1015.625 17.968992,1045.8867 24.768863,1051.0337 C 31.568734,1056.1807 55.729384,1035.6714 64.134487,1035.6714 C 72.539589,1035.6714 96.700241,1056.1807 103.50012,1051.0337 C 110.29998,1045.8867 99.039137,1015.625 101.63645,1007.297 C 104.23377,998.96909 130.42303,981.3578 127.82572,973.02982 C 125.2284,964.70185 94.115611,966.49324 87.31574,961.34627 C 80.515868,956.19929 72.539589,924.83091 64.134487,924.83091 z M 64.134487,937.53635 C 70.858569,937.53635 77.233053,962.64468 82.67295,966.76226 C 88.112847,970.87984 112.99653,969.43309 115.0744,976.09548 C 117.15224,982.75786 96.226997,996.8537 94.14914,1003.5161 C 92.071284,1010.1784 101.06034,1034.381 95.620447,1038.4985 C 90.180551,1042.6162 70.858569,1026.2019 64.134487,1026.2019 C 57.410404,1026.2019 38.088425,1042.6162 32.648527,1038.4985 C 27.20863,1034.381 36.197689,1010.1784 34.119834,1003.5161 C 32.041979,996.8537 11.116729,982.75786 13.194584,976.09548 C 15.27244,969.4331 40.156127,970.87984 45.596025,966.76226 C 51.035922,962.64468 57.410404,937.53635 64.134487,937.53635 z"
       id="path2824" />
    <path
       style="opacity:0.66000001;fill:#000000;fill-opacity:1;fill-rule:nonzero;stroke:none"
       d="M 64.134487,963.39004 C 60.871165,963.39004 57.726549,963.9232 54.783516,964.92287 C 53.061214,968.72025 51.427223,972.13055 49.879161,973.30232 C 48.26288,974.52572 44.40867,975.13446 40.201234,975.68672 C 36.602823,980.58309 34.365764,986.63241 34.054442,993.19502 C 37.35231,996.41792 40.39838,999.44684 41.051322,1001.5404 C 41.745781,1003.7672 40.850716,1008.549 39.939669,1013.4964 C 43.283565,1018.189 47.844942,1021.8222 53.148731,1023.9878 C 57.52591,1021.4743 61.816668,1018.9806 64.134487,1018.9806 C 66.452305,1018.9806 70.743064,1021.4743 75.120243,1023.9878 C 80.424032,1021.8222 84.985409,1018.189 88.329306,1013.4964 C 87.418258,1008.549 86.523191,1003.7672 87.217652,1001.5404 C 87.870594,999.44684 90.916664,996.41792 94.214532,993.19502 C 93.903211,986.63241 91.666151,980.58309 88.06774,975.68672 C 83.860304,975.13446 80.006094,974.52572 78.389813,973.30232 C 76.841751,972.13055 75.20776,968.72025 73.485458,964.92287 C 70.542426,963.9232 67.397809,963.39004 64.134487,963.39004 z M 64.134487,977.15142 C 73.379843,977.15142 80.874686,984.95966 80.874686,994.59159 C 80.874686,1004.2235 73.379843,1012.0318 64.134487,1012.0318 C 54.889131,1012.0318 47.394288,1004.2235 47.394288,994.59159 C 47.394288,984.95966 54.889131,977.15142 64.134487,977.15142 z"
       id="path2831" />
    <g
       inkscape:label="Layer 1"
       id="g2513"
       transform="matrix(0.2499095,0.2499095,-0.2499095,0.2499095,64.272764,962.12938)">
      <path
         sodipodi:nodetypes="ccccccccccccc"
         id="path4314"
         d="M 22.975111,58.989343 L 22.975111,72.830821 L 58.157922,72.830821 L 58.157922,106.11816 L 71.607344,106.24157 L 71.529563,72.830821 L 106.60128,72.707415 L 106.60128,58.989343 L 71.475345,58.989343 L 71.484155,22.735064 L 58.039134,22.615407 L 58.034733,58.996843 L 22.975111,58.989343 z"
         style="opacity:0.66000001;fill:#000000;fill-opacity:1;stroke:none;stroke-width:1.00000048;stroke-linecap:round;stroke-linejoin:round;stroke-miterlimit:4;stroke-dasharray:none;stroke-opacity:1" />
    </g>
  </g>
</svg>
