<?xml version="1.0" encoding="UTF-8" standalone="no"?>
<!-- Created with Inkscape (http://www.inkscape.org/) -->
<svg
   xmlns:dc="http://purl.org/dc/elements/1.1/"
   xmlns:cc="http://creativecommons.org/ns#"
   xmlns:rdf="http://www.w3.org/1999/02/22-rdf-syntax-ns#"
   xmlns:svg="http://www.w3.org/2000/svg"
   xmlns="http://www.w3.org/2000/svg"
   xmlns:sodipodi="http://sodipodi.sourceforge.net/DTD/sodipodi-0.dtd"
   xmlns:inkscape="http://www.inkscape.org/namespaces/inkscape"
   width="64px"
   height="64px"
   id="svg2816"
   version="1.1"
   inkscape:version="0.46+devel"
   sodipodi:docname="compressed-file.svg"
   inkscape:export-filename="/home/rob/.kde4/share/icons/nmfnms/48x48/actions/document-open.png"
   inkscape:export-xdpi="67.5"
   inkscape:export-ydpi="67.5"
   sodipodi:version="0.32"
   inkscape:output_extension="org.inkscape.output.svg.inkscape">
  <defs
     id="defs2818">
    <inkscape:perspective
       sodipodi:type="inkscape:persp3d"
       inkscape:vp_x="0 : 32 : 1"
       inkscape:vp_y="0 : 1000 : 0"
       inkscape:vp_z="64 : 32 : 1"
       inkscape:persp3d-origin="32 : 21.333333 : 1"
       id="perspective2824" />
  </defs>
  <sodipodi:namedview
     id="base"
     pagecolor="#ffffff"
     bordercolor="#666666"
     borderopacity="1.0"
     inkscape:pageopacity="0.0"
     inkscape:pageshadow="2"
     inkscape:zoom="3.0273438"
     inkscape:cx="32.306575"
     inkscape:cy="32"
     inkscape:current-layer="layer1"
     showgrid="true"
     inkscape:document-units="px"
     inkscape:grid-bbox="true"
     inkscape:window-width="1337"
     inkscape:window-height="1015"
     inkscape:window-x="109"
     inkscape:window-y="56"
     inkscape:window-maximized="0">
    <inkscape:grid
       type="xygrid"
       id="grid2826"
       empspacing="4"
       visible="true"
       enabled="true"
       snapvisiblegridlinesonly="true" />
  </sodipodi:namedview>
  <metadata
     id="metadata2821">
    <rdf:RDF>
      <cc:Work
         rdf:about="">
        <dc:format>image/svg+xml</dc:format>
        <dc:type
           rdf:resource="http://purl.org/dc/dcmitype/StillImage" />
        <dc:title />
      </cc:Work>
    </rdf:RDF>
  </metadata>
  <g
     id="layer1"
     inkscape:label="Layer 1"
     inkscape:groupmode="layer"
     style="opacity:1">
    <path
       style="opacity:1;fill:#000000;fill-opacity:1;fill-rule:evenodd;stroke:#000000;stroke-width:1.37279999;stroke-linecap:round;stroke-linejoin:round;stroke-miterlimit:4;stroke-opacity:1;stroke-dasharray:none"
       d="m 32,16.6864 c -3.3929869,0 -6.5200383,1.1061921 -9.058267,2.9738464 l 21.39802,21.398023 c 1.867653,-2.5382294 2.973846,-5.6652814 2.973846,-9.0582684 0,-8.4574668 -6.8561321,-15.3136 -15.313598,-15.3136 z m -12.168842,6.050239 c -1.9643958,2.574919 -3.1447566,5.774655 -3.1447566,9.26336 0,8.4574678 6.8561326,15.3136 15.313598,15.3136 3.4887049,0 6.6884405,-1.1803612 9.2633599,-3.1447571 z m 15.450327,0.376003 c 0.59312864,0 1.1862573,0.20363872 1.6407427,0.64946073 l 3.2814854,3.2131214 c 0.9089716,0.891644 0.9089716,2.3214774 0,3.2131214 -0.9089716,0.891644 -2.3725138,0.891644 -3.2814854,0 L 33.640743,26.975224 c -0.9089715,-0.891644 -0.9089715,-2.321478 0,-3.213121 0.45448526,-0.445822 1.0476137,-0.649461 1.640743,-0.649461 z m -9.8444558,9.87864 c 0.59312864,0 1.1862573,0.23782166 1.6407427,0.68364286 l 3.2814855,3.2131211 c 0.9089716,0.891644 0.9089716,2.3214774 0,3.2131214 -0.9089716,0.891644 -2.3725138,0.891644 -3.2814854,0 L 23.796286,36.888046 c -0.9089715,-0.891644 -0.9089715,-2.321477 0,-3.213121 0.45448575,-0.445822 1.0476141,-0.683643 1.640743,-0.683643 z"
       id="path4872" />
    <path
       sodipodi:type="arc"
       style="opacity:1;fill:none;stroke:#000000;stroke-width:2.87823176;stroke-linecap:round;stroke-miterlimit:4;stroke-dasharray:none"
       id="path2537"
       sodipodi:cx="-4.624516"
       sodipodi:cy="0.082580715"
       sodipodi:rx="21.801291"
       sodipodi:ry="21.305807"
       d="M 12.844226,12.829878 A 21.801291,21.305807 0 0 1 -22.008933,12.939506"
       transform="matrix(1.3772066,0,0,1.4023916,38.310847,-15.992514)"
       sodipodi:start="0.64137975"
       sodipodi:end="2.4937758"
       sodipodi:open="true" />
    <path
       sodipodi:type="arc"
       style="opacity:1;fill:#000000;stroke:none"
       id="path3317"
       sodipodi:cx="-21.249033"
       sodipodi:cy="17.698065"
       sodipodi:rx="2.7509677"
       sodipodi:ry="2.7509677"
       d="m -18.498065,17.698065 a 2.7509677,2.7509677 0 1 1 -5.5019355,0 2.7509677,2.7509677 0 1 1 5.5019355,0 z"
       transform="matrix(1.4540338,0,0,1.4540338,62.896812,-17.733584)" />
    <path
       sodipodi:open="true"
       sodipodi:end="2.4937758"
       sodipodi:start="0.64137975"
       transform="matrix(1.3772066,0,0,-1.4023916,38.310847,79.992514)"
       d="M 12.844226,12.829878 A 21.801291,21.305807 0 0 1 -22.008933,12.939506"
       sodipodi:ry="21.305807"
       sodipodi:rx="21.801291"
       sodipodi:cy="0.082580715"
       sodipodi:cx="-4.624516"
       id="path3319"
       style="opacity:1;fill:none;stroke:#000000;stroke-width:2.87823176;stroke-linecap:round;stroke-miterlimit:4;stroke-dasharray:none"
       sodipodi:type="arc" />
    <path
       sodipodi:type="arc"
       style="opacity:1;fill:none;stroke:#000000;stroke-width:2.87823176;stroke-linecap:round;stroke-miterlimit:4;stroke-dasharray:none"
       id="path3321"
       sodipodi:cx="-4.624516"
       sodipodi:cy="0.082580715"
       sodipodi:rx="21.801291"
       sodipodi:ry="21.305807"
       d="M 12.844226,12.829878 A 21.801291,21.305807 0 0 1 -22.008933,12.939506"
       transform="matrix(0,1.3772066,1.4023916,0,-15.992514,38.310847)"
       sodipodi:start="0.64137975"
       sodipodi:end="2.4937758"
       sodipodi:open="true" />
    <path
       sodipodi:open="true"
       sodipodi:end="2.4937758"
       sodipodi:start="0.64137975"
       transform="matrix(0,1.3772066,-1.4023916,0,79.992514,38.310847)"
       d="M 12.844226,12.829878 A 21.801291,21.305807 0 0 1 -22.008933,12.939506"
       sodipodi:ry="21.305807"
       sodipodi:rx="21.801291"
       sodipodi:cy="0.082580715"
       sodipodi:cx="-4.624516"
       id="path3323"
       style="opacity:1;fill:none;stroke:#000000;stroke-width:2.87823176;stroke-linecap:round;stroke-miterlimit:4;stroke-dasharray:none"
       sodipodi:type="arc" />
    <path
       transform="matrix(1.4540338,0,0,1.4540338,62.896812,30.266416)"
       d="m -18.498065,17.698065 a 2.7509677,2.7509677 0 1 1 -5.5019355,0 2.7509677,2.7509677 0 1 1 5.5019355,0 z"
       sodipodi:ry="2.7509677"
       sodipodi:rx="2.7509677"
       sodipodi:cy="17.698065"
       sodipodi:cx="-21.249033"
       id="path3325"
       style="opacity:1;fill:#000000;stroke:none"
       sodipodi:type="arc" />
    <path
       sodipodi:type="arc"
       style="opacity:1;fill:#000000;stroke:none"
       id="path3327"
       sodipodi:cx="-21.249033"
       sodipodi:cy="17.698065"
       sodipodi:rx="2.7509677"
       sodipodi:ry="2.7509677"
       d="m -18.498065,17.698065 a 2.7509677,2.7509677 0 1 1 -5.5019355,0 2.7509677,2.7509677 0 1 1 5.5019355,0 z"
       transform="matrix(1.4540338,0,0,1.4540338,38.896812,6.2664156)" />
    <path
       transform="matrix(1.4540338,0,0,1.4540338,86.896812,6.2664156)"
       d="m -18.498065,17.698065 a 2.7509677,2.7509677 0 1 1 -5.5019355,0 2.7509677,2.7509677 0 1 1 5.5019355,0 z"
       sodipodi:ry="2.7509677"
       sodipodi:rx="2.7509677"
       sodipodi:cy="17.698065"
       sodipodi:cx="-21.249033"
       id="path3329"
       style="opacity:1;fill:#000000;stroke:none"
       sodipodi:type="arc" />
  </g>
</svg>
