<?xml version="1.0" encoding="UTF-8" standalone="no"?>
<!-- Created with Inkscape (http://www.inkscape.org/) -->
<svg
   xmlns:dc="http://purl.org/dc/elements/1.1/"
   xmlns:cc="http://creativecommons.org/ns#"
   xmlns:rdf="http://www.w3.org/1999/02/22-rdf-syntax-ns#"
   xmlns:svg="http://www.w3.org/2000/svg"
   xmlns="http://www.w3.org/2000/svg"
   xmlns:sodipodi="http://sodipodi.sourceforge.net/DTD/sodipodi-0.dtd"
   xmlns:inkscape="http://www.inkscape.org/namespaces/inkscape"
   width="64px"
   height="64px"
   id="svg2816"
   version="1.1"
   inkscape:version="0.46+devel"
   sodipodi:docname="compressed-pack.svg"
   inkscape:export-filename="/home/rob/.kde4/share/icons/nmfnms/48x48/actions/document-open.png"
   inkscape:export-xdpi="67.5"
   inkscape:export-ydpi="67.5"
   sodipodi:version="0.32"
   inkscape:output_extension="org.inkscape.output.svg.inkscape">
  <defs
     id="defs2818">
    <inkscape:perspective
       sodipodi:type="inkscape:persp3d"
       inkscape:vp_x="0 : 32 : 1"
       inkscape:vp_y="0 : 1000 : 0"
       inkscape:vp_z="64 : 32 : 1"
       inkscape:persp3d-origin="32 : 21.333333 : 1"
       id="perspective2824" />
  </defs>
  <sodipodi:namedview
     id="base"
     pagecolor="#ffffff"
     bordercolor="#666666"
     borderopacity="1.0"
     inkscape:pageopacity="0.0"
     inkscape:pageshadow="2"
     inkscape:zoom="3.0273438"
     inkscape:cx="32.306575"
     inkscape:cy="32"
     inkscape:current-layer="layer1"
     showgrid="true"
     inkscape:document-units="px"
     inkscape:grid-bbox="true"
     inkscape:window-width="1337"
     inkscape:window-height="1015"
     inkscape:window-x="109"
     inkscape:window-y="56"
     inkscape:window-maximized="0">
    <inkscape:grid
       type="xygrid"
       id="grid2826"
       empspacing="4"
       visible="true"
       enabled="true"
       snapvisiblegridlinesonly="true" />
  </sodipodi:namedview>
  <metadata
     id="metadata2821">
    <rdf:RDF>
      <cc:Work
         rdf:about="">
        <dc:format>image/svg+xml</dc:format>
        <dc:type
           rdf:resource="http://purl.org/dc/dcmitype/StillImage" />
        <dc:title />
      </cc:Work>
    </rdf:RDF>
  </metadata>
  <g
     id="layer1"
     inkscape:label="Layer 1"
     inkscape:groupmode="layer"
     style="opacity:1">
    <path
       sodipodi:type="arc"
       style="opacity:1;fill:none;stroke:#000000;stroke-width:2.87823176;stroke-linecap:round;stroke-miterlimit:4;stroke-dasharray:none"
       id="path2537"
       sodipodi:cx="-4.624516"
       sodipodi:cy="0.082580715"
       sodipodi:rx="21.801291"
       sodipodi:ry="21.305807"
       d="M 12.844226,12.829878 A 21.801291,21.305807 0 0 1 -22.008933,12.939506"
       transform="matrix(1.3772066,0,0,1.4023916,38.310847,-15.992514)"
       sodipodi:start="0.64137975"
       sodipodi:end="2.4937758"
       sodipodi:open="true" />
    <path
       sodipodi:type="arc"
       style="opacity:1;fill:#000000;stroke:none"
       id="path3317"
       sodipodi:cx="-21.249033"
       sodipodi:cy="17.698065"
       sodipodi:rx="2.7509677"
       sodipodi:ry="2.7509677"
       d="m -18.498065,17.698065 a 2.7509677,2.7509677 0 1 1 -5.5019355,0 2.7509677,2.7509677 0 1 1 5.5019355,0 z"
       transform="matrix(2.1810507,0,0,2.1810507,78.345218,-32.600376)" />
    <path
       sodipodi:open="true"
       sodipodi:end="2.4937758"
       sodipodi:start="0.64137975"
       transform="matrix(1.3772066,0,0,-1.4023916,38.310847,79.992514)"
       d="M 12.844226,12.829878 A 21.801291,21.305807 0 0 1 -22.008933,12.939506"
       sodipodi:ry="21.305807"
       sodipodi:rx="21.801291"
       sodipodi:cy="0.082580715"
       sodipodi:cx="-4.624516"
       id="path3319"
       style="opacity:1;fill:none;stroke:#000000;stroke-width:2.87823176;stroke-linecap:round;stroke-miterlimit:4;stroke-dasharray:none"
       sodipodi:type="arc" />
    <path
       transform="matrix(2.1810507,0,0,2.1810507,78.345218,19.399623)"
       d="m -18.498065,17.698065 a 2.7509677,2.7509677 0 1 1 -5.5019355,0 2.7509677,2.7509677 0 1 1 5.5019355,0 z"
       sodipodi:ry="2.7509677"
       sodipodi:rx="2.7509677"
       sodipodi:cy="17.698065"
       sodipodi:cx="-21.249033"
       id="path3325"
       style="opacity:1;fill:#000000;stroke:none"
       sodipodi:type="arc" />
    <path
       style="opacity:1;fill:#000000;fill-opacity:1;stroke:none"
       d="M 8 16 C 3.568 16 -2.9786937e-17 19.568 0 24 L 0 40 C 0 44.432 3.568 48 8 48 L 16 48 L 16 16 L 8 16 z M 24 16 L 24 48 L 56 48 C 60.432 48 64 44.432 64 40 L 64 24 C 64 19.568 60.432 16 56 16 L 24 16 z "
       id="rect3376" />
  </g>
</svg>
