<?xml version="1.0" encoding="UTF-8" standalone="no"?>
<!-- Created with Inkscape (http://www.inkscape.org/) -->

<svg
   xmlns:dc="http://purl.org/dc/elements/1.1/"
   xmlns:cc="http://creativecommons.org/ns#"
   xmlns:rdf="http://www.w3.org/1999/02/22-rdf-syntax-ns#"
   xmlns:svg="http://www.w3.org/2000/svg"
   xmlns="http://www.w3.org/2000/svg"
   xmlns:sodipodi="http://sodipodi.sourceforge.net/DTD/sodipodi-0.dtd"
   xmlns:inkscape="http://www.inkscape.org/namespaces/inkscape"
   width="128"
   height="128"
   id="svg2"
   version="1.1"
   inkscape:version="0.47 r22583"
   sodipodi:docname="New document 1">
  <defs
     id="defs4">
    <inkscape:perspective
       sodipodi:type="inkscape:persp3d"
       inkscape:vp_x="0 : 526.18109 : 1"
       inkscape:vp_y="0 : 1000 : 0"
       inkscape:vp_z="744.09448 : 526.18109 : 1"
       inkscape:persp3d-origin="372.04724 : 350.78739 : 1"
       id="perspective10" />
  </defs>
  <sodipodi:namedview
     id="base"
     pagecolor="#ffffff"
     bordercolor="#666666"
     borderopacity="1.0"
     inkscape:pageopacity="0.0"
     inkscape:pageshadow="2"
     inkscape:zoom="5.6"
     inkscape:cx="58.833942"
     inkscape:cy="61.679883"
     inkscape:document-units="px"
     inkscape:current-layer="layer1"
     showgrid="true"
     inkscape:window-width="1561"
     inkscape:window-height="999"
     inkscape:window-x="252"
     inkscape:window-y="48"
     inkscape:window-maximized="0">
    <inkscape:grid
       type="xygrid"
       id="grid2816"
       empspacing="8"
       visible="true"
       enabled="true"
       snapvisiblegridlinesonly="true" />
  </sodipodi:namedview>
  <metadata
     id="metadata7">
    <rdf:RDF>
      <cc:Work
         rdf:about="">
        <dc:format>image/svg+xml</dc:format>
        <dc:type
           rdf:resource="http://purl.org/dc/dcmitype/StillImage" />
        <dc:title></dc:title>
      </cc:Work>
    </rdf:RDF>
  </metadata>
  <g
     inkscape:label="Layer 1"
     inkscape:groupmode="layer"
     id="layer1"
     transform="translate(0,-924.36218)">
    <path
       style="fill:#000000;fill-opacity:1;fill-rule:nonzero;stroke:none"
       d="m 64,924.36218 c -12.284271,0 -24.564917,4.68992 -33.9375,14.0625 -15.708695,15.7087 -18.244489,39.58064 -7.625,57.9375 l 83.125,0 c 10.61949,-18.35686 8.0837,-42.2288 -7.625,-57.9375 C 88.564917,929.0521 76.284271,924.36218 64,924.36218 z m -24,16 48,0 0,8 -48,0 0,-8 z m 0,16.5 24,0 0,7.5 -24,0 0,-7.5 z m 0.1875,16.25 39.8125,0 0,7.25 -39.8125,0 0,-7.25 z M 28.25,1004.3622 c 0.590593,0.6591 1.179102,1.3041 1.8125,1.9375 L 64,1040.2372 97.9375,1006.2997 c 0.633398,-0.6334 1.221907,-1.2784 1.8125,-1.9375 l -71.5,0 z"
       id="path3856" />
    <path
       style="fill:#000000;fill-opacity:1;fill-rule:nonzero;stroke:none"
       d="m 32,1044.3622 c 2.149605,-2.1496 61.850395,-2.1496 64,0 2.149604,2.1496 2.149604,5.8504 0,8 -2.149605,2.1496 -61.850395,2.1496 -64,0 -2.149604,-2.1496 -2.149604,-5.8504 0,-8 z"
       id="path3870"
       sodipodi:nodetypes="csssc" />
  </g>
</svg>
