<?xml version="1.0" encoding="UTF-8" standalone="no"?>
<!-- Created with Inkscape (http://www.inkscape.org/) -->
<svg
   xmlns:dc="http://purl.org/dc/elements/1.1/"
   xmlns:cc="http://creativecommons.org/ns#"
   xmlns:rdf="http://www.w3.org/1999/02/22-rdf-syntax-ns#"
   xmlns:svg="http://www.w3.org/2000/svg"
   xmlns="http://www.w3.org/2000/svg"
   xmlns:sodipodi="http://sodipodi.sourceforge.net/DTD/sodipodi-0.dtd"
   xmlns:inkscape="http://www.inkscape.org/namespaces/inkscape"
   width="128"
   height="128"
   id="svg2"
   sodipodi:version="0.32"
   inkscape:version="0.46"
   version="1.0"
   sodipodi:docname="file-rarred-zipped-tarred-alt.svg"
   inkscape:output_extension="org.inkscape.output.svg.inkscape">
  <defs
     id="defs4">
    <inkscape:perspective
       sodipodi:type="inkscape:persp3d"
       inkscape:vp_x="0 : 526.18109 : 1"
       inkscape:vp_y="0 : 1000 : 0"
       inkscape:vp_z="744.09448 : 526.18109 : 1"
       inkscape:persp3d-origin="372.04724 : 350.78739 : 1"
       id="perspective10" />
  </defs>
  <sodipodi:namedview
     id="base"
     pagecolor="#ffffff"
     bordercolor="#666666"
     borderopacity="1.0"
     inkscape:pageopacity="0.0"
     inkscape:pageshadow="2"
     inkscape:zoom="1.4"
     inkscape:cx="83.176209"
     inkscape:cy="93.536791"
     inkscape:document-units="px"
     inkscape:current-layer="layer1"
     showgrid="false"
     inkscape:window-width="1440"
     inkscape:window-height="846"
     inkscape:window-x="-4"
     inkscape:window-y="-1" />
  <metadata
     id="metadata7">
    <rdf:RDF>
      <cc:Work
         rdf:about="">
        <dc:format>image/svg+xml</dc:format>
        <dc:type
           rdf:resource="http://purl.org/dc/dcmitype/StillImage" />
      </cc:Work>
    </rdf:RDF>
  </metadata>
  <g
     inkscape:label="Capa 1"
     inkscape:groupmode="layer"
     id="layer1">
    <path
       style="opacity:0.66000000999999997;fill:#000000;fill-opacity:1;stroke:none;stroke-width:3;stroke-miterlimit:4;stroke-dasharray:none;stroke-opacity:1"
       d="M 15.78125 0 C 7.0901811 0 0.09375 6.7016867 0.09375 15.03125 L 0.09375 112.90625 C 0.09375 121.23581 7.090181 127.9375 15.78125 127.9375 L 25.34375 127.9375 L 25.34375 0 L 15.78125 0 z M 44.65625 0 L 44.65625 127.9375 L 112.34375 127.9375 C 121.03482 127.9375 128.03125 121.23581 128.03125 112.90625 L 128.03125 15.03125 C 128.03125 6.7016868 121.03482 -2.7755576e-17 112.34375 0 L 44.65625 0 z M 51.53125 84.5625 L 59.65625 84.5625 C 62.859361 84.562529 65.325504 85.273466 67.03125 86.71875 C 68.736959 88.164088 69.593729 90.265648 69.59375 93 C 69.593729 94.927102 69.054667 96.494809 68 97.71875 C 66.958315 98.929702 65.494775 99.664077 63.59375 99.9375 C 64.609359 100.19793 65.471337 100.70835 66.1875 101.4375 C 66.903628 102.15366 67.807273 103.58855 68.875 105.75 L 72.84375 113.71875 L 68.59375 113.71875 L 65.125 106.34375 C 64.12238 104.24741 63.213527 102.91147 62.40625 102.3125 C 61.611966 101.70053 60.570301 101.37501 59.28125 101.375 L 55.5 101.375 L 55.5 113.71875 L 51.53125 113.71875 L 51.53125 84.5625 z M 82.46875 84.5625 L 87.25 84.5625 L 96.1875 113.71875 L 92.09375 113.71875 L 89.9375 106.125 L 79.71875 106.125 L 77.625 113.71875 L 73.53125 113.71875 L 82.46875 84.5625 z M 99.65625 84.5625 L 107.78125 84.5625 C 110.98436 84.562529 113.4505 85.273466 115.15625 86.71875 C 116.86196 88.164088 117.71873 90.265648 117.71875 93 C 117.71873 94.927102 117.17967 96.494809 116.125 97.71875 C 115.08332 98.929702 113.61977 99.664077 111.71875 99.9375 C 112.73436 100.19793 113.59634 100.70835 114.3125 101.4375 C 115.02863 102.15366 115.93227 103.58855 117 105.75 L 120.96875 113.71875 L 116.71875 113.71875 L 113.25 106.34375 C 112.24738 104.24741 111.33853 102.91147 110.53125 102.3125 C 109.73697 101.70053 108.6953 101.37501 107.40625 101.375 L 103.625 101.375 L 103.625 113.71875 L 99.65625 113.71875 L 99.65625 84.5625 z M 55.5 87.78125 L 55.5 98.15625 L 59.8125 98.15625 C 61.700508 98.156266 63.106756 97.72137 64.03125 96.875 C 64.955713 96.028664 65.437483 94.744811 65.4375 93 C 65.437483 91.320335 64.927067 90.04169 63.9375 89.15625 C 62.960923 88.257838 61.531237 87.781276 59.65625 87.78125 L 55.5 87.78125 z M 103.625 87.78125 L 103.625 98.15625 L 107.9375 98.15625 C 109.82551 98.156266 111.23176 97.72137 112.15625 96.875 C 113.08071 96.028664 113.56248 94.744811 113.5625 93 C 113.56248 91.320335 113.05207 90.04169 112.0625 89.15625 C 111.08592 88.257838 109.65624 87.781276 107.78125 87.78125 L 103.625 87.78125 z M 84.84375 88.03125 L 80.6875 102.9375 L 89 102.9375 L 84.84375 88.03125 z "
       id="rect2383" />
    <path
       id="path3175"
       d="M 31.058035,0 L 31.058035,127.9375 L 38.941965,127.9375 L 38.941965,0 L 31.058035,0 z"
       style="opacity:0.3;fill:#000000;fill-opacity:1;stroke:none;stroke-width:3;stroke-miterlimit:4;stroke-dasharray:none;stroke-opacity:1" />
  </g>
</svg>
