<?xml version="1.0" encoding="UTF-8" standalone="no"?>
<!-- Created with Inkscape (http://www.inkscape.org/) -->

<svg
   xmlns:dc="http://purl.org/dc/elements/1.1/"
   xmlns:cc="http://creativecommons.org/ns#"
   xmlns:rdf="http://www.w3.org/1999/02/22-rdf-syntax-ns#"
   xmlns:svg="http://www.w3.org/2000/svg"
   xmlns="http://www.w3.org/2000/svg"
   xmlns:sodipodi="http://sodipodi.sourceforge.net/DTD/sodipodi-0.dtd"
   xmlns:inkscape="http://www.inkscape.org/namespaces/inkscape"
   width="128"
   height="128"
   id="svg2"
   version="1.1"
   inkscape:version="0.47pre2 r22153"
   sodipodi:docname="system-search.svg">
  <defs
     id="defs4">
    <inkscape:perspective
       sodipodi:type="inkscape:persp3d"
       inkscape:vp_x="0 : 526.18109 : 1"
       inkscape:vp_y="0 : 1000 : 0"
       inkscape:vp_z="744.09448 : 526.18109 : 1"
       inkscape:persp3d-origin="372.04724 : 350.78739 : 1"
       id="perspective10" />
  </defs>
  <sodipodi:namedview
     id="base"
     pagecolor="#ffffff"
     bordercolor="#666666"
     borderopacity="1.0"
     inkscape:pageopacity="0.0"
     inkscape:pageshadow="2"
     inkscape:zoom="6.6484375"
     inkscape:cx="63.849589"
     inkscape:cy="64.075206"
     inkscape:document-units="px"
     inkscape:current-layer="layer1"
     showgrid="true"
     inkscape:window-width="2048"
     inkscape:window-height="1089"
     inkscape:window-x="0"
     inkscape:window-y="19"
     inkscape:window-maximized="1">
    <inkscape:grid
       type="xygrid"
       id="grid2816"
       empspacing="4"
       visible="true"
       enabled="true"
       snapvisiblegridlinesonly="true" />
  </sodipodi:namedview>
  <metadata
     id="metadata7">
    <rdf:RDF>
      <cc:Work
         rdf:about="">
        <dc:format>image/svg+xml</dc:format>
        <dc:type
           rdf:resource="http://purl.org/dc/dcmitype/StillImage" />
        <dc:title></dc:title>
      </cc:Work>
    </rdf:RDF>
  </metadata>
  <g
     inkscape:label="Layer 1"
     inkscape:groupmode="layer"
     id="layer1"
     transform="translate(0,-924.36218)">
    <path
       style="opacity:0.66000007;fill:#000000;fill-opacity:1;fill-rule:nonzero;stroke:none"
       d="m 118.22592,1002.4168 c -36.30996,8.0388 -72.463431,7.7283 -108.4746036,-0.066 6.2149106,24.1556 28.1529456,42.0065 54.2483486,42.0065 26.071451,0 47.988145,-17.8185 54.226255,-41.9402 z m -26.052469,14.12 0.22097,0.221 c 1.509801,1.5098 1.509801,3.9261 0,5.4359 l -8.706252,8.7062 c -1.509801,1.5098 -3.926083,1.5098 -5.435883,0 l -0.220971,-0.221 c -1.5098,-1.5098 -1.509801,-3.926 0,-5.4358 l 8.706252,-8.7063 c 1.509801,-1.5098 3.926083,-1.5098 5.435884,0 z m -50.911689,0 8.706253,8.7063 c 1.509801,1.5098 1.5098,3.926 0,5.4358 l -0.220971,0.221 c -1.509801,1.5098 -3.926083,1.5098 -5.435884,0 l -8.706252,-8.7062 c -1.509801,-1.5098 -1.5098,-3.9261 0,-5.4359 l 0.220971,-0.221 c 1.5098,-1.5098 3.926082,-1.5098 5.435883,0 z"
       id="path3788" />
    <path
       style="opacity:0.66000007;fill:#000000;fill-opacity:1;fill-rule:nonzero;stroke:none"
       d="M 103.66394,948.83133 C 93.521543,938.66377 79.493839,932.36901 63.999665,932.369 c -26.095452,0 -48.033416,17.85101 -54.2483486,42.00657 35.8737316,-7.64459 72.0251136,-7.89901 108.4966936,0 -2.52482,-9.81321 -7.64454,-18.58748 -14.58407,-25.54424 z m -19.865285,-2.89471 8.485281,8.48528 c 1.566949,1.56695 1.566949,4.0899 0,5.65685 -1.566949,1.56695 -4.089906,1.56695 -5.656854,0 L 78.1418,951.59347 c -1.566948,-1.56695 -1.566948,-4.08991 0,-5.65685 1.566949,-1.56695 4.089906,-1.56695 5.656855,0 z m -33.941126,0 c 1.566949,1.56694 1.566949,4.0899 0,5.65685 l -8.485281,8.48528 c -1.566949,1.56695 -4.089906,1.56695 -5.656854,0 -1.566949,-1.56695 -1.566949,-4.0899 0,-5.65685 l 8.485281,-8.48528 c 1.566949,-1.56695 4.089906,-1.56695 5.656854,0 z"
       id="path3776" />
    <path
       style="opacity:0.66000007;fill:#000000;fill-opacity:1;fill-rule:nonzero;stroke:none"
       d="m 52.686282,999.67588 c 6.248388,6.24842 16.379043,6.24842 22.627424,0 6.248395,-6.24837 6.248381,-16.37902 -1.6e-5,-22.62741 -6.24838,-6.24839 -16.379017,-6.24839 -22.627407,0 -6.248386,6.24839 -6.248383,16.37903 -1e-6,22.62741 z m 8.043343,-1.0076 -7.035712,-7.03573 c -0.555999,-0.55599 -0.555998,-1.45926 0,-2.01526 L 53.9414,989.3698 c 0.555993,-0.55599 1.459257,-0.55599 2.015255,0 l 7.035712,7.03572 c 0.555994,0.556 0.555994,1.45924 10e-7,2.01524 l -0.247488,0.24752 c -0.555998,0.556 -1.459262,0.556 -2.015255,0 z m 7.795861,-1.25512 -13.57646,-13.57647 c -1.25356,-1.25355 -1.25356,-3.27192 -1e-6,-4.52548 1.25356,-1.25356 3.271927,-1.25356 4.525486,0 l 13.576461,13.57647 c 1.253543,1.25356 1.253543,3.27193 0,4.52548 -1.253559,1.25352 -3.271927,1.2536 -4.525486,0 z m 3.394102,-10.18235 -6.788226,-6.78823 c -0.626777,-0.62678 -0.626777,-1.63596 0,-2.26274 0.626782,-0.62678 1.635966,-0.62678 2.262743,0 l 6.788225,6.78823 c 0.626801,0.62677 0.626801,1.63596 0,2.26273 -0.626801,0.62679 -1.635961,0.62679 -2.262742,10e-6 z"
       id="path3781" />
    <path
       style="opacity:0.66000007;fill:#000000;fill-opacity:1;fill-rule:nonzero;stroke:none"
       d="M 64 0 C 28.653776 7.1054274e-15 -1.110223e-16 28.653776 0 64 C 0 99.346224 28.653776 128 64 128 C 99.346224 128 128 99.346224 128 64 C 128 28.653776 99.346224 -1.4543922e-14 64 0 z M 64 4 C 97.137085 4 124 30.862915 124 64 C 124 97.137085 97.137085 124 64 124 C 30.862915 124 4 97.137085 4 64 C 4 30.862915 30.862915 4 64 4 z "
       transform="translate(0,924.36218)"
       id="path3808" />
    <path
       style="opacity:0.66000007;fill:#000000;fill-opacity:1;fill-rule:nonzero;stroke:none"
       d="M 50.21875 44.5625 C 46.083169 44.791079 41.971683 45.164699 37.84375 45.59375 C 34.175053 50.800464 32 57.14648 32 64 C 32 70.894293 34.197627 77.276021 37.90625 82.5 C 41.709498 82.904577 45.505992 83.267698 49.3125 83.5 C 43.638467 79.035527 40 72.125155 40 64.375 C 40 56.215683 44.023858 48.986688 50.21875 44.5625 z M 78.90625 44.625 C 85.061409 49.053517 89.0625 56.246544 89.0625 64.375 C 89.0625 72.109187 85.435225 79.003446 79.78125 83.46875 C 83.192347 83.257158 86.617451 82.980145 90.03125 82.625 C 93.789103 77.380116 96 70.944332 96 64 C 96 57.12146 93.818177 50.748583 90.125 45.53125 C 86.387292 45.145535 82.637451 44.842917 78.90625 44.625 z "
       transform="translate(0,924.36218)"
       id="path3880" />
  </g>
</svg>
