<?xml version="1.0" encoding="UTF-8" standalone="no"?>
<!-- Created with Inkscape (http://www.inkscape.org/) -->

<svg
   xmlns:dc="http://purl.org/dc/elements/1.1/"
   xmlns:cc="http://creativecommons.org/ns#"
   xmlns:rdf="http://www.w3.org/1999/02/22-rdf-syntax-ns#"
   xmlns:svg="http://www.w3.org/2000/svg"
   xmlns="http://www.w3.org/2000/svg"
   xmlns:sodipodi="http://sodipodi.sourceforge.net/DTD/sodipodi-0.dtd"
   xmlns:inkscape="http://www.inkscape.org/namespaces/inkscape"
   width="64"
   height="64"
   id="svg2"
   version="1.1"
   inkscape:version="0.47pre2 r22153"
   inkscape:export-filename="/home/rob/.kde4/share/icons/nmfnms/48x48/actions/go-up.png"
   inkscape:export-xdpi="67.5"
   inkscape:export-ydpi="67.5"
   sodipodi:docname="go-previous-alt.svg">
  <defs
     id="defs4">
    <inkscape:perspective
       sodipodi:type="inkscape:persp3d"
       inkscape:vp_x="0 : 526.18109 : 1"
       inkscape:vp_y="0 : 1000 : 0"
       inkscape:vp_z="744.09448 : 526.18109 : 1"
       inkscape:persp3d-origin="372.04724 : 350.78739 : 1"
       id="perspective10" />
  </defs>
  <sodipodi:namedview
     id="base"
     pagecolor="#ffffff"
     bordercolor="#666666"
     borderopacity="1.0"
     inkscape:pageopacity="0.0"
     inkscape:pageshadow="2"
     inkscape:zoom="13.21875"
     inkscape:cx="32"
     inkscape:cy="32.037825"
     inkscape:document-units="px"
     inkscape:current-layer="layer1"
     showgrid="true"
     inkscape:window-width="1346"
     inkscape:window-height="1084"
     inkscape:window-x="374"
     inkscape:window-y="20"
     inkscape:window-maximized="0">
    <inkscape:grid
       type="xygrid"
       id="grid2816"
       empspacing="4"
       visible="true"
       enabled="true"
       snapvisiblegridlinesonly="true" />
  </sodipodi:namedview>
  <metadata
     id="metadata7">
    <rdf:RDF>
      <cc:Work
         rdf:about="">
        <dc:format>image/svg+xml</dc:format>
        <dc:type
           rdf:resource="http://purl.org/dc/dcmitype/StillImage" />
        <dc:title />
      </cc:Work>
    </rdf:RDF>
  </metadata>
  <g
     inkscape:label="Layer 1"
     inkscape:groupmode="layer"
     id="layer1"
     transform="translate(0,-988.36218)">
    <path
       style="opacity:0.66000007;fill:#000000;fill-opacity:1;fill-rule:nonzero;stroke:none"
       d="M 55.8125 4 C 37.006832 10 21.217883 18.231988 5 29 L 32.3125 29 C 33.718317 21.601169 40.192362 16 48 16 C 51.448466 16 54.637455 17.081893 57.25 18.9375 C 57.906252 15.356189 58.812178 11.768811 60 8.1875 C 60 5.86384 58.13616 4 55.8125 4 z M 5 35 C 21 46 37.006832 54 55.8125 60 C 58.13616 60 60 58.13616 60 55.8125 C 58.797052 52.231189 57.87427 48.643811 57.21875 45.0625 C 54.609931 46.909441 51.439629 48 48 48 C 40.192362 48 33.718317 42.398831 32.3125 35 L 5 35 z "
       transform="translate(0,988.36218)"
       id="rect2867" />
    <path
       sodipodi:type="arc"
       style="opacity:0.66000007;fill:#000000;fill-opacity:1;fill-rule:nonzero;stroke:none"
       id="path2915"
       sodipodi:cx="48"
       sodipodi:cy="32"
       sodipodi:rx="8"
       sodipodi:ry="8"
       d="m 56,32 a 8,8 0 1 1 -16,0 8,8 0 1 1 16,0 z"
       transform="translate(0,988.36218)" />
  </g>
</svg>
