<?xml version="1.0" encoding="UTF-8" standalone="no"?>
<!-- Created with Inkscape (http://www.inkscape.org/) -->
<svg
   xmlns:dc="http://purl.org/dc/elements/1.1/"
   xmlns:cc="http://creativecommons.org/ns#"
   xmlns:rdf="http://www.w3.org/1999/02/22-rdf-syntax-ns#"
   xmlns:svg="http://www.w3.org/2000/svg"
   xmlns="http://www.w3.org/2000/svg"
   xmlns:sodipodi="http://sodipodi.sourceforge.net/DTD/sodipodi-0.dtd"
   xmlns:inkscape="http://www.inkscape.org/namespaces/inkscape"
   width="64"
   height="64"
   id="svg2"
   version="1.1"
   inkscape:version="0.46+devel"
   sodipodi:docname="media-skip-forward-alt.svg"
   sodipodi:version="0.32"
   inkscape:output_extension="org.inkscape.output.svg.inkscape">
  <defs
     id="defs4">
    <inkscape:perspective
       sodipodi:type="inkscape:persp3d"
       inkscape:vp_x="0 : 526.18109 : 1"
       inkscape:vp_y="0 : 1000 : 0"
       inkscape:vp_z="744.09448 : 526.18109 : 1"
       inkscape:persp3d-origin="372.04724 : 350.78739 : 1"
       id="perspective10" />
  </defs>
  <sodipodi:namedview
     id="base"
     pagecolor="#ffffff"
     bordercolor="#666666"
     borderopacity="1.0"
     inkscape:pageopacity="0.0"
     inkscape:pageshadow="2"
     inkscape:zoom="11.671875"
     inkscape:cx="8.8246315"
     inkscape:cy="32"
     inkscape:document-units="px"
     inkscape:current-layer="layer1"
     showgrid="true"
     inkscape:window-width="1174"
     inkscape:window-height="963"
     inkscape:window-x="191"
     inkscape:window-y="79"
     inkscape:window-maximized="0">
    <inkscape:grid
       type="xygrid"
       id="grid2816"
       empspacing="4"
       visible="true"
       enabled="true"
       snapvisiblegridlinesonly="true" />
  </sodipodi:namedview>
  <metadata
     id="metadata7">
    <rdf:RDF>
      <cc:Work
         rdf:about="">
        <dc:format>image/svg+xml</dc:format>
        <dc:type
           rdf:resource="http://purl.org/dc/dcmitype/StillImage" />
        <dc:title />
      </cc:Work>
    </rdf:RDF>
  </metadata>
  <g
     inkscape:label="Layer 1"
     inkscape:groupmode="layer"
     id="layer1"
     transform="translate(0,-988.36218)">
    <g
       id="g4160"
       transform="matrix(1.0513347,0,0,1.0513347,-2.3983572,-52.367188)">
      <path
         id="path2820"
         transform="translate(0,988.36218)"
         d="M 24.59375,7.4375 C 22.531304,7.4963264 21.107945,8.491946 20.125,10.46875 23.162978,11.953543 26.720746,13.935621 31,16.40625 41.466757,22.449236 47.510186,26.389123 49.15625,30 l 14,0 C 61.510186,26.389123 55.466757,22.449235 45,16.40625 34.90875,10.580064 28.574635,7.3239547 24.59375,7.4375 z M 49.15625,34 C 47.510186,37.610877 41.466758,41.550765 31,47.59375 26.720745,50.064379 23.162978,52.046458 20.125,53.53125 23.005202,59.323635 29.680601,56.438409 45,47.59375 55.466757,41.550765 61.510186,37.610877 63.15625,34 z"
         style="opacity:1;fill:#000000;fill-opacity:1;fill-rule:nonzero;stroke:none" />
      <path
         id="path2868"
         transform="translate(0,988.36218)"
         d="m 6.59375,7.4375 c -1.9506988,0.055639 -3.3338527,0.9395691 -4.3125,2.71875 3.170501,1.511836 6.9651515,3.595704 11.5625,6.25 C 24.310507,22.44925 30.353936,26.3913 32,30 l 13.15625,0 C 43.510186,26.391298 37.466757,22.449236 27,16.40625 16.90875,10.580064 10.574635,7.3239549 6.59375,7.4375 z M 32,34 c -1.646064,3.6087 -7.689493,7.55075 -18.15625,13.59375 -4.5737698,2.64067 -8.3670008,4.744917 -11.53125,6.25 2.9765838,5.352873 9.679088,2.41511 24.6875,-6.25 C 37.466757,41.550765 43.510186,37.608702 45.15625,34 z"
         style="opacity:1;fill:#000000;fill-opacity:1;fill-rule:nonzero;stroke:none" />
    </g>
  </g>
</svg>
