<?xml version="1.0" encoding="UTF-8" standalone="no"?>
<!-- Created with Inkscape (http://www.inkscape.org/) -->
<svg
   xmlns:dc="http://purl.org/dc/elements/1.1/"
   xmlns:cc="http://creativecommons.org/ns#"
   xmlns:rdf="http://www.w3.org/1999/02/22-rdf-syntax-ns#"
   xmlns:svg="http://www.w3.org/2000/svg"
   xmlns="http://www.w3.org/2000/svg"
   xmlns:sodipodi="http://sodipodi.sourceforge.net/DTD/sodipodi-0.dtd"
   xmlns:inkscape="http://www.inkscape.org/namespaces/inkscape"
   width="64"
   height="64"
   id="svg2"
   version="1.1"
   inkscape:version="0.46+devel"
   sodipodi:docname="media-skip-backward-alt.svg"
   sodipodi:version="0.32"
   inkscape:output_extension="org.inkscape.output.svg.inkscape">
  <defs
     id="defs4">
    <inkscape:perspective
       sodipodi:type="inkscape:persp3d"
       inkscape:vp_x="0 : 526.18109 : 1"
       inkscape:vp_y="0 : 1000 : 0"
       inkscape:vp_z="744.09448 : 526.18109 : 1"
       inkscape:persp3d-origin="372.04724 : 350.78739 : 1"
       id="perspective10" />
  </defs>
  <sodipodi:namedview
     id="base"
     pagecolor="#ffffff"
     bordercolor="#666666"
     borderopacity="1.0"
     inkscape:pageopacity="0.0"
     inkscape:pageshadow="2"
     inkscape:zoom="11.671875"
     inkscape:cx="19.865945"
     inkscape:cy="32"
     inkscape:document-units="px"
     inkscape:current-layer="layer1"
     showgrid="true"
     inkscape:window-width="1174"
     inkscape:window-height="963"
     inkscape:window-x="405"
     inkscape:window-y="40"
     inkscape:window-maximized="0">
    <inkscape:grid
       type="xygrid"
       id="grid2816"
       empspacing="4"
       visible="true"
       enabled="true"
       snapvisiblegridlinesonly="true" />
  </sodipodi:namedview>
  <metadata
     id="metadata7">
    <rdf:RDF>
      <cc:Work
         rdf:about="">
        <dc:format>image/svg+xml</dc:format>
        <dc:type
           rdf:resource="http://purl.org/dc/dcmitype/StillImage" />
        <dc:title />
      </cc:Work>
    </rdf:RDF>
  </metadata>
  <g
     inkscape:label="Layer 1"
     inkscape:groupmode="layer"
     id="layer1"
     transform="translate(0,-988.36218)">
    <g
       id="g4164"
       transform="matrix(1.0513347,0,0,1.0513347,-2.3983572,-52.367181)">
      <path
         id="path2820"
         d="m 40.84375,995.79968 c 2.062446,0.0588 3.485805,1.05445 4.46875,3.03125 -3.037978,1.48477 -6.595746,3.46687 -10.875,5.93747 -10.466757,6.043 -16.510186,9.9829 -18.15625,13.5938 l -14,0 c 1.646064,-3.6109 7.689493,-7.5508 18.15625,-13.5938 10.09125,-5.82616 16.425365,-9.08227 20.40625,-8.96872 z m -24.5625,26.56252 c 1.646064,3.6109 7.689492,7.5507 18.15625,13.5937 4.279255,2.4707 7.837022,4.4527 10.875,5.9375 -2.880202,5.7924 -9.555601,2.9072 -24.875,-5.9375 -10.466757,-6.043 -16.510186,-9.9828 -18.15625,-13.5937 z"
         style="opacity:1;fill:#000000;fill-opacity:1;fill-rule:nonzero;stroke:none" />
      <path
         id="path2868"
         d="m 58.84375,995.79968 c 1.950699,0.0556 3.333853,0.93957 4.3125,2.71875 -3.170501,1.51187 -6.965151,3.59567 -11.5625,6.24997 -10.466757,6.043 -16.510186,9.9851 -18.15625,13.5938 l -13.15625,0 c 1.646064,-3.6087 7.689493,-7.5508 18.15625,-13.5938 10.09125,-5.82616 16.425365,-9.08227 20.40625,-8.96872 z M 33.4375,1022.3622 c 1.646064,3.6087 7.689493,7.5507 18.15625,13.5937 4.57377,2.6407 8.367001,4.7449 11.53125,6.25 -2.976584,5.3529 -9.679088,2.4151 -24.6875,-6.25 -10.466757,-6.043 -16.510186,-9.985 -18.15625,-13.5937 l 13.15625,0 z"
         style="opacity:1;fill:#000000;fill-opacity:1;fill-rule:nonzero;stroke:none" />
    </g>
  </g>
</svg>
