<?xml version="1.0" encoding="UTF-8" standalone="no"?>
<!-- Created with Inkscape (http://www.inkscape.org/) -->
<svg
   xmlns:dc="http://purl.org/dc/elements/1.1/"
   xmlns:cc="http://creativecommons.org/ns#"
   xmlns:rdf="http://www.w3.org/1999/02/22-rdf-syntax-ns#"
   xmlns:svg="http://www.w3.org/2000/svg"
   xmlns="http://www.w3.org/2000/svg"
   xmlns:sodipodi="http://sodipodi.sourceforge.net/DTD/sodipodi-0.dtd"
   xmlns:inkscape="http://www.inkscape.org/namespaces/inkscape"
   width="128"
   height="128"
   id="svg2"
   version="1.1"
   inkscape:version="0.46+devel"
   sodipodi:docname="media-skip-forward.svg"
   inkscape:export-filename="/home/rob/.kde4/share/icons/nmfnms/48x48/actions/media-skip-backward.png"
   inkscape:export-xdpi="33.75"
   inkscape:export-ydpi="33.75"
   sodipodi:version="0.32"
   inkscape:output_extension="org.inkscape.output.svg.inkscape">
  <defs
     id="defs4">
    <inkscape:perspective
       sodipodi:type="inkscape:persp3d"
       inkscape:vp_x="0 : 526.18109 : 1"
       inkscape:vp_y="0 : 1000 : 0"
       inkscape:vp_z="744.09448 : 526.18109 : 1"
       inkscape:persp3d-origin="372.04724 : 350.78739 : 1"
       id="perspective10" />
  </defs>
  <sodipodi:namedview
     id="base"
     pagecolor="#ffffff"
     bordercolor="#666666"
     borderopacity="1.0"
     inkscape:pageopacity="0.0"
     inkscape:pageshadow="2"
     inkscape:zoom="5.75"
     inkscape:cx="64"
     inkscape:cy="63.913043"
     inkscape:document-units="px"
     inkscape:current-layer="layer1"
     showgrid="true"
     inkscape:window-width="1162"
     inkscape:window-height="1084"
     inkscape:window-x="412"
     inkscape:window-y="26"
     inkscape:window-maximized="0">
    <inkscape:grid
       type="xygrid"
       id="grid2816"
       empspacing="4"
       visible="true"
       enabled="true"
       snapvisiblegridlinesonly="true" />
  </sodipodi:namedview>
  <metadata
     id="metadata7">
    <rdf:RDF>
      <cc:Work
         rdf:about="">
        <dc:format>image/svg+xml</dc:format>
        <dc:type
           rdf:resource="http://purl.org/dc/dcmitype/StillImage" />
        <dc:title />
      </cc:Work>
    </rdf:RDF>
  </metadata>
  <g
     inkscape:label="Layer 1"
     inkscape:groupmode="layer"
     id="layer1"
     transform="translate(0,-924.36218)">
    <path
       style="opacity:1;fill:#000000;fill-opacity:1;fill-rule:nonzero;stroke:none"
       d="m 11.25,928.36218 c 24.003938,4.71243 51.908955,16.34994 74.0625,29.21875 -8.190363,4.98477 -14.221137,13.15148 -16.40625,22.78125 l -53.34375,0 C 14.15051,965.6959 8.95943,951.02847 0,936.36218 c 0,-4.432 5.0175,-8 11.25,-8 z m 15.3125,12.6875 c -3.19104,0 -5.75,1.82457 -5.75,4.09375 4.58722,7.50914 7.245814,15.02211 7.96875,22.53125 l 27.3125,0 C 57.212528,962.74423 60.306534,958.57064 64.5,956.01843 53.157385,949.4296 38.852516,943.46244 26.5625,941.04968 z m 42.34375,55.3125 c 2.185113,9.62972 8.215887,17.79652 16.40625,22.78122 -22.153545,12.8688 -50.058562,24.5064 -74.0625,29.2188 -6.2325,0 -11.25,-3.568 -11.25,-8 9.06752,-14.6663 14.23197,-29.3337 15.59375,-44.00002 l 53.3125,0 z m -12.8125,12.68752 -27.28125,0 c -0.697232,7.5091 -3.35742,15.022 -8,22.5312 0,2.2692 2.55896,4.0938 5.75,4.0938 12.290016,-2.4127 26.594885,-8.38 37.9375,-14.9688 -4.193466,-2.5522 -7.287472,-6.7258 -8.40625,-11.6562 z"
       id="rect2836" />
    <path
       sodipodi:type="arc"
       style="opacity:1;fill:#000000;fill-opacity:1;fill-rule:nonzero;stroke:none"
       id="path2881"
       sodipodi:cx="24"
       sodipodi:cy="64"
       sodipodi:rx="24"
       sodipodi:ry="24"
       d="M 48,64 A 24,24 0 1 1 0,64 24,24 0 1 1 48,64 z"
       transform="matrix(-1,0,0,1,128,924.36218)" />
  </g>
</svg>
