<?xml version="1.0" encoding="UTF-8" standalone="no"?>
<!-- Created with Inkscape (http://www.inkscape.org/) -->

<svg
   xmlns:dc="http://purl.org/dc/elements/1.1/"
   xmlns:cc="http://creativecommons.org/ns#"
   xmlns:rdf="http://www.w3.org/1999/02/22-rdf-syntax-ns#"
   xmlns:svg="http://www.w3.org/2000/svg"
   xmlns="http://www.w3.org/2000/svg"
   xmlns:sodipodi="http://sodipodi.sourceforge.net/DTD/sodipodi-0.dtd"
   xmlns:inkscape="http://www.inkscape.org/namespaces/inkscape"
   width="64px"
   height="64px"
   id="svg2816"
   version="1.1"
   inkscape:version="0.47 r22583"
   sodipodi:docname="next4.svg">
  <defs
     id="defs2818">
    <inkscape:perspective
       sodipodi:type="inkscape:persp3d"
       inkscape:vp_x="0 : 32 : 1"
       inkscape:vp_y="0 : 1000 : 0"
       inkscape:vp_z="64 : 32 : 1"
       inkscape:persp3d-origin="32 : 21.333333 : 1"
       id="perspective2824" />
    <inkscape:perspective
       id="perspective2822"
       inkscape:persp3d-origin="0.5 : 0.33333333 : 1"
       inkscape:vp_z="1 : 0.5 : 1"
       inkscape:vp_y="0 : 1000 : 0"
       inkscape:vp_x="0 : 0.5 : 1"
       sodipodi:type="inkscape:persp3d" />
  </defs>
  <sodipodi:namedview
     id="base"
     pagecolor="#ffffff"
     bordercolor="#666666"
     borderopacity="1.0"
     inkscape:pageopacity="0.0"
     inkscape:pageshadow="2"
     inkscape:zoom="4.3089319"
     inkscape:cx="80.074342"
     inkscape:cy="10.234627"
     inkscape:current-layer="layer1"
     showgrid="true"
     inkscape:document-units="px"
     inkscape:grid-bbox="true"
     inkscape:window-width="1337"
     inkscape:window-height="827"
     inkscape:window-x="93"
     inkscape:window-y="20"
     inkscape:window-maximized="0">
    <inkscape:grid
       type="xygrid"
       id="grid2826"
       empspacing="4"
       visible="true"
       enabled="true"
       snapvisiblegridlinesonly="true" />
  </sodipodi:namedview>
  <metadata
     id="metadata2821">
    <rdf:RDF>
      <cc:Work
         rdf:about="">
        <dc:format>image/svg+xml</dc:format>
        <dc:type
           rdf:resource="http://purl.org/dc/dcmitype/StillImage" />
        <dc:title></dc:title>
      </cc:Work>
    </rdf:RDF>
  </metadata>
  <g
     id="layer1"
     inkscape:label="Layer 1"
     inkscape:groupmode="layer">
    <path
       style="fill:#000000"
       d="m 7.9529208,31.913025 0.00562,0 c 0.021667,-0.670851 0.047578,-1.28085 0.074765,-1.608697 0.010927,-0.131518 0.031968,-0.640213 0.047079,-1.130433 0.028909,-0.937349 0.060753,-1.157213 0.6036313,-4.260869 0.098292,-0.561958 0.1959407,-1.152686 0.2173636,-1.312501 0.051262,-0.382303 0.086978,-0.51751 0.131522,-0.490491 0.020106,0.01219 0.051574,-4.54e-4 0.069226,-0.02855 0.020043,-0.03181 0.01255,-0.03976 -0.019356,-0.02035 -0.079666,0.04834 -0.062002,-0.07576 0.059504,-0.41712 0.060941,-0.171115 0.1116976,-0.352542 0.1121408,-0.402176 4.621e-4,-0.05725 0.01205,-0.07069 0.033217,-0.03805 0.018732,0.02892 0.035902,-0.01864 0.038775,-0.108699 0.00312,-0.08812 0.044582,-0.277716 0.09276,-0.421195 0.048203,-0.143478 0.1132148,-0.352884 0.1439849,-0.466035 0.030782,-0.113155 0.070806,-0.196944 0.088607,-0.18614 0.017795,0.01078 0.022603,-0.02924 0.011052,-0.08832 -0.012675,-0.06494 -6.244e-4,-0.107339 0.030471,-0.107339 0.028659,0 0.041023,-0.01869 0.026287,-0.04209 -0.055946,-0.08885 0.2448991,-0.870926 0.3350426,-0.870926 0.02254,0 0.04015,-0.02818 0.04015,-0.0625 0,-0.112222 1.066993,-2.125527 1.291724,-2.437496 0.706688,-0.981065 1.385427,-1.91421 1.420481,-1.953808 0.02229,-0.02518 0.07763,-0.107888 0.123218,-0.183422 0.07161,-0.118694 0.209409,-0.232606 0.881917,-0.729625 0.06317,-0.04669 0.419048,-0.317661 0.790537,-0.601904 l 0.675626,-0.517642 1.052209,-0.358699 c 2.032746,-0.694733 1.949927,-0.672919 3.17323,-0.876362 L 20.658364,12 l 1.264032,0 c 1.393451,0 1.1759,-0.03114 2.438078,0.343747 0.328949,0.09771 0.986858,0.286614 1.462009,0.419835 0.475156,0.133227 0.993508,0.279695 1.151891,0.324727 0.158383,0.04504 0.717334,0.200392 1.241879,0.345108 0.840158,0.23179 4.140609,1.359862 4.495414,1.536688 0.0731,0.03645 0.421995,0.197247 0.775314,0.357339 0.353318,0.160082 0.76202,0.345316 0.908222,0.411682 0.146196,0.06635 0.524995,0.238329 0.841763,0.381789 0.316766,0.143467 0.725469,0.32844 0.908222,0.411691 0.182747,0.08325 0.425143,0.192758 0.538563,0.243205 0.843355,0.375134 1.418246,0.668108 2.186098,1.114133 0.487338,0.283084 1.215024,0.7051 1.617077,0.937501 2.169476,1.254026 3.0056,1.76018 4.967522,3.00815 2.091052,1.330113 2.178543,1.39218 3.037557,2.126361 0.486539,0.415835 1.390166,1.185869 2.007497,1.711958 0.617324,0.526086 1.162737,0.992251 1.212807,1.035322 0.05007,0.04308 0.222758,0.199595 0.383502,0.347829 0.160743,0.148234 0.43035,0.394251 0.599479,0.547553 0.169135,0.153301 0.457979,0.417432 0.641014,0.586958 0.183041,0.169522 0.688229,0.631249 1.122819,1.025814 l 0.789157,0.717381 0.33643,0.652169 c 0.318871,0.618144 0.339906,0.674866 0.38904,1.086962 0.0073,0.06122 0.0143,0.146536 0.02079,0.239132 l 0.01105,0 c -0.0019,0.03094 -0.0038,0.05725 -0.0056,0.08696 0.0019,0.02971 0.0038,0.056 0.0056,0.08696 l -0.01105,0 c -0.0064,0.09259 -0.01349,0.177922 -0.02079,0.239131 -0.04914,0.412089 -0.07017,0.468811 -0.38904,1.086954 l -0.33643,0.652177 -0.789157,0.717385 c -0.434583,0.39457 -0.939778,0.856294 -1.122813,1.02582 -0.183041,0.169527 -0.471885,0.433653 -0.641014,0.586954 -0.169135,0.153301 -0.438735,0.399319 -0.599485,0.547559 -0.160744,0.148226 -0.333432,0.304751 -0.383502,0.347822 -0.05007,0.04308 -0.595477,0.509242 -1.212801,1.03533 -0.617331,0.526081 -1.520964,1.296121 -2.007503,1.711955 -0.859014,0.734175 -0.946505,0.796243 -3.037557,2.126361 -1.961922,1.247965 -2.798039,1.754118 -4.967522,3.008149 -0.402053,0.232405 -1.129739,0.654414 -1.617077,0.937504 -0.767846,0.446024 -1.342743,0.738991 -2.186098,1.114124 -0.113414,0.05044 -0.355809,0.159957 -0.538563,0.243212 -0.182753,0.08325 -0.59145,0.268219 -0.908216,0.411686 -0.316774,0.14346 -0.695567,0.315425 -0.841769,0.381789 -0.146202,0.06635 -0.554904,0.251599 -0.908222,0.41169 -0.353319,0.160083 -0.702211,0.320903 -0.775308,0.357332 -0.354811,0.176824 -3.655256,1.304897 -4.495414,1.536687 -0.524546,0.144716 -1.083495,0.300063 -1.241885,0.345109 -0.158383,0.04504 -0.676735,0.1915 -1.151885,0.324726 -0.475157,0.13322 -1.133066,0.322129 -1.462015,0.419841 C 23.098302,52.031129 23.315847,52 21.922403,52 l -1.264033,0 -1.154658,-0.191575 c -1.223303,-0.20345 -1.14049,-0.18163 -3.173236,-0.876369 l -1.052209,-0.358691 -0.675629,-0.51767 c -0.371489,-0.284236 -0.727361,-0.555211 -0.790537,-0.601899 -0.672508,-0.497017 -0.810299,-0.610931 -0.881918,-0.729616 -0.04558,-0.07554 -0.100951,-0.158265 -0.123216,-0.18343 -0.03503,-0.03959 -0.713787,-0.972744 -1.420481,-1.9538 -0.224726,-0.311976 -1.291718,-2.325276 -1.291718,-2.437505 0,-0.03431 -0.01755,-0.06249 -0.04015,-0.06249 -0.090144,0 -0.3909941,-0.782082 -0.3350423,-0.870927 0.014736,-0.02341 0.0025,-0.04209 -0.026287,-0.04209 -0.03147,0 -0.043083,-0.0424 -0.03047,-0.107338 0.011552,-0.05906 0.00674,-0.09911 -0.011052,-0.08831 -0.017795,0.01078 -0.057819,-0.07299 -0.088601,-0.186145 -0.030782,-0.113152 -0.095794,-0.322551 -0.1439911,-0.46603 -0.048203,-0.143479 -0.089944,-0.333086 -0.09276,-0.421196 -0.00312,-0.09008 -0.01998,-0.137656 -0.038775,-0.108696 -0.021167,0.03265 -0.032781,0.01918 -0.033218,-0.03805 -4.62e-4,-0.04964 -0.0512,-0.231053 -0.1121408,-0.402168 -0.1215317,-0.34137 -0.139202,-0.465442 -0.059504,-0.41712 0.031969,0.01936 0.0394,0.0114 0.019356,-0.0204 -0.017607,-0.02801 -0.049139,-0.04069 -0.06922,-0.02856 -0.044581,0.02702 -0.080271,-0.108189 -0.1315275,-0.490491 -0.021417,-0.159812 -0.1190717,-0.750539 -0.2173636,-1.312499 -0.542853,-3.103655 -0.5747344,-3.323521 -0.6036313,-4.260864 -0.01511,-0.490222 -0.036152,-0.998913 -0.04708,-1.130437 -0.027224,-0.327846 -0.053135,-0.93784 -0.074765,-1.608699 l -0.00562,0 c 1.873e-4,-0.0076 -1.811e-4,-0.0155 0,-0.0231 6.244e-4,-0.02188 0.00188,-0.04209 0.0025,-0.06385 -6.245e-4,-0.02175 -0.00188,-0.04196 -0.0025,-0.06386 -1.811e-4,-0.0075 1.873e-4,-0.01551 0,-0.0231 z"
       id="path2829" />
  </g>
</svg>
