<?xml version="1.0" encoding="UTF-8" standalone="no"?>
<!-- Created with Inkscape (http://www.inkscape.org/) -->

<svg
   xmlns:dc="http://purl.org/dc/elements/1.1/"
   xmlns:cc="http://creativecommons.org/ns#"
   xmlns:rdf="http://www.w3.org/1999/02/22-rdf-syntax-ns#"
   xmlns:svg="http://www.w3.org/2000/svg"
   xmlns="http://www.w3.org/2000/svg"
   xmlns:sodipodi="http://sodipodi.sourceforge.net/DTD/sodipodi-0.dtd"
   xmlns:inkscape="http://www.inkscape.org/namespaces/inkscape"
   width="64px"
   height="64px"
   id="svg2816"
   version="1.1"
   inkscape:version="0.47 r22583"
   sodipodi:docname="next6.svg">
  <defs
     id="defs2818">
    <inkscape:perspective
       sodipodi:type="inkscape:persp3d"
       inkscape:vp_x="0 : 32 : 1"
       inkscape:vp_y="0 : 1000 : 0"
       inkscape:vp_z="64 : 32 : 1"
       inkscape:persp3d-origin="32 : 21.333333 : 1"
       id="perspective2824" />
    <inkscape:perspective
       id="perspective2822"
       inkscape:persp3d-origin="0.5 : 0.33333333 : 1"
       inkscape:vp_z="1 : 0.5 : 1"
       inkscape:vp_y="0 : 1000 : 0"
       inkscape:vp_x="0 : 0.5 : 1"
       sodipodi:type="inkscape:persp3d" />
  </defs>
  <sodipodi:namedview
     id="base"
     pagecolor="#ffffff"
     bordercolor="#666666"
     borderopacity="1.0"
     inkscape:pageopacity="0.0"
     inkscape:pageshadow="2"
     inkscape:zoom="2.154466"
     inkscape:cx="167.95402"
     inkscape:cy="-38.873806"
     inkscape:current-layer="layer1"
     showgrid="true"
     inkscape:document-units="px"
     inkscape:grid-bbox="true"
     inkscape:window-width="1337"
     inkscape:window-height="827"
     inkscape:window-x="93"
     inkscape:window-y="20"
     inkscape:window-maximized="0">
    <inkscape:grid
       type="xygrid"
       id="grid2826"
       empspacing="4"
       visible="true"
       enabled="true"
       snapvisiblegridlinesonly="true" />
  </sodipodi:namedview>
  <metadata
     id="metadata2821">
    <rdf:RDF>
      <cc:Work
         rdf:about="">
        <dc:format>image/svg+xml</dc:format>
        <dc:type
           rdf:resource="http://purl.org/dc/dcmitype/StillImage" />
        <dc:title></dc:title>
      </cc:Work>
    </rdf:RDF>
  </metadata>
  <g
     id="layer1"
     inkscape:label="Layer 1"
     inkscape:groupmode="layer">
    <path
       style="fill:#0d0000"
       d="M 21.1875 12.03125 C 19.524599 12.06708 17.917046 12.564267 16.34375 13.0625 C 15.260744 13.531174 14.149089 14.047217 13.34375 14.9375 C 12.237546 16.019226 11.450823 17.374012 10.668246 18.694758 C 10.27824 19.584965 9.5702759 20.46495 9.7827015 21.492358 C 9.8923442 22.494388 10.480717 23.388765 11.08451 24.172735 C 11.755132 25.020446 12.503696 25.802919 13.06978 26.728065 C 14.164333 28.285936 15.015531 30.11105 15.022831 32.047946 C 15.04468 32.921142 14.829508 33.784548 14.555783 34.606696 C 14.162978 35.599932 13.620262 36.53104 13.040334 37.424523 C 12.082076 38.780785 11.098408 40.12225 10.21875 41.53125 C 9.7656289 42.542097 9.743771 43.749777 10.401511 44.678023 C 11.039952 46.081872 11.902055 47.369808 12.875 48.5625 C 13.855495 49.580895 14.979782 50.52816 16.358357 50.939592 C 17.375582 51.351166 18.460314 51.567217 19.528813 51.803186 C 20.520979 51.986307 21.549235 52.012783 22.556689 51.979812 C 23.526247 51.948571 24.441898 51.645128 25.357665 51.355833 C 27.528579 50.731816 29.686587 50.061642 31.826627 49.339992 C 33.91576 48.555665 35.934288 47.596585 37.920747 46.584447 C 39.905714 45.534116 41.815052 44.34988 43.753034 43.216929 C 45.461968 42.160768 47.157108 41.064853 48.716936 39.795476 C 50.241076 38.513997 51.789887 37.26173 53.25 35.90625 C 53.98493 35.183823 54.901661 34.606973 55.415039 33.691546 C 55.847504 33.018726 56.070842 32.197485 55.875 31.40625 C 55.682246 30.518498 55.115364 29.789614 54.454462 29.194105 C 53.107991 28.023451 51.812424 26.7949 50.4375 25.65625 C 48.847631 24.275275 47.192948 22.965716 45.412308 21.837372 C 43.662117 20.736938 41.893983 19.662609 40.120198 18.601009 C 37.770653 17.311741 35.355546 16.142408 32.899137 15.072439 C 30.893843 14.237884 28.800688 13.645191 26.730666 12.997325 C 25.591773 12.695552 24.476912 12.286967 23.3125 12.09375 C 22.605901 12.024127 21.896902 11.973316 21.1875 12.03125 z "
       id="path2829" />
    <path
       id="path2862"
       d="M 21.1875 12.03125 C 19.524599 12.06708 17.917046 12.564267 16.34375 13.0625 C 15.260744 13.531174 14.149089 14.047217 13.34375 14.9375 C 12.237546 16.019226 11.450823 17.374012 10.668246 18.694758 C 10.27824 19.584965 9.5702759 20.46495 9.7827015 21.492358 C 9.8923442 22.494388 10.480717 23.388765 11.08451 24.172735 C 11.755132 25.020446 12.503696 25.802919 13.06978 26.728065 C 14.164333 28.285936 15.015531 30.11105 15.022831 32.047946 C 15.04468 32.921142 14.829508 33.784548 14.555783 34.606696 C 14.162978 35.599932 13.620262 36.53104 13.040334 37.424523 C 12.082076 38.780785 11.098408 40.12225 10.21875 41.53125 C 9.7656289 42.542097 9.743771 43.749777 10.401511 44.678023 C 11.039952 46.081872 11.902055 47.369808 12.875 48.5625 C 13.855495 49.580895 14.979782 50.52816 16.358357 50.939592 C 17.375582 51.351166 18.460314 51.567217 19.528813 51.803186 C 20.520979 51.986307 21.549235 52.012783 22.556689 51.979812 C 23.526247 51.948571 24.441898 51.645128 25.357665 51.355833 C 27.528579 50.731816 29.686587 50.061642 31.826627 49.339992 C 33.91576 48.555665 35.934288 47.596585 37.920747 46.584447 C 39.905714 45.534116 41.815052 44.34988 43.753034 43.216929 C 45.461968 42.160768 47.157108 41.064853 48.716936 39.795476 C 50.241076 38.513997 51.789887 37.26173 53.25 35.90625 C 53.98493 35.183823 54.901661 34.606973 55.415039 33.691546 C 55.847504 33.018726 56.070842 32.197485 55.875 31.40625 C 55.682246 30.518498 55.115364 29.789614 54.454462 29.194105 C 53.107991 28.023451 51.812424 26.7949 50.4375 25.65625 C 48.847631 24.275275 47.192948 22.965716 45.412308 21.837372 C 43.662117 20.736938 41.893983 19.662609 40.120198 18.601009 C 37.770653 17.311741 35.355546 16.142408 32.899137 15.072439 C 30.893843 14.237884 28.800688 13.645191 26.730666 12.997325 C 25.591773 12.695552 24.476912 12.286967 23.3125 12.09375 C 22.605901 12.024127 21.896902 11.973316 21.1875 12.03125 z "
       style="fill:#0d0000" />
    <path
       id="path2864"
       d="M 21.1875 12.03125 C 19.524599 12.06708 17.917046 12.564267 16.34375 13.0625 C 15.260744 13.531174 14.149089 14.047217 13.34375 14.9375 C 12.237546 16.019226 11.450823 17.374012 10.668246 18.694758 C 10.27824 19.584965 9.5702759 20.46495 9.7827015 21.492358 C 9.8923442 22.494388 10.480717 23.388765 11.08451 24.172735 C 11.755132 25.020446 12.503696 25.802919 13.06978 26.728065 C 14.164333 28.285936 15.015531 30.11105 15.022831 32.047946 C 15.04468 32.921142 14.829508 33.784548 14.555783 34.606696 C 14.162978 35.599932 13.620262 36.53104 13.040334 37.424523 C 12.082076 38.780785 11.098408 40.12225 10.21875 41.53125 C 9.7656289 42.542097 9.743771 43.749777 10.401511 44.678023 C 11.039952 46.081872 11.902055 47.369808 12.875 48.5625 C 13.855495 49.580895 14.979782 50.52816 16.358357 50.939592 C 17.375582 51.351166 18.460314 51.567217 19.528813 51.803186 C 20.520979 51.986307 21.549235 52.012783 22.556689 51.979812 C 23.526247 51.948571 24.441898 51.645128 25.357665 51.355833 C 27.528579 50.731816 29.686587 50.061642 31.826627 49.339992 C 33.91576 48.555665 35.934288 47.596585 37.920747 46.584447 C 39.905714 45.534116 41.815052 44.34988 43.753034 43.216929 C 45.461968 42.160768 47.157108 41.064853 48.716936 39.795476 C 50.241076 38.513997 51.789887 37.26173 53.25 35.90625 C 53.98493 35.183823 54.901661 34.606973 55.415039 33.691546 C 55.847504 33.018726 56.070842 32.197485 55.875 31.40625 C 55.682246 30.518498 55.115364 29.789614 54.454462 29.194105 C 53.107991 28.023451 51.812424 26.7949 50.4375 25.65625 C 48.847631 24.275275 47.192948 22.965716 45.412308 21.837372 C 43.662117 20.736938 41.893983 19.662609 40.120198 18.601009 C 37.770653 17.311741 35.355546 16.142408 32.899137 15.072439 C 30.893843 14.237884 28.800688 13.645191 26.730666 12.997325 C 25.591773 12.695552 24.476912 12.286967 23.3125 12.09375 C 22.605901 12.024127 21.896902 11.973316 21.1875 12.03125 z "
       style="fill:#0d0000" />
    <path
       style="fill:#0d0000"
       d="M 21.1875 12.03125 C 19.524599 12.06708 17.917046 12.564267 16.34375 13.0625 C 15.260744 13.531174 14.149089 14.047217 13.34375 14.9375 C 12.237546 16.019226 11.450823 17.374012 10.668246 18.694758 C 10.27824 19.584965 9.5702759 20.46495 9.7827015 21.492358 C 9.8923442 22.494388 10.480717 23.388765 11.08451 24.172735 C 11.755132 25.020446 12.503696 25.802919 13.06978 26.728065 C 14.164333 28.285936 15.015531 30.11105 15.022831 32.047946 C 15.04468 32.921142 14.829508 33.784548 14.555783 34.606696 C 14.162978 35.599932 13.620262 36.53104 13.040334 37.424523 C 12.082076 38.780785 11.098408 40.12225 10.21875 41.53125 C 9.7656289 42.542097 9.743771 43.749777 10.401511 44.678023 C 11.039952 46.081872 11.902055 47.369808 12.875 48.5625 C 13.855495 49.580895 14.979782 50.52816 16.358357 50.939592 C 17.375582 51.351166 18.460314 51.567217 19.528813 51.803186 C 20.520979 51.986307 21.549235 52.012783 22.556689 51.979812 C 23.526247 51.948571 24.441898 51.645128 25.357665 51.355833 C 27.528579 50.731816 29.686587 50.061642 31.826627 49.339992 C 33.91576 48.555665 35.934288 47.596585 37.920747 46.584447 C 39.905714 45.534116 41.815052 44.34988 43.753034 43.216929 C 45.461968 42.160768 47.157108 41.064853 48.716936 39.795476 C 50.241076 38.513997 51.789887 37.26173 53.25 35.90625 C 53.98493 35.183823 54.901661 34.606973 55.415039 33.691546 C 55.847504 33.018726 56.070842 32.197485 55.875 31.40625 C 55.682246 30.518498 55.115364 29.789614 54.454462 29.194105 C 53.107991 28.023451 51.812424 26.7949 50.4375 25.65625 C 48.847631 24.275275 47.192948 22.965716 45.412308 21.837372 C 43.662117 20.736938 41.893983 19.662609 40.120198 18.601009 C 37.770653 17.311741 35.355546 16.142408 32.899137 15.072439 C 30.893843 14.237884 28.800688 13.645191 26.730666 12.997325 C 25.591773 12.695552 24.476912 12.286967 23.3125 12.09375 C 22.605901 12.024127 21.896902 11.973316 21.1875 12.03125 z "
       id="path2866" />
    <path
       style="fill:#0d0000"
       d="M 21.1875 12.03125 C 19.524599 12.06708 17.917046 12.564267 16.34375 13.0625 C 15.260744 13.531174 14.149089 14.047217 13.34375 14.9375 C 12.237546 16.019226 11.450823 17.374012 10.668246 18.694758 C 10.27824 19.584965 9.5702759 20.46495 9.7827015 21.492358 C 9.8923442 22.494388 10.480717 23.388765 11.08451 24.172735 C 11.755132 25.020446 12.503696 25.802919 13.06978 26.728065 C 14.164333 28.285936 15.015531 30.11105 15.022831 32.047946 C 15.04468 32.921142 14.829508 33.784548 14.555783 34.606696 C 14.162978 35.599932 13.620262 36.53104 13.040334 37.424523 C 12.082076 38.780785 11.098408 40.12225 10.21875 41.53125 C 9.7656289 42.542097 9.743771 43.749777 10.401511 44.678023 C 11.039952 46.081872 11.902055 47.369808 12.875 48.5625 C 13.855495 49.580895 14.979782 50.52816 16.358357 50.939592 C 17.375582 51.351166 18.460314 51.567217 19.528813 51.803186 C 20.520979 51.986307 21.549235 52.012783 22.556689 51.979812 C 23.526247 51.948571 24.441898 51.645128 25.357665 51.355833 C 27.528579 50.731816 29.686587 50.061642 31.826627 49.339992 C 33.91576 48.555665 35.934288 47.596585 37.920747 46.584447 C 39.905714 45.534116 41.815052 44.34988 43.753034 43.216929 C 45.461968 42.160768 47.157108 41.064853 48.716936 39.795476 C 50.241076 38.513997 51.789887 37.26173 53.25 35.90625 C 53.98493 35.183823 54.901661 34.606973 55.415039 33.691546 C 55.847504 33.018726 56.070842 32.197485 55.875 31.40625 C 55.682246 30.518498 55.115364 29.789614 54.454462 29.194105 C 53.107991 28.023451 51.812424 26.7949 50.4375 25.65625 C 48.847631 24.275275 47.192948 22.965716 45.412308 21.837372 C 43.662117 20.736938 41.893983 19.662609 40.120198 18.601009 C 37.770653 17.311741 35.355546 16.142408 32.899137 15.072439 C 30.893843 14.237884 28.800688 13.645191 26.730666 12.997325 C 25.591773 12.695552 24.476912 12.286967 23.3125 12.09375 C 22.605901 12.024127 21.896902 11.973316 21.1875 12.03125 z "
       id="path2868" />
    <path
       id="path2870"
       d="M 21.1875 12.03125 C 19.524599 12.06708 17.917046 12.564267 16.34375 13.0625 C 15.260744 13.531174 14.149089 14.047217 13.34375 14.9375 C 12.237546 16.019226 11.450823 17.374012 10.668246 18.694758 C 10.27824 19.584965 9.5702759 20.46495 9.7827015 21.492358 C 9.8923442 22.494388 10.480717 23.388765 11.08451 24.172735 C 11.755132 25.020446 12.503696 25.802919 13.06978 26.728065 C 14.164333 28.285936 15.015531 30.11105 15.022831 32.047946 C 15.04468 32.921142 14.829508 33.784548 14.555783 34.606696 C 14.162978 35.599932 13.620262 36.53104 13.040334 37.424523 C 12.082076 38.780785 11.098408 40.12225 10.21875 41.53125 C 9.7656289 42.542097 9.743771 43.749777 10.401511 44.678023 C 11.039952 46.081872 11.902055 47.369808 12.875 48.5625 C 13.855495 49.580895 14.979782 50.52816 16.358357 50.939592 C 17.375582 51.351166 18.460314 51.567217 19.528813 51.803186 C 20.520979 51.986307 21.549235 52.012783 22.556689 51.979812 C 23.526247 51.948571 24.441898 51.645128 25.357665 51.355833 C 27.528579 50.731816 29.686587 50.061642 31.826627 49.339992 C 33.91576 48.555665 35.934288 47.596585 37.920747 46.584447 C 39.905714 45.534116 41.815052 44.34988 43.753034 43.216929 C 45.461968 42.160768 47.157108 41.064853 48.716936 39.795476 C 50.241076 38.513997 51.789887 37.26173 53.25 35.90625 C 53.98493 35.183823 54.901661 34.606973 55.415039 33.691546 C 55.847504 33.018726 56.070842 32.197485 55.875 31.40625 C 55.682246 30.518498 55.115364 29.789614 54.454462 29.194105 C 53.107991 28.023451 51.812424 26.7949 50.4375 25.65625 C 48.847631 24.275275 47.192948 22.965716 45.412308 21.837372 C 43.662117 20.736938 41.893983 19.662609 40.120198 18.601009 C 37.770653 17.311741 35.355546 16.142408 32.899137 15.072439 C 30.893843 14.237884 28.800688 13.645191 26.730666 12.997325 C 25.591773 12.695552 24.476912 12.286967 23.3125 12.09375 C 22.605901 12.024127 21.896902 11.973316 21.1875 12.03125 z "
       style="fill:#0d0000" />
    <path
       style="fill:#0d0000"
       d="M 21.1875 12.03125 C 19.524599 12.06708 17.917046 12.564267 16.34375 13.0625 C 15.260744 13.531174 14.149089 14.047217 13.34375 14.9375 C 12.237546 16.019226 11.450823 17.374012 10.668246 18.694758 C 10.27824 19.584965 9.5702759 20.46495 9.7827015 21.492358 C 9.8923442 22.494388 10.480717 23.388765 11.08451 24.172735 C 11.755132 25.020446 12.503696 25.802919 13.06978 26.728065 C 14.164333 28.285936 15.015531 30.11105 15.022831 32.047946 C 15.04468 32.921142 14.829508 33.784548 14.555783 34.606696 C 14.162978 35.599932 13.620262 36.53104 13.040334 37.424523 C 12.082076 38.780785 11.098408 40.12225 10.21875 41.53125 C 9.7656289 42.542097 9.743771 43.749777 10.401511 44.678023 C 11.039952 46.081872 11.902055 47.369808 12.875 48.5625 C 13.855495 49.580895 14.979782 50.52816 16.358357 50.939592 C 17.375582 51.351166 18.460314 51.567217 19.528813 51.803186 C 20.520979 51.986307 21.549235 52.012783 22.556689 51.979812 C 23.526247 51.948571 24.441898 51.645128 25.357665 51.355833 C 27.528579 50.731816 29.686587 50.061642 31.826627 49.339992 C 33.91576 48.555665 35.934288 47.596585 37.920747 46.584447 C 39.905714 45.534116 41.815052 44.34988 43.753034 43.216929 C 45.461968 42.160768 47.157108 41.064853 48.716936 39.795476 C 50.241076 38.513997 51.789887 37.26173 53.25 35.90625 C 53.98493 35.183823 54.901661 34.606973 55.415039 33.691546 C 55.847504 33.018726 56.070842 32.197485 55.875 31.40625 C 55.682246 30.518498 55.115364 29.789614 54.454462 29.194105 C 53.107991 28.023451 51.812424 26.7949 50.4375 25.65625 C 48.847631 24.275275 47.192948 22.965716 45.412308 21.837372 C 43.662117 20.736938 41.893983 19.662609 40.120198 18.601009 C 37.770653 17.311741 35.355546 16.142408 32.899137 15.072439 C 30.893843 14.237884 28.800688 13.645191 26.730666 12.997325 C 25.591773 12.695552 24.476912 12.286967 23.3125 12.09375 C 22.605901 12.024127 21.896902 11.973316 21.1875 12.03125 z "
       id="path2872" />
    <path
       style="fill:#0d0000"
       d="M 21.1875 12.03125 C 19.524599 12.06708 17.917046 12.564267 16.34375 13.0625 C 15.260744 13.531174 14.149089 14.047217 13.34375 14.9375 C 12.237546 16.019226 11.450823 17.374012 10.668246 18.694758 C 10.27824 19.584965 9.5702759 20.46495 9.7827015 21.492358 C 9.8923442 22.494388 10.480717 23.388765 11.08451 24.172735 C 11.755132 25.020446 12.503696 25.802919 13.06978 26.728065 C 14.164333 28.285936 15.015531 30.11105 15.022831 32.047946 C 15.04468 32.921142 14.829508 33.784548 14.555783 34.606696 C 14.162978 35.599932 13.620262 36.53104 13.040334 37.424523 C 12.082076 38.780785 11.098408 40.12225 10.21875 41.53125 C 9.7656289 42.542097 9.743771 43.749777 10.401511 44.678023 C 11.039952 46.081872 11.902055 47.369808 12.875 48.5625 C 13.855495 49.580895 14.979782 50.52816 16.358357 50.939592 C 17.375582 51.351166 18.460314 51.567217 19.528813 51.803186 C 20.520979 51.986307 21.549235 52.012783 22.556689 51.979812 C 23.526247 51.948571 24.441898 51.645128 25.357665 51.355833 C 27.528579 50.731816 29.686587 50.061642 31.826627 49.339992 C 33.91576 48.555665 35.934288 47.596585 37.920747 46.584447 C 39.905714 45.534116 41.815052 44.34988 43.753034 43.216929 C 45.461968 42.160768 47.157108 41.064853 48.716936 39.795476 C 50.241076 38.513997 51.789887 37.26173 53.25 35.90625 C 53.98493 35.183823 54.901661 34.606973 55.415039 33.691546 C 55.847504 33.018726 56.070842 32.197485 55.875 31.40625 C 55.682246 30.518498 55.115364 29.789614 54.454462 29.194105 C 53.107991 28.023451 51.812424 26.7949 50.4375 25.65625 C 48.847631 24.275275 47.192948 22.965716 45.412308 21.837372 C 43.662117 20.736938 41.893983 19.662609 40.120198 18.601009 C 37.770653 17.311741 35.355546 16.142408 32.899137 15.072439 C 30.893843 14.237884 28.800688 13.645191 26.730666 12.997325 C 25.591773 12.695552 24.476912 12.286967 23.3125 12.09375 C 22.605901 12.024127 21.896902 11.973316 21.1875 12.03125 z "
       id="path2874" />
    <path
       id="path2876"
       d="M 21.1875 12.03125 C 19.524599 12.06708 17.917046 12.564267 16.34375 13.0625 C 15.260744 13.531174 14.149089 14.047217 13.34375 14.9375 C 12.237546 16.019226 11.450823 17.374012 10.668246 18.694758 C 10.27824 19.584965 9.5702759 20.46495 9.7827015 21.492358 C 9.8923442 22.494388 10.480717 23.388765 11.08451 24.172735 C 11.755132 25.020446 12.503696 25.802919 13.06978 26.728065 C 14.164333 28.285936 15.015531 30.11105 15.022831 32.047946 C 15.04468 32.921142 14.829508 33.784548 14.555783 34.606696 C 14.162978 35.599932 13.620262 36.53104 13.040334 37.424523 C 12.082076 38.780785 11.098408 40.12225 10.21875 41.53125 C 9.7656289 42.542097 9.743771 43.749777 10.401511 44.678023 C 11.039952 46.081872 11.902055 47.369808 12.875 48.5625 C 13.855495 49.580895 14.979782 50.52816 16.358357 50.939592 C 17.375582 51.351166 18.460314 51.567217 19.528813 51.803186 C 20.520979 51.986307 21.549235 52.012783 22.556689 51.979812 C 23.526247 51.948571 24.441898 51.645128 25.357665 51.355833 C 27.528579 50.731816 29.686587 50.061642 31.826627 49.339992 C 33.91576 48.555665 35.934288 47.596585 37.920747 46.584447 C 39.905714 45.534116 41.815052 44.34988 43.753034 43.216929 C 45.461968 42.160768 47.157108 41.064853 48.716936 39.795476 C 50.241076 38.513997 51.789887 37.26173 53.25 35.90625 C 53.98493 35.183823 54.901661 34.606973 55.415039 33.691546 C 55.847504 33.018726 56.070842 32.197485 55.875 31.40625 C 55.682246 30.518498 55.115364 29.789614 54.454462 29.194105 C 53.107991 28.023451 51.812424 26.7949 50.4375 25.65625 C 48.847631 24.275275 47.192948 22.965716 45.412308 21.837372 C 43.662117 20.736938 41.893983 19.662609 40.120198 18.601009 C 37.770653 17.311741 35.355546 16.142408 32.899137 15.072439 C 30.893843 14.237884 28.800688 13.645191 26.730666 12.997325 C 25.591773 12.695552 24.476912 12.286967 23.3125 12.09375 C 22.605901 12.024127 21.896902 11.973316 21.1875 12.03125 z "
       style="fill:#0d0000" />
    <path
       style="fill:#0d0000"
       d="M 21.1875 12.03125 C 19.524599 12.06708 17.917046 12.564267 16.34375 13.0625 C 15.260744 13.531174 14.149089 14.047217 13.34375 14.9375 C 12.237546 16.019226 11.450823 17.374012 10.668246 18.694758 C 10.27824 19.584965 9.5702759 20.46495 9.7827015 21.492358 C 9.8923442 22.494388 10.480717 23.388765 11.08451 24.172735 C 11.755132 25.020446 12.503696 25.802919 13.06978 26.728065 C 14.164333 28.285936 15.015531 30.11105 15.022831 32.047946 C 15.04468 32.921142 14.829508 33.784548 14.555783 34.606696 C 14.162978 35.599932 13.620262 36.53104 13.040334 37.424523 C 12.082076 38.780785 11.098408 40.12225 10.21875 41.53125 C 9.7656289 42.542097 9.743771 43.749777 10.401511 44.678023 C 11.039952 46.081872 11.902055 47.369808 12.875 48.5625 C 13.855495 49.580895 14.979782 50.52816 16.358357 50.939592 C 17.375582 51.351166 18.460314 51.567217 19.528813 51.803186 C 20.520979 51.986307 21.549235 52.012783 22.556689 51.979812 C 23.526247 51.948571 24.441898 51.645128 25.357665 51.355833 C 27.528579 50.731816 29.686587 50.061642 31.826627 49.339992 C 33.91576 48.555665 35.934288 47.596585 37.920747 46.584447 C 39.905714 45.534116 41.815052 44.34988 43.753034 43.216929 C 45.461968 42.160768 47.157108 41.064853 48.716936 39.795476 C 50.241076 38.513997 51.789887 37.26173 53.25 35.90625 C 53.98493 35.183823 54.901661 34.606973 55.415039 33.691546 C 55.847504 33.018726 56.070842 32.197485 55.875 31.40625 C 55.682246 30.518498 55.115364 29.789614 54.454462 29.194105 C 53.107991 28.023451 51.812424 26.7949 50.4375 25.65625 C 48.847631 24.275275 47.192948 22.965716 45.412308 21.837372 C 43.662117 20.736938 41.893983 19.662609 40.120198 18.601009 C 37.770653 17.311741 35.355546 16.142408 32.899137 15.072439 C 30.893843 14.237884 28.800688 13.645191 26.730666 12.997325 C 25.591773 12.695552 24.476912 12.286967 23.3125 12.09375 C 22.605901 12.024127 21.896902 11.973316 21.1875 12.03125 z "
       id="path2878" />
    <path
       id="path2880"
       d="M 21.1875 12.03125 C 19.524599 12.06708 17.917046 12.564267 16.34375 13.0625 C 15.260744 13.531174 14.149089 14.047217 13.34375 14.9375 C 12.237546 16.019226 11.450823 17.374012 10.668246 18.694758 C 10.27824 19.584965 9.5702759 20.46495 9.7827015 21.492358 C 9.8923442 22.494388 10.480717 23.388765 11.08451 24.172735 C 11.755132 25.020446 12.503696 25.802919 13.06978 26.728065 C 14.164333 28.285936 15.015531 30.11105 15.022831 32.047946 C 15.04468 32.921142 14.829508 33.784548 14.555783 34.606696 C 14.162978 35.599932 13.620262 36.53104 13.040334 37.424523 C 12.082076 38.780785 11.098408 40.12225 10.21875 41.53125 C 9.7656289 42.542097 9.743771 43.749777 10.401511 44.678023 C 11.039952 46.081872 11.902055 47.369808 12.875 48.5625 C 13.855495 49.580895 14.979782 50.52816 16.358357 50.939592 C 17.375582 51.351166 18.460314 51.567217 19.528813 51.803186 C 20.520979 51.986307 21.549235 52.012783 22.556689 51.979812 C 23.526247 51.948571 24.441898 51.645128 25.357665 51.355833 C 27.528579 50.731816 29.686587 50.061642 31.826627 49.339992 C 33.91576 48.555665 35.934288 47.596585 37.920747 46.584447 C 39.905714 45.534116 41.815052 44.34988 43.753034 43.216929 C 45.461968 42.160768 47.157108 41.064853 48.716936 39.795476 C 50.241076 38.513997 51.789887 37.26173 53.25 35.90625 C 53.98493 35.183823 54.901661 34.606973 55.415039 33.691546 C 55.847504 33.018726 56.070842 32.197485 55.875 31.40625 C 55.682246 30.518498 55.115364 29.789614 54.454462 29.194105 C 53.107991 28.023451 51.812424 26.7949 50.4375 25.65625 C 48.847631 24.275275 47.192948 22.965716 45.412308 21.837372 C 43.662117 20.736938 41.893983 19.662609 40.120198 18.601009 C 37.770653 17.311741 35.355546 16.142408 32.899137 15.072439 C 30.893843 14.237884 28.800688 13.645191 26.730666 12.997325 C 25.591773 12.695552 24.476912 12.286967 23.3125 12.09375 C 22.605901 12.024127 21.896902 11.973316 21.1875 12.03125 z "
       style="fill:#0d0000" />
    <path
       id="path2882"
       d="M 21.1875 12.03125 C 19.524599 12.06708 17.917046 12.564267 16.34375 13.0625 C 15.260744 13.531174 14.149089 14.047217 13.34375 14.9375 C 12.237546 16.019226 11.450823 17.374012 10.668246 18.694758 C 10.27824 19.584965 9.5702759 20.46495 9.7827015 21.492358 C 9.8923442 22.494388 10.480717 23.388765 11.08451 24.172735 C 11.755132 25.020446 12.503696 25.802919 13.06978 26.728065 C 14.164333 28.285936 15.015531 30.11105 15.022831 32.047946 C 15.04468 32.921142 14.829508 33.784548 14.555783 34.606696 C 14.162978 35.599932 13.620262 36.53104 13.040334 37.424523 C 12.082076 38.780785 11.098408 40.12225 10.21875 41.53125 C 9.7656289 42.542097 9.743771 43.749777 10.401511 44.678023 C 11.039952 46.081872 11.902055 47.369808 12.875 48.5625 C 13.855495 49.580895 14.979782 50.52816 16.358357 50.939592 C 17.375582 51.351166 18.460314 51.567217 19.528813 51.803186 C 20.520979 51.986307 21.549235 52.012783 22.556689 51.979812 C 23.526247 51.948571 24.441898 51.645128 25.357665 51.355833 C 27.528579 50.731816 29.686587 50.061642 31.826627 49.339992 C 33.91576 48.555665 35.934288 47.596585 37.920747 46.584447 C 39.905714 45.534116 41.815052 44.34988 43.753034 43.216929 C 45.461968 42.160768 47.157108 41.064853 48.716936 39.795476 C 50.241076 38.513997 51.789887 37.26173 53.25 35.90625 C 53.98493 35.183823 54.901661 34.606973 55.415039 33.691546 C 55.847504 33.018726 56.070842 32.197485 55.875 31.40625 C 55.682246 30.518498 55.115364 29.789614 54.454462 29.194105 C 53.107991 28.023451 51.812424 26.7949 50.4375 25.65625 C 48.847631 24.275275 47.192948 22.965716 45.412308 21.837372 C 43.662117 20.736938 41.893983 19.662609 40.120198 18.601009 C 37.770653 17.311741 35.355546 16.142408 32.899137 15.072439 C 30.893843 14.237884 28.800688 13.645191 26.730666 12.997325 C 25.591773 12.695552 24.476912 12.286967 23.3125 12.09375 C 22.605901 12.024127 21.896902 11.973316 21.1875 12.03125 z "
       style="fill:#0d0000" />
    <path
       style="fill:#0d0000"
       d="M 21.1875 12.03125 C 19.524599 12.06708 17.917046 12.564267 16.34375 13.0625 C 15.260744 13.531174 14.149089 14.047217 13.34375 14.9375 C 12.237546 16.019226 11.450823 17.374012 10.668246 18.694758 C 10.27824 19.584965 9.5702759 20.46495 9.7827015 21.492358 C 9.8923442 22.494388 10.480717 23.388765 11.08451 24.172735 C 11.755132 25.020446 12.503696 25.802919 13.06978 26.728065 C 14.164333 28.285936 15.015531 30.11105 15.022831 32.047946 C 15.04468 32.921142 14.829508 33.784548 14.555783 34.606696 C 14.162978 35.599932 13.620262 36.53104 13.040334 37.424523 C 12.082076 38.780785 11.098408 40.12225 10.21875 41.53125 C 9.7656289 42.542097 9.743771 43.749777 10.401511 44.678023 C 11.039952 46.081872 11.902055 47.369808 12.875 48.5625 C 13.855495 49.580895 14.979782 50.52816 16.358357 50.939592 C 17.375582 51.351166 18.460314 51.567217 19.528813 51.803186 C 20.520979 51.986307 21.549235 52.012783 22.556689 51.979812 C 23.526247 51.948571 24.441898 51.645128 25.357665 51.355833 C 27.528579 50.731816 29.686587 50.061642 31.826627 49.339992 C 33.91576 48.555665 35.934288 47.596585 37.920747 46.584447 C 39.905714 45.534116 41.815052 44.34988 43.753034 43.216929 C 45.461968 42.160768 47.157108 41.064853 48.716936 39.795476 C 50.241076 38.513997 51.789887 37.26173 53.25 35.90625 C 53.98493 35.183823 54.901661 34.606973 55.415039 33.691546 C 55.847504 33.018726 56.070842 32.197485 55.875 31.40625 C 55.682246 30.518498 55.115364 29.789614 54.454462 29.194105 C 53.107991 28.023451 51.812424 26.7949 50.4375 25.65625 C 48.847631 24.275275 47.192948 22.965716 45.412308 21.837372 C 43.662117 20.736938 41.893983 19.662609 40.120198 18.601009 C 37.770653 17.311741 35.355546 16.142408 32.899137 15.072439 C 30.893843 14.237884 28.800688 13.645191 26.730666 12.997325 C 25.591773 12.695552 24.476912 12.286967 23.3125 12.09375 C 22.605901 12.024127 21.896902 11.973316 21.1875 12.03125 z "
       id="path2884" />
    <path
       id="path2886"
       d="M 21.1875 12.03125 C 19.524599 12.06708 17.917046 12.564267 16.34375 13.0625 C 15.260744 13.531174 14.149089 14.047217 13.34375 14.9375 C 12.237546 16.019226 11.450823 17.374012 10.668246 18.694758 C 10.27824 19.584965 9.5702759 20.46495 9.7827015 21.492358 C 9.8923442 22.494388 10.480717 23.388765 11.08451 24.172735 C 11.755132 25.020446 12.503696 25.802919 13.06978 26.728065 C 14.164333 28.285936 15.015531 30.11105 15.022831 32.047946 C 15.04468 32.921142 14.829508 33.784548 14.555783 34.606696 C 14.162978 35.599932 13.620262 36.53104 13.040334 37.424523 C 12.082076 38.780785 11.098408 40.12225 10.21875 41.53125 C 9.7656289 42.542097 9.743771 43.749777 10.401511 44.678023 C 11.039952 46.081872 11.902055 47.369808 12.875 48.5625 C 13.855495 49.580895 14.979782 50.52816 16.358357 50.939592 C 17.375582 51.351166 18.460314 51.567217 19.528813 51.803186 C 20.520979 51.986307 21.549235 52.012783 22.556689 51.979812 C 23.526247 51.948571 24.441898 51.645128 25.357665 51.355833 C 27.528579 50.731816 29.686587 50.061642 31.826627 49.339992 C 33.91576 48.555665 35.934288 47.596585 37.920747 46.584447 C 39.905714 45.534116 41.815052 44.34988 43.753034 43.216929 C 45.461968 42.160768 47.157108 41.064853 48.716936 39.795476 C 50.241076 38.513997 51.789887 37.26173 53.25 35.90625 C 53.98493 35.183823 54.901661 34.606973 55.415039 33.691546 C 55.847504 33.018726 56.070842 32.197485 55.875 31.40625 C 55.682246 30.518498 55.115364 29.789614 54.454462 29.194105 C 53.107991 28.023451 51.812424 26.7949 50.4375 25.65625 C 48.847631 24.275275 47.192948 22.965716 45.412308 21.837372 C 43.662117 20.736938 41.893983 19.662609 40.120198 18.601009 C 37.770653 17.311741 35.355546 16.142408 32.899137 15.072439 C 30.893843 14.237884 28.800688 13.645191 26.730666 12.997325 C 25.591773 12.695552 24.476912 12.286967 23.3125 12.09375 C 22.605901 12.024127 21.896902 11.973316 21.1875 12.03125 z "
       style="fill:#3e0000" />
  </g>
</svg>
